<?xml version="1.0" encoding="UTF-8" standalone="no"?>
<!-- Created with Inkscape (http://www.inkscape.org/) -->

<svg
   width="210mm"
   height="297mm"
   viewBox="0 0 210 297"
   version="1.1"
   id="svg1"
   xml:space="preserve"
   inkscape:version="1.4.2 (ebf0e94, 2025-05-08)"
   sodipodi:docname="Be 7.svg"
   xmlns:inkscape="http://www.inkscape.org/namespaces/inkscape"
   xmlns:sodipodi="http://sodipodi.sourceforge.net/DTD/sodipodi-0.dtd"
   xmlns:xlink="http://www.w3.org/1999/xlink"
   xmlns="http://www.w3.org/2000/svg"
   xmlns:svg="http://www.w3.org/2000/svg"><sodipodi:namedview
     id="namedview1"
     pagecolor="#ffffff"
     bordercolor="#000000"
     borderopacity="0.25"
     inkscape:showpageshadow="2"
     inkscape:pageopacity="0.0"
     inkscape:pagecheckerboard="0"
     inkscape:deskcolor="#d1d1d1"
     inkscape:document-units="mm"
     showguides="true"
     inkscape:zoom="3.23"
     inkscape:cx="367.18266"
     inkscape:cy="536.68731"
     inkscape:window-width="1916"
     inkscape:window-height="2041"
     inkscape:window-x="-9"
     inkscape:window-y="0"
     inkscape:window-maximized="0"
     inkscape:current-layer="layer1"><sodipodi:guide
       position="128.78182,216.16364"
       orientation="0,-1"
       id="guide1"
       inkscape:locked="false" /></sodipodi:namedview><defs
     id="defs1" /><g
     inkscape:label="Ebene 1"
     inkscape:groupmode="layer"
     id="layer1"><path
       style="fill:none;stroke:#000000;stroke-width:0.264999"
       d="m 111.23968,200.69014 h -6.22549 l -1.47446,-0.49148 -0.73723,-0.40958 -1.1468,-0.0819 h -1.1468 l -1.392545,-0.81914 -2.703174,-7.94569 -4.0138,-4.66912 -6.635062,-6.55315 -4.751033,-5.40635 -2.375517,-3.93188 -3.194658,-11.46801 -0.982972,-9.01058 -0.491488,-12.36907 0.573403,-12.53289 2.375514,-9.74781 2.948918,-6.55315 6.716975,-8.19143 0.08191,-5.242518 -0.08191,-4.751033 c 0,0 0.901057,-4.013803 0.901057,-4.587203 0,-0.5734 0.655314,-3.849973 0.655314,-3.849973 l -1.146799,-1.47446 -1.146802,0.327658 -0.5734,1.638287 -0.982972,7.454206 -0.08192,6.716975 0.16383,2.867003 -4.91486,6.307408 -3.276574,6.47123 -2.047859,6.8808 -1.720201,7.45421 0.08192,9.74781 -0.245743,13.1882 1.228715,12.45099 2.539344,11.30418 2.785088,4.99677 3.604231,3.68614 4.259546,4.25955 3.768061,4.42338 2.867001,5.65209 c 0,0 1.884029,3.93188 1.556371,4.34146 -0.327657,0.40957 0.491488,4.09571 0.491488,4.09571 l 1.392542,0.5734 14.744581,-1.80211"
       id="path1" /></g></svg>
