<?xml version="1.0" encoding="UTF-8" standalone="no"?>
<!-- Created with Inkscape (http://www.inkscape.org/) -->

<svg
   width="210mm"
   height="297mm"
   viewBox="0 0 210 297"
   version="1.1"
   id="svg1"
   xml:space="preserve"
   inkscape:version="1.4.2 (ebf0e94, 2025-05-08)"
   sodipodi:docname="Biegert Tellertyp 2.svg"
   xmlns:inkscape="http://www.inkscape.org/namespaces/inkscape"
   xmlns:sodipodi="http://sodipodi.sourceforge.net/DTD/sodipodi-0.dtd"
   xmlns:xlink="http://www.w3.org/1999/xlink"
   xmlns="http://www.w3.org/2000/svg"
   xmlns:svg="http://www.w3.org/2000/svg"><sodipodi:namedview
     id="namedview1"
     pagecolor="#ffffff"
     bordercolor="#000000"
     borderopacity="0.25"
     inkscape:showpageshadow="2"
     inkscape:pageopacity="0.0"
     inkscape:pagecheckerboard="0"
     inkscape:deskcolor="#d1d1d1"
     inkscape:document-units="mm"
     showguides="true"
     inkscape:zoom="3.23"
     inkscape:cx="396.90402"
     inkscape:cy="511.9195"
     inkscape:window-width="1916"
     inkscape:window-height="2041"
     inkscape:window-x="-9"
     inkscape:window-y="0"
     inkscape:window-maximized="0"
     inkscape:current-layer="layer1"><sodipodi:guide
       position="128.78182,216.16364"
       orientation="0,-1"
       id="guide1"
       inkscape:locked="false" /></sodipodi:namedview><defs
     id="defs1" /><g
     inkscape:label="Ebene 1"
     inkscape:groupmode="layer"
     id="layer1"><path
       style="fill:none;stroke:#000000;stroke-width:0.264999"
       d="m 138.84481,106.40673 -7.04463,0.16383 -9.09249,0.40957 -11.14035,0.16383 -9.74781,0.73723 -6.143576,0.73723 -6.061662,0.90106 -4.013803,0.40957 -2.703174,-0.5734 -1.965944,-1.06489 -2.129772,-2.12977 c 0,0 -2.293601,-3.03083 -2.293601,-3.4404 0,-0.40957 -1.884032,-5.815921 -1.884032,-5.815921 l -1.638287,-8.355264 -0.409569,-5.242518 -0.655315,-2.375516 -0.73723,-0.245743 -0.737229,0.5734 -1.228715,0.90106 -0.491487,2.293601 0.491487,6.143575 1.802114,11.140346 2.375517,5.97975 1.884029,2.45743 c 0,0 1.638287,1.31063 1.965944,1.31063 0.327657,0 3.030831,1.06489 3.030831,1.06489 l 4.751033,0.5734 6.22549,0.16383 3.440403,-0.81915 4.75103,-0.73723 5.815918,-0.49148 7.37229,-0.32766 12.61481,-0.24574 13.6797,-0.16383"
       id="path1" /></g></svg>
