<?xml version="1.0" encoding="UTF-8" standalone="no"?>
<!-- Created with Inkscape (http://www.inkscape.org/) -->

<svg
   version="1.1"
   id="svg1"
   width="812"
   height="718"
   viewBox="0 0 812 718"
   sodipodi:docname="스크린샷 2026-02-24 171417.png"
   xmlns:inkscape="http://www.inkscape.org/namespaces/inkscape"
   xmlns:sodipodi="http://sodipodi.sourceforge.net/DTD/sodipodi-0.dtd"
   xmlns:xlink="http://www.w3.org/1999/xlink"
   xmlns="http://www.w3.org/2000/svg"
   xmlns:svg="http://www.w3.org/2000/svg">
  <defs
     id="defs1" />
  <sodipodi:namedview
     id="namedview1"
     pagecolor="#ffffff"
     bordercolor="#000000"
     borderopacity="0.25"
     inkscape:showpageshadow="2"
     inkscape:pageopacity="0.0"
     inkscape:pagecheckerboard="0"
     inkscape:deskcolor="#d1d1d1">
    <inkscape:page
       x="0"
       y="0"
       width="812"
       height="718"
       id="page2"
       margin="0"
       bleed="0" />
  </sodipodi:namedview>
  <g
     inkscape:groupmode="layer"
     id="layer1"
     inkscape:label="Image 1">
    
  </g>
  <g
     inkscape:groupmode="layer"
     inkscape:label="Image"
     id="g1">
    <path
       style="fill:#000000;fill-opacity:0;stroke:#000000"
       d="m 812.70734,530.36109 -246.831,1.18384 -30.77988,-1.77576 -23.08492,-3.55153 -34.33141,-5.91921 -34.92333,-11.24649 -21.48496,-17.67277 -15.27713,-14.64929 -22.39249,-21.55539 -11.09161,-15.06785 -26.36872,-32.647 -23.2296,-26.15945 -17.9977,-21.55539 -18.20698,-21.34611 -24.27597,-27.62439 -14.23075,-17.78842 -33.06555,-44.36644 -26.15945,-36.83251 -12.34726,-19.04408 -20.09046,-38.92526 -7.7432,-20.09046 -5.18017,-13.49321 -1.25783,-5.25329 0.29596,-4.73537 0.7399,-4.73537 0.66591,-6.955067 1.70177,-9.174773 0.7399,-3.255565 2.2937,-4.217436 c 0,0 0.44394,-4.883347 0.14798,-5.253298 -0.29596,-0.36995 -1.92375,-3.329555 -2.21971,-3.699505 -0.29596,-0.369951 -2.29369,-4.143446 -2.44167,-4.513397 -0.14798,-0.36995 -2.81162,-3.033594 -2.81162,-3.033594 l -4.36542,-0.369951 -5.54926,-0.14798 -6.51113,0.07399 -5.03133,0.07399 -3.32955,1.479802 -3.46429,2.543851 -4.39478,3.139134 -5.02262,4.394788 -4.185512,4.394788 -2.720583,3.34841 -2.825221,4.080875 -1.569567,3.139135 -2.511308,3.871599 -1.88348,5.545804 -1.778843,7.42928 -1.674205,4.91798 -1.46493,11.30089 -0.910062,9.29845 0.295961,7.10305 0.887881,9.47074 0.14798,10.06265 1.923743,9.91468 3.699505,14.05812 3.847486,6.95507 3.995466,8.58285 12.134379,21.30915 5.77123,9.32275 3.99546,6.51113 11.39448,16.42581 7.10305,11.54245 7.10305,10.5066 8.28689,12.7263 11.54246,15.83388 8.28689,11.09852 7.39901,13.31822 6.65911,10.21063 7.99093,12.7263 8.58285,12.87428 8.58286,17.46166 6.21517,11.9864 6.36315,10.80256 7.99093,10.80255 15.98186,26.9324 9.17477,16.27782 9.0268,13.31822 8.87881,14.2061 6.80709,12.57832 7.54699,11.2465 10.95054,13.91014 5.47526,9.17477 6.80709,11.09852 7.69498,8.87881 7.39901,7.99093 5.77122,7.84295 8.73084,8.43488 9.61871,7.84295 9.17477,6.21517 11.09852,5.47527 9.32275,3.99546 7.69497,2.36768 12.57832,0.73991 25.30462,0.44394 25.4526,0.44394 28.26422,-0.44394 h 19.68137 l 45.5779,-0.14798 34.77535,0.44394 h 90.71187 l 93.5235,-0.88788 46.02185,0.29596"
       id="path1" />
  </g>
</svg>
