<?xml version="1.0" encoding="UTF-8" standalone="no"?>
<!-- Created with Inkscape (http://www.inkscape.org/) -->

<svg
   version="1.1"
   id="svg1"
   width="812"
   height="718"
   viewBox="0 0 812 718"
   sodipodi:docname="스크린샷 2026-02-24 171417.png"
   inkscape:export-filename="..\..\Downloads\Biegert Tellertyp 1-2.svg"
   inkscape:export-xdpi="96"
   inkscape:export-ydpi="96"
   xml:space="preserve"
   xmlns:inkscape="http://www.inkscape.org/namespaces/inkscape"
   xmlns:sodipodi="http://sodipodi.sourceforge.net/DTD/sodipodi-0.dtd"
   xmlns:xlink="http://www.w3.org/1999/xlink"
   xmlns="http://www.w3.org/2000/svg"
   xmlns:svg="http://www.w3.org/2000/svg"><defs
     id="defs1" /><sodipodi:namedview
     id="namedview1"
     pagecolor="#ffffff"
     bordercolor="#000000"
     borderopacity="0.25"
     inkscape:showpageshadow="2"
     inkscape:pageopacity="0.0"
     inkscape:pagecheckerboard="0"
     inkscape:deskcolor="#d1d1d1"><inkscape:page
       x="0"
       y="0"
       width="812"
       height="718"
       id="page2"
       margin="0"
       bleed="0" /></sodipodi:namedview><g
     inkscape:groupmode="layer"
     id="layer2"
     inkscape:label="Layer 1"></g><g
     inkscape:groupmode="layer"
     inkscape:label="Image"
     id="g1"><path
       style="fill:#000000;fill-opacity:0;stroke:#000000"
       d="m 549.0066,641.64221 -20.42127,-1.18384 -17.46167,1.4798 -8.43487,-1.33182 -8.13891,-4.58739 -11.9864,-10.80255 -4.14345,-5.47527 -5.47526,-7.39901 -4.88335,-4.73537 -9.17477,-10.95054 -8.58286,-7.69497 -7.10305,-6.80709 -10.95053,-9.17477 -5.47527,-5.91921 -9.47074,-7.99093 -4.88334,-3.99547 -10.80256,-11.24649 -7.84295,-7.25103 -14.35408,-14.2061 -6.95507,-7.54699 -7.25103,-8.58286 -5.62325,-5.9192 -9.17477,-10.5066 -5.62325,-6.65911 -11.2465,-14.35408 -3.99546,-6.80709 -5.03133,-6.21517 -4.88335,-7.69497 -2.9596,-5.03133 -6.21517,-10.35861 -4.58739,-9.17478 -6.65911,-12.72629 -2.36768,-5.17931 -2.2197,-6.80709 -1.62779,-7.10305 -1.77576,-6.95507 -1.03586,-7.69497 -0.29596,-5.47527 -0.44394,-6.80709 -0.7399,-15.6859 0.7399,-9.47074 1.18384,-5.03133 1.03586,-6.80708 1.33182,-9.0268 1.92375,-13.31822 2.2197,-9.32275 4.14345,-11.54246 3.10758,-9.76669 3.25557,-6.21517 3.55152,-8.43487 3.99547,-8.73084 3.84748,-7.69497 3.84749,-7.39901 4.29142,-7.10305 4.73537,-6.36315 4.14345,-5.32728 3.99546,-6.80709 3.99547,-7.10305 3.55152,-5.17931 4.29143,-5.91921 6.36315,-10.06266 5.77123,-8.43487 5.47527,-6.65911 7.54699,-9.17477 5.62324,-4.43941 4.14345,-2.9596 4.73537,-1.33182 5.47527,-0.14798 3.47753,-0.074 2.51566,-2.51567 1.77577,-2.66364 1.62778,-2.66364 2.44167,-6.06719 1.25783,-3.62552 1.5538,-4.21744 0.96187,-3.32955 -0.22197,-3.47754 -2.21971,-2.58965 -2.07172,-0.96187 -2.51566,-0.36995 -3.47754,1.25783 -3.18157,1.92374 -2.07172,1.5538 -2.36769,0.96187 -4.06945,-0.22197 -4.21744,-1.18384 -2.2197,-1.10986 -3.10759,-0.7399 -2.9596,0.66591 -3.32956,1.77577 -2.51566,0.96187 -2.66364,1.4798 -2.21971,1.03586 -0.88788,0.66591 -2.9596,-0.29596 -1.99774,-1.33182 -1.99773,-0.7399 h -1.70177 -3.18158 l -1.99773,0.81389 -2.14571,1.33182 -1.77576,1.4798 -1.25784,1.33183 -1.77576,2.14571 -0.14798,1.4798 -0.29596,1.70177 1.92374,2.14572 1.99774,1.77576 2.36768,1.18384 1.77576,0.66591 4.88335,0.074 h 3.47753 l 2.58966,-1.18384 0.51793,-0.29596 3.32955,-0.29596 2.07173,0.22197 1.99773,0.59192 1.33182,0.81389 0.96187,1.18384 1.03586,1.40582 v 1.33182 l -1.03586,1.4798 -3.55152,3.32955 -3.69951,4.80936 -1.62778,1.99773 -3.18157,4.66138 -5.03133,8.80482 -3.47754,5.32729 -3.32955,3.55153 -2.44168,3.62551 -2.58965,3.40355 -2.73763,3.47753 -5.32729,7.91694 -3.40355,4.5134 -5.10531,7.39901 -2.66365,4.5134 -5.62325,8.06492 -3.10758,4.95734 -6.06719,12.35634 -1.92374,4.58739 -1.77576,4.5134 -2.88562,8.36088 -1.92374,4.06946 -1.18384,1.99773 0.14798,4.14344 -0.51793,1.03587 -1.99774,2.07172 -1.4798,1.99773 -0.36995,2.21971 -0.29596,2.73763 v 2.9596 l -0.22197,2.36769 -2.15758,0.69595 -1.67421,5.54581 -1.15101,3.97623 -1.36029,5.33653 c 0,0 -0.88942,4.23783 -0.83711,4.44711 0.0523,0.20927 -1.77884,7.4816 -1.77884,7.4816 l -2.72058,11.92871 -1.25566,5.85972 -0.52318,10.35914 -0.73247,6.9061 0.20928,23.54351 0.8371,6.69682 3.97624,21.76466 2.40667,9.10349 3.66232,9.10349 3.34841,8.78958 3.76696,7.42928 3.24377,8.26639 4.08088,8.37103 5.23189,8.78957 16.35301,22.71492 10.65457,13.91014 15.53793,17.90561 10.50659,13.02226 9.32275,9.61871 17.16571,18.05359 8.43487,9.02679 12.13438,12.7263 7.54699,11.09852 24.56472,28.11624 5.32728,8.13891 4.58739,6.95507 3.84749,8.28689 2.51566,4.43941 0.44394,3.10758 3.55153,3.55153 1.62778,2.07172 0.14798,5.47527 1.33182,5.32728 1.18384,2.95961 5.32729,-0.88788 8.43487,-0.44394 8.73083,-1.03586 7.10305,-1.03587 7.25104,-0.7399 12.57831,0.14798 9.7667,-0.29596 10.50659,0.14798 9.32276,-0.59192"
       id="path1" /></g></svg>
