<?xml version="1.0" encoding="UTF-8" standalone="no"?>
<!-- Created with Inkscape (http://www.inkscape.org/) -->

<svg
   width="210mm"
   height="297mm"
   viewBox="0 0 210 297"
   version="1.1"
   id="svg1"
   xml:space="preserve"
   inkscape:version="1.4.2 (ebf0e94, 2025-05-08)"
   sodipodi:docname="Biegert Topftyp 1.svg"
   xmlns:inkscape="http://www.inkscape.org/namespaces/inkscape"
   xmlns:sodipodi="http://sodipodi.sourceforge.net/DTD/sodipodi-0.dtd"
   xmlns:xlink="http://www.w3.org/1999/xlink"
   xmlns="http://www.w3.org/2000/svg"
   xmlns:svg="http://www.w3.org/2000/svg"><sodipodi:namedview
     id="namedview1"
     pagecolor="#ffffff"
     bordercolor="#000000"
     borderopacity="0.25"
     inkscape:showpageshadow="2"
     inkscape:pageopacity="0.0"
     inkscape:pagecheckerboard="0"
     inkscape:deskcolor="#d1d1d1"
     inkscape:document-units="mm"
     showguides="true"
     inkscape:zoom="3.23"
     inkscape:cx="367.18266"
     inkscape:cy="511.9195"
     inkscape:window-width="1916"
     inkscape:window-height="2041"
     inkscape:window-x="-9"
     inkscape:window-y="0"
     inkscape:window-maximized="0"
     inkscape:current-layer="layer1"><sodipodi:guide
       position="128.78182,216.16364"
       orientation="0,-1"
       id="guide1"
       inkscape:locked="false" /></sodipodi:namedview><defs
     id="defs1" /><g
     inkscape:label="Ebene 1"
     inkscape:groupmode="layer"
     id="layer1"><path
       style="fill:none;stroke:#000000;stroke-width:0.264999"
       d="m 112.22265,188.64873 -5.57017,-0.49148 -7.699952,-0.16383 -3.276574,-0.90106 -1.228717,-0.73723 -3.030828,-4.83294 -4.587206,-6.30741 -5.734002,-6.14357 -6.880805,-6.38932 -4.259548,-4.66912 -3.768058,-5.734 -3.849973,-6.88081 -2.703174,-6.71698 -1.638287,-6.38932 0.08191,-6.8808 0.982972,-7.53612 2.211689,-6.38932 2.211686,-4.42337 2.948916,-3.4404 4.423376,-4.751037 3.931888,-3.358489 1.884029,-2.457429 1.392545,-2.948916 V 88.05792 l -0.409573,-2.457431 -0.819142,-2.211687 -2.211689,-1.474459 -2.621259,-0.819142 -1.474456,0.08191 -0.573403,0.409569 -0.737227,1.392545 0.491485,1.310629 1.064887,1.064887 1.474459,0.163828 1.31063,0.16383 1.064884,1.392544 -0.163827,1.802114 -0.327658,1.802117 -1.392544,2.047859 -4.832945,4.013801 -4.341461,5.570186 -3.276573,5.40634 -2.375517,5.48826 -1.474459,5.07869 -1.228715,6.14358 -0.327657,6.06165 0.327657,5.07869 0.73723,4.42337 1.556372,4.83295 2.948916,5.81592 2.948916,4.99677 3.194661,3.44041 4.177631,5.48826 4.17763,4.34146 3.849976,5.24251 3.604231,5.65209 3.112744,5.07869 2.457431,5.16061 1.31063,3.11274 0.901057,0.73723 h 2.457431 l 2.375516,-0.32766 3.440401,-0.65531 13.679703,0.0819"
       id="path1" /></g></svg>
