<?xml version="1.0" encoding="UTF-8" standalone="no"?>
<!-- Created with Inkscape (http://www.inkscape.org/) -->

<svg
   width="210mm"
   height="297mm"
   viewBox="0 0 210 297"
   version="1.1"
   id="svg1"
   xml:space="preserve"
   inkscape:version="1.4.2 (ebf0e94, 2025-05-08)"
   sodipodi:docname="Curle 15.svg"
   xmlns:inkscape="http://www.inkscape.org/namespaces/inkscape"
   xmlns:sodipodi="http://sodipodi.sourceforge.net/DTD/sodipodi-0.dtd"
   xmlns:xlink="http://www.w3.org/1999/xlink"
   xmlns="http://www.w3.org/2000/svg"
   xmlns:svg="http://www.w3.org/2000/svg"><sodipodi:namedview
     id="namedview1"
     pagecolor="#ffffff"
     bordercolor="#000000"
     borderopacity="0.25"
     inkscape:showpageshadow="2"
     inkscape:pageopacity="0.0"
     inkscape:pagecheckerboard="0"
     inkscape:deskcolor="#d1d1d1"
     inkscape:document-units="mm"
     showguides="true"
     inkscape:zoom="2.44"
     inkscape:cx="396.72131"
     inkscape:cy="604.30328"
     inkscape:window-width="1916"
     inkscape:window-height="2041"
     inkscape:window-x="-9"
     inkscape:window-y="0"
     inkscape:window-maximized="0"
     inkscape:current-layer="svg1"><sodipodi:guide
       position="26.02459,180.10622"
       orientation="0,-1"
       id="guide1"
       inkscape:locked="false" /></sodipodi:namedview><defs
     id="defs1" /><path
     style="fill:none;stroke:#000000;stroke-width:0.264999"
     d="m 159.94279,153.43664 -12.25324,0.21687 -15.94006,-0.10843 -10.51828,-1.08436 -12.47011,-2.92777 -10.08453,-3.14463 -9.542349,-4.229 -8.241122,-4.98805 -6.506147,-4.98804 -4.771175,-4.229 -2.060279,-4.33743 -6.506149,-3.25307 -6.614583,-0.97592 -7.048326,-0.10844 -4.012123,0.86749 -0.108436,-1.40967 -0.542179,-1.62654 c 0,0 -0.75905,-0.43374 -1.301229,-0.43374 -0.542179,0 -2.60246,0.54218 -2.60246,0.54218 l -1.084358,2.49402 0.216871,4.87961 -0.216871,4.01213 1.626537,1.73497 2.819331,-0.10844 2.927765,-2.16871 4.337434,-0.75905 6.289275,0.21687 3.253073,0.43374 2.927766,4.229 4.554304,5.63866 4.554302,4.229 6.397713,4.5543 4.445867,2.81933 6.614584,3.57838 7.48207,2.92777 6.723014,2.60246 10.40984,2.60245 c 0,0 1.40967,0.32531 1.62654,1.1928 0.21687,0.86749 -0.43375,3.0362 -0.43375,3.0362 l -1.62653,2.49402 -0.65062,2.38559 0.43375,2.38559 3.0362,1.73497 2.92776,0.32531 1.95185,-2.60246 3.14464,-5.20492 1.95184,-3.90369 1.30123,-1.84341 4.44587,-0.43374 11.16888,0.21687 10.95202,1.1928 6.50615,1.30123"
     id="path1" /></svg>
