<?xml version="1.0" encoding="UTF-8" standalone="no"?>
<!-- Created with Inkscape (http://www.inkscape.org/) -->

<svg
   width="210mm"
   height="297mm"
   viewBox="0 0 210 297"
   version="1.1"
   id="svg1"
   xml:space="preserve"
   inkscape:version="1.4.2 (ebf0e94, 2025-05-08)"
   sodipodi:docname="Curle.11.svg"
   xmlns:inkscape="http://www.inkscape.org/namespaces/inkscape"
   xmlns:sodipodi="http://sodipodi.sourceforge.net/DTD/sodipodi-0.dtd"
   xmlns:xlink="http://www.w3.org/1999/xlink"
   xmlns="http://www.w3.org/2000/svg"
   xmlns:svg="http://www.w3.org/2000/svg"><sodipodi:namedview
     id="namedview1"
     pagecolor="#ffffff"
     bordercolor="#000000"
     borderopacity="0.25"
     inkscape:showpageshadow="2"
     inkscape:pageopacity="0.0"
     inkscape:pagecheckerboard="0"
     inkscape:deskcolor="#d1d1d1"
     inkscape:document-units="mm"
     showguides="true"
     inkscape:zoom="2.44"
     inkscape:cx="396.72131"
     inkscape:cy="604.30328"
     inkscape:window-width="1916"
     inkscape:window-height="2041"
     inkscape:window-x="-9"
     inkscape:window-y="0"
     inkscape:window-maximized="0"
     inkscape:current-layer="svg1"><sodipodi:guide
       position="26.02459,180.10622"
       orientation="0,-1"
       id="guide1"
       inkscape:locked="false" /></sodipodi:namedview><defs
     id="defs1" /><path
     style="fill:none;stroke:#000000;stroke-width:0.264999"
     d="m 160.15966,177.8347 -6.93989,-0.75905 -15.50632,-1.62654 -13.22916,-3.14464 -11.4942,-3.14464 -12.36168,-4.22899 -10.409831,-5.7471 -6.506149,-5.42179 -6.614583,-6.0724 -4.445868,-6.50615 -3.578381,-6.28927 -1.951845,-3.79526 -0.650613,-3.68681 0.325308,-4.66274 -0.542179,-2.92777 -1.518102,-3.0362 -2.168716,-0.97592 -1.409665,0.75905 -0.975921,2.60246 -0.433745,1.08435 -4.988046,0.75905 -7.698941,2.27716 -4.012123,1.30122 -3.578382,1.5181 -2.494023,1.51811 v 1.62653 l 0.108434,1.40967 1.62654,1.84341 1.951841,0.97592 2.060282,0.65061 2.277152,-0.32531 c 0,0 1.409666,-1.51809 1.951844,-1.62653 0.542179,-0.10844 3.036203,-1.40966 3.036203,-1.40966 l 2.385586,-1.08437 2.385587,-0.86748 3.144639,0.97592 2.060278,1.40967 1.409666,1.95184 3.36151,5.7471 4.87961,8.45799 8.241122,10.73514 5.747097,6.83146 7.698941,7.69894 7.915812,5.96397 8.349561,4.5543 7.91581,3.90369 6.18084,1.73497 0.97592,1.1928 -0.86749,4.44586 -4.01212,11.4942 -1.30123,4.33743 1.19279,2.38558 1.08436,0.97593 2.16872,0.86749 2.49402,-0.21688 1.19279,-0.65061 4.44587,-10.19297 3.0362,-5.85553 1.30123,-1.62654 1.62654,-1.5181 3.36151,-0.21687 10.73514,0.32531 9.9761,0.10844"
     id="path1" /></svg>
