<?xml version="1.0" encoding="UTF-8" standalone="no"?>
<!-- Created with Inkscape (http://www.inkscape.org/) -->

<svg
   width="210mm"
   height="297mm"
   viewBox="0 0 210 297"
   version="1.1"
   id="svg1"
   xml:space="preserve"
   inkscape:version="1.4.2 (ebf0e94, 2025-05-08)"
   sodipodi:docname="Drag.36 früh.svg"
   xmlns:inkscape="http://www.inkscape.org/namespaces/inkscape"
   xmlns:sodipodi="http://sodipodi.sourceforge.net/DTD/sodipodi-0.dtd"
   xmlns:xlink="http://www.w3.org/1999/xlink"
   xmlns="http://www.w3.org/2000/svg"
   xmlns:svg="http://www.w3.org/2000/svg"><sodipodi:namedview
     id="namedview1"
     pagecolor="#ffffff"
     bordercolor="#000000"
     borderopacity="0.25"
     inkscape:showpageshadow="2"
     inkscape:pageopacity="0.0"
     inkscape:pagecheckerboard="0"
     inkscape:deskcolor="#d1d1d1"
     inkscape:document-units="mm"
     showguides="true"
     inkscape:zoom="2.44"
     inkscape:cx="396.72131"
     inkscape:cy="585.45082"
     inkscape:window-width="1916"
     inkscape:window-height="2041"
     inkscape:window-x="-9"
     inkscape:window-y="0"
     inkscape:window-maximized="0"
     inkscape:current-layer="svg1"><sodipodi:guide
       position="26.02459,180.10622"
       orientation="0,-1"
       id="guide1"
       inkscape:locked="false" /></sodipodi:namedview><defs
     id="defs1" /><path
     style="fill:none;stroke:#000000;stroke-width:0.264999"
     d="m 127.62893,147.90642 c -0.54218,0 -7.2652,0.10843 -7.2652,0.10843 l -9.32548,-1.08435 -10.73514,-1.62654 -10.409839,-2.49402 -12.903858,-4.98805 -7.373636,-4.229 -5.963968,-4.01212 -3.795252,-4.33743 -1.951844,-3.36151 -0.542179,-1.30123 -2.710895,-1.62654 -2.385589,-0.54218 -2.494023,-0.54218 -4.87961,0.65062 -2.060278,0.54218 v 1.84341 l 1.192791,0.97592 h 3.253074 l 3.903689,0.32531 3.686817,0.97592 2.277153,3.0362 3.578381,5.09648 5.313352,4.87961 7.048328,5.31336 7.807375,4.12056 8.349556,3.79525 4.337431,1.73497 1.409666,0.54218 0.108437,1.95184 0.325308,1.40967 -0.867487,2.06028 4.012123,2.16872 1.951847,0.75905 2.92777,-1.30123 1.30122,-3.57838 2.81934,-2.16872 4.5543,0.21687 h 5.09648 l 4.12056,0.10844 6.72302,-0.97592"
     id="path1" /></svg>
