<?xml version="1.0" encoding="UTF-8" standalone="no"?>
<!-- Created with Inkscape (http://www.inkscape.org/) -->

<svg
   width="210mm"
   height="297mm"
   viewBox="0 0 210 297"
   version="1.1"
   id="svg1"
   xml:space="preserve"
   inkscape:version="1.4.2 (ebf0e94, 2025-05-08)"
   sodipodi:docname="Drag.35 spät.svg"
   xmlns:inkscape="http://www.inkscape.org/namespaces/inkscape"
   xmlns:sodipodi="http://sodipodi.sourceforge.net/DTD/sodipodi-0.dtd"
   xmlns:xlink="http://www.w3.org/1999/xlink"
   xmlns="http://www.w3.org/2000/svg"
   xmlns:svg="http://www.w3.org/2000/svg"><sodipodi:namedview
     id="namedview1"
     pagecolor="#ffffff"
     bordercolor="#000000"
     borderopacity="0.25"
     inkscape:showpageshadow="2"
     inkscape:pageopacity="0.0"
     inkscape:pagecheckerboard="0"
     inkscape:deskcolor="#d1d1d1"
     inkscape:document-units="mm"
     showguides="true"
     inkscape:zoom="2.44"
     inkscape:cx="396.72131"
     inkscape:cy="604.30328"
     inkscape:window-width="1916"
     inkscape:window-height="2041"
     inkscape:window-x="-9"
     inkscape:window-y="0"
     inkscape:window-maximized="0"
     inkscape:current-layer="svg1"><sodipodi:guide
       position="26.02459,180.10622"
       orientation="0,-1"
       id="guide1"
       inkscape:locked="false" /></sodipodi:namedview><defs
     id="defs1" /><path
     style="fill:none;stroke:#000000;stroke-width:0.264999"
     d="m 132.07479,158.53313 -5.85553,0.43374 -9.32548,-0.21687 -6.39771,-0.75905 -6.93989,-1.73498 -7.265197,-2.27715 -9.32548,-5.42179 -8.674862,-8.13268 -4.228996,-7.04833 -1.5181,-5.53022 -1.192795,-3.57838 -1.843407,-3.36151 -2.710895,-1.95185 -3.578381,-2.16871 -5.530225,0.3253 -6.072405,1.40967 -2.60246,1.95184 -1.192794,2.60246 0.216873,2.7109 1.192792,1.30123 1.626537,0.54218 h 2.710897 l 2.277149,-0.54218 1.951845,-0.86749 2.927768,-0.10844 1.192792,0.97593 0.975923,1.8434 1.626537,4.55431 2.494023,6.0724 3.144637,4.66274 4.554304,5.96397 3.795252,3.25307 4.554305,2.81933 5.530225,3.03621 7.915812,2.16871 4.120556,1.73498 0.32531,1.19279 v 1.5181 l -0.32531,2.16872 -1.409661,2.38558 -1.409666,2.38559 -0.108434,2.81933 0.867484,3.14464 0.975924,1.40966 c 0,0 0.650613,0.10844 1.084353,0.10844 0.43375,0 1.95185,-0.43374 1.95185,-0.43374 l 1.73497,-1.5181 4.87961,-4.33743 4.01213,-4.66275 6.39771,-4.98804 1.73497,-0.86749 2.27715,-0.10843 3.36151,0.3253 c 0,0 2.06028,0.43375 2.49402,0.43375 0.43375,0 2.27716,0 2.27716,0"
     id="path1" /></svg>
