<?xml version="1.0" encoding="UTF-8" standalone="no"?>
<!-- Created with Inkscape (http://www.inkscape.org/) -->

<svg
   width="210mm"
   height="297mm"
   viewBox="0 0 210 297"
   version="1.1"
   id="svg1"
   xml:space="preserve"
   inkscape:version="1.4.2 (ebf0e94, 2025-05-08)"
   sodipodi:docname="Drag.45.svg"
   xmlns:inkscape="http://www.inkscape.org/namespaces/inkscape"
   xmlns:sodipodi="http://sodipodi.sourceforge.net/DTD/sodipodi-0.dtd"
   xmlns:xlink="http://www.w3.org/1999/xlink"
   xmlns="http://www.w3.org/2000/svg"
   xmlns:svg="http://www.w3.org/2000/svg"><sodipodi:namedview
     id="namedview1"
     pagecolor="#ffffff"
     bordercolor="#000000"
     borderopacity="0.25"
     inkscape:showpageshadow="2"
     inkscape:pageopacity="0.0"
     inkscape:pagecheckerboard="0"
     inkscape:deskcolor="#d1d1d1"
     inkscape:document-units="mm"
     showguides="true"
     inkscape:zoom="2.44"
     inkscape:cx="396.72131"
     inkscape:cy="604.30328"
     inkscape:window-width="1916"
     inkscape:window-height="2041"
     inkscape:window-x="-9"
     inkscape:window-y="0"
     inkscape:window-maximized="0"
     inkscape:current-layer="svg1"><sodipodi:guide
       position="26.02459,180.10622"
       orientation="0,-1"
       id="guide1"
       inkscape:locked="false" /></sodipodi:namedview><defs
     id="defs1" /><path
     style="fill:none;stroke:#000000;stroke-width:0.264999"
     d="m 174.7985,215.57035 -7.59051,-0.3253 -13.55448,-1.40967 -13.22916,-2.81933 -12.36168,-3.36151 -14.09665,-6.18084 -10.62671,-5.7471 -10.084529,-7.2652 -10.952017,-9.00017 -11.494193,-11.06045 -11.819501,-12.68698 -4.445867,-5.7471 -3.903689,-6.18084 -2.819331,-5.63866 -0.75905,-2.49402 0.325307,-5.4218 v -4.87961 -5.53022 -1.95185 c 0,0 -0.216871,-0.3253 -0.97592,-0.54217 -0.759053,-0.21688 -2.819332,-0.86749 -3.253076,-0.86749 -0.433742,0 -2.927766,1.19279 -2.927766,1.19279 l -0.75905,2.49403 v 4.44586 l -0.650615,13.66291 -0.216871,9.54235 v 4.87961 l 0.108437,4.77118 1.301228,3.36151 h 1.951845 2.168715 l 3.253073,-1.1928 2.385587,-1.08435 1.301231,0.75905 5.204918,6.0724 16.265369,15.83163 c 0,0 14.855703,13.01229 14.421958,13.01229 -0.433742,0 10.192964,7.91582 10.192964,7.91582 l 8.674863,6.0724 9.32548,5.96397 4.98805,2.81933 1.8434,1.73497 1.84341,2.60246 0.75905,1.84341 0.43375,3.0362 -0.65062,1.73497 -0.97592,2.16872 -0.32531,1.08436 0.97593,0.97592 h 3.46994 l 4.5543,0.75905 6.07241,-8.7833 3.14463,-3.25307 3.03621,-0.97593 5.20491,0.32531 10.30141,0.65062 14.96414,0.10843"
     id="path1" /></svg>
