<?xml version="1.0" encoding="UTF-8" standalone="no"?>
<!-- Created with Inkscape (http://www.inkscape.org/) -->

<svg
   width="210mm"
   height="297mm"
   viewBox="0 0 210 297"
   version="1.1"
   id="svg1"
   xml:space="preserve"
   inkscape:version="1.4.2 (ebf0e94, 2025-05-08)"
   sodipodi:docname="Drag.40-Nb.10.svg"
   xmlns:inkscape="http://www.inkscape.org/namespaces/inkscape"
   xmlns:sodipodi="http://sodipodi.sourceforge.net/DTD/sodipodi-0.dtd"
   xmlns:xlink="http://www.w3.org/1999/xlink"
   xmlns="http://www.w3.org/2000/svg"
   xmlns:svg="http://www.w3.org/2000/svg"><sodipodi:namedview
     id="namedview1"
     pagecolor="#ffffff"
     bordercolor="#000000"
     borderopacity="0.25"
     inkscape:showpageshadow="2"
     inkscape:pageopacity="0.0"
     inkscape:pagecheckerboard="0"
     inkscape:deskcolor="#d1d1d1"
     inkscape:document-units="mm"
     showguides="true"
     inkscape:zoom="2.44"
     inkscape:cx="396.72131"
     inkscape:cy="604.30328"
     inkscape:window-width="1916"
     inkscape:window-height="2041"
     inkscape:window-x="-9"
     inkscape:window-y="0"
     inkscape:window-maximized="0"
     inkscape:current-layer="svg1"><sodipodi:guide
       position="26.02459,180.10622"
       orientation="0,-1"
       id="guide1"
       inkscape:locked="false" /></sodipodi:namedview><defs
     id="defs1" /><path
     style="fill:none;stroke:#000000;stroke-width:0.264999"
     d="m 139.12312,154.08726 c -1.73497,0.75905 -11.8195,0.43374 -11.8195,0.43374 l -14.63883,-0.54218 -9.00017,-0.86748 -6.939895,-1.5181 -4.879609,-2.49403 -4.337434,-2.49402 -4.012123,-5.31336 -2.494023,-4.33743 -0.75905,-4.01212 -1.518103,-6.50615 -0.75905,-4.33743 -1.734973,-3.0362 c 0,0 -0.325305,-0.32531 -0.75905,-0.54218 -0.433742,-0.21687 -1.734973,-0.43374 -1.734973,-0.43374 0,0 -1.301229,0.43374 -1.409663,0.97592 -0.108437,0.54218 -0.759053,1.30123 -0.759053,1.30123 l -0.108434,6.72302 1.192792,6.83145 2.385589,7.80738 4.337431,7.37363 6.614583,5.7471 6.72302,4.77117 9.976088,4.55431 7.37364,1.95184 3.36151,1.30123 c 0,0 0.3253,0.43374 0.3253,0.97592 0,0.54218 -2.06027,3.03621 -2.06027,3.03621 l -2.49403,3.79525 -1.08436,4.01212 c 0,0 0,0.21687 0.21688,1.5181 0.21687,1.30123 1.19279,3.36151 1.19279,3.36151 l 2.06028,0.97592 2.16871,-0.54217 3.68682,-4.12056 9.32548,-10.19297 5.53022,-5.7471 h 0.97593 l 1.5181,-0.10843 2.38558,0.65061 1.30124,0.54218"
     id="path1" /></svg>
