<?xml version="1.0" encoding="UTF-8" standalone="no"?>
<!-- Created with Inkscape (http://www.inkscape.org/) -->

<svg
   width="210mm"
   height="297mm"
   viewBox="0 0 210 297"
   version="1.1"
   id="svg1"
   xml:space="preserve"
   inkscape:version="1.4.2 (ebf0e94, 2025-05-08)"
   sodipodi:docname="Drag.37.svg"
   xmlns:inkscape="http://www.inkscape.org/namespaces/inkscape"
   xmlns:sodipodi="http://sodipodi.sourceforge.net/DTD/sodipodi-0.dtd"
   xmlns:xlink="http://www.w3.org/1999/xlink"
   xmlns="http://www.w3.org/2000/svg"
   xmlns:svg="http://www.w3.org/2000/svg"><sodipodi:namedview
     id="namedview1"
     pagecolor="#ffffff"
     bordercolor="#000000"
     borderopacity="0.25"
     inkscape:showpageshadow="2"
     inkscape:pageopacity="0.0"
     inkscape:pagecheckerboard="0"
     inkscape:deskcolor="#d1d1d1"
     inkscape:document-units="mm"
     showguides="true"
     inkscape:zoom="3.23"
     inkscape:cx="396.90402"
     inkscape:cy="561.45511"
     inkscape:window-width="1916"
     inkscape:window-height="2041"
     inkscape:window-x="-9"
     inkscape:window-y="0"
     inkscape:window-maximized="0"
     inkscape:current-layer="layer1"><sodipodi:guide
       position="128.78182,216.16364"
       orientation="0,-1"
       id="guide1"
       inkscape:locked="false" /></sodipodi:namedview><defs
     id="defs1" /><g
     inkscape:label="Ebene 1"
     inkscape:groupmode="layer"
     id="layer1"><path
       style="fill:none;stroke:#000000;stroke-width:0.264999"
       d="m 121.15132,121.39706 -10.40313,0.0819 -5.40635,-1.06488 -4.99677,-1.96595 -4.996773,-2.70317 -4.341461,-3.44041 -3.112746,-4.42337 -2.621259,-6.71698 -1.064887,-8.19143 -0.819142,-6.143577 -0.245742,-3.768058 -0.491487,-0.819145 -0.73723,-0.327657 -0.982972,-0.40957 -0.901057,0.08191 -0.982972,0.327658 -0.491488,1.556374 0.409573,0.655315 0.982972,0.40957 0.245745,0.737229 -0.327658,2.621259 0.08191,8.355264 1.228717,8.027608 1.720199,5.24252 2.703174,4.42337 2.539343,3.52232 5.078691,4.09571 7.37229,3.9319 4.91486,1.1468 0.65532,0.65531 -0.65532,0.73723 -1.31062,0.65531 -0.73723,0.40958 -0.32766,0.81914 0.0819,0.40957 1.31063,0.0819 h 1.1468 l 1.80212,-0.0819 0.90106,-0.81914 0.49148,-1.47446 12.28716,-0.16383"
       id="path1" /></g></svg>
