<?xml version="1.0" encoding="UTF-8" standalone="no"?>
<!-- Created with Inkscape (http://www.inkscape.org/) -->

<svg
   width="210mm"
   height="297mm"
   viewBox="0 0 210 297"
   version="1.1"
   id="svg1"
   xml:space="preserve"
   inkscape:version="1.4.2 (ebf0e94, 2025-05-08)"
   sodipodi:docname="Drag.36 spät.svg"
   xmlns:inkscape="http://www.inkscape.org/namespaces/inkscape"
   xmlns:sodipodi="http://sodipodi.sourceforge.net/DTD/sodipodi-0.dtd"
   xmlns:xlink="http://www.w3.org/1999/xlink"
   xmlns="http://www.w3.org/2000/svg"
   xmlns:svg="http://www.w3.org/2000/svg"><sodipodi:namedview
     id="namedview1"
     pagecolor="#ffffff"
     bordercolor="#000000"
     borderopacity="0.25"
     inkscape:showpageshadow="2"
     inkscape:pageopacity="0.0"
     inkscape:pagecheckerboard="0"
     inkscape:deskcolor="#d1d1d1"
     inkscape:document-units="mm"
     showguides="true"
     inkscape:zoom="2.44"
     inkscape:cx="396.72131"
     inkscape:cy="604.30328"
     inkscape:window-width="1916"
     inkscape:window-height="2041"
     inkscape:window-x="-9"
     inkscape:window-y="0"
     inkscape:window-maximized="0"
     inkscape:current-layer="svg1"><sodipodi:guide
       position="26.02459,180.10622"
       orientation="0,-1"
       id="guide1"
       inkscape:locked="false" /></sodipodi:namedview><defs
     id="defs1" /><path
     style="fill:none;stroke:#000000;stroke-width:0.264999"
     d="m 183.58179,163.52117 c 0,0 -7.37363,1.73497 -7.80737,1.73497 -0.43375,0 -8.34956,0.32531 -8.34956,0.32531 h -11.60263 l -8.34955,-0.75905 -8.7833,-1.40966 -12.25325,-3.03621 -13.55447,-3.68681 -10.3014,-3.46995 -11.38576,-4.22899 -8.674862,-3.68682 -9.759222,-5.42179 -7.048326,-5.7471 -4.337433,-4.77117 -3.578381,-5.96397 -3.036202,-2.92777 -3.144637,-1.95184 -3.578381,-1.5181 h -2.927768 l -3.036202,0.10843 -3.578381,1.40967 -2.494023,2.49402 v 2.27716 l 0.433744,2.16871 0.975921,0.65061 h 1.409666 l 0.75905,-0.75905 2.819331,-1.40966 3.469947,-0.21687 2.277149,1.5181 2.710895,2.81933 1.08436,4.87961 4.12056,6.39771 5.204918,6.18084 7.48207,6.39771 10.518269,5.96397 6.939891,3.0362 12.036375,4.44587 9.325482,2.81933 8.34955,2.49403 h 3.68682 l 3.14464,-0.21688 2.16871,1.95185 1.40967,2.49402 0.54218,2.49402 -0.54218,2.38559 -0.32531,2.06028 2.27715,2.49402 2.60246,1.84341 5.31335,0.21688 h 2.81934 l 2.27714,-3.68682 3.68682,-5.42179 3.90369,-2.16872 4.33743,-0.43374 5.53023,-0.32531 6.39771,0.21687 5.42179,-0.21687 5.96397,0.97592 4.01212,1.5181 2.81933,0.86749"
     id="path1" /></svg>
