<?xml version="1.0" encoding="UTF-8" standalone="no"?>
<!-- Created with Inkscape (http://www.inkscape.org/) -->

<svg
   width="210mm"
   height="297mm"
   viewBox="0 0 210 297"
   version="1.1"
   id="svg1"
   xml:space="preserve"
   xmlns:xlink="http://www.w3.org/1999/xlink"
   xmlns="http://www.w3.org/2000/svg"
   xmlns:svg="http://www.w3.org/2000/svg"><defs
     id="defs1" /><g
     id="layer1"><path
       style="fill:none;stroke:#000000;stroke-width:0.264999"
       d="m 112.88002,61.292922 -5.31826,0.199435 -5.58416,0.864216 -8.043869,1.861392 H 92.07234 91.208123 L 83.496649,48.994451 78.444303,37.892587 74.056742,30.513504 68.87144,21.206553 65.879918,16.818991 64.882746,15.888295 c 0,0 -1.595477,-0.73126 -1.861391,-0.73126 -0.265912,0 -1.728433,0.930695 -1.728433,0.930695 l -1.994347,1.728434 0.265914,1.329564 0.731261,2.925042 2.060823,3.39039 10.902429,20.674727 5.384736,10.171168 7.179649,13.162688 3.922215,1.728435 3.523345,2.99152 0.731261,0.797739 -0.199435,0.997173 -1.528998,2.526173 -1.994347,2.659128 -0.132956,2.193782 0.664781,2.526173 1.861392,0.265912 5.118822,-0.06648 8.974563,-10.968905 0.5983,-0.598305 1.06365,0.265914 3.9887,1.595478 0.33239,-0.06648"
       id="path1" /></g></svg>
