<?xml version="1.0" encoding="UTF-8" standalone="no"?>
<!-- Created with Inkscape (http://www.inkscape.org/) -->

<svg
   width="210mm"
   height="297mm"
   viewBox="0 0 210 297"
   version="1.1"
   id="svg1"
   xml:space="preserve"
   inkscape:version="1.4.2 (ebf0e94, 2025-05-08)"
   sodipodi:docname="Drag.15-17.svg"
   xmlns:inkscape="http://www.inkscape.org/namespaces/inkscape"
   xmlns:sodipodi="http://sodipodi.sourceforge.net/DTD/sodipodi-0.dtd"
   xmlns:xlink="http://www.w3.org/1999/xlink"
   xmlns="http://www.w3.org/2000/svg"
   xmlns:svg="http://www.w3.org/2000/svg"><sodipodi:namedview
     id="namedview1"
     pagecolor="#ffffff"
     bordercolor="#000000"
     borderopacity="0.25"
     inkscape:showpageshadow="2"
     inkscape:pageopacity="0.0"
     inkscape:pagecheckerboard="0"
     inkscape:deskcolor="#d1d1d1"
     inkscape:document-units="mm"
     showguides="true"
     inkscape:zoom="2.44"
     inkscape:cx="396.72131"
     inkscape:cy="561.27049"
     inkscape:window-width="1916"
     inkscape:window-height="2041"
     inkscape:window-x="-9"
     inkscape:window-y="0"
     inkscape:window-maximized="0"
     inkscape:current-layer="svg1"><sodipodi:guide
       position="26.02459,180.10622"
       orientation="0,-1"
       id="guide1"
       inkscape:locked="false" /></sodipodi:namedview><defs
     id="defs1" /><path
     style="fill:none;stroke:#000000;stroke-width:0.264999"
     d="m 135.111,139.23156 -9.21705,0.3253 -10.3014,1.08436 -8.24112,1.19279 -7.698939,0.97593 -7.156762,0.43374 -5.204918,0.43374 -6.506146,-0.75905 c 0,0 -2.060282,-0.86748 -2.494024,-1.08436 -0.433742,-0.21687 -2.494023,-2.92776 -2.494023,-2.92776 l -2.385587,-0.75905 -4.120559,0.43374 -4.012126,-1.40967 -3.795252,-2.38558 -3.036202,-3.79525 -3.036203,-5.63867 -2.494023,-5.74709 -1.626537,-1.62654 -2.277152,-0.75905 -2.385586,0.86749 1.084357,4.77117 1.843408,6.28928 3.036202,5.09648 1.951845,2.92776 4.771175,2.7109 6.289276,2.49402 7.915812,3.0362 6.072404,2.06029 8.566428,2.49402 2.385586,0.65061 c 0,0 1.084361,0.32531 0.867487,0.97593 -0.216871,0.65061 -1.626537,2.49402 -1.626537,2.49402 l -3.36151,1.5181 0.108437,3.0362 1.301229,2.49402 2.927768,0.10844 2.602457,-0.54218 4.445868,-4.98804 5.096487,-5.53023 3.68681,-2.92777 8.24112,-1.73497 5.63866,-1.30123 7.69895,-0.54218 6.61458,-0.3253"
     id="path1" /></svg>
