<?xml version="1.0" encoding="UTF-8" standalone="no"?>
<!-- Created with Inkscape (http://www.inkscape.org/) -->

<svg
   width="210mm"
   height="297mm"
   viewBox="0 0 210 297"
   version="1.1"
   id="svg1"
   xml:space="preserve"
   inkscape:version="1.4.2 (ebf0e94, 2025-05-08)"
   sodipodi:docname="Drag.37R.svg"
   xmlns:inkscape="http://www.inkscape.org/namespaces/inkscape"
   xmlns:sodipodi="http://sodipodi.sourceforge.net/DTD/sodipodi-0.dtd"
   xmlns:xlink="http://www.w3.org/1999/xlink"
   xmlns="http://www.w3.org/2000/svg"
   xmlns:svg="http://www.w3.org/2000/svg"><sodipodi:namedview
     id="namedview1"
     pagecolor="#ffffff"
     bordercolor="#000000"
     borderopacity="0.25"
     inkscape:showpageshadow="2"
     inkscape:pageopacity="0.0"
     inkscape:pagecheckerboard="0"
     inkscape:deskcolor="#d1d1d1"
     inkscape:document-units="mm"
     showguides="true"
     inkscape:zoom="2.44"
     inkscape:cx="396.72131"
     inkscape:cy="604.30328"
     inkscape:window-width="1916"
     inkscape:window-height="2041"
     inkscape:window-x="-9"
     inkscape:window-y="0"
     inkscape:window-maximized="0"
     inkscape:current-layer="svg1"><sodipodi:guide
       position="26.02459,180.10622"
       orientation="0,-1"
       id="guide1"
       inkscape:locked="false" /></sodipodi:namedview><defs
     id="defs1" /><path
     style="fill:none;stroke:#000000;stroke-width:0.264999"
     d="m 146.9305,175.1238 -11.60263,0.21687 -12.03637,0.32531 -11.60263,-0.86748 -11.06046,-0.97593 -9.43391,-1.62653 -7.807378,-2.60246 -7.156762,-3.79526 -3.144636,-2.81933 -3.795252,-4.98804 -3.469947,-5.85554 -2.710895,-6.93989 -1.518099,-5.53022 -1.518103,-6.39771 -0.325308,-4.87961 -0.433742,-4.229 -1.084358,-4.5543 -1.409665,-1.62654 -2.385589,-0.43374 -1.5181,0.3253 -1.192795,0.97593 -1.192791,1.95184 -0.325308,1.62654 0.650613,1.08436 0.759052,1.40966 1.734971,0.86749 1.518102,1.5181 0.216871,2.38558 0.650616,3.68682 1.301229,8.34956 3.578381,13.3376 4.337431,8.89174 4.662739,6.61458 7.156762,4.98805 10.518272,4.33743 11.927938,3.25307 6.723021,1.95184 3.25307,2.16872 -0.43374,2.06028 -2.7109,3.46995 -1.8434,3.25307 0.3253,1.40967 1.95185,0.75905 4.66274,0.54218 2.27715,-0.54218 2.27715,-4.87962 2.60246,-3.90368 3.57838,-4.01213 1.5181,-1.5181 1.5181,-0.97592 3.79525,0.43374 h 5.31336 6.18084 l 4.77117,-0.43374 1.84341,-0.10844"
     id="path1" /></svg>
