<?xml version="1.0" encoding="UTF-8" standalone="no"?>
<!-- Created with Inkscape (http://www.inkscape.org/) -->

<svg
   width="210mm"
   height="297mm"
   viewBox="0 0 210 297"
   version="1.1"
   id="svg1"
   xml:space="preserve"
   inkscape:version="1.4.2 (ebf0e94, 2025-05-08)"
   sodipodi:docname="Drag.31-Nb.1b.svg"
   xmlns:inkscape="http://www.inkscape.org/namespaces/inkscape"
   xmlns:sodipodi="http://sodipodi.sourceforge.net/DTD/sodipodi-0.dtd"
   xmlns:xlink="http://www.w3.org/1999/xlink"
   xmlns="http://www.w3.org/2000/svg"
   xmlns:svg="http://www.w3.org/2000/svg"><sodipodi:namedview
     id="namedview1"
     pagecolor="#ffffff"
     bordercolor="#000000"
     borderopacity="0.25"
     inkscape:showpageshadow="2"
     inkscape:pageopacity="0.0"
     inkscape:pagecheckerboard="0"
     inkscape:deskcolor="#d1d1d1"
     inkscape:document-units="mm"
     showguides="true"
     inkscape:zoom="2.44"
     inkscape:cx="396.72131"
     inkscape:cy="561.27049"
     inkscape:window-width="1916"
     inkscape:window-height="2041"
     inkscape:window-x="-9"
     inkscape:window-y="0"
     inkscape:window-maximized="0"
     inkscape:current-layer="svg1"><sodipodi:guide
       position="26.02459,180.10622"
       orientation="0,-1"
       id="guide1"
       inkscape:locked="false" /></sodipodi:namedview><defs
     id="defs1" /><path
     style="fill:none;stroke:#000000;stroke-width:0.264999"
     d="m 153.11134,144.00273 -2.81933,-0.10844 -8.13269,3.90369 -14.20509,6.28928 -10.84358,3.14464 -13.3376,4.87961 -6.614583,0.65061 -2.277149,-1.40966 -21.253416,-18.97627 -11.494193,-12.03637 -7.698943,-8.02425 -2.819329,-3.0362 -2.385589,-0.97592 -2.819328,0.32531 -1.843411,1.73497 -0.433742,2.16871 1.409666,2.49403 2.27715,0.97592 2.494023,0.75905 1.626539,0.43374 7.156762,10.3014 12.144809,14.63883 11.602627,10.73515 3.469947,3.0362 4.662739,0.65062 5.855533,1.5181 3.253078,0.3253 2.27715,0.97592 0.86748,1.84341 -1.40966,2.81934 -1.843411,5.31335 1.084361,2.49402 2.27715,1.95185 2.49402,-0.75905 2.38559,-4.01213 3.25307,-7.69894 2.27715,-2.60246 3.90369,-0.75905 4.229,-2.27715 10.08453,-3.90369 10.84358,-4.229 8.02425,-3.25307 1.8434,-0.43374"
     id="path1" /></svg>
