<?xml version="1.0" encoding="UTF-8" standalone="no"?>
<!-- Created with Inkscape (http://www.inkscape.org/) -->

<svg
   width="210mm"
   height="297mm"
   viewBox="0 0 210 297"
   version="1.1"
   id="svg1"
   xml:space="preserve"
   inkscape:version="1.4.2 (ebf0e94, 2025-05-08)"
   sodipodi:docname="Drag.44.svg"
   xmlns:inkscape="http://www.inkscape.org/namespaces/inkscape"
   xmlns:sodipodi="http://sodipodi.sourceforge.net/DTD/sodipodi-0.dtd"
   xmlns:xlink="http://www.w3.org/1999/xlink"
   xmlns="http://www.w3.org/2000/svg"
   xmlns:svg="http://www.w3.org/2000/svg"><sodipodi:namedview
     id="namedview1"
     pagecolor="#ffffff"
     bordercolor="#000000"
     borderopacity="0.25"
     inkscape:showpageshadow="2"
     inkscape:pageopacity="0.0"
     inkscape:pagecheckerboard="0"
     inkscape:deskcolor="#d1d1d1"
     inkscape:document-units="mm"
     showguides="true"
     inkscape:zoom="2.44"
     inkscape:cx="396.72131"
     inkscape:cy="604.30328"
     inkscape:window-width="1916"
     inkscape:window-height="2041"
     inkscape:window-x="-9"
     inkscape:window-y="0"
     inkscape:window-maximized="0"
     inkscape:current-layer="svg1"><sodipodi:guide
       position="26.02459,180.10622"
       orientation="0,-1"
       id="guide1"
       inkscape:locked="false" /></sodipodi:namedview><defs
     id="defs1" /><path
     style="fill:none;stroke:#000000;stroke-width:0.264999"
     d="m 161.56933,226.41393 -7.48207,-0.75905 -11.8195,-1.5181 -8.56643,-1.62654 -13.22917,-3.14464 -10.6267,-3.0362 -14.421963,-5.74709 -8.349557,-4.229 -8.024249,-4.22899 -7.48207,-5.53023 -9.325477,-7.04833 -6.180839,-11.92793 -2.927768,-8.89174 -2.602457,-13.44604 -2.277153,-8.13268 -0.433744,-10.3014 -1.301229,-8.24112 -0.108434,-4.12056 -0.867487,-5.85553 c 0,0 -0.975924,-1.62654 -1.518103,-1.62654 -0.542178,0 -2.385586,0.32531 -2.385586,0.32531 l -1.951844,0.97592 -1.192795,3.14463 -1.626537,3.79526 1.626537,4.22899 1.409666,0.21687 -0.433743,1.73498 -1.084357,6.39771 0.433742,9.97609 1.084358,9.9761 1.951844,7.69894 2.277152,8.7833 2.927766,9.21704 2.819331,5.85553 -1.5181,1.95185 -1.951844,2.81933 0.108434,1.62653 3.686818,0.97592 6.072404,3.03621 11.60263,8.45799 19.410005,13.12073 13.554479,8.67486 11.27732,5.20492 c 0,0 1.19279,0.54218 1.08436,1.08436 -0.10844,0.54218 -2.49403,6.61458 -2.49403,6.61458 l -1.40966,3.90369 0.21687,2.38559 0.43374,1.30123 1.62654,1.62653 8.24112,0.21687 2.49402,-3.3615 3.90369,-6.28928 5.42179,-7.37363 3.79525,-3.25308 4.44587,0.75905 6.18084,0.32531 8.34956,0.54218 5.31335,0.43374 2.60246,0.86749"
     id="path1" /></svg>
