<?xml version="1.0" encoding="UTF-8" standalone="no"?>
<!-- Created with Inkscape (http://www.inkscape.org/) -->

<svg
   width="210mm"
   height="297mm"
   viewBox="0 0 210 297"
   version="1.1"
   id="svg1"
   xml:space="preserve"
   inkscape:version="1.4.2 (ebf0e94, 2025-05-08)"
   sodipodi:docname="Drag.27.svg"
   xmlns:inkscape="http://www.inkscape.org/namespaces/inkscape"
   xmlns:sodipodi="http://sodipodi.sourceforge.net/DTD/sodipodi-0.dtd"
   xmlns:xlink="http://www.w3.org/1999/xlink"
   xmlns="http://www.w3.org/2000/svg"
   xmlns:svg="http://www.w3.org/2000/svg"><sodipodi:namedview
     id="namedview1"
     pagecolor="#ffffff"
     bordercolor="#000000"
     borderopacity="0.25"
     inkscape:showpageshadow="2"
     inkscape:pageopacity="0.0"
     inkscape:pagecheckerboard="0"
     inkscape:deskcolor="#d1d1d1"
     inkscape:document-units="mm"
     showguides="true"
     inkscape:zoom="2.44"
     inkscape:cx="396.72131"
     inkscape:cy="604.30328"
     inkscape:window-width="1916"
     inkscape:window-height="2041"
     inkscape:window-x="-9"
     inkscape:window-y="0"
     inkscape:window-maximized="0"
     inkscape:current-layer="svg1"><sodipodi:guide
       position="26.02459,180.10622"
       orientation="0,-1"
       id="guide1"
       inkscape:locked="false" /></sodipodi:namedview><defs
     id="defs1" /><path
     style="fill:none;stroke:#000000;stroke-width:0.264999"
     d="m 153.11134,177.07565 h -8.13269 l -11.27732,-0.43375 -9.75922,-1.5181 -9.97609,-2.81933 -7.04833,-3.46994 -5.7471,-4.12056 -5.530222,-6.50615 -2.60246,-6.07241 -1.626537,-4.33743 -0.75905,-4.12056 -1.301229,-4.44586 -2.385589,-0.86749 -4.662739,-5.09648 -4.228994,-5.7471 -2.168715,-5.53023 -1.84341,-2.38558 -1.951845,-2.27715 -2.27715,1.08435 -2.277152,2.16872 0.216871,2.49402 1.518103,2.27715 1.626536,0.65062 2.060279,4.66274 4.988046,8.24112 4.87961,5.53022 1.626539,1.40967 1.301229,4.87961 2.168716,8.56643 3.036202,7.2652 5.63866,6.28927 6.831461,5.63866 8.67486,4.12056 4.77117,2.06028 1.1928,1.5181 c 0,0 0.21687,1.73498 0.21687,2.16872 0,0.43374 -0.10844,3.46994 -0.10844,3.46994 l -0.86748,3.68682 -1.62654,2.16872 0.10844,2.38558 1.73497,1.1928 3.90368,0.21687 4.12056,-4.66274 6.72302,-6.28927 2.49403,-1.30124 1.95184,-1.08435 4.229,0.10843 5.31335,0.54218 5.85553,1.08436"
     id="path1" /></svg>
