<?xml version="1.0" encoding="UTF-8" standalone="no"?>
<!-- Created with Inkscape (http://www.inkscape.org/) -->

<svg
   width="210mm"
   height="297mm"
   viewBox="0 0 210 297"
   version="1.1"
   id="svg1"
   xml:space="preserve"
   inkscape:version="1.4.2 (ebf0e94, 2025-05-08)"
   sodipodi:docname="Drag.18-31.svg"
   xmlns:inkscape="http://www.inkscape.org/namespaces/inkscape"
   xmlns:sodipodi="http://sodipodi.sourceforge.net/DTD/sodipodi-0.dtd"
   xmlns:xlink="http://www.w3.org/1999/xlink"
   xmlns="http://www.w3.org/2000/svg"
   xmlns:svg="http://www.w3.org/2000/svg"><sodipodi:namedview
     id="namedview1"
     pagecolor="#ffffff"
     bordercolor="#000000"
     borderopacity="0.25"
     inkscape:showpageshadow="2"
     inkscape:pageopacity="0.0"
     inkscape:pagecheckerboard="0"
     inkscape:deskcolor="#d1d1d1"
     inkscape:document-units="mm"
     showguides="true"
     inkscape:zoom="3.98"
     inkscape:cx="328.76884"
     inkscape:cy="125.12563"
     inkscape:window-width="3840"
     inkscape:window-height="2054"
     inkscape:window-x="-11"
     inkscape:window-y="-11"
     inkscape:window-maximized="1"
     inkscape:current-layer="layer1"><sodipodi:guide
       position="85.41818,281.94546"
       orientation="0,-1"
       id="guide1"
       inkscape:locked="false" /></sodipodi:namedview><defs
     id="defs1" /><g
     inkscape:label="Ebene 1"
     inkscape:groupmode="layer"
     id="layer1"><path
       style="fill:none;stroke:#000000;stroke-width:0.264999"
       d="M 127.57171,53.315536 115.93802,52.78371 106.49811,52.650752 H 91.872905 l -6.581344,0.39887 -9.772298,-0.465347 -9.107516,-1.063651 -8.908084,-2.659129 -9.971733,-3.855738 -6.182474,-4.653476 -4.387564,-4.852911 -2.99152,-5.983038 -3.855736,-6.248954 -4.454042,-5.118823 -2.99152,-2.526172 -1.86139,-0.199435 -2.725607,0.265913 -1.528999,1.13013 -0.864217,1.661955 0.265913,1.927869 1.528999,1.595477 2.526172,-0.06648 3.722781,8.176822 9.572865,15.755337 2.459693,3.789259 2.193783,2.260262 2.326737,1.329563 5.650648,1.994347 31.643635,9.373431 1.861391,0.797737 -0.598305,1.462521 -1.528998,1.927868 -1.529,2.792087 -0.39887,3.057996 0.73126,2.260261 1.927868,1.329563 2.925043,0.06648 2.260259,-1.263087 13.295646,-13.162687 25.793549,-2.326738 2.39322,1.263086 2.7256,-0.132958"
       id="path1" /></g></svg>
