<?xml version="1.0" encoding="UTF-8" standalone="no"?>
<!-- Created with Inkscape (http://www.inkscape.org/) -->

<svg
   width="210mm"
   height="297mm"
   viewBox="0 0 210 297"
   version="1.1"
   id="svg1"
   xml:space="preserve"
   inkscape:version="1.4.2 (ebf0e94, 2025-05-08)"
   sodipodi:docname="Drag.38.svg"
   xmlns:inkscape="http://www.inkscape.org/namespaces/inkscape"
   xmlns:sodipodi="http://sodipodi.sourceforge.net/DTD/sodipodi-0.dtd"
   xmlns:xlink="http://www.w3.org/1999/xlink"
   xmlns="http://www.w3.org/2000/svg"
   xmlns:svg="http://www.w3.org/2000/svg"><sodipodi:namedview
     id="namedview1"
     pagecolor="#ffffff"
     bordercolor="#000000"
     borderopacity="0.25"
     inkscape:showpageshadow="2"
     inkscape:pageopacity="0.0"
     inkscape:pagecheckerboard="0"
     inkscape:deskcolor="#d1d1d1"
     inkscape:document-units="mm"
     showguides="true"
     inkscape:zoom="2.44"
     inkscape:cx="396.72131"
     inkscape:cy="604.30328"
     inkscape:window-width="1916"
     inkscape:window-height="2041"
     inkscape:window-x="-9"
     inkscape:window-y="0"
     inkscape:window-maximized="0"
     inkscape:current-layer="svg1"><sodipodi:guide
       position="26.02459,180.10622"
       orientation="0,-1"
       id="guide1"
       inkscape:locked="false" /></sodipodi:namedview><defs
     id="defs1" /><path
     style="fill:none;stroke:#000000;stroke-width:0.264999"
     d="m 161.02715,192.25666 -3.25307,0.75905 -5.85554,0.86749 -7.5905,-0.10844 -7.91582,-0.86749 -12.1448,-2.38558 -17.13286,-4.77118 -9.108606,-3.79525 -6.939888,-4.55431 -6.614584,-4.66274 -4.445867,-5.20491 -2.710897,-4.98805 -2.060279,-5.96397 -1.951844,-7.37363 -1.409666,-7.80738 -0.325308,-6.28927 -0.75905,-9.43392 -1.084357,-5.42179 -2.060282,-2.49402 -1.192792,-0.10844 c 0,0 -0.650615,0 -1.192794,0 -0.542179,0 -1.5181,1.40967 -1.5181,1.40967 l -0.650616,1.40966 0.650616,3.46995 1.626537,7.37363 0.325307,4.98805 0.108435,7.69894 v 4.66274 l 0.108436,3.68682 -1.518102,1.08435 -4.012123,-0.21687 -6.180841,1.40967 -4.988047,1.73497 -3.036202,3.68682 -2.27715,4.44586 -0.759052,4.55431 -0.433742,3.46994 0.650615,4.98805 0.108435,3.79525 1.734973,0.75905 2.494023,-0.21687 h 1.951845 l 0.975921,-0.54218 -1.409666,-3.57838 -0.433742,-4.229 0.325308,-3.14463 0.867487,-3.68682 1.626536,-2.60246 1.951845,-1.62653 2.927765,-1.1928 2.927765,-0.43374 3.578381,1.30123 3.361511,2.49402 3.144639,4.5543 5.530225,6.28928 2.494023,2.49402 4.012123,3.79526 4.771176,3.25307 5.530226,2.71089 5.855533,2.92777 7.265201,2.49402 6.72302,2.16872 7.91581,1.95184 1.40966,0.75906 c 0,0 0.32531,0.65061 0.10844,1.08435 -0.21687,0.43375 -1.84341,2.7109 -1.84341,2.7109 0,0 -1.30123,2.71089 -1.62654,3.14463 -0.3253,0.43375 -1.95184,5.09649 -1.95184,5.09649 l -0.32531,3.68682 0.97592,3.3615 1.1928,1.30123 2.06028,0.43375 h 4.5543 l 2.49402,-4.66274 3.68682,-6.07241 1.95184,-4.66274 2.16872,-3.46994 3.14464,-0.10844 4.22899,0.75905 h 5.31336 l 5.85553,0.75905 8.13268,-0.10843"
     id="path1" /></svg>
