<?xml version="1.0" encoding="UTF-8" standalone="no"?>
<!-- Created with Inkscape (http://www.inkscape.org/) -->

<svg
   version="1.1"
   id="svg1"
   width="1340"
   height="879"
   viewBox="0 0 1340 879"
   xml:space="preserve"
   xmlns:xlink="http://www.w3.org/1999/xlink"
   xmlns="http://www.w3.org/2000/svg"
   xmlns:svg="http://www.w3.org/2000/svg"><defs
     id="defs1" /><g
     id="layer3"></g><g
     id="layer1"><path
       style="fill:#000000;fill-opacity:0;stroke:#000000"
       d="m 925.40283,571.84361 -49.19085,3.07443 -36.89314,-1.53722 -36.89313,-3.58683 -37.91795,-4.35544 -39.45516,-10.24809 -29.20706,-9.73569 -38.43035,-16.39695 -35.09972,-20.75239 -35.09972,-25.62023 -15.88455,-15.62835 -21.26479,-21.00859 -14.60353,-17.16555 -19.72758,-22.54581 -17.42176,-25.36403 -5.12405,-16.39695 -9.99189,-18.44657 -9.99189,-23.57061 -5.89265,-21.00859 -3.33063,-9.99189 -2.30582,-17.16556 -4.61165,-23.05821 -3.07442,-17.93416 -3.07443,-14.09113 -1.53722,-16.14075 -3.58683,-15.11594 -3.33063,-14.34733 -5.38025,-9.73569 -13.57872,-5.38025 -11.78531,-0.2562 -9.22328,6.40506 -9.47949,9.73569 -3.58683,9.99189 -3.58684,12.81012 -1.28101,15.88454 -0.2562,18.19037 -0.5124,14.09113 0.5124,15.37214 3.84304,12.29771 2.04961,12.29771 0.51241,15.88454 5.12405,17.67797 2.30582,16.14074 7.94227,18.44657 4.86784,12.81012 5.38025,13.57872 1.53722,4.35544 1.53721,5.63645 -3.84304,1.28101 -10.24809,3.58684 -12.29771,11.5291 -9.73569,9.99189 -7.68607,12.55392 -6.66126,9.22328 -1.02481,7.68607 -2.56202,5.89265 1.53721,8.45468 2.04962,7.17367 7.68607,2.56202 12.04151,-0.5124 8.71088,-4.09924 4.86784,-2.30582 5.63645,-10.5043 7.42987,-9.22328 6.40506,-2.04962 h 10.7605 l 7.17366,1.53721 6.40506,2.81823 8.71088,6.66126 9.73569,14.34733 13.32252,13.06632 8.96708,12.81012 9.99189,12.0415 7.68607,7.17367 14.60354,13.32252 11.0167,10.7605 19.98378,17.42176 15.62834,11.2729 17.67796,10.5043 19.21518,11.7853 15.62834,9.22329 17.42176,8.96708 15.37214,4.86784 21.521,7.42987 16.65315,5.38025 17.67796,7.68607 21.00859,3.58683 18.70277,3.84304 19.47138,2.56202 9.22328,-0.5124 6.40506,3.58683 -2.04962,8.71088 -7.42987,20.75239 -7.68607,17.67796 -5.63645,8.19847 -10.24809,14.34733 -5.38025,7.42987 9.47949,11.0167 4.35544,7.42987 11.2729,1.28101 12.81011,1.53722 10.2481,-7.17367 3.33063,-10.24809 7.68607,-9.22329 6.14885,-8.19847 8.45468,-8.45468 7.17367,-10.24809 14.09113,-12.81012 2.56202,-4.61164 8.96708,-1.02481 9.47949,-0.76861 9.73569,3.58684 14.34733,5.89265 12.81011,5.89265 9.73569,2.81823 7.42987,6.14885 6.66126,3.58684"
       id="path2" /></g></svg>
