<?xml version="1.0" encoding="UTF-8" standalone="no"?>
<!-- Created with Inkscape (http://www.inkscape.org/) -->

<svg
   width="210mm"
   height="297mm"
   viewBox="0 0 210 297"
   version="1.1"
   id="svg1"
   xml:space="preserve"
   inkscape:version="1.4.2 (ebf0e94, 2025-05-08)"
   sodipodi:docname="Drag.46.svg"
   xmlns:inkscape="http://www.inkscape.org/namespaces/inkscape"
   xmlns:sodipodi="http://sodipodi.sourceforge.net/DTD/sodipodi-0.dtd"
   xmlns:xlink="http://www.w3.org/1999/xlink"
   xmlns="http://www.w3.org/2000/svg"
   xmlns:svg="http://www.w3.org/2000/svg"><sodipodi:namedview
     id="namedview1"
     pagecolor="#ffffff"
     bordercolor="#000000"
     borderopacity="0.25"
     inkscape:showpageshadow="2"
     inkscape:pageopacity="0.0"
     inkscape:pagecheckerboard="0"
     inkscape:deskcolor="#d1d1d1"
     inkscape:document-units="mm"
     showguides="true"
     inkscape:zoom="2.44"
     inkscape:cx="396.72131"
     inkscape:cy="604.30328"
     inkscape:window-width="1916"
     inkscape:window-height="2041"
     inkscape:window-x="-9"
     inkscape:window-y="0"
     inkscape:window-maximized="0"
     inkscape:current-layer="svg1"><sodipodi:guide
       position="26.02459,180.10622"
       orientation="0,-1"
       id="guide1"
       inkscape:locked="false" /></sodipodi:namedview><defs
     id="defs1" /><path
     style="fill:none;stroke:#000000;stroke-width:0.264999"
     d="m 126.3277,150.07513 -2.38559,-0.3253 -0.75905,0.97592 -2.38559,0.43374 -11.49419,-1.08436 -5.7471,-0.54218 -4.228994,-0.75905 -4.988047,-1.95184 -1.084358,-0.32531 -3.036202,-6.72302 -1.409666,-2.81933 -1.626536,-3.14464 -2.168716,-3.46994 -3.253076,-3.46994 -3.795252,-2.7109 -3.253073,-1.73497 -4.228997,-0.86749 -2.060278,-0.32531 -0.867487,-1.40966 -1.084358,-1.5181 -0.75905,-0.43375 -1.518102,0.65062 v 0.43374 l -0.108437,4.44587 0.867487,2.92777 0.433745,0.97592 1.626536,0.43374 2.060279,-0.3253 c 0,0 0,-0.75906 1.409665,-0.32531 1.409666,0.43374 3.795253,0.97592 3.795253,0.97592 l 2.60246,2.16871 4.228996,3.68682 3.253074,5.96397 4.445867,7.2652 1.084358,4.44587 0.867487,1.73497 2.060279,0.75905 3.036202,0.65061 4.12056,1.62654 1.301231,2.38559 -0.54218,1.84341 -2.710896,4.12056 0.867487,1.95184 1.626539,2.60246 2.38559,-0.10844 2.38558,0.10844 6.83146,-9.65079 1.84341,-2.06028 1.84341,-2.16871 h 9.97609"
     id="path1" /></svg>
