<?xml version="1.0" encoding="UTF-8" standalone="no"?>
<!-- Created with Inkscape (http://www.inkscape.org/) -->

<svg
   width="210mm"
   height="297mm"
   viewBox="0 0 210 297"
   version="1.1"
   id="svg1"
   xml:space="preserve"
   inkscape:version="1.4.2 (ebf0e94, 2025-05-08)"
   sodipodi:docname="Drag.35 früh.svg"
   xmlns:inkscape="http://www.inkscape.org/namespaces/inkscape"
   xmlns:sodipodi="http://sodipodi.sourceforge.net/DTD/sodipodi-0.dtd"
   xmlns:xlink="http://www.w3.org/1999/xlink"
   xmlns="http://www.w3.org/2000/svg"
   xmlns:svg="http://www.w3.org/2000/svg"><sodipodi:namedview
     id="namedview1"
     pagecolor="#ffffff"
     bordercolor="#000000"
     borderopacity="0.25"
     inkscape:showpageshadow="2"
     inkscape:pageopacity="0.0"
     inkscape:pagecheckerboard="0"
     inkscape:deskcolor="#d1d1d1"
     inkscape:document-units="mm"
     showguides="true"
     inkscape:zoom="2.44"
     inkscape:cx="396.72131"
     inkscape:cy="604.30328"
     inkscape:window-width="1916"
     inkscape:window-height="2041"
     inkscape:window-x="-9"
     inkscape:window-y="0"
     inkscape:window-maximized="0"
     inkscape:current-layer="svg1"><sodipodi:guide
       position="26.02459,180.10622"
       orientation="0,-1"
       id="guide1"
       inkscape:locked="false" /></sodipodi:namedview><defs
     id="defs1" /><path
     style="fill:none;stroke:#000000;stroke-width:0.264999"
     d="m 108.00205,156.47285 -9.108609,0.10843 -7.48207,-0.75905 -9.108607,-2.27715 -7.048325,-3.46995 -3.903689,-4.87961 -4.012123,-6.83145 -1.626537,-5.31336 -1.301231,-4.5543 -2.385586,-4.66274 -3.36151,-3.46994 -5.313355,-2.27715 -4.87961,0.43374 -3.686815,1.62654 -1.409666,2.27715 0.75905,1.5181 1.626537,0.86749 4.012123,0.54217 h 2.927768 l 2.819331,1.30123 1.192792,1.62654 1.084358,3.46995 1.192794,3.79525 1.626537,4.98804 3.036202,5.85554 4.12056,6.18084 4.771176,4.33743 4.87961,3.90369 2.927765,1.30123 1.08436,0.65061 0.108434,1.5181 -0.97592,1.1928 -2.168716,2.16871 -0.542179,1.95185 1.301229,5.63866 2.494023,0.32531 2.27715,-1.08436 6.614583,-6.07241 5.421792,-4.87961 3.036202,-2.71089 4.337432,0.54218 h 4.5543"
     id="path1" /></svg>
