<?xml version="1.0" encoding="UTF-8" standalone="no"?>
<!-- Created with Inkscape (http://www.inkscape.org/) -->

<svg
   width="210mm"
   height="297mm"
   viewBox="0 0 210 297"
   version="1.1"
   id="svg1"
   xml:space="preserve"
   inkscape:version="1.4.2 (ebf0e94, 2025-05-08)"
   sodipodi:docname="Drag.22.svg"
   xmlns:inkscape="http://www.inkscape.org/namespaces/inkscape"
   xmlns:sodipodi="http://sodipodi.sourceforge.net/DTD/sodipodi-0.dtd"
   xmlns:xlink="http://www.w3.org/1999/xlink"
   xmlns="http://www.w3.org/2000/svg"
   xmlns:svg="http://www.w3.org/2000/svg"><sodipodi:namedview
     id="namedview1"
     pagecolor="#ffffff"
     bordercolor="#000000"
     borderopacity="0.25"
     inkscape:showpageshadow="2"
     inkscape:pageopacity="0.0"
     inkscape:pagecheckerboard="0"
     inkscape:deskcolor="#d1d1d1"
     inkscape:document-units="mm"
     showguides="true"
     inkscape:zoom="2.44"
     inkscape:cx="396.72131"
     inkscape:cy="604.30328"
     inkscape:window-width="1916"
     inkscape:window-height="2041"
     inkscape:window-x="-9"
     inkscape:window-y="0"
     inkscape:window-maximized="0"
     inkscape:current-layer="svg1"><sodipodi:guide
       position="26.02459,180.10622"
       orientation="0,-1"
       id="guide1"
       inkscape:locked="false" /></sodipodi:namedview><defs
     id="defs1" /><path
     style="fill:none;stroke:#000000;stroke-width:0.264999"
     d="m 116.13473,141.83401 -43.049006,-0.21687 -1.626537,-4.87961 -1.951844,-6.83145 -0.650616,-4.229 -1.301229,-4.01212 -1.626537,-4.44587 c 0,0 -1.084357,-0.10844 -1.84341,-0.10844 -0.75905,0 -2.602457,0.21688 -2.602457,0.21688 l -1.843408,1.5181 0.216871,3.0362 2.385587,1.08436 1.301228,2.71089 1.301232,3.14464 1.192792,5.20492 v 5.63866 l 0.650615,6.50615 0.108437,1.5181 0.975921,0.54218 v 2.27715 l -0.75905,1.40966 c 0,0 -1.084358,0.43375 -0.975923,1.30123 0.108437,0.86749 0.759052,2.27715 0.759052,2.27715 l 1.843408,0.43375 2.927765,0.21687 h 2.168716 l 1.08436,-2.38559 0.75905,-1.95184 40.012803,1.19279"
     id="path1" /></svg>
