<?xml version="1.0" encoding="UTF-8" standalone="no"?>
<!-- Created with Inkscape (http://www.inkscape.org/) -->

<svg
   width="210mm"
   height="297mm"
   viewBox="0 0 210 297"
   version="1.1"
   id="svg1"
   xml:space="preserve"
   inkscape:version="1.4.2 (ebf0e94, 2025-05-08)"
   sodipodi:docname="Drag.32.svg"
   xmlns:inkscape="http://www.inkscape.org/namespaces/inkscape"
   xmlns:sodipodi="http://sodipodi.sourceforge.net/DTD/sodipodi-0.dtd"
   xmlns:xlink="http://www.w3.org/1999/xlink"
   xmlns="http://www.w3.org/2000/svg"
   xmlns:svg="http://www.w3.org/2000/svg"><sodipodi:namedview
     id="namedview1"
     pagecolor="#ffffff"
     bordercolor="#000000"
     borderopacity="0.25"
     inkscape:showpageshadow="2"
     inkscape:pageopacity="0.0"
     inkscape:pagecheckerboard="0"
     inkscape:deskcolor="#d1d1d1"
     inkscape:document-units="mm"
     showguides="true"
     inkscape:zoom="2.44"
     inkscape:cx="396.72131"
     inkscape:cy="604.30328"
     inkscape:window-width="1916"
     inkscape:window-height="2041"
     inkscape:window-x="-9"
     inkscape:window-y="0"
     inkscape:window-maximized="0"
     inkscape:current-layer="svg1"><sodipodi:guide
       position="26.02459,180.10622"
       orientation="0,-1"
       id="guide1"
       inkscape:locked="false" /></sodipodi:namedview><defs
     id="defs1" /><path
     style="display:inline;fill:none;stroke:#000000;stroke-width:0.264999"
     d="m 181.84682,171.54542 -13.66291,-1.62654 -19.19313,-3.3615 -18.21721,-3.57839 -14.31353,-4.22899 -15.72319,-6.28928 -19.735314,-8.67486 -13.879783,-7.37364 -8.566425,-7.37363 -2.494023,-4.33743 -1.626539,-4.44587 -0.975921,-1.84341 -2.060279,-0.86748 -4.337433,0.54218 -1.734971,1.84341 -0.542179,3.79525 0.433742,3.46994 1.843408,4.77118 3.686818,5.42179 6.723017,6.18084 8.566428,5.31335 12.686987,6.72302 12.903862,6.0724 14.313525,5.96397 14.31352,5.7471 5.09648,2.06028 0.75905,1.5181 0.54218,3.46995 -1.40966,2.81933 -2.06028,3.0362 -1.5181,3.0362 0.65061,3.0362 1.62654,1.62654 4.01212,0.86749 4.77118,-0.21687 h 2.71089 l 1.95185,-4.55431 3.0362,-5.20492 3.14464,-3.25307 2.71089,-1.19279 3.57838,-0.32531 6.72302,1.73497 6.28928,2.16872 7.37363,2.38559 7.48207,0.86748 3.90369,0.97592"
     id="path1" /></svg>
