<?xml version="1.0" encoding="UTF-8" standalone="no"?>
<!-- Created with Inkscape (http://www.inkscape.org/) -->

<svg
   width="210mm"
   height="297mm"
   viewBox="0 0 210 297"
   version="1.1"
   id="svg1"
   xml:space="preserve"
   inkscape:version="1.4.2 (ebf0e94, 2025-05-08)"
   sodipodi:docname="Drag.42.svg"
   xmlns:inkscape="http://www.inkscape.org/namespaces/inkscape"
   xmlns:sodipodi="http://sodipodi.sourceforge.net/DTD/sodipodi-0.dtd"
   xmlns:xlink="http://www.w3.org/1999/xlink"
   xmlns="http://www.w3.org/2000/svg"
   xmlns:svg="http://www.w3.org/2000/svg"><sodipodi:namedview
     id="namedview1"
     pagecolor="#ffffff"
     bordercolor="#000000"
     borderopacity="0.25"
     inkscape:showpageshadow="2"
     inkscape:pageopacity="0.0"
     inkscape:pagecheckerboard="0"
     inkscape:deskcolor="#d1d1d1"
     inkscape:document-units="mm"
     showguides="true"
     inkscape:zoom="2.44"
     inkscape:cx="396.72131"
     inkscape:cy="604.30328"
     inkscape:window-width="1916"
     inkscape:window-height="2041"
     inkscape:window-x="-9"
     inkscape:window-y="0"
     inkscape:window-maximized="0"
     inkscape:current-layer="svg1"><sodipodi:guide
       position="26.02459,180.10622"
       orientation="0,-1"
       id="guide1"
       inkscape:locked="false" /></sodipodi:namedview><defs
     id="defs1" /><path
     style="fill:none;stroke:#000000;stroke-width:0.264999"
     d="m 139.99061,160.91871 -8.56643,-1.30123 -8.34956,-1.62653 -9.97609,-2.06028 -9.97609,-3.36151 -5.20492,-3.03621 -6.180841,-3.25307 -4.988047,-3.79525 -4.012123,-4.87961 -3.578381,-5.31336 -1.409666,-4.22899 -0.542178,-2.38559 -1.843408,-1.84341 -2.277152,-1.95184 -3.903689,-1.5181 -6.397713,-1.19279 h -4.120559 l -1.084358,0.43374 -0.975921,-0.43374 c 0,0 -0.759053,-2.06029 -1.192795,-2.06029 -0.433742,0 -2.927765,1.1928 -2.927765,1.1928 l -1.192795,1.19279 -0.975923,3.0362 -0.216871,3.36151 v 3.0362 l 1.626536,0.97593 1.843411,0.43374 1.301228,-1.08436 2.060279,-4.33743 2.277152,-0.75905 5.421792,-0.32531 3.686815,1.1928 2.168715,2.16871 3.144639,7.2652 5.855534,8.67487 6.506146,7.04832 9.217044,7.15676 7.915814,3.68682 6.61458,2.27715 6.61458,1.73497 -1.5181,4.01213 -0.86748,1.95184 0.43374,2.38559 2.06028,1.40967 5.09648,0.21687 c 0,0 0.97592,-0.65062 0.97592,-1.62654 0,-0.97592 1.08436,-4.98805 1.08436,-4.98805 l 1.5181,-3.79525 2.38559,-0.43374 6.50615,0.10843 6.18084,0.21687"
     id="path1" /></svg>
