<?xml version="1.0" encoding="UTF-8" standalone="no"?>
<!-- Created with Inkscape (http://www.inkscape.org/) -->

<svg
   width="210mm"
   height="297mm"
   viewBox="0 0 210 297"
   version="1.1"
   id="svg1"
   xml:space="preserve"
   inkscape:version="1.4.2 (ebf0e94, 2025-05-08)"
   sodipodi:docname="Drag.18.svg"
   xmlns:inkscape="http://www.inkscape.org/namespaces/inkscape"
   xmlns:sodipodi="http://sodipodi.sourceforge.net/DTD/sodipodi-0.dtd"
   xmlns:xlink="http://www.w3.org/1999/xlink"
   xmlns="http://www.w3.org/2000/svg"
   xmlns:svg="http://www.w3.org/2000/svg"><sodipodi:namedview
     id="namedview1"
     pagecolor="#ffffff"
     bordercolor="#000000"
     borderopacity="0.25"
     inkscape:showpageshadow="2"
     inkscape:pageopacity="0.0"
     inkscape:pagecheckerboard="0"
     inkscape:deskcolor="#d1d1d1"
     inkscape:document-units="mm"
     showguides="true"
     inkscape:zoom="2.44"
     inkscape:cx="396.72131"
     inkscape:cy="561.27049"
     inkscape:window-width="1916"
     inkscape:window-height="2041"
     inkscape:window-x="-9"
     inkscape:window-y="0"
     inkscape:window-maximized="0"
     inkscape:current-layer="layer1"><sodipodi:guide
       position="26.02459,180.10622"
       orientation="0,-1"
       id="guide1"
       inkscape:locked="false" /></sodipodi:namedview><defs
     id="defs1" /><g
     inkscape:label="Ebene 1"
     inkscape:groupmode="layer"
     id="layer1"><path
       style="fill:none;stroke:#000000;stroke-width:0.264999"
       d="m 128.93015,130.77357 -10.6267,1.62653 -10.19297,2.49403 -9.43391,1.8434 -7.48207,0.54218 -9.542349,0.97592 -12.361679,0.97593 -7.807378,-0.65062 -4.228997,-1.08436 -3.578381,-0.86748 -3.36151,-2.27715 -3.469944,-2.49403 -4.228997,-4.22899 -3.036202,-4.33743 -3.144637,-4.12056 -1.192794,-1.95185 h -2.819331 l -0.975921,1.40967 -0.108437,1.5181 1.192794,1.5181 2.927766,5.96397 6.506149,8.13268 4.228994,4.12056 4.012126,1.95184 4.554302,1.51811 4.337433,0.54217 5.421789,0.43375 6.72302,0.75905 4.771173,0.54218 2.060281,0.3253 1.301229,1.08436 0.542179,1.95185 -0.867487,4.5543 -0.325308,2.81933 1.951845,0.65061 3.36151,-0.54217 1.843407,-1.73498 1.734974,-3.90368 2.494023,-3.90369 2.385587,-2.38559 2.494023,-1.5181 2.927768,-1.08436 5.20492,-1.40967 5.53022,-0.75905 6.07241,-0.65061 7.91581,-0.32531 5.53023,0.21688"
       id="path1" /></g></svg>
