<?xml version="1.0" encoding="UTF-8" standalone="no"?>
<!-- Created with Inkscape (http://www.inkscape.org/) -->

<svg
   width="210mm"
   height="297mm"
   viewBox="0 0 210 297"
   version="1.1"
   id="svg1"
   xml:space="preserve"
   inkscape:version="1.4.2 (ebf0e94, 2025-05-08)"
   sodipodi:docname="Langenhain CII 1-2.svg"
   xmlns:inkscape="http://www.inkscape.org/namespaces/inkscape"
   xmlns:sodipodi="http://sodipodi.sourceforge.net/DTD/sodipodi-0.dtd"
   xmlns:xlink="http://www.w3.org/1999/xlink"
   xmlns="http://www.w3.org/2000/svg"
   xmlns:svg="http://www.w3.org/2000/svg"><sodipodi:namedview
     id="namedview1"
     pagecolor="#ffffff"
     bordercolor="#000000"
     borderopacity="0.25"
     inkscape:showpageshadow="2"
     inkscape:pageopacity="0.0"
     inkscape:pagecheckerboard="0"
     inkscape:deskcolor="#d1d1d1"
     inkscape:document-units="mm"
     showguides="true"
     inkscape:zoom="2.62"
     inkscape:cx="396.75573"
     inkscape:cy="561.64122"
     inkscape:window-width="1916"
     inkscape:window-height="2041"
     inkscape:window-x="-9"
     inkscape:window-y="0"
     inkscape:window-maximized="0"
     inkscape:current-layer="layer1"><sodipodi:guide
       position="135.32727,220.41819"
       orientation="0,-1"
       id="guide1"
       inkscape:locked="false" /></sodipodi:namedview><defs
     id="defs1" /><g
     inkscape:label="Ebene 1"
     inkscape:groupmode="layer"
     id="layer1"><path
       style="fill:none;stroke:#000000;stroke-width:0.264999"
       d="m 134.41237,206.31441 -3.23155,0.50493 -2.9286,0.60591 -2.32267,-0.30296 -1.91874,-1.91873 -5.25127,-6.86705 -8.07888,-7.17001 -6.56409,-5.0493 -8.785783,-5.95817 -6.766063,-5.25127 -4.544369,-4.03944 -2.019721,-2.52465 -1.413804,-6.26113 -1.110845,-7.271 -0.201972,-8.28085 0.908875,-11.00747 2.120705,-13.0272 7.170007,-24.034667 3.837469,-9.896629 1.615776,-2.322676 1.413803,-1.817749 0.706901,-1.312817 V 80.58683 l -1.413804,-2.01972 -2.01972,-1.817746 -2.726622,-0.302959 -1.817748,0.302959 -1.918734,1.009859 -1.413804,1.110845 v 0.706903 l 0.302958,0.605917 1.110846,0.403942 2.120706,0.605917 1.413804,0.807887 0.908875,1.110848 -1.716762,2.928593 -3.837469,11.512405 -3.837469,12.72424 -3.332538,12.32029 -2.322676,14.441 -0.504931,9.99761 -0.302959,14.23903 c 0,0 1.716763,7.17 1.211832,7.06902 -0.504929,-0.10099 1.716762,4.03944 1.716762,4.03944 l 4.645358,4.64535 8.886767,7.9779 8.886769,7.37198 7.37198,6.4631 2.92859,3.93845 2.22169,3.83747 0.90888,3.33254 v 2.62564 l -0.20197,1.21183 0.7069,1.00986 2.1207,0.20197 5.75621,-0.80789 6.86705,-0.90887 h 4.44338"
       id="path1" /></g></svg>
