<?xml version="1.0" encoding="UTF-8" standalone="no"?>
<!-- Created with Inkscape (http://www.inkscape.org/) -->

<svg
   width="210mm"
   height="297mm"
   viewBox="0 0 210 297"
   version="1.1"
   id="svg1"
   xml:space="preserve"
   inkscape:version="1.4.2 (ebf0e94, 2025-05-08)"
   sodipodi:docname="Langenhain CVII 1-47.svg"
   xmlns:inkscape="http://www.inkscape.org/namespaces/inkscape"
   xmlns:sodipodi="http://sodipodi.sourceforge.net/DTD/sodipodi-0.dtd"
   xmlns:xlink="http://www.w3.org/1999/xlink"
   xmlns="http://www.w3.org/2000/svg"
   xmlns:svg="http://www.w3.org/2000/svg"><sodipodi:namedview
     id="namedview1"
     pagecolor="#ffffff"
     bordercolor="#000000"
     borderopacity="0.25"
     inkscape:showpageshadow="2"
     inkscape:pageopacity="0.0"
     inkscape:pagecheckerboard="0"
     inkscape:deskcolor="#d1d1d1"
     inkscape:document-units="mm"
     showguides="true"
     inkscape:zoom="2.62"
     inkscape:cx="396.75573"
     inkscape:cy="561.64122"
     inkscape:window-width="1916"
     inkscape:window-height="2041"
     inkscape:window-x="-9"
     inkscape:window-y="0"
     inkscape:window-maximized="0"
     inkscape:current-layer="layer1"><sodipodi:guide
       position="135.32727,220.41819"
       orientation="0,-1"
       id="guide1"
       inkscape:locked="false" /></sodipodi:namedview><defs
     id="defs1" /><g
     inkscape:label="Ebene 1"
     inkscape:groupmode="layer"
     id="layer1"><path
       style="fill:none;stroke:#000000;stroke-width:0.264999"
       d="m 124.31377,108.05502 -3.43352,0.60592 -4.3424,0.10099 -8.98776,-0.70691 -3.53451,-0.20197 -4.645352,0.90888 c 0,0 -3.433524,0.50493 -3.837469,0.30295 -0.403945,-0.20197 -4.645356,-2.1207 -4.645356,-2.1207 l -2.01972,-2.42367 -1.918735,-4.94831 -0.908873,-4.241413 0.302959,-7.977894 0.7069,-7.876908 0.504931,-2.221693 V 76.85035 l -0.504931,-0.201972 -1.211831,0.302956 -1.009859,0.706903 -1.009862,2.322679 -0.504928,6.261132 0.20197,13.12818 1.211834,6.059162 1.615776,3.23155 3.736483,3.23155 1.817745,1.51479 h 2.019721 l 3.332538,-0.7069 5.352259,-0.80789 5.65522,-0.20197 16.76367,-0.50493"
       id="path1" /></g></svg>
