<?xml version="1.0" encoding="UTF-8" standalone="no"?>
<!-- Created with Inkscape (http://www.inkscape.org/) -->

<svg
   width="210mm"
   height="297mm"
   viewBox="0 0 210 297"
   version="1.1"
   id="svg1"
   xml:space="preserve"
   inkscape:version="1.4.2 (ebf0e94, 2025-05-08)"
   sodipodi:docname="Lud.Tm.svg"
   xmlns:inkscape="http://www.inkscape.org/namespaces/inkscape"
   xmlns:sodipodi="http://sodipodi.sourceforge.net/DTD/sodipodi-0.dtd"
   xmlns:xlink="http://www.w3.org/1999/xlink"
   xmlns="http://www.w3.org/2000/svg"
   xmlns:svg="http://www.w3.org/2000/svg"><sodipodi:namedview
     id="namedview1"
     pagecolor="#ffffff"
     bordercolor="#000000"
     borderopacity="0.25"
     inkscape:showpageshadow="2"
     inkscape:pageopacity="0.0"
     inkscape:pagecheckerboard="0"
     inkscape:deskcolor="#d1d1d1"
     inkscape:document-units="mm"
     showguides="true"
     inkscape:zoom="2.44"
     inkscape:cx="396.72131"
     inkscape:cy="604.30328"
     inkscape:window-width="1916"
     inkscape:window-height="2041"
     inkscape:window-x="-9"
     inkscape:window-y="0"
     inkscape:window-maximized="0"
     inkscape:current-layer="svg1"><sodipodi:guide
       position="26.02459,180.10622"
       orientation="0,-1"
       id="guide1"
       inkscape:locked="false" /></sodipodi:namedview><defs
     id="defs1" /><path
     style="fill:none;stroke:#000000;stroke-width:0.264999"
     d="m 129.79764,128.82172 -28.30174,-1.73497 -23.313696,-1.08436 -16.915981,-0.97592 -4.012126,-0.21687 -1.626537,-0.97593 -0.75905,-1.73497 v -1.73497 l -0.650615,-2.06028 -1.843408,-0.32531 -1.192794,0.10844 -1.301229,2.27715 v 1.5181 l 0.325308,3.57838 0.650613,2.27715 4.228996,1.73497 7.048328,1.08436 12.470114,1.5181 5.421792,0.54218 1.192792,1.40967 c 0,0 0.108436,0.21687 0.108436,0.65061 0,0.43375 -0.433744,2.92777 -0.433744,2.92777 l -1.192792,1.95184 -0.216871,1.73497 -0.108437,2.81934 0.975921,0.21687 1.84341,-0.10844 1.409666,-0.32531 1.192792,-1.5181 1.951844,-4.12056 1.84341,-2.38558 1.843408,-1.40967 5.421789,-0.21687 3.36151,-0.10844 7.698941,-1.40966 6.72302,-0.86749 9.43391,-0.10843 6.39771,0.3253"
     id="path1" /></svg>
