<?xml version="1.0" encoding="UTF-8" standalone="no"?>
<!-- Created with Inkscape (http://www.inkscape.org/) -->

<svg
   width="210mm"
   height="297mm"
   viewBox="0 0 210 297"
   version="1.1"
   id="svg1"
   xml:space="preserve"
   inkscape:version="1.4.2 (ebf0e94, 2025-05-08)"
   sodipodi:docname="Lud.Bb-Nb.8.svg"
   xmlns:inkscape="http://www.inkscape.org/namespaces/inkscape"
   xmlns:sodipodi="http://sodipodi.sourceforge.net/DTD/sodipodi-0.dtd"
   xmlns:xlink="http://www.w3.org/1999/xlink"
   xmlns="http://www.w3.org/2000/svg"
   xmlns:svg="http://www.w3.org/2000/svg"><sodipodi:namedview
     id="namedview1"
     pagecolor="#ffffff"
     bordercolor="#000000"
     borderopacity="0.25"
     inkscape:showpageshadow="2"
     inkscape:pageopacity="0.0"
     inkscape:pagecheckerboard="0"
     inkscape:deskcolor="#d1d1d1"
     inkscape:document-units="mm"
     showguides="true"
     inkscape:zoom="2.44"
     inkscape:cx="396.72131"
     inkscape:cy="604.30328"
     inkscape:window-width="1916"
     inkscape:window-height="2041"
     inkscape:window-x="-9"
     inkscape:window-y="0"
     inkscape:window-maximized="0"
     inkscape:current-layer="svg1"><sodipodi:guide
       position="26.02459,180.10622"
       orientation="0,-1"
       id="guide1"
       inkscape:locked="false" /></sodipodi:namedview><defs
     id="defs1" /><path
     style="fill:none;stroke:#000000;stroke-width:0.264999"
     d="m 139.33999,188.56984 -25.37397,-0.10844 h -9.86766 l -1.40967,-0.75905 -5.313349,-9.00017 -9.217043,-16.59067 -7.373633,-11.8195 -6.506149,-10.3014 -10.843578,-13.55448 -4.662739,-5.53022 -3.578381,-2.38559 c 0,0 -2.819331,-0.21687 -3.686818,-0.21687 -0.867486,0 -5.204917,0 -5.204917,0 0,0 -1.5181,1.30123 -1.5181,1.73497 0,0.43374 -0.542182,2.27715 -0.325308,2.92777 0.216871,0.65061 1.951845,2.27715 1.951845,2.27715 l 2.494023,1.62654 4.445865,1.08435 3.144639,-0.21687 1.409666,1.62654 1.951844,4.22899 11.277322,19.41001 10.518272,21.7956 7.807375,18.10877 2.277153,5.31336 3.578381,2.06028 5.53023,1.19279 4.44586,2.27715 c 0,0 0.54218,0.86749 0.65062,1.5181 0.10843,0.65062 -0.32531,1.5181 -0.54218,2.27715 -0.21687,0.75905 -4.01213,7.2652 -4.01213,7.2652 l -0.75905,3.57838 0.54218,1.1928 1.1928,1.95184 1.5181,0.86749 6.0724,0.65061 1.40967,-1.84341 1.40966,-3.46994 3.14464,-5.20492 4.01213,-3.57838 2.71089,-1.95184 1.95184,-0.54218 3.79526,1.08435 8.89173,2.49403 2.27715,0.43374"
     id="path1" /></svg>
