<?xml version="1.0" encoding="UTF-8" standalone="no"?>
<!-- Created with Inkscape (http://www.inkscape.org/) -->

<svg
   width="210mm"
   height="297mm"
   viewBox="0 0 210 297"
   version="1.1"
   id="svg1"
   xml:space="preserve"
   inkscape:version="1.4.2 (ebf0e94, 2025-05-08)"
   sodipodi:docname="Lud.Sd.-Nb11a.svg"
   xmlns:inkscape="http://www.inkscape.org/namespaces/inkscape"
   xmlns:sodipodi="http://sodipodi.sourceforge.net/DTD/sodipodi-0.dtd"
   xmlns:xlink="http://www.w3.org/1999/xlink"
   xmlns="http://www.w3.org/2000/svg"
   xmlns:svg="http://www.w3.org/2000/svg"><sodipodi:namedview
     id="namedview1"
     pagecolor="#ffffff"
     bordercolor="#000000"
     borderopacity="0.25"
     inkscape:showpageshadow="2"
     inkscape:pageopacity="0.0"
     inkscape:pagecheckerboard="0"
     inkscape:deskcolor="#d1d1d1"
     inkscape:document-units="mm"
     showguides="true"
     inkscape:zoom="2.44"
     inkscape:cx="396.72131"
     inkscape:cy="604.30328"
     inkscape:window-width="1916"
     inkscape:window-height="2041"
     inkscape:window-x="-9"
     inkscape:window-y="0"
     inkscape:window-maximized="0"
     inkscape:current-layer="svg1"><sodipodi:guide
       position="26.02459,180.10622"
       orientation="0,-1"
       id="guide1"
       inkscape:locked="false" /></sodipodi:namedview><defs
     id="defs1" /><path
     style="fill:none;stroke:#000000;stroke-width:0.264999"
     d="m 140.31591,144.65334 c -0.43374,0 -8.24112,0.75905 -8.24112,0.75905 h -8.02424 l -8.7833,-1.19279 -4.77118,-1.5181 -7.37363,-4.87961 -3.361512,-4.12056 -3.144639,-5.31335 -1.951842,-5.31336 -0.975924,-3.68681 -1.192794,-0.97593 c 0,0 -1.409663,-0.54218 -1.843408,-0.54218 -0.433742,0 -5.63866,0.65062 -5.63866,0.65062 l -4.337433,1.40967 -2.385587,1.62653 c 0,0 -0.542179,0.75905 -0.542179,1.30123 0,0.54218 -0.433744,2.49402 -0.433744,2.49402 l 1.301231,0.75905 c 0,0 3.903689,1.08436 4.337431,1.1928 0.433742,0.10844 2.819331,0.21687 2.819331,0.21687 l 2.494024,1.30123 1.73497,2.27715 c 0,0 2.385589,4.98805 2.710897,5.42179 0.325306,0.43374 6.072405,7.48207 6.072405,7.48207 l 5.747093,5.09648 8.34956,4.12056 12.36168,3.79525 9.21704,1.1928 4.77118,-0.32531"
     id="path1" /></svg>
