<?xml version="1.0" encoding="UTF-8" standalone="no"?>
<!-- Created with Inkscape (http://www.inkscape.org/) -->

<svg
   width="210mm"
   height="297mm"
   viewBox="0 0 210 297"
   version="1.1"
   id="svg1"
   xml:space="preserve"
   inkscape:version="1.4.2 (ebf0e94, 2025-05-08)"
   sodipodi:docname="Lud.Tb.svg"
   xmlns:inkscape="http://www.inkscape.org/namespaces/inkscape"
   xmlns:sodipodi="http://sodipodi.sourceforge.net/DTD/sodipodi-0.dtd"
   xmlns:xlink="http://www.w3.org/1999/xlink"
   xmlns="http://www.w3.org/2000/svg"
   xmlns:svg="http://www.w3.org/2000/svg"><sodipodi:namedview
     id="namedview1"
     pagecolor="#ffffff"
     bordercolor="#000000"
     borderopacity="0.25"
     inkscape:showpageshadow="2"
     inkscape:pageopacity="0.0"
     inkscape:pagecheckerboard="0"
     inkscape:deskcolor="#d1d1d1"
     inkscape:document-units="mm"
     showguides="true"
     inkscape:zoom="2.44"
     inkscape:cx="396.72131"
     inkscape:cy="604.30328"
     inkscape:window-width="1916"
     inkscape:window-height="2041"
     inkscape:window-x="-9"
     inkscape:window-y="0"
     inkscape:window-maximized="0"
     inkscape:current-layer="svg1"><sodipodi:guide
       position="26.02459,180.10622"
       orientation="0,-1"
       id="guide1"
       inkscape:locked="false" /></sodipodi:namedview><defs
     id="defs1" /><path
     style="fill:none;stroke:#000000;stroke-width:0.264999"
     d="m 182.06369,150.07513 -20.49436,-1.30123 -23.3137,-2.49402 -16.69911,-1.5181 -17.5666,-2.60246 -16.590672,-2.16871 -11.277322,-1.62654 -5.638663,-8.56643 -4.879609,-7.69894 -4.228997,-3.36151 c 0,0 -4.554302,-1.08436 -5.204918,-1.08436 -0.650613,0 -5.747096,0.54218 -5.747096,0.54218 l -2.168716,1.73498 -0.867487,2.16871 0.75905,4.229 2.819332,2.92776 4.445867,0.86749 c 0,0 3.578381,0.21687 3.469945,0.65062 -0.108435,0.43374 6.939891,11.60262 7.48207,11.92793 0.542178,0.32531 7.048327,7.69894 7.048327,7.69894 l 20.928108,4.66274 20.385931,3.36151 1.08436,0.86749 0.3253,1.95184 -6.0724,9.32548 0.21687,3.46995 2.16872,2.06027 9.54234,0.21688 16.15694,-20.71124 42.7237,0.21687"
     id="path1" /></svg>
