<?xml version="1.0" encoding="UTF-8" standalone="no"?>
<!-- Created with Inkscape (http://www.inkscape.org/) -->

<svg
   width="210mm"
   height="297mm"
   viewBox="0 0 210 297"
   version="1.1"
   id="svg1"
   xml:space="preserve"
   inkscape:version="1.4.2 (ebf0e94, 2025-05-08)"
   sodipodi:docname="Lud.Tl.svg"
   xmlns:inkscape="http://www.inkscape.org/namespaces/inkscape"
   xmlns:sodipodi="http://sodipodi.sourceforge.net/DTD/sodipodi-0.dtd"
   xmlns:xlink="http://www.w3.org/1999/xlink"
   xmlns="http://www.w3.org/2000/svg"
   xmlns:svg="http://www.w3.org/2000/svg"><sodipodi:namedview
     id="namedview1"
     pagecolor="#ffffff"
     bordercolor="#000000"
     borderopacity="0.25"
     inkscape:showpageshadow="2"
     inkscape:pageopacity="0.0"
     inkscape:pagecheckerboard="0"
     inkscape:deskcolor="#d1d1d1"
     inkscape:document-units="mm"
     showguides="true"
     inkscape:zoom="2.44"
     inkscape:cx="396.72131"
     inkscape:cy="604.30328"
     inkscape:window-width="1916"
     inkscape:window-height="2041"
     inkscape:window-x="-9"
     inkscape:window-y="0"
     inkscape:window-maximized="0"
     inkscape:current-layer="svg1"><sodipodi:guide
       position="26.02459,180.10622"
       orientation="0,-1"
       id="guide1"
       inkscape:locked="false" /></sodipodi:namedview><defs
     id="defs1" /><path
     style="fill:none;stroke:#000000;stroke-width:0.264999"
     d="m 169.48514,151.70167 -21.47029,-0.43374 -18.10877,-0.54218 -9.00017,-1.30123 -6.50615,-0.54218 -14.421961,-0.32531 H 83.820867 l -13.229167,-0.75905 -6.180841,-2.81933 -5.747096,-6.72302 -2.602458,-8.7833 1.409663,-4.87961 -0.433742,-4.98804 -3.036202,-2.16872 -2.819331,0.21687 -2.385587,1.1928 -2.710894,2.16871 -0.650616,2.06028 0.867487,2.92777 2.60246,0.86749 1.084358,0.54218 0.75905,7.48207 3.36151,9.43391 2.060278,3.57838 3.795252,4.12056 6.072405,4.12056 8.566427,3.14464 3.903689,1.5181 19.301571,3.0362 12.036377,1.30123 1.84341,1.08436 c 0,0 0.54217,1.95184 0.54217,2.38558 0,0.43375 -2.81933,6.39772 -2.81933,6.39772 l -2.81933,7.15676 0.32531,1.84341 1.40967,1.73497 3.14463,1.19279 3.03621,-0.43374 4.87961,-11.8195 4.12056,-8.67486 3.68681,-3.90369 2.38559,-1.5181 6.18084,0.21687 20.06062,-0.54218 12.57855,-0.32531"
     id="path1" /></svg>
