<?xml version="1.0" encoding="UTF-8" standalone="no"?>
<!-- Created with Inkscape (http://www.inkscape.org/) -->

<svg
   width="210mm"
   height="297mm"
   viewBox="0 0 210 297"
   version="1.1"
   id="svg1"
   xml:space="preserve"
   inkscape:version="1.4.2 (ebf0e94, 2025-05-08)"
   sodipodi:docname="Lud.Tx.svg"
   xmlns:inkscape="http://www.inkscape.org/namespaces/inkscape"
   xmlns:sodipodi="http://sodipodi.sourceforge.net/DTD/sodipodi-0.dtd"
   xmlns:xlink="http://www.w3.org/1999/xlink"
   xmlns="http://www.w3.org/2000/svg"
   xmlns:svg="http://www.w3.org/2000/svg"><sodipodi:namedview
     id="namedview1"
     pagecolor="#ffffff"
     bordercolor="#000000"
     borderopacity="0.25"
     inkscape:showpageshadow="2"
     inkscape:pageopacity="0.0"
     inkscape:pagecheckerboard="0"
     inkscape:deskcolor="#d1d1d1"
     inkscape:document-units="mm"
     showguides="true"
     inkscape:zoom="2.44"
     inkscape:cx="396.72131"
     inkscape:cy="604.30328"
     inkscape:window-width="1916"
     inkscape:window-height="2041"
     inkscape:window-x="-9"
     inkscape:window-y="0"
     inkscape:window-maximized="0"
     inkscape:current-layer="svg1"><sodipodi:guide
       position="26.02459,180.10622"
       orientation="0,-1"
       id="guide1"
       inkscape:locked="false" /></sodipodi:namedview><defs
     id="defs1" /><path
     style="fill:none;stroke:#000000;stroke-width:0.264999"
     d="m 135.00256,144.32804 -21.90403,-0.75905 -22.554646,-0.32531 -11.927935,-0.86749 -1.951844,-3.57838 -2.710895,-9.75922 -1.084357,-7.80738 -7.807378,-1.08435 -7.807378,-0.32531 -3.253073,-1.5181 -1.951845,-0.54218 c 0,0 -1.084357,0.65061 -1.192794,1.08436 -0.108434,0.43374 -0.433742,2.71089 -0.433742,2.71089 l -0.108437,5.20492 1.626539,3.46994 4.12056,0.97593 4.662739,-0.21687 3.469944,-0.21687 0.75905,0.21687 3.253076,9.54234 2.060278,5.7471 1.409666,0.97592 3.903689,1.08436 12.578551,1.73497 6.72302,0.97593 1.5181,0.86748 -0.867487,2.81933 -3.578381,5.09649 -1.084358,3.90368 -0.433742,5.63866 4.337431,0.54218 2.60246,-0.75905 5.313349,-6.93989 6.61459,-6.93989 3.46994,-1.62654 5.53023,0.54219 16.59068,1.40966"
     id="path1" /></svg>
