<?xml version="1.0" encoding="UTF-8" standalone="no"?>
<!-- Created with Inkscape (http://www.inkscape.org/) -->

<svg
   width="210mm"
   height="297mm"
   viewBox="0 0 210 297"
   version="1.1"
   id="svg1"
   xml:space="preserve"
   inkscape:version="1.4.2 (ebf0e94, 2025-05-08)"
   sodipodi:docname="Lud.SSa.svg"
   xmlns:inkscape="http://www.inkscape.org/namespaces/inkscape"
   xmlns:sodipodi="http://sodipodi.sourceforge.net/DTD/sodipodi-0.dtd"
   xmlns:xlink="http://www.w3.org/1999/xlink"
   xmlns="http://www.w3.org/2000/svg"
   xmlns:svg="http://www.w3.org/2000/svg"><sodipodi:namedview
     id="namedview1"
     pagecolor="#ffffff"
     bordercolor="#000000"
     borderopacity="0.25"
     inkscape:showpageshadow="2"
     inkscape:pageopacity="0.0"
     inkscape:pagecheckerboard="0"
     inkscape:deskcolor="#d1d1d1"
     inkscape:document-units="mm"
     showguides="true"
     inkscape:zoom="2.44"
     inkscape:cx="396.72131"
     inkscape:cy="604.30328"
     inkscape:window-width="1916"
     inkscape:window-height="2041"
     inkscape:window-x="-9"
     inkscape:window-y="0"
     inkscape:window-maximized="0"
     inkscape:current-layer="svg1"><sodipodi:guide
       position="26.02459,180.10622"
       orientation="0,-1"
       id="guide1"
       inkscape:locked="false" /></sodipodi:namedview><defs
     id="defs1" /><path
     style="fill:none;stroke:#000000;stroke-width:0.264999"
     d="m 124.8096,210.14856 c -0.43375,0 -7.91582,-0.65061 -8.34956,-0.65061 -0.43374,0 -12.47012,-0.43375 -12.47012,-0.43375 l -10.518268,-0.3253 -7.373633,-2.38559 -5.421791,-2.81933 -5.747097,-3.57838 -4.87961,-4.66274 -5.855533,-6.07241 -3.903689,-5.31335 -2.602457,-5.53022 -1.518103,-3.14464 -1.843407,-5.7471 -0.216871,-5.96397 -0.650616,-7.15676 0.75905,-12.03637 0.650615,-4.01213 0.867487,-8.89173 -0.75905,-8.13268 -0.975923,-2.7109 -1.843408,-1.30123 -0.650616,-0.86749 -1.084357,-0.10843 -1.301229,0.21687 -0.542179,0.86749 0.433742,1.8434 1.084358,0.43375 0.433745,1.95184 0.216871,4.33743 v 6.28928 l -0.216871,4.66274 -0.108437,8.34955 -0.325308,7.04833 v 5.20492 l 1.192794,5.96397 1.409666,7.37363 2.060279,7.2652 3.36151,7.5905 3.469947,5.20492 6.072401,6.18084 8.349557,6.18084 12.253246,5.96397 4.554302,1.95184 31.880123,0.43375"
     id="path1" /></svg>
