<?xml version="1.0" encoding="UTF-8" standalone="no"?>
<!-- Created with Inkscape (http://www.inkscape.org/) -->

<svg
   width="210mm"
   height="297mm"
   viewBox="0 0 210 297"
   version="1.1"
   id="svg1"
   xml:space="preserve"
   inkscape:version="1.4.2 (ebf0e94, 2025-05-08)"
   sodipodi:docname="Mainz Typ 318b.svg"
   xmlns:inkscape="http://www.inkscape.org/namespaces/inkscape"
   xmlns:sodipodi="http://sodipodi.sourceforge.net/DTD/sodipodi-0.dtd"
   xmlns:xlink="http://www.w3.org/1999/xlink"
   xmlns="http://www.w3.org/2000/svg"
   xmlns:svg="http://www.w3.org/2000/svg"><sodipodi:namedview
     id="namedview1"
     pagecolor="#ffffff"
     bordercolor="#000000"
     borderopacity="0.25"
     inkscape:showpageshadow="2"
     inkscape:pageopacity="0.0"
     inkscape:pagecheckerboard="0"
     inkscape:deskcolor="#d1d1d1"
     inkscape:document-units="mm"
     showguides="true"
     inkscape:zoom="3.23"
     inkscape:cx="366.87307"
     inkscape:cy="476.31579"
     inkscape:window-width="1916"
     inkscape:window-height="2041"
     inkscape:window-x="-9"
     inkscape:window-y="0"
     inkscape:window-maximized="0"
     inkscape:current-layer="layer1"><sodipodi:guide
       position="128.78182,216.16364"
       orientation="0,-1"
       id="guide1"
       inkscape:locked="false" /></sodipodi:namedview><defs
     id="defs1" /><g
     inkscape:label="Ebene 1"
     inkscape:groupmode="layer"
     id="layer1"><path
       style="fill:none;stroke:#000000;stroke-width:0.264999"
       d="m 104.35887,130.65338 -1.47445,0.24574 -1.72021,0.32766 -1.884025,-0.16383 -0.327657,-2.04786 0.409572,-3.03083 -0.327657,-1.7202 -0.491488,-1.06489 -0.655314,-3.84997 -3.194659,-3.93189 -2.948916,-3.76806 -1.802117,-4.17763 -1.802117,-4.5872 -1.146799,-4.832949 -0.409572,-3.276577 v -1.720199 l 0.819144,-1.474459 0.5734,-1.228714 2.047859,-1.392545 1.638287,-1.965944 0.982972,-2.621259 0.409572,-2.211686 -0.409572,-0.73723 c 0,0 -0.08191,-0.245742 -0.491487,-0.245742 -0.40957,0 -0.655315,0 -0.655315,0 l -0.327657,0.163827 0.245745,0.901057 0.655314,0.16383 -0.08192,2.047859 -0.819144,1.556372 -1.965944,2.867001 -0.901058,0.245745 -1.474459,1.31063 -1.064884,2.948916 -0.245745,2.539343 1.146802,4.914864 1.474456,4.99677 2.293605,5.81592 1.720199,3.03083 2.293601,2.78509 1.556374,2.2936 0.982973,3.35849 v 2.867 l -0.327658,3.84997 -0.08191,1.88404 0.491488,1.06488 1.474456,-0.24574 4.996775,-0.5734 0.73723,0.0819"
       id="path1" /></g></svg>
