<?xml version="1.0" encoding="UTF-8" standalone="no"?>
<!-- Created with Inkscape (http://www.inkscape.org/) -->

<svg
   width="210mm"
   height="297mm"
   viewBox="0 0 210 297"
   version="1.1"
   id="svg1"
   xml:space="preserve"
   xmlns:xlink="http://www.w3.org/1999/xlink"
   xmlns="http://www.w3.org/2000/svg"
   xmlns:svg="http://www.w3.org/2000/svg"><defs
     id="defs1" /><path
     style="fill:none;stroke:#000000;stroke-width:0.264999"
     d="m 84.646584,129.98221 -1.556372,0.15062 -3.514392,0.65267 -5.171172,1.40575 -4.669118,1.45597 -3.966239,1.10452 H 62.60634 l -2.409867,-0.20082 -0.853493,-1.65679 -2.711101,-8.53494 -1.807401,-7.02878 -0.652674,-5.97446 -0.251026,-3.41398 1.857605,-2.00823 3.665006,-2.51028 8.334124,-3.46418 6.677339,-2.409867 1.606579,-0.702876 0.200822,-1.506167 -0.301234,-0.803291 -1.35555,-0.200821 -4.61891,0.702878 -4.819735,1.204934 -4.066651,1.757193 -3.26336,1.305346 -2.610692,1.255141 -1.104521,-0.0502 -0.351438,-2.058427 c 0,0 0.401642,-0.9037 0.150616,-0.9037 -0.251028,0 -1.455962,-0.150617 -1.706991,-0.05021 -0.251026,0.100412 -1.857605,1.656784 -1.857605,1.656784 l -0.401645,1.355553 -0.451851,5.97446 0.251029,6.22549 0.602467,5.22138 0.602467,5.67323 1.35555,5.77364 1.405755,4.61891 1.355551,4.06665 1.35555,1.60658 0.853495,1.00411 4.468294,0.20083 11.095432,-0.35144 8.886386,-0.25103 3.464184,-0.10041"
     id="path1" /></svg>
