<?xml version="1.0" encoding="UTF-8" standalone="no"?>
<!-- Created with Inkscape (http://www.inkscape.org/) -->

<svg
   width="210mm"
   height="297mm"
   viewBox="0 0 210 297"
   version="1.1"
   id="svg1"
   xml:space="preserve"
   xmlns:xlink="http://www.w3.org/1999/xlink"
   xmlns="http://www.w3.org/2000/svg"
   xmlns:svg="http://www.w3.org/2000/svg"><defs
     id="defs1" /><path
     style="fill:none;stroke:#000000;stroke-width:0.264999"
     d="m 113.18974,151.94996 c 0,0 -3.27638,-0.12364 -3.52366,-0.12364 -0.24727,0 -4.76003,-0.12363 -4.76003,-0.12363 l -4.82184,-0.86546 -8.221867,-1.85456 -4.389115,-1.54546 -8.345503,-3.58548 -5.563669,-2.6582 -4.512752,-1.91637 -4.327297,-3.52366 -3.770932,-3.09092 -2.658197,-4.01821 -3.770929,-6.55276 -2.349106,-7.04732 -1.978192,-7.78913 -1.298191,-6.12004 -1.174551,-3.585471 -1.174552,-1.916375 -0.80364,-0.680005 -1.607283,-0.247272 -1.174551,1.112732 -0.432732,2.101831 0.494549,2.3491 1.421826,0.86546 1.050917,0.92728 0.370911,2.47274 v 4.82185 l 0.185454,3.70911 1.854558,8.40732 0.927277,3.83275 3.214563,5.93458 3.770932,5.06912 4.20366,4.63639 5.749123,3.64729 6.367309,3.6473 6.552766,3.52365 c 0,0 1.174552,0.86546 0.74182,1.05092 -0.432728,0.18545 -1.60728,1.42183 -1.60728,1.42183 l -1.236371,1.17455 -0.123638,1.29819 0.432732,1.60728 1.112731,1.29819 c 0,0 1.360009,0.49455 1.73092,0.49455 0.370912,0 1.483646,-0.3091 1.483646,-0.3091 l 3.214563,-2.84365 3.647295,-3.3382 1.050914,-0.86546 4.883663,1.23637 5.996399,1.11273 5.6873,0.68001 4.57458,0.55637 3.15274,0.0618"
     id="path1" /></svg>
