<?xml version="1.0" encoding="UTF-8" standalone="no"?>
<!-- Created with Inkscape (http://www.inkscape.org/) -->

<svg
   version="1.1"
   id="svg1"
   width="1340"
   height="879"
   viewBox="0 0 1340 879"
   xml:space="preserve"
   xmlns:xlink="http://www.w3.org/1999/xlink"
   xmlns="http://www.w3.org/2000/svg"
   xmlns:svg="http://www.w3.org/2000/svg"><defs
     id="defs1" /><g
     id="layer3"></g><g
     id="layer1"><path
       style="fill:#000000;fill-opacity:0;stroke:#000000"
       d="m 752.72246,559.28969 -23.82682,0.25621 -27.41365,-0.51241 -23.31441,0.76861 -26.90125,-2.04962 -33.3063,-5.63645 -35.61213,-10.7605 -21.26479,-10.50429 -34.58731,-17.42176 -15.37214,-13.32252 -15.88455,-11.27291 -15.62834,-15.88454 -15.62834,-18.95897 -12.55392,-20.49619 -12.81011,-29.97567 -13.57873,-41.24858 -6.91746,-32.7939 -4.09924,-33.3063 -3.84303,-53.03389 -1.28102,-18.95897 -2.30582,-12.29771 -4.35544,-9.22328 -5.63645,-5.38025 h -11.0167 -9.22328 l -4.61164,4.09923 -4.61165,5.12405 -1.53721,6.14886 0.76861,4.61164 1.79341,3.58683 2.56203,4.09924 2.04962,1.28101 h 6.91746 v 12.04151 9.73569 l 0.76861,19.21517 -0.25621,13.32253 0.51241,17.67796 v 11.0167 l 0.7686,9.22328 0.51241,17.93416 -0.2562,21.0086 1.53721,7.42986 1.53721,7.94228 v 5.38024 l 1.02481,4.09924 -0.2562,3.58683 -0.5124,4.09924 1.28101,2.81823 2.81822,8.19847 1.79342,7.42987 1.53721,3.84303 -1.28101,1.28102 2.30582,4.09923 2.56203,9.99189 3.33063,12.81012 7.68607,14.09113 7.94227,18.70277 12.29771,20.49619 1.79342,4.09923 5.12405,7.17367 9.73568,11.78531 9.73569,10.50429 20.23999,19.72758 13.57872,11.0167 17.42176,11.52911 16.14075,10.7605 19.21517,9.99189 21.00859,8.45467 14.60354,4.35544 19.47137,5.38025 11.52911,1.53722 2.56202,2.04961 -2.04962,5.38025 -4.09923,1.79342 -7.68607,2.81823 -5.63646,3.58683 -2.81822,5.38025 -0.76861,7.68607 3.58683,5.63645 9.9919,1.02481 16.39694,-0.51241 13.06632,-0.7686 3.84304,-0.51241 -2.81823,-2.81822 -1.28101,-1.79342 2.04962,-0.76861 4.35544,-1.53721 2.30582,-2.04962 -3.84303,-2.04962 0.5124,-4.09924 3.33063,-1.79341 5.12405,-1.79342 9.47948,-1.53721 11.78531,0.2562 15.88455,1.02481 13.57872,-0.51241 h 12.81012 l 5.89265,0.76861 3.33063,-1.02481 6.91746,-0.2562 5.63645,0.5124 12.81012,-0.5124 12.81012,0.5124"
       id="path2" /></g></svg>
