<?xml version="1.0" encoding="UTF-8" standalone="no"?>
<!-- Created with Inkscape (http://www.inkscape.org/) -->

<svg
   width="210mm"
   height="297mm"
   viewBox="0 0 210 297"
   version="1.1"
   id="svg1"
   xml:space="preserve"
   xmlns:xlink="http://www.w3.org/1999/xlink"
   xmlns="http://www.w3.org/2000/svg"
   xmlns:svg="http://www.w3.org/2000/svg"><defs
     id="defs1" /><path
     style="fill:none;stroke:#000000;stroke-width:0.264999"
     d="m 93.783995,110.25142 -1.706988,-0.30123 -2.460072,1.00411 c 0,0 -4.066651,0.75308 -4.267472,0.75308 -0.200824,0 -4.066652,0.30124 -4.066652,0.30124 l -2.7111,-0.0502 c 0,0 -2.560484,-0.50206 -2.811513,-0.50206 -0.251029,0 -3.363772,-0.80328 -3.363772,-0.80328 l -3.665006,-1.40576 -2.761308,-1.50617 -1.8074,-1.50616 -1.104522,-2.51028 -0.803288,-2.76131 -0.150617,-3.26336 -0.552262,-1.556372 -1.606579,-1.706988 -1.45596,-0.150617 -1.958017,0.45185 -1.35555,1.00411 -1.255139,1.405757 -0.602467,1.154727 0.10041,1.405755 1.104524,0.652678 0.853493,0.10041 0.552262,-1.154731 1.255138,-1.004112 h 0.853496 l 0.753084,0.251028 0.301233,1.154727 0.803288,1.958018 -0.200821,2.20904 0.853493,2.20905 1.305345,2.40987 2.460072,2.30945 1.807401,1.10452 1.656784,1.10453 2.058429,0.55226 2.25925,1.05432 2.560484,1.20493 2.510277,1.8576 1.104524,1.15473 5.070761,0.0502 6.024668,-1.20494 4.418089,-0.60246"
     id="path1" /></svg>
