<?xml version="1.0" encoding="UTF-8" standalone="no"?>
<!-- Created with Inkscape (http://www.inkscape.org/) -->

<svg
   width="210mm"
   height="297mm"
   viewBox="0 0 210 297"
   version="1.1"
   id="svg1"
   xml:space="preserve"
   inkscape:version="1.4.2 (ebf0e94, 2025-05-08)"
   sodipodi:docname="Nb.113.svg"
   xmlns:inkscape="http://www.inkscape.org/namespaces/inkscape"
   xmlns:sodipodi="http://sodipodi.sourceforge.net/DTD/sodipodi-0.dtd"
   xmlns:xlink="http://www.w3.org/1999/xlink"
   xmlns="http://www.w3.org/2000/svg"
   xmlns:svg="http://www.w3.org/2000/svg"><sodipodi:namedview
     id="namedview1"
     pagecolor="#ffffff"
     bordercolor="#000000"
     borderopacity="0.25"
     inkscape:showpageshadow="2"
     inkscape:pageopacity="0.0"
     inkscape:pagecheckerboard="0"
     inkscape:deskcolor="#d1d1d1"
     inkscape:document-units="mm"
     showguides="true"
     inkscape:zoom="2.81"
     inkscape:cx="367.25979"
     inkscape:cy="533.27402"
     inkscape:window-width="1916"
     inkscape:window-height="2041"
     inkscape:window-x="-9"
     inkscape:window-y="0"
     inkscape:window-maximized="0"
     inkscape:current-layer="layer1"><sodipodi:guide
       position="128.78182,216.16364"
       orientation="0,-1"
       id="guide1"
       inkscape:locked="false" /></sodipodi:namedview><defs
     id="defs1" /><g
     inkscape:label="Ebene 1"
     inkscape:groupmode="layer"
     id="layer1"><path
       style="fill:none;stroke:#000000;stroke-width:0.264999"
       d="m 119.20374,112.70685 -9.03915,-0.18832 -11.769722,0.28248 h -10.54567 l -10.828144,0.75326 -8.097567,0.47079 -3.295523,-0.28248 -3.76631,-1.60068 -2.824734,-3.20136 -1.694839,-5.27284 -1.883155,-7.626777 -2.353945,-7.438464 -1.318208,-3.672152 -3.013048,-2.730574 c 0,0 -1.600684,-0.659106 -2.071471,-0.753263 -0.470789,-0.09416 -4.048786,-0.188315 -4.048786,-0.188315 l -1.694839,2.824731 1.694839,2.730577 4.802047,6.214412 2.54226,3.860469 1.788998,7.155986 1.977314,8.56836 2.165628,5.17868 2.918891,2.35394 4.237098,2.35395 5.555308,0.0942 7.815096,-1.03574 7.250149,-0.94158 35.497483,-1.22405"
       id="path1" /></g></svg>
