<?xml version="1.0" encoding="UTF-8" standalone="no"?>
<!-- Created with Inkscape (http://www.inkscape.org/) -->

<svg
   width="210mm"
   height="297mm"
   viewBox="0 0 210 297"
   version="1.1"
   id="svg1"
   xml:space="preserve"
   xmlns:xlink="http://www.w3.org/1999/xlink"
   xmlns="http://www.w3.org/2000/svg"
   xmlns:svg="http://www.w3.org/2000/svg"><defs
     id="defs1" /><path
     style="fill:none;stroke:#000000;stroke-width:0.264999"
     d="m 88.160973,110.25142 c 0,0 -6.67734,0.0502 -7.12919,0.0502 -0.45185,0 -3.815623,-0.40165 -3.815623,-0.40165 l -3.263362,-0.50205 -2.35966,-0.75309 -1.255141,-0.50205 -2.209044,-1.20494 -1.857607,-2.10863 -2.761306,-2.86172 -1.706988,-2.761303 -1.455963,-2.108634 -2.861717,-2.158839 c 0,0 -1.35555,-0.351438 -1.606577,-0.351438 -0.251028,0 -2.158841,0.10041 -2.158841,0.10041 l -1.656784,1.104524 -0.853492,1.00411 v 0.853495 l 0.401642,0.702879 1.054317,0.251026 2.158841,0.100412 1.054317,-0.351438 0.753084,0.301233 1.405755,1.656783 4.317677,4.76953 2.761308,3.81562 2.861718,2.30946 3.062538,2.00822 2.560484,1.25514 2.409868,0.70288 12.400774,-0.0502"
     id="path1" /></svg>
