<?xml version="1.0" encoding="UTF-8" standalone="no"?>
<!-- Created with Inkscape (http://www.inkscape.org/) -->

<svg
   width="210mm"
   height="297mm"
   viewBox="0 0 210 297"
   version="1.1"
   id="svg1"
   xml:space="preserve"
   inkscape:version="1.4.2 (ebf0e94, 2025-05-08)"
   sodipodi:docname="Nb.104.svg"
   xmlns:inkscape="http://www.inkscape.org/namespaces/inkscape"
   xmlns:sodipodi="http://sodipodi.sourceforge.net/DTD/sodipodi-0.dtd"
   xmlns:xlink="http://www.w3.org/1999/xlink"
   xmlns="http://www.w3.org/2000/svg"
   xmlns:svg="http://www.w3.org/2000/svg"><sodipodi:namedview
     id="namedview1"
     pagecolor="#ffffff"
     bordercolor="#000000"
     borderopacity="0.25"
     inkscape:showpageshadow="2"
     inkscape:pageopacity="0.0"
     inkscape:pagecheckerboard="0"
     inkscape:deskcolor="#d1d1d1"
     inkscape:document-units="mm"
     showguides="true"
     inkscape:zoom="2.81"
     inkscape:cx="367.25979"
     inkscape:cy="533.27402"
     inkscape:window-width="1916"
     inkscape:window-height="2041"
     inkscape:window-x="-9"
     inkscape:window-y="0"
     inkscape:window-maximized="0"
     inkscape:current-layer="layer1"><sodipodi:guide
       position="128.78182,216.16364"
       orientation="0,-1"
       id="guide1"
       inkscape:locked="false" /></sodipodi:namedview><defs
     id="defs1" /><g
     inkscape:label="Ebene 1"
     inkscape:groupmode="layer"
     id="layer1"><path
       style="fill:none;stroke:#000000;stroke-width:0.264999"
       d="m 141.98991,177.39324 -4.04878,1.03573 -13.18209,0.84742 -9.22746,1.60068 -1.69484,-2.82473 -3.01305,-4.51957 -5.64946,-6.12026 -7.626783,-6.6852 -8.191725,-5.46115 -7.626778,-3.95463 -8.380042,-5.17867 -9.039146,-6.96768 -6.873517,-7.3443 -4.519573,-7.06184 -3.013049,-9.1333 -1.600681,-9.32162 1.129893,-6.402728 1.600681,-2.824734 3.860469,-2.353942 4.237099,-3.013049 1.977313,-2.542259 0.847421,-2.730577 -0.941578,-1.506524 -1.694839,-2.071471 -1.788999,-1.600681 -1.883156,-0.470789 -2.730574,-0.09416 -3.295523,0.564946 -2.824731,2.918891 -0.753264,7.061832 -1.22405,12.146355 1.035736,9.98072 1.883156,6.59105 3.577994,7.72093 4.519573,7.06184 4.707888,5.27283 7.250149,6.12026 6.685201,4.80204 7.909253,4.42542 8.944988,6.02609 6.591043,5.17868 5.743621,4.89621 4.33126,5.36699 2.16563,4.99036 0.75326,3.76631 c 0,0 2.4481,0.0942 2.82473,0.0942 0.37664,0 7.90926,-0.47079 7.90926,-0.47079 l 6.87351,-1.03573 13.46456,-0.47079"
       id="path1" /></g></svg>
