<?xml version="1.0" encoding="UTF-8" standalone="no"?>
<!-- Created with Inkscape (http://www.inkscape.org/) -->

<svg
   width="210mm"
   height="297mm"
   viewBox="0 0 210 297"
   version="1.1"
   id="svg1"
   xml:space="preserve"
   inkscape:version="1.4.2 (ebf0e94, 2025-05-08)"
   sodipodi:docname="Nb.1b.svg"
   xmlns:inkscape="http://www.inkscape.org/namespaces/inkscape"
   xmlns:sodipodi="http://sodipodi.sourceforge.net/DTD/sodipodi-0.dtd"
   xmlns:xlink="http://www.w3.org/1999/xlink"
   xmlns="http://www.w3.org/2000/svg"
   xmlns:svg="http://www.w3.org/2000/svg"><sodipodi:namedview
     id="namedview1"
     pagecolor="#ffffff"
     bordercolor="#000000"
     borderopacity="0.25"
     inkscape:showpageshadow="2"
     inkscape:pageopacity="0.0"
     inkscape:pagecheckerboard="0"
     inkscape:deskcolor="#d1d1d1"
     inkscape:document-units="mm"
     showguides="true"
     inkscape:zoom="5.27"
     inkscape:cx="309.7723"
     inkscape:cy="467.55218"
     inkscape:window-width="2766"
     inkscape:window-height="2041"
     inkscape:window-x="1061"
     inkscape:window-y="0"
     inkscape:window-maximized="0"
     inkscape:current-layer="svg1"><sodipodi:guide
       position="140.07272,202.74546"
       orientation="0,-1"
       id="guide1"
       inkscape:locked="false" /></sodipodi:namedview><defs
     id="defs1" /><path
     style="fill:none;stroke:#000000;stroke-width:0.264999"
     d="m 112.71149,124.76083 c -0.25102,0 -4.41809,0.80329 -4.41809,0.80329 0,0 -5.72343,1.20493 -5.92425,1.20493 -0.20082,0 -5.67323,1.60658 -5.874054,1.60658 -0.200821,0 -6.275694,1.50617 -6.275694,1.50617 l -3.514392,0.60246 -4.16706,0.35144 c 0,0 -1.054317,0.0502 -1.255139,-0.0502 -0.200824,-0.10041 -6.175284,-3.76542 -6.175284,-3.76542 l -6.878164,-5.12097 -6.074873,-5.02055 -7.179395,-6.77776 -7.882276,-7.58104 -5.572815,-6.777747 -1.104525,-1.154727 -1.556371,0.200822 -1.255139,1.004112 -0.602467,1.154726 v 1.004113 l 0.301234,0.853495 1.154726,0.251026 1.054317,0.251029 0.502058,0.903701 0.502054,1.00411 1.104522,1.05432 4.618913,5.52261 6.275695,6.37611 7.781864,7.33001 11.195841,9.84029 0.803288,0.50205 4.217268,1.45597 2.560484,1.15472 0.351438,0.70288 -0.45185,1.55637 -1.255139,3.01234 0.100412,1.30534 1.656784,2.00823 1.00411,0.65267 h 2.7111 l 1.907813,-3.66501 2.409867,-3.91603 1.255138,-1.50617 4.41809,-1.65678 4.970351,-1.60658 4.97035,-1.45596 4.21727,-1.00411 2.86172,-0.60247 2.35966,-0.30123"
     id="path1" /></svg>
