<?xml version="1.0" encoding="UTF-8" standalone="no"?>
<!-- Created with Inkscape (http://www.inkscape.org/) -->

<svg
   width="210mm"
   height="297mm"
   viewBox="0 0 210 297"
   version="1.1"
   id="svg1"
   xml:space="preserve"
   inkscape:version="1.4.2 (ebf0e94, 2025-05-08)"
   sodipodi:docname="Nb.15.svg"
   xmlns:inkscape="http://www.inkscape.org/namespaces/inkscape"
   xmlns:sodipodi="http://sodipodi.sourceforge.net/DTD/sodipodi-0.dtd"
   xmlns:xlink="http://www.w3.org/1999/xlink"
   xmlns="http://www.w3.org/2000/svg"
   xmlns:svg="http://www.w3.org/2000/svg"><sodipodi:namedview
     id="namedview1"
     pagecolor="#ffffff"
     bordercolor="#000000"
     borderopacity="0.25"
     inkscape:showpageshadow="2"
     inkscape:pageopacity="0.0"
     inkscape:pagecheckerboard="0"
     inkscape:deskcolor="#d1d1d1"
     inkscape:document-units="mm"
     showguides="true"
     inkscape:zoom="2.44"
     inkscape:cx="396.72131"
     inkscape:cy="604.30328"
     inkscape:window-width="1916"
     inkscape:window-height="2041"
     inkscape:window-x="-9"
     inkscape:window-y="0"
     inkscape:window-maximized="0"
     inkscape:current-layer="svg1"><sodipodi:guide
       position="26.02459,180.10622"
       orientation="0,-1"
       id="guide1"
       inkscape:locked="false" /></sodipodi:namedview><defs
     id="defs1" /><path
     style="fill:none;stroke:#000000;stroke-width:0.264999"
     d="m 159.18374,158.20782 h -4.01212 l -2.27716,0.86749 -6.61458,1.8434 -5.42179,0.43375 h -5.20491 l -4.77118,-0.10844 -5.42179,-2.16871 -7.2652,-3.14464 -6.0724,-4.98805 -7.04833,-6.72302 -7.698939,-8.24112 -3.795255,-5.53022 -3.253073,-4.98805 -2.385586,-4.33743 -1.518103,-1.84341 -1.409663,-1.19279 c 0,0 -1.08436,-0.43375 -1.626539,-0.43375 -0.542179,0 -3.036202,0.32531 -3.036202,0.32531 l -1.843408,1.5181 -1.951844,1.95184 -0.975921,1.51811 -0.216871,2.60245 1.084358,1.73498 c 0,0 1.518099,0.65061 2.277149,1.19279 0.759053,0.54218 1.626537,0.75905 1.951845,1.40967 0.325308,0.65061 0.759052,0.86749 0.759052,1.62654 0,0.75904 0,2.06027 0,2.49402 0,0.43374 0.108434,4.5543 0.108434,4.5543 l 2.168716,5.20492 3.253073,11.16889 5.96397,11.27732 5.855534,8.89173 6.939893,4.55431 c 0,0 3.90368,0.65061 4.44586,0.65061 0.54218,0 6.50615,-2.60246 6.50615,-2.60246 l 3.14464,-0.86749 c 0,0 1.62653,-0.75905 1.95184,0 0.32531,0.75906 0.75905,3.03621 1.08436,3.79526 0.32531,0.75905 -0.97592,4.22899 -0.97592,4.22899 l -2.06028,8.45799 -1.84341,3.79526 -0.43374,3.36151 c 0,0 1.40966,0.43374 1.84341,0.54218 0.43374,0.10843 2.49402,0.10843 2.49402,0.10843 l 3.36151,-1.40966 3.25307,-3.25308 7.04833,-7.15676 3.46995,-3.68682 c 0,0 3.57838,-2.06028 4.5543,-2.06028 0.97592,0 3.36151,-0.97592 3.36151,-0.97592 l 3.68681,0.43375 c 0,0 2.7109,0.97592 3.14464,1.30122 0.43375,0.32531 1.95185,1.30123 2.38559,1.73498 0.43374,0.43374 1.95184,1.08436 1.95184,1.08436"
     id="path1" /></svg>
