<?xml version="1.0" encoding="UTF-8" standalone="no"?>
<!-- Created with Inkscape (http://www.inkscape.org/) -->

<svg
   version="1.1"
   id="svg1"
   width="1340"
   height="879"
   viewBox="0 0 1340 879"
   sodipodi:docname="스크린샷 2026-02-23 160503.png"
   inkscape:export-filename="..\..\Downloads\Drag.38-2.svg"
   inkscape:export-xdpi="96"
   inkscape:export-ydpi="96"
   xml:space="preserve"
   xmlns:inkscape="http://www.inkscape.org/namespaces/inkscape"
   xmlns:sodipodi="http://sodipodi.sourceforge.net/DTD/sodipodi-0.dtd"
   xmlns:xlink="http://www.w3.org/1999/xlink"
   xmlns="http://www.w3.org/2000/svg"
   xmlns:svg="http://www.w3.org/2000/svg"><defs
     id="defs1" /><sodipodi:namedview
     id="namedview1"
     pagecolor="#ffffff"
     bordercolor="#000000"
     borderopacity="0.25"
     inkscape:showpageshadow="2"
     inkscape:pageopacity="0.0"
     inkscape:pagecheckerboard="0"
     inkscape:deskcolor="#d1d1d1"><inkscape:page
       x="0"
       y="0"
       width="1340"
       height="879"
       id="page2"
       margin="0"
       bleed="0" /></sodipodi:namedview><g
     inkscape:groupmode="layer"
     id="layer3"
     inkscape:label="Image 2"></g><g
     inkscape:groupmode="layer"
     id="layer1"
     inkscape:label="Image 1"><path
       style="fill:#000000;fill-opacity:0;stroke:#000000"
       d="m 1111.9749,664.86603 -34.4209,-0.72464 h -38.7688 -36.5948 l -16.6669,5.43487 -17.3916,4.3479 -6.88417,-2.53628 -6.15952,-17.75391 -7.60882,-16.66695 -9.05812,-17.39159 -18.47857,-17.02926 -14.85531,-15.21765 -25.36274,-18.47856 -18.11624,-15.94229 -19.92787,-16.30462 -13.40601,-5.43487 -16.66695,-7.60882 -18.47856,-13.40602 -17.75392,-10.50742 -13.40601,-11.95672 -9.78277,-1.81162 -14.13067,-6.88417 -18.11624,-9.78277 -12.68137,-11.5944 -9.42045,-9.05812 -29.71063,-14.13067 -10.1451,-5.43487 -21.37716,-12.31904 -12.31904,-17.02927 -15.9423,-20.65251 -13.40601,-21.01484 -19.92787,-30.79761 -17.39159,-44.92828 -4.3479,-21.01484 -1.81162,-13.04369 5.7972,-16.66694 10.86974,-7.60882 18.84089,-11.95672 11.59439,-10.50742 6.15953,-17.75392 0.72465,-17.39159 -6.88418,-9.78277 -6.15952,-10.86974 -7.97114,-9.78277 -9.42045,-5.07255 -7.60882,-3.26093 -23.18879,1.08698 -11.95672,2.8986 -5.07254,7.60882 -6.52185,17.75391 -2.8986,22.82647 -2.17395,14.85532 -1.08697,24.63808 1.4493,19.20322 1.08697,17.39159 3.62325,17.75392 7.97114,28.62366 8.33348,21.01483 19.92786,43.47898 11.23207,21.73949 22.46414,31.52226 26.44971,25.72506 20.29019,17.02927 21.01484,15.94229 22.46414,16.30462 17.02926,11.23207 21.01484,11.95672 25.36274,15.21764 28.26133,13.40602 23.55112,16.30461 13.76834,11.95672 24.27576,14.49299 17.75392,15.57997 19.20321,22.82646 26.81204,39.49341 7.97115,18.47856 9.42044,17.02927 1.4493,11.23207 34.05853,-3.26092 31.15994,-2.17395 34.42085,-2.53628 32.6092,-3.26092 21.7395,-0.72465 h 18.8409 l 23.5511,0.36233"
       id="path2" /></g></svg>
