<?xml version="1.0" encoding="UTF-8" standalone="no"?>
<!-- Created with Inkscape (http://www.inkscape.org/) -->

<svg
   width="210mm"
   height="297mm"
   viewBox="0 0 210 297"
   version="1.1"
   id="svg1"
   xml:space="preserve"
   xmlns:xlink="http://www.w3.org/1999/xlink"
   xmlns="http://www.w3.org/2000/svg"
   xmlns:svg="http://www.w3.org/2000/svg"><defs
     id="defs1" /><path
     style="fill:none;stroke:#000000;stroke-width:0.264999"
     d="m 121.05399,190.96942 c -0.35563,-0.14225 -7.11246,0.71125 -7.11246,0.71125 l -8.6772,0.28449 -9.175062,0.35563 -7.8237,-0.49788 -5.263216,-0.56899 -5.974464,-0.8535 -6.045586,-1.35136 -7.112455,-1.77812 -5.263216,-2.77385 -4.480848,-2.77386 -4.765344,-4.19635 -3.485103,-3.91185 -3.058355,-4.40972 -3.698479,-6.25896 -3.342854,-9.03282 -3.129478,-10.95318 -3.058356,-14.86503 -1.422493,-12.58905 -1.991486,-11.66442 -1.849238,-6.614588 -1.564741,-1.991487 -2.489359,-0.78237 -2.560484,0.78237 -0.995744,1.56474 -0.355622,2.418234 0.426747,1.991491 1.209118,1.42249 1.066868,0.49787 1.422491,-0.0711 0.355623,-0.14225 1.066868,7.11246 0.426747,2.98723 0.640121,5.40547 0.640121,5.83221 0.711246,6.18784 1.137992,6.61458 1.991487,8.1082 2.844983,12.09117 2.773857,9.38844 2.560484,5.1921 2.275986,3.7696 3.271729,4.83647 4.338597,4.69422 5.334342,4.19635 6.258962,4.33859 6.330085,2.41824 6.970204,1.99148 7.325828,1.77812 4.338598,0.64012 2.702735,1.35137 0.426746,0.28449 -0.355624,0.8535 -2.560481,0.78237 -1.493618,0.49787 -0.497872,1.63587 v 1.77811 l 0.142251,1.77811 0.426746,1.35137 2.418236,0.71125 2.702732,1.28024 2.773857,0.99574 1.706989,-0.569 1.706991,-1.13799 c 0,0 2.062612,-0.2845 1.849236,-0.92462 -0.213373,-0.64012 0,-5.26321 -0.213373,-5.61884 -0.213373,-0.35562 -0.213373,-2.9161 -0.213373,-2.9161 l 1.280242,-1.138 2.844983,-0.42674 h 4.907596 l 7.46807,0.2845 4.12523,0.0711 6.75683,-0.14225"
     id="path1" /></svg>
