<?xml version="1.0" encoding="UTF-8" standalone="no"?>
<!-- Created with Inkscape (http://www.inkscape.org/) -->

<svg
   version="1.1"
   id="svg1"
   width="1340"
   height="879"
   viewBox="0 0 1340 879"
   xml:space="preserve"
   xmlns:xlink="http://www.w3.org/1999/xlink"
   xmlns="http://www.w3.org/2000/svg"
   xmlns:svg="http://www.w3.org/2000/svg"><defs
     id="defs1" /><g
     id="layer3"></g><g
     id="layer1"><path
       style="fill:#000000;fill-opacity:0;stroke:#000000"
       d="m 1010.1616,697.83759 -35.14552,6.52185 -28.26134,3.62325 -29.34831,-0.72465 -13.40602,-4.3479 -20.65251,-26.44971 -13.76834,-13.04369 -22.82647,-23.18879 -19.56554,-18.47857 -18.11624,-19.20321 -22.10181,-21.01484 -11.95672,-11.5944 -24.63809,-22.10181 -16.30462,-16.66694 -36.23248,-34.42086 -22.82646,-22.82646 -20.29019,-19.56554 -22.10181,-23.55112 -17.39159,-18.11624 -14.493,-22.46413 -7.60882,-14.13067 -1.81162,-13.40602 1.4493,-27.53669 0.36232,-17.39159 -1.08697,-11.95672 5.43487,-10.14509 6.15952,-17.02927 6.15952,-13.40602 10.50742,-25.00041 10.86975,-10.86974 17.75391,-16.66694 13.40602,-7.97115 14.13067,-1.81162 9.42044,-3.62325 10.1451,-6.88417 18.11624,-12.68137 2.8986,-9.78277 3.62325,-10.50742 1.4493,-10.1451 -5.07255,-8.33347 -13.76834,-3.62325 -8.6958,1.08698 -6.88417,11.95672 -2.8986,8.33347 -2.53627,6.88417 -6.88418,3.62325 -7.60882,6.88417 -7.60882,5.07255 -4.3479,5.79719 -8.33347,2.17395 -11.95672,0.36233 -10.14509,2.53627 -9.42045,0.36233 -16.66694,26.44971 -6.88417,22.46414 -8.69579,13.04369 -7.2465,15.21764 -3.98557,12.68137 -1.4493,14.13067 -1.08698,12.68137 -0.72465,15.57996 -2.53627,27.17437 3.98557,14.85531 3.98558,15.57997 4.71022,21.37716 9.78277,17.39159 10.14509,14.13067 13.0437,13.76835 15.57996,16.30461 13.0437,18.47857 17.02926,14.13067 9.05812,14.13066 10.86975,10.86975 17.39159,16.66694 13.04369,14.85532 14.85532,11.59439 16.66694,14.13067 21.73949,23.55111 17.02927,15.57997 18.11624,14.49299 19.20321,19.56554 14.85532,17.75392 13.76834,19.20321 9.78277,16.66694 5.07255,13.40602 4.71022,9.78277 10.1451,3.98557 23.18879,-1.08697 26.81203,-1.4493 22.10182,0.36233 17.39159,-0.72465 9.05812,-0.36233 18.11624,-0.72465 18.47853,-1.08697"
       id="path2" /></g></svg>
