<?xml version="1.0" encoding="UTF-8" standalone="no"?>
<!-- Created with Inkscape (http://www.inkscape.org/) -->

<svg
   width="210mm"
   height="297mm"
   viewBox="0 0 210 297"
   version="1.1"
   id="svg1"
   xml:space="preserve"
   inkscape:version="1.4.2 (ebf0e94, 2025-05-08)"
   sodipodi:docname="Nb.105.svg"
   xmlns:inkscape="http://www.inkscape.org/namespaces/inkscape"
   xmlns:sodipodi="http://sodipodi.sourceforge.net/DTD/sodipodi-0.dtd"
   xmlns:xlink="http://www.w3.org/1999/xlink"
   xmlns="http://www.w3.org/2000/svg"
   xmlns:svg="http://www.w3.org/2000/svg"><sodipodi:namedview
     id="namedview1"
     pagecolor="#ffffff"
     bordercolor="#000000"
     borderopacity="0.25"
     inkscape:showpageshadow="2"
     inkscape:pageopacity="0.0"
     inkscape:pagecheckerboard="0"
     inkscape:deskcolor="#d1d1d1"
     inkscape:document-units="mm"
     showguides="true"
     inkscape:zoom="4.27"
     inkscape:cx="396.83841"
     inkscape:cy="473.6534"
     inkscape:window-width="1916"
     inkscape:window-height="2041"
     inkscape:window-x="-9"
     inkscape:window-y="0"
     inkscape:window-maximized="0"
     inkscape:current-layer="layer1"><sodipodi:guide
       position="103.41818,219.27273"
       orientation="0,-1"
       id="guide1"
       inkscape:locked="false" /></sodipodi:namedview><defs
     id="defs1" /><g
     inkscape:label="Ebene 1"
     inkscape:groupmode="layer"
     id="layer1"><path
       style="fill:none;stroke:#000000;stroke-width:0.264999"
       d="m 133.77878,160.05123 -3.96565,0.12392 -8.55093,-0.24785 -4.64725,-1.1773 -3.16013,-2.35461 -3.53191,-4.46135 -4.83314,-4.15155 -6.568108,-5.51473 -3.841727,-2.10675 -4.70921,-3.03621 c 0,0 -6.444183,-3.34602 -6.754,-3.34602 -0.309816,0 -5.886516,-4.46135 -5.886516,-4.46135 l -4.275468,-4.52333 -2.850311,-4.58528 -1.549083,-5.63866 -0.743561,-7.12578 0.867487,-5.88652 1.239266,-6.568108 2.168715,-4.399394 3.841726,-0.247853 3.036203,-0.805524 3.098164,-2.602458 1.858899,-3.53191 0.433745,-2.354603 -0.185891,-1.982827 -0.681596,-1.301229 -1.363194,-0.185891 -1.239266,0.619633 -1.301229,2.60246 -2.540494,4.957064 -0.92945,0.929449 -4.461359,-0.185891 -2.664423,-0.06196 -0.867487,1.858899 -2.416569,7.745415 -1.73497,8.674858 -0.433745,4.64725 0.371779,7.00186 2.416569,7.62148 3.284056,5.08099 4.027615,4.21351 4.771175,3.59387 4.399397,2.41657 6.320255,3.22209 7.063819,4.58529 6.010437,5.08099 3.16013,3.77976 2.5405,4.27547 2.16871,5.39081 8.55094,0.18588 15.24298,-0.99141"
       id="path1" /></g></svg>
