<?xml version="1.0" encoding="UTF-8" standalone="no"?>
<!-- Created with Inkscape (http://www.inkscape.org/) -->

<svg
   width="210mm"
   height="297mm"
   viewBox="0 0 210 297"
   version="1.1"
   id="svg1"
   xml:space="preserve"
   xmlns:xlink="http://www.w3.org/1999/xlink"
   xmlns="http://www.w3.org/2000/svg"
   xmlns:svg="http://www.w3.org/2000/svg"><defs
     id="defs1" /><path
     style="fill:none;stroke:#000000;stroke-width:0.264999"
     d="m 89.867961,133.4966 -5.472406,0.10041 -3.71521,-0.50206 -4.869942,-0.70287 -3.665006,-0.9037 -4.418089,-1.95802 -4.217268,-1.90781 -2.761305,-2.10864 -2.560484,-2.25925 -2.610689,-3.86582 -0.602467,-2.25926 -0.803291,-6.72754 -0.351438,-4.36789 -0.9037,-4.97035 -0.753084,-3.162946 -1.405755,-2.359663 -1.004112,-1.054317 -1.104521,0.401646 -0.301234,1.255138 0.702876,0.753084 0.753084,1.556371 0.602467,3.213157 0.552262,3.26336 0.45185,4.92015 0.100412,3.96624 0.853493,4.92014 1.104524,2.81151 1.35555,2.30946 2.309456,2.81151 2.610688,2.10864 4.31768,2.35966 3.865827,2.05843 3.313568,1.25513 2.660896,1.60658 1.757193,1.55637 14.660025,-0.15061"
     id="path1" /></svg>
