<?xml version="1.0" encoding="UTF-8" standalone="no"?>
<!-- Created with Inkscape (http://www.inkscape.org/) -->

<svg
   width="210mm"
   height="297mm"
   viewBox="0 0 210 297"
   version="1.1"
   id="svg1"
   xml:space="preserve"
   xmlns:xlink="http://www.w3.org/1999/xlink"
   xmlns="http://www.w3.org/2000/svg"
   xmlns:svg="http://www.w3.org/2000/svg"><defs
     id="defs1" /><path
     style="fill:none;stroke:#000000;stroke-width:0.264999"
     d="m 92.227624,136.15749 c -0.251029,-0.10041 -2.911922,0 -3.112746,0 -0.200822,0 -5.32179,-0.0502 -5.32179,-0.0502 l -6.074873,0.15061 -4.418089,0.25103 -3.263363,0.15062 h -3.614801 -1.004109 l -0.602467,-0.45185 -0.552262,-0.50206 -0.301234,-1.65678 -0.552262,-3.71521 -0.351438,-4.11686 -0.45185,-3.71521 -0.301234,-4.41809 v -5.97446 l -0.401645,-7.02878 -0.351438,-5.522615 -1.455962,-3.665006 -0.702877,-1.255138 c 0,0 -0.953905,0.100412 -1.255138,0.200821 -0.301233,0.100412 -1.154729,0.351441 -1.154729,0.351441 l -0.552262,0.702876 v 1.706991 5.82384 l 1.35555,10.14153 0.351441,7.02878 0.9037,6.92837 1.204931,7.38021 0.401646,3.36378 3.112746,2.20904 1.054317,0.65267 7.380218,-0.40164 11.547279,-1.00411 5.723435,-0.40165 h 2.660894"
     id="path1" /></svg>
