<?xml version="1.0" encoding="UTF-8" standalone="no"?>
<!-- Created with Inkscape (http://www.inkscape.org/) -->

<svg
   width="210mm"
   height="297mm"
   viewBox="0 0 210 297"
   version="1.1"
   id="svg1"
   xml:space="preserve"
   xmlns:xlink="http://www.w3.org/1999/xlink"
   xmlns="http://www.w3.org/2000/svg"
   xmlns:svg="http://www.w3.org/2000/svg"><defs
     id="defs1" /><path
     style="fill:none;stroke:#000000;stroke-width:0.264999"
     d="m 117.14612,171.60825 -4.82184,-0.43273 -5.25458,-0.30909 -6.12003,-0.55637 -6.36731,-0.80364 -5.06912,-0.80364 -6.181855,-1.48364 c 0,0 -5.316395,-1.54547 -5.625486,-1.60728 -0.309094,-0.0618 -8.345503,-2.96729 -8.345503,-2.96729 l -9.70551,-4.3273 -5.687306,-2.96729 -6.552763,-3.95639 -6.80004,-5.06912 -6.676401,-7.60368 -2.967291,-5.0073 -2.101829,-6.36731 -1.298189,-5.87276 -0.309094,-6.73822 c 0,0 1.236372,-4.51275 1.360009,-5.06912 0.123637,-0.55636 1.545463,-5.9964 1.545463,-5.9964 l 1.360008,-3.58547 v -3.276384 l -1.174551,-1.545463 c 0,0 -0.741823,-0.432732 -1.112735,-0.494549 -0.370911,-0.06182 -1.916374,-0.432728 -1.916374,-0.432728 l -1.607282,0.80364 -0.803641,1.421825 -0.185456,0.927278 -0.06182,0.989097 0.86546,2.410924 0.865459,0.30909 c 0,0 0,0.61819 -0.123637,0.86546 -0.123637,0.24727 -0.618185,2.59638 -0.989096,3.21457 -0.370911,0.61818 -1.792738,3.89456 -1.792738,3.89456 l -1.174552,3.6473 -0.618185,5.37821 0.06182,3.58547 0.556367,4.76003 1.545464,5.37821 2.10183,5.0073 2.040011,3.6473 2.843654,4.3273 0.865458,1.48364 -0.865458,1.23637 -2.287286,1.23637 -1.421828,1.11274 -1.298188,1.23637 0.185455,0.86546 0.185456,1.17455 0.80364,0.30909 3.029109,-0.37091 3.214563,-0.80364 1.854557,-0.0618 2.410923,0.18546 2.040011,0.98909 2.163649,2.28729 4.389117,3.15274 5.007301,3.21457 3.3382,1.91637 5.130937,2.6582 5.749126,2.84365 4.945484,2.47274 5.378211,2.28729 4.018204,1.60728 1.978194,1.11273 0.123637,1.23638 -0.86546,2.10183 -1.730917,2.78183 c 0,0 -1.174555,1.48365 -1.112735,1.79274 0.06182,0.30909 0,1.54546 0,1.54546 l 0.556366,1.91637 0.494549,0.49455 1.421826,0.68001 2.472742,-0.3091 1.978192,-2.59637 3.276383,-4.38912 3.770932,-4.69821 2.101828,-2.04001 11.560061,0.30909 6.73823,0.30909 4.26548,0.12364 c 0,0 0.80364,0.24728 0.86545,0"
     id="path1" /></svg>
