<?xml version="1.0" encoding="UTF-8" standalone="no"?>
<!-- Created with Inkscape (http://www.inkscape.org/) -->

<svg
   version="1.1"
   id="svg1"
   width="1340"
   height="879"
   viewBox="0 0 1340 879"
   xml:space="preserve"
   xmlns:xlink="http://www.w3.org/1999/xlink"
   xmlns="http://www.w3.org/2000/svg"
   xmlns:svg="http://www.w3.org/2000/svg"><defs
     id="defs1" /><g
     id="layer3"
     style="display:inline"></g><g
     id="layer1"
     style="display:inline"><path
       style="fill:#000000;fill-opacity:0;stroke:#000000"
       d="m 1063.061,744.93982 -31.078,8.80744 -32.2815,0.51241 -35.35592,0.5124 -33.3063,1.53722 -18.44657,-1.53722 -6.66126,-22.0334 -5.63645,-20.49618 -17.42176,-27.15745 -11.2729,-19.98378 -13.32252,-16.90936 -8.71088,-9.73569 -19.98378,-8.71087 -17.42176,-11.27291 -17.93417,-9.73569 -23.05821,-16.39695 -35.35592,-19.47137 -31.25668,-22.0334 -22.0334,-18.95898 -56.36452,-38.94275 -24.08302,-18.44657 -18.95897,-9.73569 -39.45516,-23.57061 -37.91794,-26.13264 -26.13264,-19.98378 -16.39695,-18.95897 -16.39695,-12.81012 -9.22328,-18.95897 -11.78531,-17.42176 -7.17367,-45.60402 2.04962,-24.08302 -0.5124,-30.74428 2.56202,-24.08302 8.71088,-7.17366 11.2729,-4.61164 33.30631,3.58683 27.15744,-2.04962 22.54581,0.5124 25.10783,-3.07442 21.52099,-5.63645 3.07443,-15.37214 0.51241,-10.2481 -2.04962,-6.14885 8.19847,-7.68607 v -11.27291 l -6.14885,-7.68607 -9.22329,-6.66126 -13.32252,-2.56202 -8.71088,1.53721 -14.34733,6.14886 -1.02481,9.73569 0.40486,3.22116 -4.3479,10.14509 -5.43487,6.52185 -4.71022,6.52185 -6.15953,3.98557 -12.31904,3.98557 -18.11624,-1.81162 h -15.57997 l -20.29019,-5.43487 -11.59439,-3.26093 -15.21764,-2.53627 -10.86975,5.43487 -5.79719,8.6958 -4.3479,13.40602 -1.81163,13.04369 -1.08697,12.31904 v 10.50742 l -5.7972,23.55112 2.17395,12.31904 v 9.42045 l -0.36232,15.94229 2.53627,13.04369 1.81162,15.57997 0.72465,10.50742 3.26093,17.75391 7.60882,22.82647 3.62325,8.33347 10.50742,14.85531 10.14509,10.86975 6.52185,10.14509 15.21764,14.13067 13.76834,10.1451 28.62366,20.65251 25.00042,15.57997 21.37716,14.13067 29.71063,23.18878 16.30462,11.23207 36.23248,24.27577 16.66694,14.85531 19.20322,14.85532 21.37716,16.30462 22.46414,15.21764 16.66694,13.76834 19.92787,17.39159 23.55111,22.82647 14.85532,13.04369 17.02926,19.92786 14.493,13.0437 12.68137,16.66694 14.49299,20.65251 15.57997,24.27577 5.07254,11.95672 5.07255,12.68136 6.52185,9.05812 10.50742,10.50742 19.20321,-0.72465 19.20322,-4.71022 21.37716,-4.3479 36.23248,-1.4493 24.63809,-3.26092 27.53666,-4.3479 20.2902,-1.08697 18.1163,3.62325"
       id="path2" /></g></svg>
