<?xml version="1.0" encoding="UTF-8" standalone="no"?>
<!-- Created with Inkscape (http://www.inkscape.org/) -->

<svg
   width="210mm"
   height="297mm"
   viewBox="0 0 210 297"
   version="1.1"
   id="svg1"
   xml:space="preserve"
   inkscape:version="1.4.2 (ebf0e94, 2025-05-08)"
   sodipodi:docname="Nb.1c.svg"
   xmlns:inkscape="http://www.inkscape.org/namespaces/inkscape"
   xmlns:sodipodi="http://sodipodi.sourceforge.net/DTD/sodipodi-0.dtd"
   xmlns:xlink="http://www.w3.org/1999/xlink"
   xmlns="http://www.w3.org/2000/svg"
   xmlns:svg="http://www.w3.org/2000/svg"><sodipodi:namedview
     id="namedview1"
     pagecolor="#ffffff"
     bordercolor="#000000"
     borderopacity="0.25"
     inkscape:showpageshadow="2"
     inkscape:pageopacity="0.0"
     inkscape:pagecheckerboard="0"
     inkscape:deskcolor="#d1d1d1"
     inkscape:document-units="mm"
     showguides="true"
     inkscape:zoom="2.44"
     inkscape:cx="396.72131"
     inkscape:cy="585.45082"
     inkscape:window-width="1916"
     inkscape:window-height="2041"
     inkscape:window-x="-9"
     inkscape:window-y="0"
     inkscape:window-maximized="0"
     inkscape:current-layer="svg1"><sodipodi:guide
       position="26.02459,180.10622"
       orientation="0,-1"
       id="guide1"
       inkscape:locked="false" /></sodipodi:namedview><defs
     id="defs1" /><path
     style="fill:none;stroke:#000000;stroke-width:0.264999"
     d="m 177.94313,151.91854 -3.0362,-0.3253 -5.63866,2.27715 -13.44604,3.14463 -13.12073,1.95185 -13.0123,0.86749 h -13.3376 l -15.50631,-1.1928 -12.361684,-2.60246 -11.927938,-3.68681 -11.60263,-8.458 -11.385756,-9.00016 -9.433915,-7.2652 -8.349556,-7.04833 -3.253074,-3.46995 -1.951844,0.65062 -2.168716,1.19279 -0.325307,2.06028 2.168715,2.06028 h 2.060281 l 1.5181,1.84341 9.325478,10.08453 7.048328,6.0724 8.891735,7.15677 7.156762,4.98804 4.988047,3.68682 7.482067,3.0362 12.578554,3.14464 13.446033,2.92777 9.9761,1.73497 1.5181,0.32531 c 0,0 0.21687,0.65061 0,1.40966 -0.21687,0.75905 -1.5181,3.79525 -1.5181,3.79525 l -1.5181,5.09649 0.97592,1.62653 1.30123,0.97592 h 2.49402 l 2.92777,0.32531 3.79525,-10.08453 2.06028,-1.84341 3.36151,-1.19279 6.72302,-0.75905 9.54235,-2.16872 9.00017,-1.8434 5.42179,-0.97592 8.7833,-2.38559 4.77117,-1.73497 3.68682,-0.10844"
     id="path1" /></svg>
