<?xml version="1.0" encoding="UTF-8" standalone="no"?>
<!-- Created with Inkscape (http://www.inkscape.org/) -->

<svg
   width="210mm"
   height="297mm"
   viewBox="0 0 210 297"
   version="1.1"
   id="svg1"
   xml:space="preserve"
   xmlns:xlink="http://www.w3.org/1999/xlink"
   xmlns="http://www.w3.org/2000/svg"
   xmlns:svg="http://www.w3.org/2000/svg"><defs
     id="defs1" /><path
     style="fill:none;stroke:#000000;stroke-width:0.264999"
     d="m 105.43169,121.64809 h -2.25925 l -2.91193,0.20082 -4.267469,0.15061 -4.568705,-0.25102 -4.669118,-0.55226 -5.070764,-1.00412 c 0,0 -3.112743,-0.70288 -3.464184,-0.65267 -0.351438,0.0502 -4.618911,-1.65678 -4.618911,-1.65678 l -3.564596,-1.60658 -3.413977,-2.00822 -2.460074,-2.15884 -2.510277,-2.81151 -2.209046,-2.51028 -0.803288,-2.10864 -0.502055,-2.46007 -0.251029,-2.560483 -0.301233,-3.363772 -0.803288,-1.506167 -1.606579,0.0502 -1.004113,0.401646 -0.502054,1.35555 -0.301234,1.455963 v 1.054317 l 0.602467,0.200821 -0.200821,1.506175 0.0502,2.40986 0.45185,2.30946 1.305346,3.26336 1.35555,2.86172 1.757194,2.35966 2.058429,2.46007 2.209043,1.85761 3.012334,2.30945 3.062542,1.8074 3.313567,1.95802 4.016444,1.60658 3.514389,0.9037 3.263363,0.95391 2.008222,0.80328 -0.05021,0.50206 c 0,0 -0.150617,1.45596 -0.401646,1.60658 -0.251026,0.15061 -1.706988,3.51439 -1.706988,3.51439 l -1.255138,2.7111 v 0 l -0.803291,1.55637 0.05021,0.95391 0.401643,0.80329 0.853495,1.00411 2.158839,0.0502 1.8074,-0.25103 1.506168,-1.90781 2.861717,-3.6148 4.016446,-5.12097 1.90781,-2.56048 0.702879,-0.50205 3.112741,0.0502 2.35966,0.55226 2.76131,0.0502"
     id="path1" /></svg>
