<?xml version="1.0" encoding="UTF-8" standalone="no"?>
<!-- Created with Inkscape (http://www.inkscape.org/) -->

<svg
   width="210mm"
   height="297mm"
   viewBox="0 0 210 297"
   version="1.1"
   id="svg1"
   xml:space="preserve"
   xmlns:xlink="http://www.w3.org/1999/xlink"
   xmlns="http://www.w3.org/2000/svg"
   xmlns:svg="http://www.w3.org/2000/svg"><defs
     id="defs1" /><path
     style="fill:none;stroke:#000000;stroke-width:0.264999"
     d="m 111.55677,158.64959 h -9.28803 l -10.34235,-0.15062 -6.627135,-0.40164 -6.426311,-0.65268 -7.330014,-1.15472 c 0,0 -5.221377,-0.95391 -6.024668,-1.10453 -0.803288,-0.15061 -7.330011,-2.10863 -7.330011,-2.10863 l -6.727547,-3.11275 -3.665006,-2.56048 -4.217268,-4.36788 -3.26336,-6.07488 -1.907813,-4.81973 -1.204933,-7.07899 -0.301234,-4.71932 -0.150616,-4.97035 0.150616,-4.86994 1.154729,-4.61891 0.853493,-5.87405 0.702879,-3.966244 -0.100412,-1.204934 c 0,0 -0.953905,-0.251026 -1.405755,-0.652671 -0.45185,-0.401646 -1.656784,0.351438 -1.656784,0.351438 l -0.853495,1.656784 -0.702876,2.460074 -1.104525,2.560483 -0.351438,0.9037 c 0,0 -3.363772,1.90781 -3.614801,1.95802 -0.251026,0.0502 -3.213155,1.8576 -3.213155,1.8576 l 0.150616,0.9037 v 0.9037 l 0.602467,0.30124 2.861718,0.9539 1.405755,0.75309 0.502057,0.40164 0.0502,1.10452 v 1.70699 l -0.200822,3.46419 0.05021,4.66911 0.251029,4.76953 0.853493,5.52261 1.255138,4.16707 2.510279,6.77775 2.008222,3.71521 0.853496,1.60658 -0.100412,0.9539 -0.702876,0.75309 -0.853496,0.70288 -0.45185,0.55226 0.05021,1.55637 0.552262,0.9037 1.405755,0.80329 c 0,0 2.660896,0.0502 2.660896,0.25102 0,0.20083 4.16706,0.40165 3.916034,0.60247 -0.251028,0.20083 2.108634,1.45596 2.108634,1.45596 l 8.785974,3.96624 7.330011,2.7111 5.422201,1.20494 6.074873,1.60658 c 0,0 3.062542,0.55226 2.660896,0.70287 -0.401645,0.15062 -2.359662,4.81974 -2.359662,4.81974 l -0.853493,2.30946 1.656784,2.35966 1.104521,0.65267 2.008222,-0.0502 1.757196,0.15062 c 0,0 7.229602,-10.89461 7.229602,-10.69379 0,0.20083 10.442757,1.15473 10.442757,1.15473 0,0 5.020563,0.30123 5.372003,0.30123 0.35144,0 6.3259,-0.25102 6.3259,-0.25102"
     id="path1" /></svg>
