<?xml version="1.0" encoding="UTF-8" standalone="no"?>
<!-- Created with Inkscape (http://www.inkscape.org/) -->

<svg
   width="210mm"
   height="297mm"
   viewBox="0 0 210 297"
   version="1.1"
   id="svg1"
   xml:space="preserve"
   inkscape:version="1.4.2 (ebf0e94, 2025-05-08)"
   sodipodi:docname="Nb.1a.svg"
   xmlns:inkscape="http://www.inkscape.org/namespaces/inkscape"
   xmlns:sodipodi="http://sodipodi.sourceforge.net/DTD/sodipodi-0.dtd"
   xmlns:xlink="http://www.w3.org/1999/xlink"
   xmlns="http://www.w3.org/2000/svg"
   xmlns:svg="http://www.w3.org/2000/svg"><sodipodi:namedview
     id="namedview1"
     pagecolor="#ffffff"
     bordercolor="#000000"
     borderopacity="0.25"
     inkscape:showpageshadow="2"
     inkscape:pageopacity="0.0"
     inkscape:pagecheckerboard="0"
     inkscape:deskcolor="#d1d1d1"
     inkscape:document-units="mm"
     showguides="true"
     inkscape:zoom="5.27"
     inkscape:cx="309.7723"
     inkscape:cy="467.64706"
     inkscape:window-width="2766"
     inkscape:window-height="2041"
     inkscape:window-x="1061"
     inkscape:window-y="0"
     inkscape:window-maximized="0"
     inkscape:current-layer="svg1"><sodipodi:guide
       position="140.07272,202.74546"
       orientation="0,-1"
       id="guide1"
       inkscape:locked="false" /></sodipodi:namedview><defs
     id="defs1" /><path
     style="fill:none;stroke:#000000;stroke-width:0.264999"
     d="m 106.63662,112.71149 -1.95802,0.35144 -3.01233,0.80329 -2.61069,0.75309 -2.460072,1.05431 -0.803288,0.80329 -5.271585,0.25103 -11.296253,0.0502 -6.827956,-0.40164 -6.627135,-0.65267 -5.171173,-0.9037 -5.22138,-3.91603 -4.669118,-5.07077 -4.468294,-4.81973 -4.518501,-5.271587 -1.556372,-1.054317 -1.35555,0.150616 -1.455962,0.853496 -1.104522,1.104522 0.301233,1.255141 0.753084,1.305343 1.405755,0.702876 1.255138,-0.10041 0.45185,-0.150616 1.857608,2.610686 2.158839,3.46419 3.313567,4.46829 4.317677,5.77364 3.012335,3.31357 1.154729,0.65267 3.464184,1.40576 6.074873,1.40575 4.31768,1.00412 3.213155,0.70287 0.301233,0.95391 -0.80329,2.25925 -0.451848,1.8074 0.10041,1.00411 0.602466,1.25514 1.104522,0.65267 3.213158,0.25103 1.00411,-0.95391 2.058429,-2.51027 2.610689,-2.91193 1.907812,-1.90781 3.916035,-1.05431 3.6148,-0.55227 4.016444,-0.85349 4.468294,-0.70288 5.47241,-0.45185"
     id="path1" /></svg>
