<?xml version="1.0" encoding="UTF-8" standalone="no"?>
<!-- Created with Inkscape (http://www.inkscape.org/) -->

<svg
   width="210mm"
   height="297mm"
   viewBox="0 0 210 297"
   version="1.1"
   id="svg1"
   xml:space="preserve"
   xmlns:xlink="http://www.w3.org/1999/xlink"
   xmlns="http://www.w3.org/2000/svg"
   xmlns:svg="http://www.w3.org/2000/svg"><defs
     id="defs1" /><path
     style="fill:none;stroke:#000000;stroke-width:0.264999"
     d="m 125.66453,161.81254 -10.14152,-1.70699 -6.92837,-1.15473 -6.92837,-1.50617 -7.731658,-2.35966 -9.087207,-2.96213 -9.539057,-4.16706 -9.037002,-4.76953 -5.472407,-3.46418 -8.283918,-6.22549 -6.978574,-7.12919 -6.125077,-7.48063 -4.066651,-7.07898 0.702876,-8.83619 1.154729,-6.928364 -0.0502,-0.602467 -0.502057,-0.652671 -0.702876,-0.502055 -1.556375,-0.351441 -0.9037,0.401646 -1.054314,1.857605 -1.255141,3.062539 -0.753084,4.367888 -0.953905,8.1333 -0.0502,7.58104 0.451851,5.47241 0.552259,1.65678 0.803291,1.25514 1.00411,-0.20082 1.255138,-0.15062 c 0,0 2.460075,-1.90781 2.660896,-1.90781 0.200821,0 1.255138,-0.0502 1.255138,-0.0502 l 1.204934,0.55226 2.058429,1.90782 6.526723,6.92836 9.137415,8.38433 6.978573,5.67323 2.7111,1.7572 4.970352,1.20493 4.367882,2.81151 3.062541,0.55226 2.35966,1.10453 1.255141,1.15472 6.024666,0.65268 3.363775,1.30534 1.35555,1.50617 0.502055,1.65678 0.150616,1.60658 -1.656783,2.86172 -0.953905,3.56459 -0.100412,1.25514 c 0,0 0.401645,1.00411 0.602466,1.20494 0.200822,0.20082 2.05843,0.30123 2.05843,0.30123 l 2.108634,-0.10041 4.920143,-4.56871 3.5646,-3.11275 1.00411,-0.85349 21.58839,0.65267"
     id="path1" /></svg>
