<?xml version="1.0" encoding="UTF-8" standalone="no"?>
<!-- Created with Inkscape (http://www.inkscape.org/) -->

<svg
   width="210mm"
   height="297mm"
   viewBox="0 0 210 297"
   version="1.1"
   id="svg1"
   xml:space="preserve"
   inkscape:version="1.4.2 (ebf0e94, 2025-05-08)"
   sodipodi:docname="Nb.27.svg"
   xmlns:inkscape="http://www.inkscape.org/namespaces/inkscape"
   xmlns:sodipodi="http://sodipodi.sourceforge.net/DTD/sodipodi-0.dtd"
   xmlns:xlink="http://www.w3.org/1999/xlink"
   xmlns="http://www.w3.org/2000/svg"
   xmlns:svg="http://www.w3.org/2000/svg"><sodipodi:namedview
     id="namedview1"
     pagecolor="#ffffff"
     bordercolor="#000000"
     borderopacity="0.25"
     inkscape:showpageshadow="2"
     inkscape:pageopacity="0.0"
     inkscape:pagecheckerboard="0"
     inkscape:deskcolor="#d1d1d1"
     inkscape:document-units="mm"
     showguides="true"
     inkscape:zoom="2.82"
     inkscape:cx="286.34752"
     inkscape:cy="667.55319"
     inkscape:window-width="2765"
     inkscape:window-height="2041"
     inkscape:window-x="1062"
     inkscape:window-y="0"
     inkscape:window-maximized="0"
     inkscape:current-layer="svg1"><sodipodi:guide
       position="140.07272,202.74546"
       orientation="0,-1"
       id="guide1"
       inkscape:locked="false" /></sodipodi:namedview><defs
     id="defs1" /><path
     style="fill:none;stroke:#000000;stroke-width:0.264999"
     d="m 117.65514,239.43853 c 0,0 -2.25177,-0.46912 -3.9406,-0.0938 -1.68883,0.37529 -3.00237,-1.21971 -3.00237,-1.21971 l -2.81471,-2.81472 -3.19001,-1.9703 -6.661499,-4.12825 -7.318263,-4.50355 -8.631796,-6.00473 -3.659132,-3.84677 -5.441786,-6.6615 -2.533242,-4.97266 -1.970302,-5.72326 -0.750591,-4.6912 v -4.03442 -3.09619 l 1.032063,-4.50355 2.157949,-6.19237 2.814714,-5.91091 4.503547,-6.75531 6.192377,-5.81709 4.409721,-3.00236 9.851509,-6.66149 5.066491,-4.6912 4.03442,-5.81708 1.40736,-5.81708 -0.56294,-3.84678 -2.3456,-3.28383 -2.53324,-2.90854 -2.81472,-0.56295 -2.627067,-0.84441 -0.750591,-0.3753 -0.187648,-0.46912 v -0.46912 l 0.562943,-1.21971 4.034423,-6.56767 2.53325,-5.62943 1.21971,-6.56767 -0.46912,-2.627069 -1.03206,-0.750592 h -1.31354 l -0.93824,0.938239 -0.75059,5.347962 -1.03206,3.37766 -1.782653,4.12825 -1.970302,3.65913 -2.908541,3.84678 -2.814716,2.81472 -0.375296,1.12588 1.032063,1.03206 1.501182,0.7506 4.409723,1.40735 2.533243,1.03207 2.157947,1.68883 1.59501,2.72089 v 3.56531 l -1.03206,4.31589 -2.43943,3.37766 -3.190005,3.28384 -7.505912,4.12825 -4.40972,2.81472 -4.034428,3.37765 -8.350324,8.44415 -3.471484,4.97267 -4.409723,11.16504 -1.68883,6.6615 -0.656767,8.72562 0.938239,6.56767 2.627069,7.13061 3.846779,6.19238 6.192375,6.75532 9.570037,7.8812 7.505909,4.12825 6.286198,3.56531 1.782657,2.53325 c 0,0 1.12588,2.53324 0.75059,2.62706 -0.3753,0.0938 -0.56294,2.90855 -1.31354,3.28384 -0.750587,0.3753 -2.064119,1.31353 -2.439415,1.40736 -0.375295,0.0938 -3.002364,1.21971 -3.002364,1.21971 l -0.46912,1.9703 0.938239,4.40972 3.096189,-0.0938 2.345591,-0.93824 3.94061,-2.81472 5.16031,-2.81471 3.09619,-0.93824 2.15795,-0.0938 2.43942,1.31354"
     id="path1" /></svg>
