<?xml version="1.0" encoding="UTF-8" standalone="no"?>
<!-- Created with Inkscape (http://www.inkscape.org/) -->

<svg
   width="210mm"
   height="297mm"
   viewBox="0 0 210 297"
   version="1.1"
   id="svg1"
   xml:space="preserve"
   xmlns:xlink="http://www.w3.org/1999/xlink"
   xmlns="http://www.w3.org/2000/svg"
   xmlns:svg="http://www.w3.org/2000/svg"><defs
     id="defs1" /><path
     style="fill:none;stroke:#000000;stroke-width:0.264999"
     d="m 123.65631,160.00514 -3.01234,0.45185 -3.665,-0.25103 -4.31768,-0.45185 -3.16295,-0.40165 -4.66912,-1.15472 -5.472406,-1.35555 -4.568706,-1.25514 -4.518501,-1.45597 -4.217268,-2.30945 -3.765418,-2.10863 c 0,0 -2.108634,-1.50617 -2.35966,-1.70699 -0.251029,-0.20082 -4.819734,-3.81563 -4.819734,-3.81563 l -4.920147,-5.02055 -3.665006,-4.21727 -4.819734,-6.77775 -3.263361,-4.56871 -3.062541,-4.71932 -1.706988,-2.46007 -1.204934,-1.85761 v -3.31357 l -0.552262,-2.91192 -1.104522,-3.26336 -1.305346,-4.16706 -2.058426,-4.618915 -1.405755,-1.204934 c 0,0 -0.652674,-0.301233 -1.054317,-0.150617 -0.401646,0.150617 -1.204934,0.451851 -1.204934,0.451851 l -0.652674,0.953904 -0.200821,1.757196 0.150616,1.506167 1.305346,2.460068 1.204934,2.71111 1.054314,2.20904 0.502057,2.40987 0.150617,1.40575 -0.301233,0.8535 -1.004112,0.70288 -0.753084,0.50205 -0.953905,0.25103 -1.455962,-0.35144 -2.108634,-0.35144 -1.958017,0.30123 -1.606577,0.95391 -2.058429,1.35555 -1.305346,2.15884 -1.556371,2.30945 -1.104522,2.71111 -0.803288,3.81562 -0.401646,4.01644 -0.150616,1.40576 c 0,0 0.150616,0.75308 0.351438,0.9037 0.200824,0.15062 1.154729,0.55226 1.154729,0.55226 l 1.35555,0.20082 1.104522,-0.60246 0.753083,-2.15884 v -5.52261 -3.16295 l 0.552262,-2.30946 1.00411,-1.65679 1.857608,-1.10452 2.008222,-0.70288 1.857605,0.10042 2.25925,0.80328 2.911922,0.40165 2.108634,0.60247 2.811513,3.01233 2.309455,3.6148 3.112746,4.92015 4.468294,6.12508 5.623026,6.47651 5.371994,5.372 3.966239,3.46418 5.773642,4.21727 6.175282,3.66501 4.267476,2.30945 2.510276,1.40576 c 0,0 0.45185,0.30123 -0.150616,1.90781 -0.602467,1.60658 -1.606577,2.86172 -1.606577,2.86172 l -0.502057,2.35966 0.753083,2.10863 0.803291,1.10452 2.81151,0.50206 2.309455,-2.66089 1.807402,-2.15884 2.05843,-2.6609 1.10452,-1.60658 2.46007,0.65268 6.17529,0.60246 6.37611,0.40165 3.91603,0.0502"
     id="path1" /></svg>
