<?xml version="1.0" encoding="UTF-8" standalone="no"?>
<!-- Created with Inkscape (http://www.inkscape.org/) -->

<svg
   width="210mm"
   height="297mm"
   viewBox="0 0 210 297"
   version="1.1"
   id="svg1"
   xml:space="preserve"
   inkscape:version="1.4.2 (ebf0e94, 2025-05-08)"
   sodipodi:docname="Nb.2.svg"
   xmlns:inkscape="http://www.inkscape.org/namespaces/inkscape"
   xmlns:sodipodi="http://sodipodi.sourceforge.net/DTD/sodipodi-0.dtd"
   xmlns:xlink="http://www.w3.org/1999/xlink"
   xmlns="http://www.w3.org/2000/svg"
   xmlns:svg="http://www.w3.org/2000/svg"><sodipodi:namedview
     id="namedview1"
     pagecolor="#ffffff"
     bordercolor="#000000"
     borderopacity="0.25"
     inkscape:showpageshadow="2"
     inkscape:pageopacity="0.0"
     inkscape:pagecheckerboard="0"
     inkscape:deskcolor="#d1d1d1"
     inkscape:document-units="mm"
     showguides="true"
     inkscape:zoom="5.27"
     inkscape:cx="309.7723"
     inkscape:cy="467.64706"
     inkscape:window-width="2766"
     inkscape:window-height="2041"
     inkscape:window-x="1061"
     inkscape:window-y="0"
     inkscape:window-maximized="0"
     inkscape:current-layer="svg1"><sodipodi:guide
       position="140.07272,202.74546"
       orientation="0,-1"
       id="guide1"
       inkscape:locked="false" /></sodipodi:namedview><defs
     id="defs1" /><path
     style="fill:none;stroke:#000000;stroke-width:0.264999"
     d="m 119.03739,124.76083 -5.02055,-0.15062 -4.41809,0.10041 -6.17529,-0.45185 -4.81973,-0.65267 -7.179394,-0.9539 -5.271585,-1.00411 -2.359663,-0.95391 -3.765417,-1.30534 -3.715211,-1.30535 -3.715213,-2.10863 -4.468294,-2.30946 -1.656783,-0.95391 -1.757196,-2.05842 -0.652672,-1.90782 -1.455962,-1.95801 -1.506167,-2.10864 -2.560484,-2.15884 -2.610689,-1.8074 -2.610689,-1.104518 -4.267475,-1.35555 -2.209043,-0.301233 -1.054317,-0.652672 -0.150617,-0.502057 -0.150616,-0.502055 v -0.401646 l 0.602467,-0.401642 0.45185,-0.251029 v -0.9037 l -0.903701,-0.502055 -1.154729,0.0502 h -1.204933 l -1.355551,1.255138 -0.301233,0.9037 v 2.008225 l 0.702879,1.807397 0.953905,0.953917 2.460074,0.20082 3.213156,0.70288 3.564594,1.40575 2.008224,1.25514 2.259251,1.90781 2.058426,2.6609 2.008222,3.46418 1.204934,2.35966 2.359662,1.7572 5.371997,4.01644 5.221378,2.86172 6.325901,3.26336 5.371994,2.35966 -0.200821,1.25514 -1.054317,1.25514 -1.104522,2.40987 0.200822,1.35555 0.502057,0.85349 3.012332,0.25103 1.35555,-0.35144 2.008225,-1.8576 2.81151,-2.96213 2.359662,-2.00822 6.677342,0.50205 7.48063,0.10041 8.18351,-0.30123"
     id="path1" /></svg>
