<?xml version="1.0" encoding="UTF-8" standalone="no"?>
<!-- Created with Inkscape (http://www.inkscape.org/) -->

<svg
   width="210mm"
   height="297mm"
   viewBox="0 0 210 297"
   version="1.1"
   id="svg1"
   xml:space="preserve"
   inkscape:version="1.4.2 (ebf0e94, 2025-05-08)"
   sodipodi:docname="Nb.29a.svg"
   xmlns:inkscape="http://www.inkscape.org/namespaces/inkscape"
   xmlns:sodipodi="http://sodipodi.sourceforge.net/DTD/sodipodi-0.dtd"
   xmlns:xlink="http://www.w3.org/1999/xlink"
   xmlns="http://www.w3.org/2000/svg"
   xmlns:svg="http://www.w3.org/2000/svg"><sodipodi:namedview
     id="namedview1"
     pagecolor="#ffffff"
     bordercolor="#000000"
     borderopacity="0.25"
     inkscape:showpageshadow="2"
     inkscape:pageopacity="0.0"
     inkscape:pagecheckerboard="0"
     inkscape:deskcolor="#d1d1d1"
     inkscape:document-units="mm"
     showguides="true"
     inkscape:zoom="4.28"
     inkscape:cx="286.33178"
     inkscape:cy="542.1729"
     inkscape:window-width="2765"
     inkscape:window-height="2041"
     inkscape:window-x="1062"
     inkscape:window-y="0"
     inkscape:window-maximized="0"
     inkscape:current-layer="svg1"><sodipodi:guide
       position="140.07272,202.74546"
       orientation="0,-1"
       id="guide1"
       inkscape:locked="false" /></sodipodi:namedview><defs
     id="defs1" /><path
     style="fill:none;stroke:#000000;stroke-width:0.264999"
     d="m 91.491431,187.80471 -6.367309,0.18546 -3.40002,0.43272 -1.854554,0.24728 -1.73092,-3.64729 -1.916375,-2.34911 -2.967289,-2.90547 -4.141843,-3.70911 -5.625486,-4.01821 -5.06912,-3.64729 -3.894566,-3.02911 -3.585477,-3.40002 -3.709112,-3.52365 -2.225466,-3.40002 -2.53456,-3.46184 -1.174552,-3.46184 -0.741822,-4.69821 -0.556369,-3.52365 -0.247274,-6.3055 v -4.14184 l 1.483645,-5.25457 2.225469,-5.93458 3.585475,-5.62549 3.40002,-4.51275 2.349103,-2.6582 2.101831,-1.54546 2.163649,-1.48365 0.989095,-0.0618 1.916374,-0.37091 1.854557,-0.55637 1.73092,-2.101824 0.06182,-1.916375 -0.432728,-2.163648 -0.618186,-1.050915 c 0,0 -0.741823,-0.556368 -1.050914,-0.556368 -0.309095,0 -1.854558,0.309094 -1.854558,0.309094 l -0.741822,0.432729 -0.247275,0.370911 0.123637,0.680003 h 0.80364 l 0.741823,-0.06182 1.174555,0.556366 0.74182,1.112734 -0.185455,0.86546 -0.06182,1.174552 -1.298188,1.236371 c 0,0 -0.80364,0.12364 -1.112735,0.24728 -0.309091,0.12363 -2.287283,0.0618 -2.287283,0.0618 l -1.607283,0.86546 -3.523657,2.84366 c 0,0 -5.130937,6.36731 -5.440032,6.36731 -0.309091,0 -3.214563,3.95638 -3.214563,3.95638 l -1.854554,3.83275 -2.163649,5.37821 -0.741823,3.21457 -0.618185,4.69821 -0.185458,3.09092 -0.247274,3.09093 0.185457,3.64729 0.432729,3.21457 1.174554,3.83275 2.287286,4.82184 3.400017,5.0073 4.698209,5.06912 6.058218,4.94549 7.480043,5.56367 6.923675,5.31639 3.029108,2.96729 1.916375,2.59638 0.86546,1.48364 0.432729,1.60728 -0.494549,1.6691 -0.927277,0.9891 c 0,0 -0.123637,0.74182 -0.370912,0.74182 -0.247274,0 0.80364,1.54547 0.80364,1.54547 h 1.174555 l 1.483643,0.12363 1.050917,-0.68 1.050914,-0.80364 1.112734,0.49455 0.741821,0.18545 3.338203,-1.11273 2.843651,-0.80364 3.276383,-0.18546"
     id="path1" /></svg>
