<?xml version="1.0" encoding="UTF-8" standalone="no"?>
<!-- Created with Inkscape (http://www.inkscape.org/) -->

<svg
   width="210mm"
   height="297mm"
   viewBox="0 0 210 297"
   version="1.1"
   id="svg1"
   xml:space="preserve"
   xmlns:xlink="http://www.w3.org/1999/xlink"
   xmlns="http://www.w3.org/2000/svg"
   xmlns:svg="http://www.w3.org/2000/svg"><defs
     id="defs1" /><path
     style="fill:none;stroke:#000000;stroke-width:0.264999"
     d="m 123.52986,163.36147 -4.72676,-0.63408 -5.18791,-0.57643 -4.7844,-0.57643 -7.32072,-2.30574 -7.090135,-2.36338 -8.531228,-4.95734 -8.07008,-4.72676 -7.090142,-5.36084 -4.72676,-4.26561 -3.977397,-4.32326 -4.669118,-5.13026 -5.418481,-6.45607 -8.012438,-10.02995 -2.709241,-4.32326 -1.268156,-1.26815 -1.152869,-0.69173 -0.691721,-1.61401 -0.345858,-1.67166 0.461145,-2.132807 -0.288216,-4.438544 -0.634077,-0.807008 -2.248095,0.05764 -1.38344,0.691721 -0.864653,1.556375 -0.749364,1.844587 -0.288219,1.325806 -0.576434,1.49873 -1.152866,1.09522 -1.49873,0.74936 -1.095227,0.46115 -1.614015,1.61402 -0.634077,1.7293 -1.037582,3.28568 -0.576434,3.80446 -0.345861,4.72676 -0.634078,4.95734 v 4.84205 l -0.115287,6.85956 v 3.68918 l 0.518791,4.15033 0.634078,0.57643 1.84459,0.17293 1.498728,-0.34586 0.288218,-4.61147 0.288216,-7.32071 0.05764,-6.05256 0.749363,-7.32072 1.037582,-5.24555 0.230574,-0.80701 0.288219,-1.09523 0.86465,-0.92229 1.210511,-0.17293 1.902235,0.4035 1.441085,0.5188 2.36338,2.42102 4.842047,6.45606 10.260531,12.79684 1.902233,1.09523 1.614016,0.69172 1.325798,2.13281 v 1.03758 l 4.784405,6.05256 15.390796,18.21532 4.265613,1.49873 c 0,0 3.285675,1.55637 3.285675,1.95988 0,0.4035 2.536312,2.19045 2.536312,2.19045 l 2.305737,2.82452 1.383441,2.82453 0.288218,3.11275 c 0,0 -0.634079,2.88217 -0.922295,2.99745 -0.288216,0.11529 -1.49873,2.47867 -1.49873,2.47867 l 0.115287,1.09523 1.786946,1.78694 3.400962,0.17293 1.614016,-0.57643 4.438536,-4.3809 7.14779,-6.28314 1.95988,-2.19044 14.81435,1.61401"
     id="path1" /></svg>
