<?xml version="1.0" encoding="UTF-8" standalone="no"?>
<!-- Created with Inkscape (http://www.inkscape.org/) -->

<svg
   width="210mm"
   height="297mm"
   viewBox="0 0 210 297"
   version="1.1"
   id="svg1"
   xml:space="preserve"
   xmlns:xlink="http://www.w3.org/1999/xlink"
   xmlns="http://www.w3.org/2000/svg"
   xmlns:svg="http://www.w3.org/2000/svg"><defs
     id="defs1" /><path
     style="fill:none;stroke:#000000;stroke-width:0.264999"
     d="m 83.006535,182.03794 h -7.263072 l -0.634076,-0.92229 -0.230574,-1.03758 c 0,0 -0.403506,-1.78695 -0.634079,-1.90224 -0.230574,-0.11528 -0.807009,-1.21051 -1.786946,-1.67166 -0.979937,-0.46114 -4.669118,-1.95987 -4.669118,-1.95987 l -5.649055,-2.76689 -3.919755,-1.90223 -4.496186,-2.88217 -3.458607,-2.47867 -3.400962,-2.70924 -2.766882,-3.63154 -2.47867,-4.7844 -1.498727,-3.63154 -0.518792,-3.51625 -0.345861,-4.09268 -0.05764,-4.55383 0.576434,-3.9774 1.614017,-5.07262 2.651596,-5.82198 2.421025,-3.91976 3.516249,-4.66911 2.997456,-4.26562 2.939817,-5.07262 1.095224,-2.88217 0.576435,-2.132809 0.288216,-2.651596 -0.403503,-1.3258 -0.86465,-0.979937 -0.691722,-0.230574 -0.576434,-0.05765 -1.037582,0.749366 -1.152869,1.902233 -0.403503,0.634079 0.461145,1.037579 1.614016,0.461148 0.691722,1.037581 c 0,0 0.05764,0.69172 0.05764,1.3258 0,0.63407 -1.556375,2.65159 -1.556375,2.65159 l -2.190448,3.0551 -0.97994,1.67167 -6.283132,7.95479 -1.959877,2.76688 -2.766886,5.7067 -1.671658,5.93727 -0.922295,4.03504 -0.345861,4.49619 0.461148,6.51371 1.325798,5.76434 1.959877,4.20797 2.766885,3.80447 3.458604,3.86211 5.072624,4.43854 7.781861,3.9774 7.897151,3.86211 3.458604,1.84459 0.749364,1.90223 c 0,0 0.34586,1.15287 -0.172929,1.38344 -0.51879,0.23057 -2.190451,1.67166 -2.190451,1.67166 l -2.88217,1.67167 -2.421025,1.72929 0.576435,3.5739 c 0,0 4.784404,-0.0576 4.553831,-0.0576 -0.230574,0 7.781861,-5.13025 7.781861,-5.13025 l 4.150328,1.38344 0.807009,0.57642 0.576434,0.0576 0.749364,-0.92231"
     id="path1" /></svg>
