<?xml version="1.0" encoding="UTF-8" standalone="no"?>
<!-- Created with Inkscape (http://www.inkscape.org/) -->

<svg
   width="210mm"
   height="297mm"
   viewBox="0 0 210 297"
   version="1.1"
   id="svg1"
   xml:space="preserve"
   xmlns:xlink="http://www.w3.org/1999/xlink"
   xmlns="http://www.w3.org/2000/svg"
   xmlns:svg="http://www.w3.org/2000/svg"><defs
     id="defs1" /><path
     style="fill:none;stroke:#000000;stroke-width:0.264999"
     d="m 77.015336,146.1484 -2.911922,-0.60246 -3.514389,-1.00412 -3.464184,-1.40575 -4.76953,-1.90781 -3.765415,-2.10864 -3.564596,-2.81151 -2.108634,-2.10863 -1.506167,-2.30946 -1.506167,-3.21316 -0.702879,-3.26336 0.05021,-3.11274 0.55226,-2.51028 0.953907,-2.81151 1.506167,-2.56049 1.958018,-2.56048 3.062538,-3.11275 2.158839,-2.66089 1.556372,-2.20905 1.004112,-3.46418 -0.150617,-3.564593 -0.602466,-1.305346 -0.753084,-0.753083 -0.9037,-0.0502 -1.00411,0.401643 -0.502057,0.953907 -0.200822,0.853493 0.150617,0.552262 0.803288,0.401646 h 0.753084 0.502055 l 0.301233,2.158831 -1.00411,2.35966 -0.953905,1.55638 -1.255141,1.70699 -1.506167,1.15472 -1.656783,1.00411 -1.355551,1.40576 -2.158838,3.26336 -2.359663,3.76542 -0.753083,3.66501 -0.702877,4.01644 0.401643,3.86583 1.556375,4.76953 1.8074,3.06254 3.514389,3.86583 3.916034,2.66089 4.669118,2.40987 3.715211,1.10452 c 0,0 2.660896,0.65267 2.460074,0.65267 -0.200824,0 0.05021,0.95391 0.05021,0.95391 0,0 -0.150617,0.70288 -0.502055,0.95391 -0.351441,0.25103 -1.506167,1.65678 -1.757196,1.70698 -0.251028,0.0502 -1.706988,1.25514 -1.706988,1.25514 l -0.200824,0.65268 0.251028,1.10453 1.455963,0.70286 2.108634,0.0502 1.004109,-0.80329 2.158842,-1.8074 1.706988,-1.10452 0.953905,-0.30123 1.656784,0.65267 1.204933,0.55226"
     id="path1" /></svg>
