<?xml version="1.0" encoding="UTF-8" standalone="no"?>
<!-- Created with Inkscape (http://www.inkscape.org/) -->

<svg
   width="210mm"
   height="297mm"
   viewBox="0 0 210 297"
   version="1.1"
   id="svg1"
   xml:space="preserve"
   xmlns:xlink="http://www.w3.org/1999/xlink"
   xmlns="http://www.w3.org/2000/svg"
   xmlns:svg="http://www.w3.org/2000/svg"><defs
     id="defs1" /><path
     style="fill:none;stroke:#000000;stroke-width:0.264999"
     d="m 91.907893,205.83124 -6.830097,-0.92836 -4.907057,-0.72943 -4.840748,-0.46418 -2.519842,-4.70812 -1.259919,-1.52517 -3.713451,-1.92304 -5.039682,-2.98402 -4.111321,-2.18828 -4.840748,-3.71345 -3.050334,-3.24927 -2.718776,-3.58083 -3.448203,-5.63649 -3.116646,-6.10066 -0.928362,-3.18296 -0.79574,-4.31026 -0.862052,-5.10599 0.265247,-5.90174 2.055659,-7.36058 1.392545,-5.106 3.978698,-5.50386 2.519841,-3.64714 4.509188,-3.91238 4.509191,-4.64182 2.984021,-4.37656 2.055661,-4.17764 0.994675,-3.05033 0.596805,-4.37657 -0.132625,-4.177628 -0.265245,-2.586153 -0.72943,-0.729428 -0.79574,-0.397869 -0.663114,-0.46418 c 0,0 -0.464183,-0.33156 -0.729427,-0.33156 -0.265248,0 -1.127297,0.596805 -1.127297,0.596805 l -0.79574,0.33156 -0.198935,1.326232 0.729427,0.795739 1.458855,0.46418 1.127299,0.39787 0.331557,1.326232 0.46418,2.71878 c 0,0 -0.530492,1.85672 -0.46418,2.18828 0.06631,0.33156 -1.392544,4.31025 -1.392544,4.31025 l -1.856724,3.44821 -2.121972,3.71345 -2.851401,3.58083 -1.790411,1.59147 -0.928365,0.59681 -2.586151,2.45353 -3.647139,4.50919 -2.586154,3.58082 -1.856724,3.71346 -1.856726,5.96804 -1.127297,3.9787 -0.46418,6.49854 0.198935,4.97337 0.596802,6.23329 1.060987,3.91238 2.254594,5.7028 c 0,0 4.641813,6.89641 4.310255,7.16166 -0.331557,0.26524 3.448204,4.24394 3.448204,4.24394 0,0 2.984024,2.91771 2.718776,2.98402 -0.265247,0.0663 5.039683,4.31026 5.039683,4.31026 l 4.111321,3.31558 4.774435,2.65246 3.116646,1.25992 1.392544,1.45886 1.127297,1.52516 0.331558,1.39255 c 0,0 0.397869,1.19361 -0.265248,1.19361 -0.663114,0 -1.326232,0.46418 -1.856724,0.66311 -0.530492,0.19894 -2.254594,1.65779 -2.254594,1.65779 0,0 -0.39787,0.0663 -0.72943,0.19894 -0.331557,0.13262 0.530495,1.45885 0.530495,1.45885 0,0 1.060985,0.92836 0.79574,1.19361 -0.265248,0.26525 0.39787,1.32623 0.39787,1.32623 l 0.729427,0.79574 1.989346,0.19894 1.657792,-0.26525 1.724102,-0.5968 2.718776,-2.8514 1.25992,-1.98935 4.177633,0.46418 6.100667,0.59681 c 0,0 2.785089,0.66311 2.519841,0.72942"
     id="path1" /></svg>
