<?xml version="1.0" encoding="UTF-8" standalone="no"?>
<!-- Created with Inkscape (http://www.inkscape.org/) -->

<svg
   width="210mm"
   height="297mm"
   viewBox="0 0 210 297"
   version="1.1"
   id="svg1"
   xml:space="preserve"
   inkscape:version="1.4.2 (ebf0e94, 2025-05-08)"
   sodipodi:docname="Nb.32-33 G14a.svg"
   xmlns:inkscape="http://www.inkscape.org/namespaces/inkscape"
   xmlns:sodipodi="http://sodipodi.sourceforge.net/DTD/sodipodi-0.dtd"
   xmlns:xlink="http://www.w3.org/1999/xlink"
   xmlns="http://www.w3.org/2000/svg"
   xmlns:svg="http://www.w3.org/2000/svg"><sodipodi:namedview
     id="namedview1"
     pagecolor="#ffffff"
     bordercolor="#000000"
     borderopacity="0.25"
     inkscape:showpageshadow="2"
     inkscape:pageopacity="0.0"
     inkscape:pagecheckerboard="0"
     inkscape:deskcolor="#d1d1d1"
     inkscape:document-units="mm"
     showguides="true"
     inkscape:zoom="3.01"
     inkscape:cx="396.84385"
     inkscape:cy="587.87375"
     inkscape:window-width="1916"
     inkscape:window-height="2041"
     inkscape:window-x="-9"
     inkscape:window-y="0"
     inkscape:window-maximized="0"
     inkscape:current-layer="svg1"><sodipodi:guide
       position="89.181816,220.58182"
       orientation="0,-1"
       id="guide1"
       inkscape:locked="false" /></sodipodi:namedview><defs
     id="defs1" /><path
     style="fill:none;stroke:#000000;stroke-width:0.264999"
     d="m 119.80966,217.55606 -4.83458,2.46124 -2.19753,1.93383 -4.13137,-0.1758 -0.79111,-1.93383 -0.52741,-4.39508 -2.10964,-4.48297 -5.449888,-6.59261 -6.592607,-5.44989 -6.944214,-6.241 -3.603958,-4.57087 c 0,0 -2.812847,-5.8894 -2.900749,-6.241 -0.0879,-0.35161 -2.549142,-8.96595 -2.549142,-8.96595 l -0.527407,-8.96595 0.70321,-8.96594 2.461241,-7.03212 4.922481,-9.75706 7.207919,-8.70224 2.285436,-2.19754 2.373339,-5.36199 2.109634,-9.58125 0.966917,-9.05385 0.263703,-10.548172 v -8.350636 l -0.70321,-6.68051 -0.879015,-0.791114 h -1.318521 l -1.054818,1.230622 -0.966917,2.373339 1.318522,1.054817 0.703213,1.933831 0.263704,13.976329 0.0879,6.768414 -0.966914,6.1531 -2.285439,10.54817 -3.340254,6.76841 -4.30717,3.95557 -4.570876,5.62569 -4.30717,9.14175 -2.021732,5.53779 c 0,0 -1.494324,7.29582 -2.021734,7.64742 -0.52741,0.35161 0.439507,14.32794 0.439507,14.32794 l 2.724944,8.35063 2.900749,6.41681 4.482973,6.0652 7.383722,7.73532 7.383719,7.47163 2.724942,4.92248 1.14272,3.16445 v 3.60396 2.72494 l -1.14272,1.84593 c 0,0 -0.3516,1.14272 -0.3516,1.58223 0,0.43951 1.05481,1.67013 1.05481,1.67013 l 1.31853,1.31852 3.95556,-0.0879 1.49433,-1.58223 5.88939,-0.52741 4.74668,-1.40642"
     id="path1" /></svg>
