<?xml version="1.0" encoding="UTF-8" standalone="no"?>
<!-- Created with Inkscape (http://www.inkscape.org/) -->

<svg
   width="210mm"
   height="297mm"
   viewBox="0 0 210 297"
   version="1.1"
   id="svg1"
   xml:space="preserve"
   sodipodi:docname="Nb.32-33g2.svg"
   inkscape:version="1.4.3 (0d15f75, 2025-12-25)"
   xmlns:inkscape="http://www.inkscape.org/namespaces/inkscape"
   xmlns:sodipodi="http://sodipodi.sourceforge.net/DTD/sodipodi-0.dtd"
   xmlns:xlink="http://www.w3.org/1999/xlink"
   xmlns="http://www.w3.org/2000/svg"
   xmlns:svg="http://www.w3.org/2000/svg"><sodipodi:namedview
     id="namedview1"
     pagecolor="#ffffff"
     bordercolor="#000000"
     borderopacity="0.25"
     inkscape:showpageshadow="2"
     inkscape:pageopacity="0.0"
     inkscape:pagecheckerboard="0"
     inkscape:deskcolor="#d1d1d1"
     inkscape:document-units="mm"
     inkscape:zoom="0.76410288"
     inkscape:cx="562.75144"
     inkscape:cy="500.58704"
     inkscape:window-width="2560"
     inkscape:window-height="1494"
     inkscape:window-x="-11"
     inkscape:window-y="-11"
     inkscape:window-maximized="1"
     inkscape:current-layer="layer9" /><defs
     id="defs1" /><g
     id="layer8"></g><g
     id="layer9"><path
       style="display:inline;fill:#000000;fill-opacity:0;stroke:#000000;stroke-width:0.281891"
       d="m 130.61154,261.55626 c 0,0 -11.98984,-2.21349 -24.9942,10.51417 0,0 -2.12128,-0.50726 -2.39796,-2.16739 -0.27669,-1.66013 -3.781413,-10.69861 -3.781413,-10.69861 0,0 -5.257081,-3.87364 -7.747277,-12.12819 0,0 -7.055556,-4.19644 -8.485113,-9.22293 0,0 -7.562819,-2.07517 -13.234933,-10.8831 0,0 -19.045389,-10.14523 -30.574075,-17.43137 -11.528689,-7.28612 -15.771244,-10.14525 -21.489472,-24.16411 -5.718229,-14.0189 -4.150328,-25.45535 -4.150328,-25.45535 0,0 1.014524,-17.24693 3.873637,-28.59114 2.859116,-11.34424 4.611476,-15.40233 10.606393,-27.76109 5.994918,-12.358748 20.198258,-12.266518 29.605668,-34.493827 0,0 3.608524,-12.265203 -3.239166,-17.091194 0,0 -6.391177,-1.630403 -5.86945,4.304262 0,0 1.108675,1.043457 2.804292,0.65216 1.69562,-0.391295 1.826053,4.108615 1.108674,9.651984 0,0 1.369538,2.934723 -7.369418,13.238868 0,0 -4.359044,4.784591 -13.950912,10.226131 l -0.276688,2.029049 c 0,0 -3.320262,2.121279 -6.179377,6.548294 0,0 -0.645606,2.444083 -0.184458,3.689183 0,0 -0.09223,0.59949 -0.62255,0.55337 -0.530319,-0.0461 -1.360384,-0.92229 -3.643065,6.20244 -5.566261,11.64202 -3.707602,9.16381 -7.359703,21.00054 0,0 -4.8376467,13.79304 -4.1459256,35.46696 0,0 3.0896876,1.61401 0.4150328,4.10421 0,0 -0.8300655,3.22803 1.8445898,15.03341 0,0 4.242557,18.35367 20.336603,29.60567 16.094045,11.25199 24.348585,19.96769 24.348585,19.96769 0,0 11.395692,10.47196 15.145619,15.20013 3.749927,4.72817 24.488645,26.15166 22.629986,33.91237 l 2.445604,4.53252 10.27153,-0.0327 c 0,0 1.89127,-5.73901 3.94558,-1.76084 0,0 5.38033,0.45651 17.38009,-2.64125 l 2.8369,-3.09777"
       id="path2" /></g></svg>
