<?xml version="1.0" encoding="UTF-8" standalone="no"?>
<!-- Created with Inkscape (http://www.inkscape.org/) -->

<svg
   width="210mm"
   height="297mm"
   viewBox="0 0 210 297"
   version="1.1"
   id="svg1"
   xml:space="preserve"
   sodipodi:docname="Nb.33a.svg"
   inkscape:version="1.4.3 (0d15f75, 2025-12-25)"
   xmlns:inkscape="http://www.inkscape.org/namespaces/inkscape"
   xmlns:sodipodi="http://sodipodi.sourceforge.net/DTD/sodipodi-0.dtd"
   xmlns:xlink="http://www.w3.org/1999/xlink"
   xmlns="http://www.w3.org/2000/svg"
   xmlns:svg="http://www.w3.org/2000/svg"><sodipodi:namedview
     id="namedview1"
     pagecolor="#ffffff"
     bordercolor="#000000"
     borderopacity="0.25"
     inkscape:showpageshadow="2"
     inkscape:pageopacity="0.0"
     inkscape:pagecheckerboard="0"
     inkscape:deskcolor="#d1d1d1"
     inkscape:document-units="mm"
     inkscape:zoom="12.225646"
     inkscape:cx="539.60338"
     inkscape:cy="976.6764"
     inkscape:window-width="2560"
     inkscape:window-height="1494"
     inkscape:window-x="-11"
     inkscape:window-y="-11"
     inkscape:window-maximized="1"
     inkscape:current-layer="layer5" /><defs
     id="defs1" /><g
     id="layer1"></g><g
     id="layer5"><path
       style="display:inline;fill:#000000;fill-opacity:0;stroke:#000000;stroke-width:0.264583"
       d="m 149.58718,253.81344 -29.08639,0.69253 c -8.5701,-10.73426 -29.865498,-22.94016 -29.865498,-22.94016 l -5.4537,-2.0776 C 59.730995,212.52115 51.680295,199.10332 51.680295,199.10332 38.002763,186.29145 36.27143,165.60202 36.27143,165.60202 32.89533,154.60805 34.886363,146.21109 34.886363,146.21109 34.45353,128.29179 56.008628,107.86206 56.008628,107.86206 74.447327,101.62926 79.381626,87.865159 79.381626,87.865159 86.047259,70.98466 86.047259,49.862395 86.047259,49.862395 84.662192,40.94603 77.130893,41.72513 77.130893,41.72513 c -5.367133,2.445508 0.757458,8.635024 0.757458,8.635024 2.819502,1.700543 0.524056,15.718061 0.524056,15.718061 -3.427864,30.085635 -22.770816,34.554105 -22.770816,34.554105 -4.927555,0.82636 -19.036892,18.42477 -19.036892,18.42477 -8.753297,12.18116 -8.783903,29.71836 -8.783903,29.71836 -0.465732,3.88485 -0.206032,19.55342 -0.206032,19.55342 4.241766,34.58338 39.301263,58.12951 39.301263,58.12951 7.617866,3.98207 14.110366,9.26263 14.110366,9.26263 21.295397,11.59993 27.787897,21.8148 27.787897,21.8148 4.48888,2.9207 6.57009,6.65463 6.57009,6.65463 5.99876,1.53029 34.33986,-1.83636 34.33986,-1.83636"
       id="path1" /></g></svg>
