<?xml version="1.0" encoding="UTF-8" standalone="no"?>
<!-- Created with Inkscape (http://www.inkscape.org/) -->

<svg
   width="210mm"
   height="297mm"
   viewBox="0 0 210 297"
   version="1.1"
   id="svg1"
   xml:space="preserve"
   xmlns:xlink="http://www.w3.org/1999/xlink"
   xmlns="http://www.w3.org/2000/svg"
   xmlns:svg="http://www.w3.org/2000/svg"><defs
     id="defs1" /><path
     style="fill:none;stroke:#000000;stroke-width:0.264999"
     d="m 90.897177,212.52016 -1.56474,0.14225 -1.920365,0.56899 -3.485102,0.0711 -4.765344,0.21337 c 0,0 -1.564741,0.569 -1.849239,0.64012 -0.284499,0.0711 -2.773858,-0.0711 -2.773858,-0.0711 l -0.568997,-4.3386 -1.351364,-4.40972 -2.204863,-3.7696 -3.840726,-3.98298 -3.556228,-3.69847 -3.698475,-2.27599 -3.271729,-1.84924 -3.342854,-3.41397 -2.63161,-3.55623 -2.702731,-6.25896 -1.351368,-5.90334 -1.493615,-8.03708 -0.711245,-5.61884 -1.209117,-7.8237 v -7.5392 -6.82796 l 0.284496,-5.90333 1.706991,-4.9076 1.778114,-3.4851 2.844983,-2.20486 3.271729,-1.92036 2.347108,-3.69848 2.916108,-5.26322 1.351367,-3.98297 1.066866,-4.48085 -0.284496,-2.916105 -0.924621,-1.137994 -1.209116,-0.213373 h -2.133738 l -0.355621,1.209116 0.640119,0.426747 c 0,0 0.142251,0 0.995744,0.497874 0.853496,0.497872 0.78237,0.995744 0.78237,0.995744 l -0.07112,1.920361 -1.351368,4.48085 -1.706988,3.7696 -1.066869,2.84498 -2.418236,3.41398 -0.995744,1.20912 -2.275985,0.85349 -2.418233,1.63586 -1.849239,2.06262 -1.351368,2.77385 -1.351364,3.48511 -0.924621,4.19635 v 4.19635 6.18783 l 0.07113,6.18784 1.209117,8.32157 1.849239,13.79816 2.418233,8.89057 1.920365,4.69422 2.98723,4.3386 4.125225,4.19635 5.547714,5.47659 5.192093,4.6231 c 0,0 3.413977,3.91184 3.058356,3.91184 -0.355624,0 1.920362,3.84073 1.920362,3.84073 l 1.066869,3.55623 c 0,0 -0.142251,2.13374 -0.568998,2.27598 -0.426746,0.14225 -0.640119,1.99149 -0.640119,1.99149 l 0.853493,0.78237 c 0,0 2.844982,0.14225 2.560484,0.14225 -0.284499,0 4.054099,-1.20912 4.054099,-1.20912 l 3.982977,-0.28449 9.38844,-0.42675"
     id="path1" /></svg>
