<?xml version="1.0" encoding="UTF-8" standalone="no"?>
<!-- Created with Inkscape (http://www.inkscape.org/) -->

<svg
   width="210mm"
   height="297mm"
   viewBox="0 0 210 297"
   version="1.1"
   id="svg1"
   xml:space="preserve"
   sodipodi:docname="Nb.33c1.svg"
   inkscape:version="1.4.3 (0d15f75, 2025-12-25)"
   xmlns:inkscape="http://www.inkscape.org/namespaces/inkscape"
   xmlns:sodipodi="http://sodipodi.sourceforge.net/DTD/sodipodi-0.dtd"
   xmlns:xlink="http://www.w3.org/1999/xlink"
   xmlns="http://www.w3.org/2000/svg"
   xmlns:svg="http://www.w3.org/2000/svg"><sodipodi:namedview
     id="namedview1"
     pagecolor="#ffffff"
     bordercolor="#000000"
     borderopacity="0.25"
     inkscape:showpageshadow="2"
     inkscape:pageopacity="0.0"
     inkscape:pagecheckerboard="0"
     inkscape:deskcolor="#d1d1d1"
     inkscape:document-units="mm"
     inkscape:zoom="12.225646"
     inkscape:cx="558.74348"
     inkscape:cy="960.64453"
     inkscape:window-width="2560"
     inkscape:window-height="1494"
     inkscape:window-x="-11"
     inkscape:window-y="-11"
     inkscape:window-maximized="1"
     inkscape:current-layer="layer9" /><defs
     id="defs1" /><g
     id="layer8"></g><g
     id="layer9"><path
       style="fill:#000000;fill-opacity:0;stroke:#000000;stroke-width:0.264583"
       d="m 152.01105,256.06417 -34.45353,3.6358 c 0,0 -2.0776,-9.52233 -39.820662,-32.20279 -37.743061,-22.68047 -40.340063,-52.11313 -40.340063,-52.11313 0,0 -3.982066,-16.44767 -0.519398,-38.60873 3.462666,-22.16107 14.543198,-56.095195 26.316262,-53.151928 1.125369,0.12985 1.27686,-0.605966 1.27686,-0.605966 0,0 19.573381,-29.212191 20.55277,-38.33276 2.928436,-11.875902 3.058286,-25.640001 3.058286,-25.640001 -0.562683,-7.141749 -5.756682,-3.679083 -5.756682,-3.679083 0,0 -3.202967,2.120883 -0.64925,4.6746 2.613104,1.996092 2.062197,2.730634 1.939773,4.138507 -0.122423,1.407873 -3.183017,33.36047 -22.832028,53.437964 -10.228459,-0.312627 -20.443325,23.666337 -20.443325,23.666337 -7.408076,20.16136 -8.999585,40.23886 -8.999585,40.23886 0,0 -2.203627,10.77329 0.244848,32.19744 2.448475,21.42416 18.241137,38.56348 47.622836,60.47733 29.381698,21.91385 28.402308,19.95507 27.545338,30.85078 l 45.30084,-3.44296"
       id="path2" /></g></svg>
