<?xml version="1.0" encoding="UTF-8" standalone="no"?>
<!-- Created with Inkscape (http://www.inkscape.org/) -->

<svg
   width="210mm"
   height="297mm"
   viewBox="0 0 210 297"
   version="1.1"
   id="svg1"
   xml:space="preserve"
   inkscape:version="1.4.2 (ebf0e94, 2025-05-08)"
   sodipodi:docname="Nb.32-33 G14d.svg"
   xmlns:inkscape="http://www.inkscape.org/namespaces/inkscape"
   xmlns:sodipodi="http://sodipodi.sourceforge.net/DTD/sodipodi-0.dtd"
   xmlns:xlink="http://www.w3.org/1999/xlink"
   xmlns="http://www.w3.org/2000/svg"
   xmlns:svg="http://www.w3.org/2000/svg"><sodipodi:namedview
     id="namedview1"
     pagecolor="#ffffff"
     bordercolor="#000000"
     borderopacity="0.25"
     inkscape:showpageshadow="2"
     inkscape:pageopacity="0.0"
     inkscape:pagecheckerboard="0"
     inkscape:deskcolor="#d1d1d1"
     inkscape:document-units="mm"
     showguides="true"
     inkscape:zoom="2.28"
     inkscape:cx="396.71053"
     inkscape:cy="455.92105"
     inkscape:window-width="1916"
     inkscape:window-height="2041"
     inkscape:window-x="-9"
     inkscape:window-y="0"
     inkscape:window-maximized="0"
     inkscape:current-layer="layer1"><sodipodi:guide
       position="113.4,272.94546"
       orientation="0,-1"
       id="guide1"
       inkscape:locked="false" /></sodipodi:namedview><defs
     id="defs1" /><g
     inkscape:label="Ebene 1"
     inkscape:groupmode="layer"
     id="layer1"><path
       style="fill:none;stroke:#000000;stroke-width:0.264999"
       d="m 116.74159,177.08516 -3.36531,-0.46418 -0.46418,2.20486 -3.8295,0.23209 -1.85672,0.69627 -3.01718,-0.69627 -1.62464,-1.62463 v -0.92837 l 0.81232,-2.553 -1.50859,-3.5974 -2.669041,-8.00713 -4.873903,-7.4269 -4.293677,-5.33808 -10.44408,-10.21199 -4.873903,-6.73063 -3.481358,-9.9799 0.348136,-8.81944 1.160452,-8.35526 5.918311,-15.434031 4.409723,-4.757859 3.249268,-4.757859 4.177631,-6.266447 2.204863,-14.389619 0.464179,-11.256396 0.464183,-16.942617 0.23209,-5.222039 -1.508588,-1.624635 -1.972771,0.348137 -0.696272,2.669042 1.508588,1.508588 v 15.317983 l -0.46418,13.229167 -2.436952,10.792214 -2.785089,8.239217 c 0,0 -2.320907,4.757859 -2.901132,4.641813 -0.580226,-0.116043 -4.873903,4.641813 -4.873903,4.641813 l -6.73063,15.434028 -2.669042,10.56013 0.464182,10.67616 1.508588,7.07877 2.785089,6.73063 5.686221,7.77503 5.105993,6.03436 6.846675,6.26645 3.481359,4.52576 2.088816,4.29368 2.204861,6.03436 0.812318,7.31085 v 2.78509 l -0.812318,2.553 2.901133,0.58022 3.71345,-0.58022 4.06159,-1.2765 h 7.54294"
       id="path1" /></g></svg>
