<?xml version="1.0" encoding="UTF-8" standalone="no"?>
<!-- Created with Inkscape (http://www.inkscape.org/) -->

<svg
   width="210mm"
   height="297mm"
   viewBox="0 0 210 297"
   version="1.1"
   id="svg1"
   xml:space="preserve"
   xmlns:xlink="http://www.w3.org/1999/xlink"
   xmlns="http://www.w3.org/2000/svg"
   xmlns:svg="http://www.w3.org/2000/svg"><defs
     id="defs1" /><path
     style="fill:none;stroke:#000000;stroke-width:0.264999"
     d="m 79.112167,125.23903 -1.357961,-0.21903 -1.095128,-0.65707 -2.015038,-1.18274 -2.321676,-1.88363 -1.883622,-1.7522 -2.146456,-1.97124 -1.095129,-1.53318 -0.262832,-1.62079 v -2.58451 l 1.226545,-1.57699 2.146456,-1.53318 1.314154,-1.40176 0.569468,-1.83982 0.700884,-2.10265 0.306636,-3.373 0.08761,-3.110165 -0.219025,-1.357961 -0.438052,-0.394247 -0.832297,-0.350441 -0.613273,0.0438 -0.306639,0.481857 0.04381,0.744688 0.438052,0.350441 0.131416,1.270352 v 2.190258 l -0.219028,2.321678 -0.525661,2.27787 -0.788495,1.6646 -0.832297,1.22654 -1.620793,0.48186 -1.051324,1.48938 -0.700884,0.8323 -0.613273,2.23406 -0.131415,2.36548 0.657079,2.5407 1.927429,2.40929 2.190258,1.88362 1.445572,0.8761 c 0,0 1.796013,1.13894 1.708401,1.75221 -0.08761,0.61327 0.17522,1.97123 0.17522,1.97123 l -0.700881,0.96372 0.17522,0.74469 h 6.395556"
     id="path1" /></svg>
