<?xml version="1.0" encoding="UTF-8" standalone="no"?>
<!-- Created with Inkscape (http://www.inkscape.org/) -->

<svg
   width="210mm"
   height="297mm"
   viewBox="0 0 210 297"
   version="1.1"
   id="svg1"
   xml:space="preserve"
   inkscape:version="1.4.2 (ebf0e94, 2025-05-08)"
   sodipodi:docname="Nb.32-33 G3.svg"
   xmlns:inkscape="http://www.inkscape.org/namespaces/inkscape"
   xmlns:sodipodi="http://sodipodi.sourceforge.net/DTD/sodipodi-0.dtd"
   xmlns:xlink="http://www.w3.org/1999/xlink"
   xmlns="http://www.w3.org/2000/svg"
   xmlns:svg="http://www.w3.org/2000/svg"><sodipodi:namedview
     id="namedview1"
     pagecolor="#ffffff"
     bordercolor="#000000"
     borderopacity="0.25"
     inkscape:showpageshadow="2"
     inkscape:pageopacity="0.0"
     inkscape:pagecheckerboard="0"
     inkscape:deskcolor="#d1d1d1"
     inkscape:document-units="mm"
     showguides="true"
     inkscape:zoom="3.01"
     inkscape:cx="396.84385"
     inkscape:cy="561.62791"
     inkscape:window-width="1916"
     inkscape:window-height="2041"
     inkscape:window-x="-9"
     inkscape:window-y="0"
     inkscape:window-maximized="0"
     inkscape:current-layer="layer1"><sodipodi:guide
       position="89.181816,220.58182"
       orientation="0,-1"
       id="guide1"
       inkscape:locked="false" /></sodipodi:namedview><defs
     id="defs1" /><g
     inkscape:label="Ebene 1"
     inkscape:groupmode="layer"
     id="layer1"><path
       style="fill:none;stroke:#000000;stroke-width:0.264999"
       d="m 126.84177,206.74418 -8.61434,1.49433 -8.52643,0.96691 -1.05482,-0.3516 -0.79111,-2.90075 -0.70322,-1.58223 -2.37334,-2.46124 -20.129426,-16.70127 -8.086931,-7.47162 -2.900746,-4.13137 -3.252354,-6.1531 -2.724946,-4.57087 -0.351605,-3.51606 -0.966917,-6.59261 0.439507,-8.61434 0.791115,-8.26274 1.933831,-6.68051 4.658776,-12.3941 3.516058,-6.3289 3.516056,-4.39507 3.340256,-2.28544 2.021732,-2.54914 1.933834,-5.098286 1.845929,-5.010383 1.494324,-5.449887 0.966915,-4.307171 -0.0879,-3.603961 -0.52741,-1.054817 -1.230619,0.0879 -1.23062,1.054817 v 1.054817 l 0.351605,0.703212 0.52741,0.527407 -1.14272,4.658778 -3.77976,11.515087 -1.75803,3.779767 -3.164453,2.81284 -3.516056,2.90075 -4.219271,7.20792 -3.164451,6.94421 -2.724943,9.05385 -2.285439,9.66916 -1.31852,11.42719 0.61531,10.02076 2.197534,8.87805 3.779763,5.71359 6.1531,8.52644 5.889397,5.62569 9.053849,8.61434 8.878046,6.76841 3.77976,3.16446 1.05482,1.93383 c 0,0 0,1.84593 -0.26371,2.19753 -0.2637,0.35161 -0.3516,2.10964 -0.3516,2.10964 l 1.75803,0.96691 3.60396,-0.3516 16.87707,-3.07655"
       id="path1" /></g></svg>
