<?xml version="1.0" encoding="UTF-8" standalone="no"?>
<!-- Created with Inkscape (http://www.inkscape.org/) -->

<svg
   width="210mm"
   height="297mm"
   viewBox="0 0 210 297"
   version="1.1"
   id="svg1"
   xml:space="preserve"
   xmlns:xlink="http://www.w3.org/1999/xlink"
   xmlns="http://www.w3.org/2000/svg"
   xmlns:svg="http://www.w3.org/2000/svg"><defs
     id="defs1" /><path
     style="fill:none;stroke:#000000;stroke-width:0.264999"
     d="m 95.39625,201.22958 h -4.188127 l -4.52052,0.39887 -5.916562,0.9307 -1.728433,-0.0665 -1.529,-1.06365 -0.531826,-1.32957 -2.92504,-4.45404 -2.991522,-3.45687 -1.728433,-1.92786 -3.988694,-3.39039 -4.586997,-3.45687 -5.650648,-4.52052 -5.717127,-4.85291 -5.451216,-4.65347 -2.991519,-4.45405 -2.393217,-5.85008 -0.531826,-6.18247 -0.531826,-7.645 0.664785,-6.116 0.930693,-5.05234 2.792087,-7.24613 2.592649,-4.91939 3.922215,-5.25178 3.523348,-3.25743 4.12165,-1.66196 2.393214,-2.26025 3.456869,-6.38192 2.193782,-4.919383 V 96.19399 l -0.39887,-1.263087 -0.997175,-0.531825 -1.462519,-0.531826 -2.393217,0.731261 -0.664781,1.196607 v 0.465349 l 0.930693,0.598302 1.661956,1.063652 v 1.13013 l -0.39887,1.927867 -1.063651,1.529 -2.59265,3.52335 -1.595477,2.26026 -0.332391,1.59547 -2.526172,0.19944 -4.786435,3.92221 -4.321082,4.78643 -2.925043,5.45122 -1.396042,3.98869 -2.260261,5.45122 -0.997173,4.85291 -0.398869,4.58699 -0.265912,7.17965 0.930696,7.91091 c 0,0 2.858563,7.77795 2.592649,7.77795 -0.265911,0 5.052346,6.84726 5.052346,6.84726 l 4.52052,4.05517 7.578516,6.04952 6.049518,4.78643 6.514867,5.98304 2.792084,3.25744 2.792087,3.98869 0.598302,1.92787 c 0,0 0.199435,1.92787 -0.06648,1.99435 -0.265914,0.0665 -0.39887,2.06082 -0.39887,2.06082 l -0.332391,1.06365 1.130128,1.26309 1.794912,0.26591 3.922215,-1.19661 7.51204,-1.32956 6.182476,-1.19661 0.997172,-0.13296"
     id="path1" /></svg>
