<?xml version="1.0" encoding="UTF-8" standalone="no"?>
<!-- Created with Inkscape (http://www.inkscape.org/) -->

<svg
   width="210mm"
   height="297mm"
   viewBox="0 0 210 297"
   version="1.1"
   id="svg1"
   xml:space="preserve"
   xmlns:xlink="http://www.w3.org/1999/xlink"
   xmlns="http://www.w3.org/2000/svg"
   xmlns:svg="http://www.w3.org/2000/svg"><defs
     id="defs1" /><path
     style="fill:none;stroke:#000000;stroke-width:0.264999"
     d="m 82.342288,139.89535 h -1.360006 c 0,0 -2.59638,-1.54547 -2.843654,-1.60729 -0.247275,-0.0618 -2.287286,-0.37091 -2.287286,-0.37091 l -2.287286,-0.49455 -4.698209,-1.48364 -2.53456,-1.23637 -1.545463,-1.48365 -0.494549,-3.15274 0.185457,-5.68731 1.050915,-6.73822 0.680003,-4.38911 1.669103,-8.6546 0.309091,-5.254574 -0.370911,-2.967289 -0.247275,-1.174554 -0.618185,-0.74182 -1.607281,-0.06182 -0.741822,0.680003 -0.247275,4.141843 -1.792737,11.250971 -2.53456,11.93098 -1.421826,8.03641 0.06182,4.08002 0.618186,2.6582 1.73092,2.47274 2.905472,2.3491 3.029106,2.22547 3.029108,2.59638 1.607283,2.04001 0.556366,1.91638 c 0,0 0.247274,1.36 0.123637,1.60728 -0.123637,0.24727 -0.123637,1.79274 -0.432729,1.91637 -0.309094,0.12364 -0.741822,1.42183 -0.741822,1.42183 l 0.123637,0.55637 c 0,0 11.560066,-0.0618 11.189155,0.0618"
     id="path1" /></svg>
