<?xml version="1.0" encoding="UTF-8" standalone="no"?>
<!-- Created with Inkscape (http://www.inkscape.org/) -->

<svg
   width="210mm"
   height="297mm"
   viewBox="0 0 210 297"
   version="1.1"
   id="svg1"
   xml:space="preserve"
   xmlns:xlink="http://www.w3.org/1999/xlink"
   xmlns="http://www.w3.org/2000/svg"
   xmlns:svg="http://www.w3.org/2000/svg"><defs
     id="defs1" /><path
     style="fill:none;stroke:#000000;stroke-width:0.264999"
     d="m 93.244285,205.26545 -6.187834,0.35563 -6.614583,0.78237 h -1.137994 l -1.280242,-2.56049 -1.849237,-2.9161 -2.275985,-1.99149 -5.192093,-3.12948 -4.338598,-2.63161 -5.61884,-3.84072 -4.765344,-5.4766 -3.200607,-5.19209 -2.20486,-5.33434 -1.351367,-5.26322 -1.137991,-5.97446 -0.213374,-5.83221 0.426747,-8.81945 1.778113,-6.82795 2.204861,-7.04133 3.556227,-7.68146 1.99149,-4.62309 2.702732,-5.90334 2.489358,-6.40121 2.489359,-7.68145 1.137994,-4.55197 -0.78237,-1.920364 -1.066869,-0.924618 H 61.87836 l -0.568997,0.497871 -0.78237,1.137994 0.07113,1.209117 0.711245,1.137991 -0.78237,4.196349 -0.426747,2.91611 -1.635866,4.26747 -2.34711,5.61884 -2.418234,5.97446 -2.916108,6.04559 -2.560484,6.25896 -1.920361,5.12097 -1.706989,6.6857 -0.924621,5.68997 0.355624,6.40121 0.64012,9.74406 2.204863,7.61033 4.125224,8.25045 3.698476,5.26321 3.982974,3.84073 4.97872,3.05835 5.334341,3.41398 3.840726,2.91611 2.275986,2.34711 c 0,0 0.426746,1.28024 0.497871,2.13374 0.07113,0.85349 0.497872,1.77811 0.355621,2.06261 -0.142247,0.2845 0.142251,0.92462 -0.284495,1.06687 -0.42675,0.14225 -0.853496,0.56899 -0.853496,0.56899 l 0.213373,1.35137 1.42249,0.42675 h 2.275988 l 14.651657,-2.91611"
     id="path1" /></svg>
