<?xml version="1.0" encoding="UTF-8" standalone="no"?>
<!-- Created with Inkscape (http://www.inkscape.org/) -->

<svg
   width="210mm"
   height="297mm"
   viewBox="0 0 210 297"
   version="1.1"
   id="svg1"
   xml:space="preserve"
   sodipodi:docname="Nb.33a2.svg"
   inkscape:version="1.4.3 (0d15f75, 2025-12-25)"
   xmlns:inkscape="http://www.inkscape.org/namespaces/inkscape"
   xmlns:sodipodi="http://sodipodi.sourceforge.net/DTD/sodipodi-0.dtd"
   xmlns:xlink="http://www.w3.org/1999/xlink"
   xmlns="http://www.w3.org/2000/svg"
   xmlns:svg="http://www.w3.org/2000/svg"><sodipodi:namedview
     id="namedview1"
     pagecolor="#ffffff"
     bordercolor="#000000"
     borderopacity="0.25"
     inkscape:showpageshadow="2"
     inkscape:pageopacity="0.0"
     inkscape:pagecheckerboard="0"
     inkscape:deskcolor="#d1d1d1"
     inkscape:document-units="mm"
     inkscape:zoom="17.289674"
     inkscape:cx="497.52238"
     inkscape:cy="1050.0198"
     inkscape:window-width="2560"
     inkscape:window-height="1494"
     inkscape:window-x="-11"
     inkscape:window-y="-11"
     inkscape:window-maximized="1"
     inkscape:current-layer="layer7" /><defs
     id="defs1" /><g
     id="layer6"></g><g
     id="layer7"><path
       style="fill:#000000;fill-opacity:0;stroke:#000000;stroke-width:0.264583"
       d="m 133.05295,274.50288 c -25.27746,7.44474 -29.69236,2.42387 -30.55803,-3.54923 C 99.638224,256.23731 69.080194,230.61358 69.080194,230.61358 45.274363,210.61668 36.53113,183.00192 36.53113,183.00192 c -7.617866,-18.00587 1.644767,-48.39077 1.644767,-48.39077 11.340232,-26.57596 25.104331,-34.19383 25.104331,-34.19383 0,0 3.549233,-0.34626 8.396965,-22.767027 4.592799,-12.276014 9.122477,-37.00561 9.122477,-37.00561 6.733306,-21.179308 3.305441,-28.402309 3.305441,-28.402309 0,0 -2.815746,-4.1011951 -6.488458,-0.367271 -1.101814,5.386645 4.346043,4.468467 3.489077,7.957543 C 79.759069,32.075021 77.555441,37.27803 77.555441,37.27803 74.127576,46.092539 70.33244,68.802144 70.33244,68.802144 l -6.672094,22.342333 c 0,6.488458 -15.364179,14.507213 -17.445383,19.587803 -2.081204,5.08058 -11.079349,12.97691 -15.670239,33.42168 -4.590891,20.44476 -3.489077,55.39674 35.686521,90.40993 39.175595,35.01319 32.075021,36.72712 31.462902,50.92828 l 35.445373,-3.1983"
       id="path2" /></g></svg>
