<?xml version="1.0" encoding="UTF-8" standalone="no"?>
<!-- Created with Inkscape (http://www.inkscape.org/) -->

<svg
   width="210mm"
   height="297mm"
   viewBox="0 0 210 297"
   version="1.1"
   id="svg1"
   xml:space="preserve"
   inkscape:version="1.4.2 (ebf0e94, 2025-05-08)"
   sodipodi:docname="Nb.32-33 G6.svg"
   xmlns:inkscape="http://www.inkscape.org/namespaces/inkscape"
   xmlns:sodipodi="http://sodipodi.sourceforge.net/DTD/sodipodi-0.dtd"
   xmlns:xlink="http://www.w3.org/1999/xlink"
   xmlns="http://www.w3.org/2000/svg"
   xmlns:svg="http://www.w3.org/2000/svg"><sodipodi:namedview
     id="namedview1"
     pagecolor="#ffffff"
     bordercolor="#000000"
     borderopacity="0.25"
     inkscape:showpageshadow="2"
     inkscape:pageopacity="0.0"
     inkscape:pagecheckerboard="0"
     inkscape:deskcolor="#d1d1d1"
     inkscape:document-units="mm"
     showguides="true"
     inkscape:zoom="3.01"
     inkscape:cx="396.84385"
     inkscape:cy="535.04983"
     inkscape:window-width="1916"
     inkscape:window-height="2041"
     inkscape:window-x="-9"
     inkscape:window-y="0"
     inkscape:window-maximized="0"
     inkscape:current-layer="layer1"><sodipodi:guide
       position="89.181816,220.58182"
       orientation="0,-1"
       id="guide1"
       inkscape:locked="false" /></sodipodi:namedview><defs
     id="defs1" /><g
     inkscape:label="Ebene 1"
     inkscape:groupmode="layer"
     id="layer1"><path
       style="fill:none;stroke:#000000;stroke-width:0.264999"
       d="m 129.21511,174.13275 -13.80052,2.81284 -3.51606,-4.13136 -5.71359,-5.27409 -7.12002,-4.74668 -7.295819,-3.95556 -5.098283,-4.04347 -4.746678,-5.71359 -2.724943,-4.13137 -1.406425,-8.35063 0.263705,-6.50471 1.845932,-6.50471 3.252351,-5.88939 5.889397,-5.53779 5.44989,-2.98865 2.197534,-5.18619 3.867669,-12.833609 1.40642,-8.526438 -0.1758,-5.274088 -1.23062,-1.494324 h -0.703215 l -0.703212,0.966917 v 0.879014 l 0.879017,0.791112 0.2637,2.109634 -3.428154,13.888429 -4.746678,11.954593 -1.758029,0.79111 -5.977297,5.27409 -4.395073,5.62569 -3.076551,7.29582 -0.879012,5.7136 0.175802,7.99903 1.758029,7.99903 5.62569,7.47162 6.241002,6.0652 6.768412,4.30717 8.262729,6.241 c 0,0 5.44989,4.65878 5.09829,4.83458 -0.35161,0.17581 0.96691,3.25235 0.96691,3.25235 l -1.05481,1.84594 0.0879,1.23061 h 7.03211 l 6.41681,-2.63704 5.36199,-0.79111 1.23062,0.0879"
       id="path1" /></g></svg>
