<?xml version="1.0" encoding="UTF-8" standalone="no"?>
<!-- Created with Inkscape (http://www.inkscape.org/) -->

<svg
   width="210mm"
   height="297mm"
   viewBox="0 0 210 297"
   version="1.1"
   id="svg1"
   xml:space="preserve"
   inkscape:version="1.4.2 (ebf0e94, 2025-05-08)"
   sodipodi:docname="Nb.32-33 G0.svg"
   xmlns:inkscape="http://www.inkscape.org/namespaces/inkscape"
   xmlns:sodipodi="http://sodipodi.sourceforge.net/DTD/sodipodi-0.dtd"
   xmlns="http://www.w3.org/2000/svg"
   xmlns:svg="http://www.w3.org/2000/svg"><sodipodi:namedview
     id="namedview1"
     pagecolor="#ffffff"
     bordercolor="#000000"
     borderopacity="0.25"
     inkscape:showpageshadow="2"
     inkscape:pageopacity="0.0"
     inkscape:pagecheckerboard="0"
     inkscape:deskcolor="#d1d1d1"
     inkscape:document-units="mm"
     showguides="true"
     inkscape:zoom="2.28"
     inkscape:cx="396.71053"
     inkscape:cy="378.28947"
     inkscape:window-width="1916"
     inkscape:window-height="2041"
     inkscape:window-x="-9"
     inkscape:window-y="0"
     inkscape:window-maximized="0"
     inkscape:current-layer="layer1"><sodipodi:guide
       position="113.4,272.94546"
       orientation="0,-1"
       id="guide1"
       inkscape:locked="false" /></sodipodi:namedview><defs
     id="defs1" /><g
     inkscape:label="Ebene 1"
     inkscape:groupmode="layer"
     id="layer1"><path
       style="fill:none;stroke:#000000;stroke-width:0.264999"
       d="m 113.02814,98.17434 -5.33808,0.348137 -3.94554,1.508593 -1.2765,-0.464185 -8.587356,-6.498537 -10.095942,-7.078766 -5.105995,-3.481358 -2.436953,-2.669043 -2.320906,-8.587353 -1.392542,-11.952669 0.46418,-7.194811 1.392544,-5.222039 1.97277,-1.740678 3.945541,-3.365315 2.088817,-3.133225 1.160452,-4.989949 v -5.570175 l -1.044406,-3.71345 -1.276501,-0.116045 -1.392542,0.464181 0.116044,1.392544 0.580226,0.812318 -0.348134,6.846673 -1.044408,2.785087 -1.74068,2.552999 -4.061587,5.105992 -2.43695,3.829497 -0.928365,9.16758 0.580229,10.211988 1.624634,10.211988 1.392544,3.71345 5.802265,5.338085 9.631762,6.614584 7.078763,4.989949 2.088816,2.669043 1.044409,2.66904 3.945541,0.58023 10.09594,-1.85673"
       id="path1" /></g></svg>
