<?xml version="1.0" encoding="UTF-8" standalone="no"?>
<!-- Created with Inkscape (http://www.inkscape.org/) -->

<svg
   width="210mm"
   height="297mm"
   viewBox="0 0 210 297"
   version="1.1"
   id="svg1"
   xml:space="preserve"
   inkscape:version="1.4.2 (ebf0e94, 2025-05-08)"
   sodipodi:docname="Nb.32-33 G14b.svg"
   xmlns:inkscape="http://www.inkscape.org/namespaces/inkscape"
   xmlns:sodipodi="http://sodipodi.sourceforge.net/DTD/sodipodi-0.dtd"
   xmlns:xlink="http://www.w3.org/1999/xlink"
   xmlns="http://www.w3.org/2000/svg"
   xmlns:svg="http://www.w3.org/2000/svg"><sodipodi:namedview
     id="namedview1"
     pagecolor="#ffffff"
     bordercolor="#000000"
     borderopacity="0.25"
     inkscape:showpageshadow="2"
     inkscape:pageopacity="0.0"
     inkscape:pagecheckerboard="0"
     inkscape:deskcolor="#d1d1d1"
     inkscape:document-units="mm"
     showguides="true"
     inkscape:zoom="3.01"
     inkscape:cx="396.84385"
     inkscape:cy="587.87375"
     inkscape:window-width="1916"
     inkscape:window-height="2041"
     inkscape:window-x="-9"
     inkscape:window-y="0"
     inkscape:window-maximized="0"
     inkscape:current-layer="svg1"><sodipodi:guide
       position="89.181816,220.58182"
       orientation="0,-1"
       id="guide1"
       inkscape:locked="false" /></sodipodi:namedview><defs
     id="defs1" /><path
     style="fill:none;stroke:#000000;stroke-width:0.264999"
     d="m 118.40324,222.21484 -2.46124,-0.0879 -4.83458,-1.14271 -2.81285,-0.96692 -1.40642,-3.16445 -2.98865,-8.87805 -4.395073,-7.55952 -8.526438,-8.43854 -5.44989,-6.0652 -5.186183,-5.97729 -2.461241,-6.68051 -1.845929,-6.32891 0.175802,-7.47162 1.494324,-8.26274 3.164451,-9.05384 5.186185,-9.49336 2.724944,-5.62569 3.164454,-10.37237 2.373339,-12.92151 c 0,0 1.318519,-8.174836 1.318519,-8.526443 0,-0.351605 1.14272,-9.141749 1.054817,-9.493353 -0.0879,-0.351608 -0.439505,-6.416808 -0.439505,-6.416808 0,0 -1.054819,-1.758026 -1.494327,-1.845929 -0.439504,-0.0879 -0.966914,-0.527409 -1.494324,-0.439507 -0.527407,0.0879 -1.845929,0.966917 -1.845929,0.966917 l -1.670127,1.582224 v 2.373339 l 1.670127,1.318522 1.230619,0.791112 0.879015,2.373339 -0.439507,10.108666 -2.373339,15.646461 -1.933832,6.94421 -2.109634,7.12002 -2.900746,3.95556 -3.252353,4.21927 -2.549142,6.1531 -2.285439,7.38372 -1.582224,6.76841 -1.494327,8.61434 0.52741,9.14175 1.845929,6.94422 6.241002,9.14174 6.153102,6.59261 c 0,0 7.207917,7.73533 6.68051,7.73533 -0.52741,0 3.867663,5.53779 3.867663,5.53779 l 3.164447,6.85631 1.23062,5.8015 -1.40642,2.02173 -0.43951,2.54914 2.81285,1.93383 2.90075,0.0879 c 0,0 1.75803,-0.52741 2.10963,-0.70322 0.35161,-0.1758 1.67013,-1.31852 1.67013,-1.31852 h 2.19754 l 1.31852,0.26371 5.09828,-0.26371"
     id="path1" /></svg>
