<?xml version="1.0" encoding="UTF-8" standalone="no"?>
<!-- Created with Inkscape (http://www.inkscape.org/) -->

<svg
   width="210mm"
   height="297mm"
   viewBox="0 0 210 297"
   version="1.1"
   id="svg1"
   xml:space="preserve"
   inkscape:version="1.4.2 (ebf0e94, 2025-05-08)"
   sodipodi:docname="Nb.32-33.svg"
   xmlns:inkscape="http://www.inkscape.org/namespaces/inkscape"
   xmlns:sodipodi="http://sodipodi.sourceforge.net/DTD/sodipodi-0.dtd"
   xmlns:xlink="http://www.w3.org/1999/xlink"
   xmlns="http://www.w3.org/2000/svg"
   xmlns:svg="http://www.w3.org/2000/svg"><sodipodi:namedview
     id="namedview1"
     pagecolor="#ffffff"
     bordercolor="#000000"
     borderopacity="0.25"
     inkscape:showpageshadow="2"
     inkscape:pageopacity="0.0"
     inkscape:pagecheckerboard="0"
     inkscape:deskcolor="#d1d1d1"
     inkscape:document-units="mm"
     showguides="true"
     inkscape:zoom="2.28"
     inkscape:cx="396.71053"
     inkscape:cy="455.92105"
     inkscape:window-width="1916"
     inkscape:window-height="2041"
     inkscape:window-x="-9"
     inkscape:window-y="0"
     inkscape:window-maximized="0"
     inkscape:current-layer="layer1"><sodipodi:guide
       position="113.4,272.94546"
       orientation="0,-1"
       id="guide1"
       inkscape:locked="false" /></sodipodi:namedview><defs
     id="defs1" /><g
     inkscape:label="Ebene 1"
     inkscape:groupmode="layer"
     id="layer1"><path
       style="fill:none;stroke:#000000;stroke-width:0.264999"
       d="m 113.60837,177.2012 -4.98995,1.2765 -4.98995,1.50859 h -1.39254 l -0.92836,-4.75786 -2.553004,-7.07876 -3.249268,-4.75786 -7.891081,-9.28362 -6.266448,-7.54295 -4.409723,-7.4269 -3.481358,-7.54295 -1.856724,-7.65899 -1.044408,-8.23922 0.580225,-8.81944 3.365315,-11.488486 6.150401,-7.891084 4.873903,-6.382491 2.204863,-1.856726 1.160452,-13.925439 2.436952,-19.611657 -0.23209,-10.444081 -0.116046,-8.935488 c 0,0 -0.464182,-1.044408 -0.928362,-1.044408 -0.464182,0 -2.088816,1.276499 -2.088816,1.276499 l -0.580226,2.669043 1.044408,1.044405 -0.696272,18.915388 -1.856727,26.110197 -11.024304,12.648941 -5.338085,9.979898 c 0,0 -2.552996,9.283629 -3.133225,9.863849 -0.580226,0.58023 -0.580226,11.60453 -0.580226,11.60453 l 2.669043,12.06872 5.222039,12.18476 6.266447,10.09594 7.658992,8.58735 4.641812,4.64182 2.436953,5.80226 1.392542,4.87391 v 4.8739 l 0.696272,2.20486 6.150404,0.34813 10.79221,-1.62463"
       id="path1" /></g></svg>
