<?xml version="1.0" encoding="UTF-8" standalone="no"?>
<!-- Created with Inkscape (http://www.inkscape.org/) -->

<svg
   width="210mm"
   height="297mm"
   viewBox="0 0 210 297"
   version="1.1"
   id="svg1"
   xml:space="preserve"
   inkscape:version="1.4.2 (ebf0e94, 2025-05-08)"
   sodipodi:docname="Nb.1b.svg"
   xmlns:inkscape="http://www.inkscape.org/namespaces/inkscape"
   xmlns:sodipodi="http://sodipodi.sourceforge.net/DTD/sodipodi-0.dtd"
   xmlns:xlink="http://www.w3.org/1999/xlink"
   xmlns="http://www.w3.org/2000/svg"
   xmlns:svg="http://www.w3.org/2000/svg"><sodipodi:namedview
     id="namedview1"
     pagecolor="#ffffff"
     bordercolor="#000000"
     borderopacity="0.25"
     inkscape:showpageshadow="2"
     inkscape:pageopacity="0.0"
     inkscape:pagecheckerboard="0"
     inkscape:deskcolor="#d1d1d1"
     inkscape:document-units="mm"
     showguides="true"
     inkscape:zoom="5.27"
     inkscape:cx="309.7723"
     inkscape:cy="467.64706"
     inkscape:window-width="2766"
     inkscape:window-height="2041"
     inkscape:window-x="1061"
     inkscape:window-y="0"
     inkscape:window-maximized="0"
     inkscape:current-layer="svg1"><sodipodi:guide
       position="140.07272,202.74546"
       orientation="0,-1"
       id="guide1"
       inkscape:locked="false" /></sodipodi:namedview><defs
     id="defs1" /><path
     style="fill:none;stroke:#000000;stroke-width:0.264999"
     d="m 125.01186,121.29665 c -0.30124,0 -5.17117,-0.50206 -5.17117,-0.50206 l -4.97036,-0.60247 -5.72343,-0.50205 -7.33001,-0.95391 -6.827961,-0.85349 -5.773639,-0.45185 c 0,0 -4.819735,-0.70288 -5.171173,-0.70288 -0.351438,0 -7.631247,-1.8074 -7.631247,-1.8074 l -5.974461,-1.60658 -5.020556,-1.45596 -3.665009,-1.25514 -1.757193,-2.20904 -1.506167,-4.06666 -1.757196,-4.468292 -1.004109,-2.409864 -1.204934,-1.255141 -3.162951,-1.90781 -7.58104,0.05021 -2.962129,0.251028 -2.259251,0.903701 -1.305345,0.953905 -0.401643,1.204933 -0.05021,1.706989 1.004113,1.405761 0.853495,0.85349 3.464184,-0.20082 0.502055,-0.9037 0.702879,-1.305348 1.506167,-0.953905 2.761306,-0.401645 1.455959,0.753083 1.355551,1.154729 1.255141,1.104526 1.857605,3.5646 2.359662,4.5185 2.409868,3.665 3.012331,1.8074 5.22138,2.46008 4.618913,1.45596 5.723433,1.8576 4.869942,1.05432 5.371994,1.35555 4.869939,0.80329 1.35555,0.85349 -0.301233,1.80741 -1.104522,1.60657 -1.104521,2.35966 0.100409,1.45597 0.853496,1.65678 1.204933,0.70288 2.96213,0.40164 1.656783,-1.20493 2.560482,-3.11275 2.61069,-2.56048 2.20905,-0.40164 3.41398,-0.25103 4.61891,-0.20082 6.22549,-0.20083 5.97446,-0.70287"
     id="path1" /></svg>
