<?xml version="1.0" encoding="UTF-8" standalone="no"?>
<!-- Created with Inkscape (http://www.inkscape.org/) -->

<svg
   width="210mm"
   height="297mm"
   viewBox="0 0 210 297"
   version="1.1"
   id="svg1"
   xml:space="preserve"
   xmlns:xlink="http://www.w3.org/1999/xlink"
   xmlns="http://www.w3.org/2000/svg"
   xmlns:svg="http://www.w3.org/2000/svg"><defs
     id="defs1" /><path
     style="fill:none;stroke:#000000;stroke-width:0.264999"
     d="m 95.733647,201.70923 c 0,0 -6.614584,0.28449 -7.041333,0.28449 -0.426746,0 -4.267472,0.42675 -4.267472,0.42675 l -3.413977,0.2845 c 0,0 -1.706991,-0.0711 -1.99149,-0.14225 -0.284496,-0.0711 -0.853493,-0.92462 -0.853493,-0.92462 l -1.280242,-2.48936 -1.280242,-2.6316 -2.560484,-2.98724 -5.903338,-5.40546 -3.200604,-2.98723 -3.556227,-2.20486 -4.480849,-3.62736 -3.7696,-2.9161 -4.907595,-3.84073 -4.125222,-4.26747 -2.347111,-4.19635 -1.56474,-5.26322 -1.42249,-7.46808 v -6.18783 l 0.426746,-6.97021 1.493616,-5.68996 2.133737,-5.04984 2.916105,-5.33435 3.556228,-4.62309 4.267472,-4.97872 4.623096,-1.63587 1.635866,-2.06261 3.485102,-5.83221 1.84924,-4.125225 0.142247,-3.200604 -0.995743,-0.640122 -1.351367,-0.355621 h -1.209117 l -0.853493,0.142248 -0.284498,0.426749 v 0.568994 l 0.995743,0.497872 0.853493,0.924621 0.711248,1.066869 -1.564741,5.334339 -3.058356,5.19209 -1.635866,0.99575 -2.560484,0.49787 -4.054099,3.27173 -4.40972,4.97872 -3.485105,5.54771 -3.129478,7.96595 -2.133738,7.96595 -0.426746,5.47659 0.284498,7.89483 0.64012,4.0541 1.493615,5.26321 3.41398,6.04559 4.196347,4.48085 5.832213,5.04984 10.953181,9.10394 c 0,0 6.54346,5.68997 6.258962,5.68997 -0.284499,0 4.623093,4.83647 4.623093,4.83647 l 2.133738,4.33859 0.142251,2.63161 c 0,0 -0.42675,2.20486 -0.568997,2.48936 -0.142251,0.2845 0,1.63586 0,1.63586 l 1.493615,0.49788 6.685708,-1.70699 8.748318,-1.84924 c 0,0 3.698479,0.2845 3.342855,0.2845"
     id="path1" /></svg>
