<?xml version="1.0" encoding="UTF-8" standalone="no"?>
<!-- Created with Inkscape (http://www.inkscape.org/) -->

<svg
   width="210mm"
   height="297mm"
   viewBox="0 0 210 297"
   version="1.1"
   id="svg1"
   xml:space="preserve"
   inkscape:version="1.4.2 (ebf0e94, 2025-05-08)"
   sodipodi:docname="Nb.32-33 G14e.svg"
   xmlns:inkscape="http://www.inkscape.org/namespaces/inkscape"
   xmlns:sodipodi="http://sodipodi.sourceforge.net/DTD/sodipodi-0.dtd"
   xmlns:xlink="http://www.w3.org/1999/xlink"
   xmlns="http://www.w3.org/2000/svg"
   xmlns:svg="http://www.w3.org/2000/svg"><sodipodi:namedview
     id="namedview1"
     pagecolor="#ffffff"
     bordercolor="#000000"
     borderopacity="0.25"
     inkscape:showpageshadow="2"
     inkscape:pageopacity="0.0"
     inkscape:pagecheckerboard="0"
     inkscape:deskcolor="#d1d1d1"
     inkscape:document-units="mm"
     showguides="true"
     inkscape:zoom="2.28"
     inkscape:cx="396.71053"
     inkscape:cy="455.92105"
     inkscape:window-width="1916"
     inkscape:window-height="2041"
     inkscape:window-x="-9"
     inkscape:window-y="0"
     inkscape:window-maximized="0"
     inkscape:current-layer="layer1"><sodipodi:guide
       position="113.4,272.94546"
       orientation="0,-1"
       id="guide1"
       inkscape:locked="false" /></sodipodi:namedview><defs
     id="defs1" /><g
     inkscape:label="Ebene 1"
     inkscape:groupmode="layer"
     id="layer1"><path
       style="display:inline;fill:none;stroke:#000000;stroke-width:0.264999"
       d="m 133.33607,212.36294 -13.5773,2.55299 -2.08882,-6.73062 -1.39254,-8.23922 -3.82949,-7.31086 -9.74781,-10.09594 -11.836625,-12.41685 -9.16758,-12.76499 -4.293676,-10.32803 -0.696273,-11.83662 0.580226,-11.60453 2.785089,-11.48849 4.989949,-10.90826 6.034357,-4.061588 3.945541,-7.078763 4.525767,-13.577302 1.276495,-13.809393 0.46419,-20.075842 -0.2321,-13.809393 -0.46418,-3.133223 -0.812315,-0.696272 c 0,0 -0.348136,-0.464181 -1.044409,-0.464181 -0.696269,0 -1.740677,0.23209 -1.740677,0.23209 l -2.088817,1.624635 -1.044408,2.320905 1.044408,1.160455 1.624634,1.276498 0.696272,8.239217 -1.044408,21.932567 -1.508588,15.08589 -2.901135,9.979898 -4.061584,7.891082 -4.177633,3.365314 -5.570175,9.515716 -3.945541,14.15753 -2.320907,14.8538 1.044409,11.48849 2.552996,8.58735 5.918311,8.7034 9.399672,11.60453 9.979895,9.9799 7.19481,8.23922 2.90113,6.73063 1.74069,8.23921 1.39254,6.73063 -1.16045,1.62464 -0.58023,1.97277 1.85672,0.69627 3.13323,0.58023 9.16758,-2.20486 7.07876,-0.69628"
       id="path1" /></g></svg>
