<?xml version="1.0" encoding="UTF-8" standalone="no"?>
<!-- Created with Inkscape (http://www.inkscape.org/) -->

<svg
   width="210mm"
   height="297mm"
   viewBox="0 0 210 297"
   version="1.1"
   id="svg1"
   xml:space="preserve"
   xmlns:xlink="http://www.w3.org/1999/xlink"
   xmlns="http://www.w3.org/2000/svg"
   xmlns:svg="http://www.w3.org/2000/svg"><defs
     id="defs1" /><path
     style="fill:none;stroke:#000000;stroke-width:0.264999"
     d="m 86.527353,181.22883 -9.357214,-0.32267 -1.398207,-0.26888 -1.774642,-3.28041 -2.151084,-4.03328 -1.559536,-2.15108 -1.720868,-2.63508 -3.065294,-4.08706 -3.925728,-4.08706 -2.527525,-2.79641 -3.979505,-4.35594 -1.344428,-2.15109 -1.989751,-3.60306 -1.021765,-2.68886 -0.806657,-3.65684 -0.376441,-2.68886 0.537771,-3.22662 0.483994,-2.79641 1.613313,-3.2804 1.828422,-2.74264 2.473745,-3.22662 3.871953,-4.30217 2.635078,-3.44173 1.398203,-2.04354 1.667092,-2.95774 0.483992,-4.08705 -0.16133,-3.7644 -1.505759,-3.495514 -1.451981,-3.119069 -1.559536,-1.667092 -1.075542,-0.05378 -0.645326,0.161333 -0.591548,0.430215 -0.05378,0.967988 0.215109,0.806657 0.860433,0.806656 1.398203,2.312416 0.537771,2.20486 0.430218,1.29065 0.215109,2.68886 v 1.55953 l -0.322665,1.8822 -0.430215,1.72087 -1.344427,1.77464 -1.344427,2.15109 -2.742634,2.63508 -2.043528,2.36619 -1.559536,1.66709 -2.043531,2.25864 -1.935974,3.2804 -1.613316,2.95774 -0.6991,3.2804 -0.75288,3.17285 0.107553,3.49551 0.430218,5.21638 1.505759,3.65685 1.451981,3.76439 4.409723,6.3457 4.517276,4.24839 5.431486,5.91548 2.366192,3.01152 2.419972,4.19461 1.774642,3.87196 c 0,0 0.322662,1.88219 0.268886,2.0973 -0.05378,0.21511 0.860435,1.02177 0.860435,1.02177 0,0 0.107553,0.48399 -0.376441,0.75288 -0.483994,0.26888 -0.914209,1.3982 -0.914209,1.3982 l 0.53777,1.45198 0.645324,0.53777 2.204861,-0.10755 2.635078,-0.64533 9.733655,-0.64532"
     id="path1" /></svg>
