<?xml version="1.0" encoding="UTF-8" standalone="no"?>
<!-- Created with Inkscape (http://www.inkscape.org/) -->

<svg
   width="210mm"
   height="297mm"
   viewBox="0 0 210 297"
   version="1.1"
   id="svg1"
   xml:space="preserve"
   sodipodi:docname="Nb.32-33g8.svg"
   inkscape:version="1.4.3 (0d15f75, 2025-12-25)"
   xmlns:inkscape="http://www.inkscape.org/namespaces/inkscape"
   xmlns:sodipodi="http://sodipodi.sourceforge.net/DTD/sodipodi-0.dtd"
   xmlns:xlink="http://www.w3.org/1999/xlink"
   xmlns="http://www.w3.org/2000/svg"
   xmlns:svg="http://www.w3.org/2000/svg"><sodipodi:namedview
     id="namedview1"
     pagecolor="#ffffff"
     bordercolor="#000000"
     borderopacity="0.25"
     inkscape:showpageshadow="2"
     inkscape:pageopacity="0.0"
     inkscape:pagecheckerboard="0"
     inkscape:deskcolor="#d1d1d1"
     inkscape:document-units="mm"
     inkscape:zoom="17.289674"
     inkscape:cx="570.39825"
     inkscape:cy="1009.8224"
     inkscape:window-width="2560"
     inkscape:window-height="1494"
     inkscape:window-x="-11"
     inkscape:window-y="-11"
     inkscape:window-maximized="1"
     inkscape:current-layer="layer9" /><defs
     id="defs1" /><g
     id="layer8"></g><g
     id="layer9"><path
       style="fill:#000000;fill-opacity:0;stroke:#000000;stroke-width:0.264583"
       d="m 156.51252,265.49993 -36.27143,2.8567 c 0,0 -3.28954,-11.85962 -45.447497,-35.14605 0,0 -29.51923,-25.53717 -32.202797,-37.22366 -2.683566,-11.6865 -4.328333,-9.3492 -4.328333,-31.6834 0,-22.3342 5.7134,-38.78186 5.7134,-38.78186 0,0 7.531299,-31.943102 18.784965,-31.423702 0,0 8.223832,-4.588033 15.235732,-19.304365 0,0 3.029833,-3.895499 10.128299,-21.555098 0.173133,-0.346266 5.367132,-27.874464 -1.991034,-27.961031 -7.358166,-0.08657 -5.886532,5.367133 -5.540266,5.7134 0.346267,0.346266 3.202967,-0.173133 3.3761,2.3373 0.173133,2.510433 0.692533,7.617866 -3.1164,19.390931 0,0 -7.185032,24.584931 -19.564065,35.665464 0,0 -12.811865,-0.605967 -21.987931,35.146061 0,0 -9.089499,34.97293 -5.886533,50.6415 3.202967,15.66856 -0.432833,24.6715 25.537165,51.07433 0,0 10.734265,10.99396 28.393864,22.42076 17.659601,11.4268 26.922231,16.3611 23.373001,23.19987 0,0 -1.0388,7.87756 9.0895,3.1164 10.12829,-4.76117 1.21193,2.51043 12.37903,-0.7791 11.1671,-3.28954 24.49836,-3.02984 24.49836,-3.02984"
       id="path2" /></g></svg>
