<?xml version="1.0" encoding="UTF-8" standalone="no"?>
<!-- Created with Inkscape (http://www.inkscape.org/) -->

<svg
   width="210mm"
   height="297mm"
   viewBox="0 0 210 297"
   version="1.1"
   id="svg1"
   xml:space="preserve"
   inkscape:version="1.4.2 (ebf0e94, 2025-05-08)"
   sodipodi:docname="Nb.32-33 G14f.svg"
   xmlns:inkscape="http://www.inkscape.org/namespaces/inkscape"
   xmlns:sodipodi="http://sodipodi.sourceforge.net/DTD/sodipodi-0.dtd"
   xmlns:xlink="http://www.w3.org/1999/xlink"
   xmlns="http://www.w3.org/2000/svg"
   xmlns:svg="http://www.w3.org/2000/svg"><sodipodi:namedview
     id="namedview1"
     pagecolor="#ffffff"
     bordercolor="#000000"
     borderopacity="0.25"
     inkscape:showpageshadow="2"
     inkscape:pageopacity="0.0"
     inkscape:pagecheckerboard="0"
     inkscape:deskcolor="#d1d1d1"
     inkscape:document-units="mm"
     showguides="true"
     inkscape:zoom="2.28"
     inkscape:cx="396.71053"
     inkscape:cy="483.99123"
     inkscape:window-width="1916"
     inkscape:window-height="2041"
     inkscape:window-x="-9"
     inkscape:window-y="0"
     inkscape:window-maximized="0"
     inkscape:current-layer="svg1"><sodipodi:guide
       position="113.4,272.94546"
       orientation="0,-1"
       id="guide1"
       inkscape:locked="false" /></sodipodi:namedview><defs
     id="defs1" /><path
     style="fill:none;stroke:#000000;stroke-width:0.264999"
     d="m 127.99799,224.89583 -9.05154,0.11605 -3.24927,-1.2765 -2.43695,-4.52577 -2.66904,-12.64894 -4.8739,-11.60453 -5.918315,-8.58736 -7.891082,-9.63176 -7.310855,-8.00712 -5.222039,-8.00713 -3.829494,-8.23922 -1.508591,-12.06871 -0.23209,-13.57731 2.20486,-11.0243 4.989949,-13.11312 4.293677,-7.194812 4.873903,-5.802265 2.901135,-3.945541 2.669042,-9.051536 2.204861,-13.809392 c 0,0 2.785089,-22.048613 2.785089,-22.512792 0,-0.464183 1.2765,-11.372443 1.2765,-11.372443 v -2.20486 -2.552997 l -1.74068,0.580226 -2.901135,3.597405 -0.696273,1.392545 0.696273,1.392544 1.97277,2.43695 -0.116046,4.757859 -2.785089,16.826571 -1.856724,14.273575 -3.017179,11.952669 -3.365315,6.150401 -4.525766,5.338085 -5.570175,9.051538 -5.686221,14.62171 -2.320907,15.66611 -0.23209,14.73776 2.785087,10.67617 7.310855,13.34521 7.658992,9.86385 7.426901,8.12318 5.570172,8.7034 4.98995,11.83662 1.85673,9.9799 c 0,0 1.0444,5.33808 0.46418,5.45413 -0.58023,0.11604 -2.32091,1.27649 -2.78509,1.62463 -0.46418,0.34814 -0.81232,3.24927 -0.81232,3.24927 l 2.32091,1.85672 3.59741,0.11605 17.63888,-2.08882"
     id="path1" /></svg>
