<?xml version="1.0" encoding="UTF-8" standalone="no"?>
<!-- Created with Inkscape (http://www.inkscape.org/) -->

<svg
   width="210mm"
   height="297mm"
   viewBox="0 0 210 297"
   version="1.1"
   id="svg1"
   xml:space="preserve"
   sodipodi:docname="Nb.32-33g14.svg"
   inkscape:version="1.4.3 (0d15f75, 2025-12-25)"
   xmlns:inkscape="http://www.inkscape.org/namespaces/inkscape"
   xmlns:sodipodi="http://sodipodi.sourceforge.net/DTD/sodipodi-0.dtd"
   xmlns:xlink="http://www.w3.org/1999/xlink"
   xmlns="http://www.w3.org/2000/svg"
   xmlns:svg="http://www.w3.org/2000/svg"><sodipodi:namedview
     id="namedview1"
     pagecolor="#ffffff"
     bordercolor="#000000"
     borderopacity="0.25"
     inkscape:showpageshadow="2"
     inkscape:pageopacity="0.0"
     inkscape:pagecheckerboard="0"
     inkscape:deskcolor="#d1d1d1"
     inkscape:document-units="mm"
     inkscape:zoom="12.225646"
     inkscape:cx="413.55688"
     inkscape:cy="1051.2737"
     inkscape:window-width="2560"
     inkscape:window-height="1494"
     inkscape:window-x="-11"
     inkscape:window-y="-11"
     inkscape:window-maximized="1"
     inkscape:current-layer="layer9" /><defs
     id="defs1" /><g
     id="layer8"></g><g
     id="layer9"><path
       style="fill:#000000;fill-opacity:0;stroke:#000000;stroke-width:0.264583"
       d="m 116.24134,276.4328 c 0,0 -9.7939,0.79576 -17.751439,3.30544 0,0 -2.509687,-0.36726 -2.63211,-3.73391 -0.122424,-3.36665 -1.591509,-16.64963 -5.998764,-24.05627 0,0 -13.038128,-15.4866 -20.444765,-22.40354 -7.406636,-6.91694 -23.260511,-25.2805 -25.83141,-31.9526 -2.570898,-6.67209 -5.815127,-15.42539 -5.203009,-23.01566 0.612119,-7.59027 -1.958779,-12.11995 4.774526,-34.09502 0,0 6.794518,-20.99567 13.956307,-19.89385 0,0 0.650927,0.33541 1.505773,-3.27875 0,0 3.148862,-3.6899 7.260778,-12.82268 0,0 3.332817,-7.098469 5.06415,-24.931201 -0.216417,-1.731333 1.991033,-19.823764 1.211933,-37.569929 0,0 0.735817,-24.152098 -1.514916,-22.593898 0,0 -7.5313,-3.029833 -9.002933,5.410416 0,0 -0.952233,1.94775 1.861183,2.120883 2.813417,0.173133 2.0776,9.305916 2.0776,9.305916 l -0.302983,18.135715 c 0,0 -0.302984,10.301432 -1.341783,23.113298 -1.0388,12.811865 -3.50595,23.07001 -11.859633,38.13261 0,0 -5.107433,1.34179 -8.267116,7.791 -3.159683,6.44922 -6.059666,14.0238 -7.228316,17.48647 -1.16865,3.46266 -5.107433,20.81928 -5.323849,27.18193 -0.216417,6.36265 -1.0388,25.53716 8.570099,38.21918 9.608899,12.68201 17.096915,21.98793 31.293847,36.27143 14.196932,14.2835 14.153649,21.64166 16.577515,37.91619 0,0 1.43246,1.03743 -1.872981,4.34287 0,0 0.428483,3.06059 4.652102,3.55029 4.223619,0.48969 9.426628,-6.05998 11.446624,-2.20363 0,0 0,0.48969 7.03936,-1.5303 0,0 5.01937,-0.67333 7.34543,0.12243"
       id="path2" /></g></svg>
