<?xml version="1.0" encoding="UTF-8" standalone="no"?>
<!-- Created with Inkscape (http://www.inkscape.org/) -->

<svg
   width="210mm"
   height="297mm"
   viewBox="0 0 210 297"
   version="1.1"
   id="svg1"
   xml:space="preserve"
   xmlns:xlink="http://www.w3.org/1999/xlink"
   xmlns="http://www.w3.org/2000/svg"
   xmlns:svg="http://www.w3.org/2000/svg"><defs
     id="defs1" /><path
     style="fill:none;stroke:#000000;stroke-width:0.264999"
     d="m 124.76083,124.91145 c 0,0 -3.06254,0.30123 -3.51439,0.30123 -0.45185,0 -5.07076,0.50205 -5.07076,0.50205 l -8.53495,-0.0502 -7.48063,-0.25103 -5.623021,-0.60246 -4.518501,-0.70288 -6.878161,-1.05432 -6.627135,-1.05432 -7.229602,-1.8074 -4.618911,-1.25513 -6.074873,-2.35967 -4.970351,-2.30945 -4.719325,-2.86172 -2.861715,-2.35966 -1.907813,-2.15884 -1.606579,-3.86583 -0.652671,-1.75719 -1.506167,-1.506171 -2.05843,-1.857605 -3.213155,-1.656784 -2.058427,-0.803291 -2.359662,-0.301233 -3.112746,0.401645 -1.907811,0.652672 -2.309456,1.506167 -0.803289,0.803291 -0.150617,1.054314 0.150617,2.008225 0.853494,1.10452 0.953906,0.45185 1.656784,0.25103 1.907812,-0.45185 0.55226,-0.70288 v -1.60658 l 0.251029,-0.803286 0.502054,-0.100412 1.958018,0.451848 2.25925,0.70288 2.51028,1.25514 0.953904,1.05432 1.104522,2.7111 1.757196,4.01644 2.008222,2.6609 2.811512,2.46007 2.911923,2.15884 4.418089,2.81151 2.7111,1.40576 4.31768,1.8074 5.020556,1.90781 4.719323,1.40576 4.719322,1.20493 5.22138,1.10452 3.96624,0.75308 1.606579,0.8535 0.401645,0.85349 -0.200824,1.50617 -0.953905,3.5646 -0.702879,2.30945 -0.251026,1.20494 c 0,0 0.10041,1.10452 0.301234,1.30534 0.200821,0.20082 2.610688,1.30534 2.610688,1.30534 0,0 2.409868,-0.10041 2.861718,0.0502 0.45185,0.15062 2.610688,-1.00411 2.610688,-1.00411 l 3.313568,-3.56459 3.313567,-3.31357 1.455963,-1.55638 0.753081,-0.55226 1.656788,-0.25103 7.53083,0.20083 5.62302,-0.0502 5.72344,-0.10041 4.36788,0.0502"
     id="path1" /></svg>
