<?xml version="1.0" encoding="UTF-8" standalone="no"?>
<!-- Created with Inkscape (http://www.inkscape.org/) -->

<svg
   width="210mm"
   height="297mm"
   viewBox="0 0 210 297"
   version="1.1"
   id="svg1"
   xml:space="preserve"
   inkscape:version="1.4.2 (ebf0e94, 2025-05-08)"
   sodipodi:docname="Nb.59.svg"
   xmlns:inkscape="http://www.inkscape.org/namespaces/inkscape"
   xmlns:sodipodi="http://sodipodi.sourceforge.net/DTD/sodipodi-0.dtd"
   xmlns:xlink="http://www.w3.org/1999/xlink"
   xmlns="http://www.w3.org/2000/svg"
   xmlns:svg="http://www.w3.org/2000/svg"><sodipodi:namedview
     id="namedview1"
     pagecolor="#ffffff"
     bordercolor="#000000"
     borderopacity="0.25"
     inkscape:showpageshadow="2"
     inkscape:pageopacity="0.0"
     inkscape:pagecheckerboard="0"
     inkscape:deskcolor="#d1d1d1"
     inkscape:document-units="mm"
     showguides="true"
     inkscape:zoom="4.58"
     inkscape:cx="396.72489"
     inkscape:cy="526.20087"
     inkscape:window-width="3840"
     inkscape:window-height="2054"
     inkscape:window-x="-11"
     inkscape:window-y="-11"
     inkscape:window-maximized="1"
     inkscape:current-layer="svg1"><sodipodi:guide
       position="79.047341,193.70602"
       orientation="0,-1"
       id="guide1"
       inkscape:locked="false" /></sodipodi:namedview><defs
     id="defs1" /><path
     style="fill:none;stroke:#000000;stroke-width:0.264999"
     d="m 111.32141,118.65811 -6.23908,-0.34661 -4.04385,-1.15539 -2.599617,-1.502 -2.368539,-2.71515 -1.848618,-4.21716 -1.097616,-4.62155 c 0,0 -0.17331,-0.40438 -0.462155,-0.40438 -0.288846,0 -0.635463,-0.11554 -0.924309,0.11554 -0.288846,0.23107 -0.462153,1.67531 -0.462153,1.67531 l 0.404384,2.88846 1.67531,4.506 2.079694,3.46616 3.466158,2.54185 3.755001,1.73308 0.69323,0.57769 0.11554,0.17331 v 0.46215 l -0.46215,0.63547 -0.23108,0.80877 -0.11554,0.46215 2.42631,0.23108 3.46616,-3.11954 0.86654,-0.11554 h 0.80877 l 1.32869,0.28884"
     id="path1" /></svg>
