<?xml version="1.0" encoding="UTF-8" standalone="no"?>
<!-- Created with Inkscape (http://www.inkscape.org/) -->

<svg
   width="210mm"
   height="297mm"
   viewBox="0 0 210 297"
   version="1.1"
   id="svg1"
   xml:space="preserve"
   inkscape:version="1.4.2 (ebf0e94, 2025-05-08)"
   sodipodi:docname="Nb.5a.svg"
   xmlns:inkscape="http://www.inkscape.org/namespaces/inkscape"
   xmlns:sodipodi="http://sodipodi.sourceforge.net/DTD/sodipodi-0.dtd"
   xmlns:xlink="http://www.w3.org/1999/xlink"
   xmlns="http://www.w3.org/2000/svg"
   xmlns:svg="http://www.w3.org/2000/svg"><sodipodi:namedview
     id="namedview1"
     pagecolor="#ffffff"
     bordercolor="#000000"
     borderopacity="0.25"
     inkscape:showpageshadow="2"
     inkscape:pageopacity="0.0"
     inkscape:pagecheckerboard="0"
     inkscape:deskcolor="#d1d1d1"
     inkscape:document-units="mm"
     showguides="true"
     inkscape:zoom="5.27"
     inkscape:cx="311.29032"
     inkscape:cy="465.18027"
     inkscape:window-width="2766"
     inkscape:window-height="2041"
     inkscape:window-x="1061"
     inkscape:window-y="0"
     inkscape:window-maximized="0"
     inkscape:current-layer="svg1"><sodipodi:guide
       position="140.07272,202.74546"
       orientation="0,-1"
       id="guide1"
       inkscape:locked="false" /></sodipodi:namedview><defs
     id="defs1" /><path
     style="fill:none;stroke:#000000;stroke-width:0.264999"
     d="m 121.84891,123.75672 h -9.08721 l -10.14152,-1.10452 -8.283922,-0.80329 -9.488853,-1.7572 -5.120968,-1.05432 -6.325902,-1.70698 -4.869939,-1.85761 -4.970351,-2.20904 -4.618911,-2.6609 -4.066651,-2.91192 -3.413979,-3.66501 -2.309456,-3.91603 -0.702879,-4.167063 -0.652671,-0.953908 -1.405755,-0.200821 -1.204934,0.100412 -1.004112,0.853493 -0.502055,2.460074 0.953905,4.066653 2.309455,4.01644 4.167064,4.92015 4.367884,3.16295 5.522611,3.46418 6.827959,2.86172 5.321789,2.00822 9.187619,2.05843 6.426311,1.30535 1.204934,0.50205 v 1.05432 l -1.907812,3.46418 -0.702877,1.60658 v 1.25514 l 0.602467,1.05432 0.853493,0.80328 1.656784,0.20083 h 2.209046 l 4.066651,-3.71522 2.861717,-2.66089 3.213158,-0.40164 4.92014,-0.10042 7.48063,-0.30123 5.87405,-0.60247 0.95391,0.0502"
     id="path1" /></svg>
