<?xml version="1.0" encoding="UTF-8" standalone="no"?>
<!-- Created with Inkscape (http://www.inkscape.org/) -->

<svg
   width="210mm"
   height="297mm"
   viewBox="0 0 210 297"
   version="1.1"
   id="svg1"
   xml:space="preserve"
   inkscape:version="1.4.2 (ebf0e94, 2025-05-08)"
   sodipodi:docname="Nb.53b.svg"
   xmlns:inkscape="http://www.inkscape.org/namespaces/inkscape"
   xmlns:sodipodi="http://sodipodi.sourceforge.net/DTD/sodipodi-0.dtd"
   xmlns:xlink="http://www.w3.org/1999/xlink"
   xmlns="http://www.w3.org/2000/svg"
   xmlns:svg="http://www.w3.org/2000/svg"><sodipodi:namedview
     id="namedview1"
     pagecolor="#ffffff"
     bordercolor="#000000"
     borderopacity="0.25"
     inkscape:showpageshadow="2"
     inkscape:pageopacity="0.0"
     inkscape:pagecheckerboard="0"
     inkscape:deskcolor="#d1d1d1"
     inkscape:document-units="mm"
     showguides="true"
     inkscape:zoom="4.58"
     inkscape:cx="396.72489"
     inkscape:cy="526.20087"
     inkscape:window-width="3840"
     inkscape:window-height="2054"
     inkscape:window-x="-11"
     inkscape:window-y="-11"
     inkscape:window-maximized="1"
     inkscape:current-layer="svg1"><sodipodi:guide
       position="79.047341,193.70602"
       orientation="0,-1"
       id="guide1"
       inkscape:locked="false" /></sodipodi:namedview><defs
     id="defs1" /><path
     style="fill:none;stroke:#000000;stroke-width:0.264999"
     d="m 132.17613,125.0705 -4.15939,0.34662 -47.313048,-0.46215 -1.502,-0.5777 -1.906387,-2.71515 -2.079694,-6.29686 -1.213156,-4.85262 -0.577692,-4.85262 -0.693232,-1.96415 c 0,0 -0.866539,-0.46216 -1.386461,-0.46216 -0.519925,0 -1.733079,0 -2.137466,0.23108 -0.404384,0.23108 -2.253001,1.21316 -2.253001,1.21316 l -0.577694,1.03984 -0.231077,1.09762 0.404384,0.23108 1.097619,0.57769 0.69323,0.751 0.924308,3.69724 2.310773,8.20323 2.195232,5.14147 2.541849,3.87054 1.790849,0.17331 54.418664,0.0578"
     id="path1" /></svg>
