<?xml version="1.0" encoding="UTF-8" standalone="no"?>
<!-- Created with Inkscape (http://www.inkscape.org/) -->

<svg
   width="210mm"
   height="297mm"
   viewBox="0 0 210 297"
   version="1.1"
   id="svg1"
   xml:space="preserve"
   inkscape:version="1.4.2 (ebf0e94, 2025-05-08)"
   sodipodi:docname="Nb.5b.svg"
   xmlns:inkscape="http://www.inkscape.org/namespaces/inkscape"
   xmlns:sodipodi="http://sodipodi.sourceforge.net/DTD/sodipodi-0.dtd"
   xmlns:xlink="http://www.w3.org/1999/xlink"
   xmlns="http://www.w3.org/2000/svg"
   xmlns:svg="http://www.w3.org/2000/svg"><sodipodi:namedview
     id="namedview1"
     pagecolor="#ffffff"
     bordercolor="#000000"
     borderopacity="0.25"
     inkscape:showpageshadow="2"
     inkscape:pageopacity="0.0"
     inkscape:pagecheckerboard="0"
     inkscape:deskcolor="#d1d1d1"
     inkscape:document-units="mm"
     showguides="true"
     inkscape:zoom="5.27"
     inkscape:cx="286.24288"
     inkscape:cy="457.02087"
     inkscape:window-width="2766"
     inkscape:window-height="2041"
     inkscape:window-x="1061"
     inkscape:window-y="0"
     inkscape:window-maximized="0"
     inkscape:current-layer="svg1"><sodipodi:guide
       position="140.07272,202.74546"
       orientation="0,-1"
       id="guide1"
       inkscape:locked="false" /></sodipodi:namedview><defs
     id="defs1" /><path
     style="fill:none;stroke:#000000;stroke-width:0.264999"
     d="m 123.6061,124.81104 c 0,0 -4.86994,-0.10042 -5.22138,-0.10042 -0.35143,0 -6.72754,-0.45185 -6.72754,-0.45185 l -9.79009,-1.05431 -7.279804,-0.8535 -9.338235,-0.9539 -7.430424,-1.05432 -9.689674,-1.95802 -5.422201,-1.40575 -7.681452,-2.35966 -8.133302,-2.86172 -5.120968,-2.25925 -2.761306,-1.90781 -1.757195,-2.61069 -1.154727,-2.76131 -0.251029,-2.7111 -0.0502,-2.962126 -0.502058,-1.154729 -1.305343,-0.853496 -1.506167,0.251029 -1.154729,0.753083 -0.9037,0.953905 -0.351438,1.405758 0.150617,1.706988 1.054317,1.405758 0.803288,0.0502 0.502057,1.05432 v 1.25514 l -0.200824,0.50205 -0.602467,0.60247 1.054317,1.95802 0.903701,1.90781 1.958017,2.51028 1.706988,1.75719 3.313568,2.00823 3.413979,1.70698 4.86994,2.05843 5.623022,1.85761 6.978574,2.51028 4.719325,1.40575 5.070761,1.20494 5.874051,1.70698 4.869939,1.45597 1.204934,0.55226 0.552262,0.9037 -0.251029,0.85349 -1.154726,1.55638 -1.104524,1.90781 -1.255138,3.01233 -0.451851,1.20493 0.150617,0.9037 0.200822,0.75309 0.953907,0.9539 2.309455,0.10042 h 3.062539 l 3.162951,-3.26336 2.962129,-2.86172 2.35966,-1.7572 1.355551,-1.05432 3.665005,-0.45185 8.785968,-0.50205 6.3259,-0.40165 6.92837,-0.0502 2.10864,-0.0502"
     id="path1" /></svg>
