<?xml version="1.0" encoding="UTF-8" standalone="no"?>
<!-- Created with Inkscape (http://www.inkscape.org/) -->

<svg
   width="210mm"
   height="297mm"
   viewBox="0 0 210 297"
   version="1.1"
   id="svg1"
   xml:space="preserve"
   inkscape:version="1.4.2 (ebf0e94, 2025-05-08)"
   sodipodi:docname="Nb.55.svg"
   xmlns:inkscape="http://www.inkscape.org/namespaces/inkscape"
   xmlns:sodipodi="http://sodipodi.sourceforge.net/DTD/sodipodi-0.dtd"
   xmlns:xlink="http://www.w3.org/1999/xlink"
   xmlns="http://www.w3.org/2000/svg"
   xmlns:svg="http://www.w3.org/2000/svg"><sodipodi:namedview
     id="namedview1"
     pagecolor="#ffffff"
     bordercolor="#000000"
     borderopacity="0.25"
     inkscape:showpageshadow="2"
     inkscape:pageopacity="0.0"
     inkscape:pagecheckerboard="0"
     inkscape:deskcolor="#d1d1d1"
     inkscape:document-units="mm"
     showguides="true"
     inkscape:zoom="4.58"
     inkscape:cx="396.72489"
     inkscape:cy="578.60262"
     inkscape:window-width="3840"
     inkscape:window-height="2054"
     inkscape:window-x="-11"
     inkscape:window-y="-11"
     inkscape:window-maximized="1"
     inkscape:current-layer="svg1"><sodipodi:guide
       position="79.047341,193.70602"
       orientation="0,-1"
       id="guide1"
       inkscape:locked="false" /></sodipodi:namedview><defs
     id="defs1" /><path
     style="fill:none;stroke:#000000;stroke-width:0.264999"
     d="m 123.68404,142.92121 -1.67531,-0.46215 -2.77292,-1.38646 -2.42631,-2.13747 -3.17732,-2.07969 -1.84861,-1.21316 -3.98608,-1.67531 -1.32869,-0.69323 c 0,0 -1.3287,-1.67531 -1.3287,-2.02192 0,-0.34662 -1.55977,-6.12355 -1.55977,-6.12355 l -2.02193,-6.06577 -2.715151,-5.37255 -2.426311,-3.87054 -3.061771,-2.253 -3.639466,-2.19523 -2.541849,-1.61754 -0.404384,-0.23108 c 0,0 -0.231076,-0.17331 -0.519925,0 -0.288845,0.17331 -0.577691,1.38646 -0.577691,1.38646 l -0.231079,1.79085 -0.115538,1.15539 0.924308,0.69323 h 0.86654 l 2.195234,0.17331 3.004003,1.61754 3.004002,3.06177 2.657388,3.92831 2.94623,7.39447 0.40439,2.65739 0.23107,3.17731 1.44424,2.94623 1.09761,3.29285 2.25301,2.02192 1.90638,1.03985 2.94624,0.80877 1.84861,0.57769 1.27093,0.98208 0.69323,2.36854 -0.46216,2.19523 c 0,0 -0.57769,0.69324 -0.69323,0.92431 -0.11554,0.23108 -0.57769,0.23108 -1.15538,0.23108 -0.57769,0 -1.3287,-0.51992 -1.61754,-0.46215 -0.28885,0.0578 -1.09762,-0.11554 -1.3287,0.0578 -0.23107,0.1733 -0.46215,0.80877 -0.46215,0.80877 l 0.34661,0.98207 c 0,0 -0.11553,0.75101 -0.11553,1.21316 0,0.46215 -0.23108,0.86654 0,0.86654 0.23107,0 14.15347,-0.11554 14.15347,-0.11554"
     id="path1" /></svg>
