<?xml version="1.0" encoding="UTF-8" standalone="no"?>
<!-- Created with Inkscape (http://www.inkscape.org/) -->

<svg
   width="210mm"
   height="297mm"
   viewBox="0 0 210 297"
   version="1.1"
   id="svg1"
   xml:space="preserve"
   inkscape:version="1.4.2 (ebf0e94, 2025-05-08)"
   sodipodi:docname="Nb.57.svg"
   xmlns:inkscape="http://www.inkscape.org/namespaces/inkscape"
   xmlns:sodipodi="http://sodipodi.sourceforge.net/DTD/sodipodi-0.dtd"
   xmlns:xlink="http://www.w3.org/1999/xlink"
   xmlns="http://www.w3.org/2000/svg"
   xmlns:svg="http://www.w3.org/2000/svg"><sodipodi:namedview
     id="namedview1"
     pagecolor="#ffffff"
     bordercolor="#000000"
     borderopacity="0.25"
     inkscape:showpageshadow="2"
     inkscape:pageopacity="0.0"
     inkscape:pagecheckerboard="0"
     inkscape:deskcolor="#d1d1d1"
     inkscape:document-units="mm"
     showguides="true"
     inkscape:zoom="4.58"
     inkscape:cx="396.72489"
     inkscape:cy="578.60262"
     inkscape:window-width="3840"
     inkscape:window-height="2054"
     inkscape:window-x="-11"
     inkscape:window-y="-11"
     inkscape:window-maximized="1"
     inkscape:current-layer="svg1"><sodipodi:guide
       position="79.047341,193.70602"
       orientation="0,-1"
       id="guide1"
       inkscape:locked="false" /></sodipodi:namedview><defs
     id="defs1" /><path
     style="fill:none;stroke:#000000;stroke-width:0.264999"
     d="m 115.4808,165.509 -7.62554,0.11554 -0.57769,-0.11554 -1.09762,-1.61754 -2.48408,-2.88846 -3.004,-2.8307 -2.195238,-1.84861 -2.484078,-2.0797 -2.253003,-2.36854 -2.137463,-2.65738 -1.502003,-2.59962 -1.617538,-3.81278 -1.039847,-3.63946 -0.346617,-4.506 0.231076,-5.95024 0.693232,-3.17731 1.328696,-3.11954 2.137462,-4.27493 2.888465,-3.004 2.888464,-2.71516 1.155385,-2.42631 c 0,0 1.675307,-3.17731 1.675307,-3.58169 0,-0.40439 0.11554,-2.13747 0.11554,-2.13747 0,0 -0.462152,-0.51992 -0.693231,-0.57769 -0.231077,-0.0578 -0.63546,-0.34662 -0.86654,-0.34662 -0.231076,0 -0.693229,0 -0.693229,0 l -0.115538,0.51993 0.693229,0.51992 0.346618,0.751 0.346614,0.63546 -0.519924,1.55977 -1.964156,3.29285 -1.155385,1.50201 -0.80877,1.15538 -1.502,0.751 -3.812773,4.91039 -1.906387,4.04385 -1.213156,5.0837 -0.577692,3.87054 0.173308,5.89247 0.982077,4.73708 2.310771,5.19923 2.310773,3.40839 2.253001,2.59962 3.986083,3.69723 4.448237,4.04385 1.90638,2.19524 0.751,1.27092 c 0,0 -0.11553,0.69323 -0.11553,1.21316 0,0.51992 0.11553,2.02192 0.11553,2.02192 l 0.40439,0.46216 4.33269,-0.23108 5.95024,-0.69323"
     id="path1" /></svg>
