<?xml version="1.0" encoding="UTF-8" standalone="no"?>
<!-- Created with Inkscape (http://www.inkscape.org/) -->

<svg
   width="210mm"
   height="297mm"
   viewBox="0 0 210 297"
   version="1.1"
   id="svg1"
   xml:space="preserve"
   inkscape:version="1.4.2 (ebf0e94, 2025-05-08)"
   sodipodi:docname="Nb.62b.svg"
   xmlns:inkscape="http://www.inkscape.org/namespaces/inkscape"
   xmlns:sodipodi="http://sodipodi.sourceforge.net/DTD/sodipodi-0.dtd"
   xmlns:xlink="http://www.w3.org/1999/xlink"
   xmlns="http://www.w3.org/2000/svg"
   xmlns:svg="http://www.w3.org/2000/svg"><sodipodi:namedview
     id="namedview1"
     pagecolor="#ffffff"
     bordercolor="#000000"
     borderopacity="0.25"
     inkscape:showpageshadow="2"
     inkscape:pageopacity="0.0"
     inkscape:pagecheckerboard="0"
     inkscape:deskcolor="#d1d1d1"
     inkscape:document-units="mm"
     showguides="true"
     inkscape:zoom="4.58"
     inkscape:cx="396.72489"
     inkscape:cy="526.20087"
     inkscape:window-width="3840"
     inkscape:window-height="2054"
     inkscape:window-x="-11"
     inkscape:window-y="-11"
     inkscape:window-maximized="1"
     inkscape:current-layer="svg1"><sodipodi:guide
       position="79.047341,193.70602"
       orientation="0,-1"
       id="guide1"
       inkscape:locked="false" /></sodipodi:namedview><defs
     id="defs1" /><path
     style="fill:none;stroke:#000000;stroke-width:0.264999"
     d="m 113.45888,137.08652 -1.61754,0.51992 -2.02193,-2.71516 -4.10162,-2.94623 -2.59961,-2.13747 -0.75101,-1.15538 -0.46215,-2.07969 v -1.15539 l 0.28885,-1.73308 0.51992,-1.27092 1.21316,-1.61754 2.19523,-1.67531 1.90638,-1.96416 1.38647,-2.48408 0.46215,-4.21715 -0.23108,-3.92832 -0.51992,-1.90638 -0.92431,-0.98208 -0.80877,-0.46216 h -0.69323 l -0.751,1.03985 -0.57769,1.55977 0.17331,0.751 0.46215,0.63546 h 0.63546 l 0.28885,-0.51992 h 0.28884 l 0.46216,1.44423 0.57769,2.94624 -0.11554,1.79084 -0.98208,2.13747 -1.32869,1.27092 -2.48408,1.84862 -1.79085,1.55977 -1.559765,2.59962 -0.924309,2.59962 -0.05777,2.71515 0.924308,3.00401 1.733076,1.79084 2.94624,2.13747 1.6753,1.21315 0.92431,1.15539 c 0,0 0.0578,0.40438 0.0578,0.63546 0,0.23108 0,1.27093 0,1.27093 l -0.17331,1.03984 -0.40439,0.46216 -0.40439,0.63546 7.45224,0.11554"
     id="path1" /></svg>
