<?xml version="1.0" encoding="UTF-8" standalone="no"?>
<!-- Created with Inkscape (http://www.inkscape.org/) -->

<svg
   width="210mm"
   height="297mm"
   viewBox="0 0 210 297"
   version="1.1"
   id="svg1"
   xml:space="preserve"
   inkscape:version="1.4.2 (ebf0e94, 2025-05-08)"
   sodipodi:docname="Nb.62a.svg"
   xmlns:inkscape="http://www.inkscape.org/namespaces/inkscape"
   xmlns:sodipodi="http://sodipodi.sourceforge.net/DTD/sodipodi-0.dtd"
   xmlns:xlink="http://www.w3.org/1999/xlink"
   xmlns="http://www.w3.org/2000/svg"
   xmlns:svg="http://www.w3.org/2000/svg"><sodipodi:namedview
     id="namedview1"
     pagecolor="#ffffff"
     bordercolor="#000000"
     borderopacity="0.25"
     inkscape:showpageshadow="2"
     inkscape:pageopacity="0.0"
     inkscape:pagecheckerboard="0"
     inkscape:deskcolor="#d1d1d1"
     inkscape:document-units="mm"
     showguides="true"
     inkscape:zoom="3.71"
     inkscape:cx="396.90027"
     inkscape:cy="518.32884"
     inkscape:window-width="3840"
     inkscape:window-height="2054"
     inkscape:window-x="-11"
     inkscape:window-y="-11"
     inkscape:window-maximized="1"
     inkscape:current-layer="svg1"><sodipodi:guide
       position="19.145454,212.07273"
       orientation="0,-1"
       id="guide1"
       inkscape:locked="false" /></sodipodi:namedview><defs
     id="defs1" /><path
     style="fill:none;stroke:#000000;stroke-width:0.264999"
     d="m 107.75887,186.91992 -4.70687,-0.35658 -0.71317,-0.35658 -0.57052,-3.28055 -1.56896,-4.27897 -3.779763,-5.63399 -7.060311,-7.84479 -4.421608,-5.2774 -3.993711,-5.91925 -2.923966,-4.70688 -1.069745,-3.77976 -1.14106,-4.06502 0.07131,-4.77819 0.356582,-3.85108 1.640274,-4.49293 2.424753,-4.70687 3.494497,-5.20609 5.206087,-5.7053 5.348719,-4.77819 4.564242,-4.56424 3.85107,-4.778186 1.14106,-3.922395 -0.21394,-3.637129 c 0,0 0,-0.570529 -0.28527,-0.784479 -0.28527,-0.213948 -1.56896,-1.069745 -1.56896,-1.069745 l -1.42633,-3.066598 -0.28526,-0.855794 -1.640267,-0.21395 -0.998429,0.92711 -0.713163,2.068174 -0.07132,1.782905 0.427897,0.427898 0.927114,0.21395 1.711589,0.427897 0.998429,0.998426 0.78448,1.71159 v 1.426326 l -0.28527,1.854224 -1.854221,2.567384 -5.206087,5.206092 -8.55795,8.05873 -5.206087,6.1332 -3.708448,5.7053 -2.210803,6.06189 -1.14106,7.4882 0.641847,6.5611 1.925537,4.99214 3.137916,5.77661 4.564243,6.41847 5.562668,6.63241 c 0,0 4.278974,4.13634 3.922393,4.20766 -0.356582,0.0713 3.28055,5.06345 3.28055,5.06345 l 1.069742,2.56739 0.499213,2.56738 0.285266,2.49607 -0.356582,1.99686 -1.069742,2.28212 0.641845,0.14263 10.48349,0.14263"
     id="path1" /></svg>
