<?xml version="1.0" encoding="UTF-8" standalone="no"?>
<!-- Created with Inkscape (http://www.inkscape.org/) -->

<svg
   width="210mm"
   height="297mm"
   viewBox="0 0 210 297"
   version="1.1"
   id="svg1"
   xml:space="preserve"
   xmlns:xlink="http://www.w3.org/1999/xlink"
   xmlns="http://www.w3.org/2000/svg"
   xmlns:svg="http://www.w3.org/2000/svg"><defs
     id="defs1" /><path
     style="fill:none;stroke:#000000;stroke-width:0.264999"
     d="m 122.35096,129.37974 c -0.20082,0 -3.96624,0.30124 -3.96624,0.30124 0,0 -4.5185,-0.40165 -4.71932,-0.45185 -0.20082,-0.0502 -6.72755,-0.30124 -6.72755,-0.30124 0,0 -8.685558,-0.70288 -8.886379,-0.70288 -0.200824,0 -6.526726,-0.9539 -6.526726,-0.9539 0,0 -4.869939,-1.05432 -5.371994,-1.05432 -0.502055,0 -7.078985,-1.55637 -7.078985,-1.55637 l -6.125081,-2.00822 -5.120965,-1.7572 -8.133302,-3.56459 -7.12919,-2.86172 -5.572818,-2.51028 -4.719323,-2.15884 -2.560484,-1.8074 -2.008224,-1.8074 -1.757193,-2.30946 -1.305346,-2.7111 -0.502055,-2.359656 -0.9037,-3.614801 -0.953905,-1.004112 h -0.702879 l -1.154729,0.301233 -0.9037,1.405755 -0.602467,1.757196 0.05021,2.660895 0.301234,1.85761 0.602467,1.70698 1.054317,1.95802 0.45185,0.80329 -0.100412,1.05432 -0.602467,1.20493 0.0502,1.65678 0.552263,0.8535 1.255138,0.45185 1.556372,0.50206 1.706991,-0.40165 0.652671,-0.15061 1.656784,0.35143 1.004112,1.35555 3.865827,2.25925 4.167063,2.15884 4.367885,2.81152 4.669118,2.20904 5.271582,2.25925 5.67323,2.46007 2.108634,0.9037 4.418089,1.35555 4.016447,0.95391 3.213155,1.00411 c 0,0 1.104522,0.35144 1.104522,0.60247 0,0.25103 0,1.00411 0,1.00411 l -0.55226,1.15473 -1.204933,2.25925 -0.602467,1.65678 -0.753084,1.00411 -0.100412,1.45596 0.100412,1.60658 0.602467,1.00411 1.154726,0.75309 2.911925,-0.0502 1.45596,-1.05432 c 0,0 2.409867,-3.31356 2.660896,-3.31356 0.251026,0 2.209043,-2.46007 2.209043,-2.46007 l 2.058429,-2.56049 9.990911,0.30123 h 20.58428"
     id="path1" /></svg>
