<?xml version="1.0" encoding="UTF-8" standalone="no"?>
<!-- Created with Inkscape (http://www.inkscape.org/) -->

<svg
   width="210mm"
   height="297mm"
   viewBox="0 0 210 297"
   version="1.1"
   id="svg1"
   xml:space="preserve"
   inkscape:version="1.4.2 (ebf0e94, 2025-05-08)"
   sodipodi:docname="Nb.63.svg"
   xmlns:inkscape="http://www.inkscape.org/namespaces/inkscape"
   xmlns:sodipodi="http://sodipodi.sourceforge.net/DTD/sodipodi-0.dtd"
   xmlns:xlink="http://www.w3.org/1999/xlink"
   xmlns="http://www.w3.org/2000/svg"
   xmlns:svg="http://www.w3.org/2000/svg"><sodipodi:namedview
     id="namedview1"
     pagecolor="#ffffff"
     bordercolor="#000000"
     borderopacity="0.25"
     inkscape:showpageshadow="2"
     inkscape:pageopacity="0.0"
     inkscape:pagecheckerboard="0"
     inkscape:deskcolor="#d1d1d1"
     inkscape:document-units="mm"
     showguides="true"
     inkscape:zoom="3.71"
     inkscape:cx="396.90027"
     inkscape:cy="561.18598"
     inkscape:window-width="3840"
     inkscape:window-height="2054"
     inkscape:window-x="-11"
     inkscape:window-y="-11"
     inkscape:window-maximized="1"
     inkscape:current-layer="layer1"><sodipodi:guide
       position="19.145454,212.07273"
       orientation="0,-1"
       id="guide1"
       inkscape:locked="false" /></sodipodi:namedview><defs
     id="defs1" /><g
     inkscape:label="Ebene 1"
     inkscape:groupmode="layer"
     id="layer1"><path
       style="fill:none;stroke:#000000;stroke-width:0.264999"
       d="m 89.715857,198.97237 -8.629268,0.21395 -7.274259,-0.28527 -3.351863,-0.64184 -5.847935,-1.78291 -4.065026,-2.42475 -2.781334,-1.78291 -1.355008,-2.42475 -2.496072,-9.98428 -1.355008,-12.48034 -0.713163,-11.33929 0.713163,-13.62141 1.640274,-10.12691 1.069745,-4.8495 1.568958,-1.49764 6.561095,-3.20923 12.337714,-6.41847 4.136342,-2.85265 1.782908,-5.2774 0.713161,-4.06503 -0.356579,-3.92239 -0.855798,-3.066603 -0.71316,-1.782905 c 0,0 1.996855,-3.0666 1.996855,-3.351866 0,-0.285263 0,-4.136342 0,-4.136342 0,0 -0.427897,-1.782906 -0.641847,-2.068171 -0.213948,-0.285266 -0.427898,-0.998427 -0.855795,-0.998427 -0.427897,0 -1.069745,-0.285266 -1.355008,0.07132 -0.285266,0.356582 -0.570532,0.998426 -0.570532,0.998426 0,0 0.499214,0.927114 0.499214,1.212377 0,0.285265 0.641847,1.568958 0.641847,1.568958 v 2.282121 l -1.141061,2.210803 -2.710018,1.568958 -0.641845,0.427897 -0.142634,0.855795 0.713163,0.570531 2.353437,0.927111 1.640274,1.568958 0.713163,4.635559 c 0,0 -0.927111,4.70687 -0.998429,5.06345 -0.07132,0.35658 -1.069742,3.56581 -1.355008,3.77976 -0.285266,0.21395 -6.775045,4.06503 -6.775045,4.06503 l -10.412174,5.06345 -6.70373,3.63713 -0.855794,1.64028 -2.210803,9.27111 -1.568958,13.19351 v 10.84007 l 0.641845,10.9827 3.779763,20.32514 1.568958,2.42475 5.633984,3.20923 2.995282,1.78291 1.069745,0.99843 0.285266,0.99842 -0.07132,1.06975 0.07132,0.21395 0.713163,0.35658 h 3.494495 l 2.781334,-0.99843 6.133198,-0.35658 6.489782,-0.0713 3.708445,0.14264"
       id="path1" /></g></svg>
