<?xml version="1.0" encoding="UTF-8" standalone="no"?>
<!-- Created with Inkscape (http://www.inkscape.org/) -->

<svg
   width="210mm"
   height="297mm"
   viewBox="0 0 210 297"
   version="1.1"
   id="svg1"
   xml:space="preserve"
   inkscape:version="1.4.2 (ebf0e94, 2025-05-08)"
   sodipodi:docname="Nb.67b.svg"
   xmlns:inkscape="http://www.inkscape.org/namespaces/inkscape"
   xmlns:sodipodi="http://sodipodi.sourceforge.net/DTD/sodipodi-0.dtd"
   xmlns:xlink="http://www.w3.org/1999/xlink"
   xmlns="http://www.w3.org/2000/svg"
   xmlns:svg="http://www.w3.org/2000/svg"><sodipodi:namedview
     id="namedview1"
     pagecolor="#ffffff"
     bordercolor="#000000"
     borderopacity="0.25"
     inkscape:showpageshadow="2"
     inkscape:pageopacity="0.0"
     inkscape:pagecheckerboard="0"
     inkscape:deskcolor="#d1d1d1"
     inkscape:document-units="mm"
     showguides="true"
     inkscape:zoom="3.71"
     inkscape:cx="396.90027"
     inkscape:cy="518.32884"
     inkscape:window-width="3840"
     inkscape:window-height="2054"
     inkscape:window-x="-11"
     inkscape:window-y="-11"
     inkscape:window-maximized="1"
     inkscape:current-layer="svg1"><sodipodi:guide
       position="19.145454,212.07273"
       orientation="0,-1"
       id="guide1"
       inkscape:locked="false" /></sodipodi:namedview><defs
     id="defs1" /><path
     style="fill:none;stroke:#000000;stroke-width:0.264999"
     d="m 111.396,181.64252 -7.84479,0.28526 H 103.052 l -0.0713,-2.28212 -1.35501,-3.99371 -3.280546,-3.4945 -7.702156,-5.91924 -5.134771,-3.13792 -2.353437,-2.92397 -2.210803,-5.56266 -0.855795,-5.06346 -0.07132,-6.70373 0.713161,-7.20294 2.995284,-10.69744 2.424753,-7.77347 1.854224,-4.06503 1.925537,-2.28212 2.282121,-1.56896 1.782905,-1.06974 3.494498,-1.99686 3.708445,-2.56738 3.13792,-3.4945 1.71159,-3.708443 0.8558,-4.350293 -0.92712,-2.424752 -1.7829,-1.854224 -0.8558,-2.567384 c 0,0 0.0713,-0.285266 -0.28526,-0.285266 -0.35658,0 -1.85423,0.499213 -1.85423,0.499213 v 1.426326 l 1.14106,2.282119 1.35502,1.283695 0.64184,1.426323 0.21395,1.568958 -0.0713,1.355008 -0.71316,2.567387 -1.49764,2.995283 -2.56739,2.35344 -2.781334,1.71159 -3.137916,1.42632 -4.207661,2.49607 -2.85265,2.71002 -2.282118,3.85108 -2.852651,8.98585 -2.068173,7.98742 -1.069743,6.48978 -0.641847,8.05873 0.784479,8.20138 2.496069,6.13319 2.781334,3.63713 3.993711,2.85265 4.635558,2.99529 4.77819,3.35186 1.568958,2.28212 c 0,0 0.92711,1.21238 0.92711,1.56896 0,0.35658 0.641844,2.35343 0.641844,2.35343 l -0.0713,3.0666 0.28526,0.99843 0.92712,0.35658 9.62769,-0.71316"
     id="path1" /></svg>
