<?xml version="1.0" encoding="UTF-8" standalone="no"?>
<!-- Created with Inkscape (http://www.inkscape.org/) -->

<svg
   width="210mm"
   height="297mm"
   viewBox="0 0 210 297"
   version="1.1"
   id="svg1"
   xml:space="preserve"
   xmlns:xlink="http://www.w3.org/1999/xlink"
   xmlns="http://www.w3.org/2000/svg"
   xmlns:svg="http://www.w3.org/2000/svg"><defs
     id="defs1" /><path
     style="fill:none;stroke:#000000;stroke-width:0.264999"
     d="M 97.449004,131.94023 78.370887,131.7394 c 0,0 -3.162951,-0.10041 -3.363772,-0.10041 -0.200822,0 -1.455963,-0.60246 -1.455963,-0.60246 l -4.468294,-9.18762 -2.761305,-5.52262 -3.514392,-6.57692 -2.108634,-3.86583 -1.907809,-2.61069 -2.158839,-2.7111 -2.811513,-1.907813 -2.811512,-1.857607 -1.305344,-0.903701 -0.301233,-0.953905 -1.004112,-0.552262 -1.255139,0.200824 -0.80329,0.702877 -0.903698,1.455962 0.150617,1.35555 0.150616,1.45596 c 0,0 0.251027,0.803295 0.652672,0.853495 0.401643,0.0502 1.00411,0.75308 1.00411,0.75308 l 2.158841,-0.10041 1.556372,-0.10041 1.556371,0.75309 1.857608,2.56048 3.112744,5.12097 2.610688,5.52261 6.978576,14.35879 c 0,0 2.711101,5.82385 2.711101,6.02467 0,0.20082 0.753083,1.30534 1.054317,1.40575 0.301233,0.10042 2.158838,0.75309 2.158838,0.75309 l 3.514389,0.85349 1.104522,0.60247 0.301233,1.15473 -0.200821,1.00411 c 0,0 -0.502055,2.10863 -0.753084,2.35966 -0.251028,0.25103 0.05021,1.45596 0.05021,1.45596 l 0.702879,0.70288 h 4.267472 l 2.560484,-3.51439 1.556372,-2.10863 1.405758,-1.55637 0.853493,-0.60247 2.058429,0.55226 1.958017,0.10041 3.464184,0.15062 1.706989,0.0502"
     id="path1" /></svg>
