<?xml version="1.0" encoding="UTF-8" standalone="no"?>
<!-- Created with Inkscape (http://www.inkscape.org/) -->

<svg
   version="1.1"
   id="svg1"
   width="1340"
   height="879"
   viewBox="0 0 1340 879"
   xml:space="preserve"
   xmlns:xlink="http://www.w3.org/1999/xlink"
   xmlns="http://www.w3.org/2000/svg"
   xmlns:svg="http://www.w3.org/2000/svg"><defs
     id="defs1" /><g
     id="layer3"></g><g
     id="layer1"><path
       style="display:inline;fill:#000000;fill-opacity:0;stroke:#000000"
       d="m 860.32744,775.78067 -67.12502,-1.02481 -29.20706,1.53721 -13.83493,-12.29771 -12.29771,-18.95897 -15.37214,-25.10783 -16.39695,-23.57062 -14.34733,-18.95897 -17.42176,-23.05821 -9.73569,-15.88455 -17.93416,-25.10782 -10.7605,-19.47138 -12.81012,-19.98378 -34.84351,-55.85211 -10.2481,-24.59543 -13.83492,-24.08302 -3.58683,-19.98378 V 428.3703 l 3.07442,-37.40554 14.34733,-35.35592 8.71088,-32.2815 14.34733,-35.35592 11.27291,-25.62023 10.76049,-20.49619 22.03341,-52.26527 6.14885,-13.83493 12.81012,-5.63645 2.56202,-11.78531 -6.14885,-13.32252 -11.27291,-4.09924 -5.63645,-1.53721 -4.61164,-8.71088 -3.58683,-8.19847 -2.56203,-6.14886 -7.17366,-8.19848 -5.70834,-2.31853 -5.43487,-0.54349 -2.53628,1.63046 -3.26092,2.53627 -2.35511,4.16674 -1.81163,4.3479 v 4.52906 l 3.26093,6.52184 4.52906,3.98558 2.8986,3.44208 0.72465,7.06534 1.08697,6.15952 1.08697,4.16673 3.07977,1.26814 2.17394,3.26092 4.3479,1.99279 3.44209,3.62325 1.08697,1.08697 v 4.16674 l -0.54349,3.26092 -4.6581,5.33781 -3.58683,5.89265 -2.56202,6.66126 -3.33063,7.30177 -3.45874,7.68607 -6.78936,14.21923 -3.45873,8.96708 -3.45873,7.68607 -7.30177,17.29366 -4.73974,10.50429 -7.42987,19.59948 -4.99594,13.32252 -8.96709,21.3929 -9.09518,27.15745 -7.30176,20.36808 -4.86785,21.9053 -2.04962,14.60354 -3.33063,20.23998 -1.15291,19.59948 0.51241,15.11594 5.76455,21.39289 6.66126,17.16556 10.8886,23.82681 10.50429,20.36809 5.76456,9.60759 18.83087,28.43846 17.29366,24.59542 18.57466,29.07896 20.11189,27.79796 21.00859,32.02529 13.06632,22.1615 10.7605,17.42176 8.96708,15.24404 8.96708,13.70682 8.07037,14.85974 3.84304,11.78531 2.69012,8.96708 1.92152,7.17366 2.04962,2.81823 8.45468,1.53721 6.66126,-2.30582 8.32657,-1.28101 11.91341,-1.15291 14.34733,-1.66531 13.45062,-0.89671 13.83493,-0.25621 10.8886,-1.15291 12.55391,-0.8967 7.94228,-0.64051 9.73568,-0.64051 6.53316,0.38431"
       id="path2" /></g></svg>
