<?xml version="1.0" encoding="UTF-8" standalone="no"?>
<!-- Created with Inkscape (http://www.inkscape.org/) -->

<svg
   width="210mm"
   height="297mm"
   viewBox="0 0 210 297"
   version="1.1"
   id="svg1"
   xml:space="preserve"
   xmlns:xlink="http://www.w3.org/1999/xlink"
   xmlns="http://www.w3.org/2000/svg"
   xmlns:svg="http://www.w3.org/2000/svg"><defs
     id="defs1" /><path
     style="fill:none;stroke:#000000;stroke-width:0.264999"
     d="m 102.31894,128.87769 c 0,0 -1.35555,0.65267 -1.60658,0.65267 -0.25102,0 -1.757189,0.10041 -1.757189,0.10041 l -3.815625,0.45185 -5.271585,0.30123 c 0,0 -3.26336,0.30124 -3.564594,0.30124 -0.301233,0 -2.359662,-0.10041 -2.359662,-0.10041 l -1.656784,-0.60247 -1.706988,-0.8535 -1.556372,-1.90781 -3.012334,-6.62713 -5.472406,-14.55962 -3.564597,-6.576924 -0.753083,-1.807401 c 0,0 -0.753084,-1.004112 -1.004112,-1.004112 -0.251026,0 -1.656784,-0.9037 -1.656784,-0.9037 l -1.355551,-0.502055 -1.455959,-0.401646 -1.958017,-0.100409 -1.656784,0.100409 -1.305346,0.753084 -1.104522,1.154729 0.301234,1.35555 0.351438,0.652672 1.455962,0.351441 1.154729,-0.602467 h 2.209044 l 1.556371,0.652671 2.158842,3.564598 5.171172,12.90283 3.916035,10.74399 4.217267,9.43864 0.702877,1.00412 1.606579,0.45185 3.665005,1.00411 0.702879,0.35144 0.301234,1.20493 -1.455963,3.11274 -0.351438,0.75309 0.05021,1.15473 0.602467,0.9539 0.200824,0.65268 3.012331,0.15061 0.953908,-1.8074 1.706988,-2.81151 1.656784,-2.86172 1.606579,-1.50617 1.656784,-1.15472 2.309455,-0.60247 3.213156,-0.10041 1.506161,0.25103 1.45596,0.80329"
     id="path1" /></svg>
