<?xml version="1.0" encoding="UTF-8" standalone="no"?>
<!-- Created with Inkscape (http://www.inkscape.org/) -->

<svg
   width="210mm"
   height="297mm"
   viewBox="0 0 210 297"
   version="1.1"
   id="svg1"
   xml:space="preserve"
   inkscape:version="1.4.2 (ebf0e94, 2025-05-08)"
   sodipodi:docname="Nb.89.svg"
   xmlns:inkscape="http://www.inkscape.org/namespaces/inkscape"
   xmlns:sodipodi="http://sodipodi.sourceforge.net/DTD/sodipodi-0.dtd"
   xmlns:xlink="http://www.w3.org/1999/xlink"
   xmlns="http://www.w3.org/2000/svg"
   xmlns:svg="http://www.w3.org/2000/svg"><sodipodi:namedview
     id="namedview1"
     pagecolor="#ffffff"
     bordercolor="#000000"
     borderopacity="0.25"
     inkscape:showpageshadow="2"
     inkscape:pageopacity="0.0"
     inkscape:pagecheckerboard="0"
     inkscape:deskcolor="#d1d1d1"
     inkscape:document-units="mm"
     showguides="true"
     inkscape:zoom="2.81"
     inkscape:cx="367.25979"
     inkscape:cy="618.68327"
     inkscape:window-width="1916"
     inkscape:window-height="2041"
     inkscape:window-x="-9"
     inkscape:window-y="0"
     inkscape:window-maximized="0"
     inkscape:current-layer="layer1"><sodipodi:guide
       position="128.78182,216.16364"
       orientation="0,-1"
       id="guide1"
       inkscape:locked="false" /></sodipodi:namedview><defs
     id="defs1" /><g
     inkscape:label="Ebene 1"
     inkscape:groupmode="layer"
     id="layer1"><path
       style="fill:none;stroke:#000000;stroke-width:0.264999"
       d="m 115.06079,228.80338 -9.69825,-0.0942 -6.308568,0.37663 -5.649466,0.56495 -2.824734,-0.37663 -2.165627,-0.75326 -1.22405,-1.31821 -1.31821,-2.25979 -2.636417,-4.33126 -2.259787,-3.01305 -4.425416,-5.5553 -5.178676,-5.27284 -4.990362,-3.86047 -6.591043,-4.80204 -8.003411,-5.74363 -6.308571,-6.12025 -5.084519,-6.21442 -2.636417,-4.8962 -3.107208,-6.30857 -1.506524,-5.36699 -0.941576,-6.30857 0.753261,-7.25015 1.506524,-8.19173 2.54226,-6.49688 4.990362,-11.11062 5.178676,-8.38004 4.519575,-7.62678 6.496886,-8.944989 4.048784,-4.613732 5.555308,0.376632 1.318207,-1.22405 1.31821,-1.035736 0.376631,-2.918891 -0.376631,-2.542259 -0.376632,-1.035736 -0.376629,-0.659106 -0.753263,-0.659103 -2.824734,0.564946 -1.412365,0.09416 -1.694841,-0.753261 -2.730574,-2.730576 -1.883156,-0.659104 -1.31821,0.09416 -1.318207,1.694841 -0.376632,1.694839 0.753261,1.412367 1.224052,1.600681 1.129893,0.564947 1.129893,1.224052 0.941578,1.22405 -0.564947,1.035735 -3.107206,3.860469 -8.097567,10.545674 -7.061832,11.39309 -4.425416,8.38004 -4.048784,8.75667 -2.353945,7.06184 -1.883155,8.4742 v 7.3443 l 0.753263,6.87352 2.636417,7.43846 2.918891,6.49689 4.707887,6.77936 5.084519,5.27283 6.402729,5.55531 4.70789,3.48384 7.438464,5.17868 6.026097,5.17868 4.896202,5.27283 5.272836,7.06183 3.577995,5.55531 2.636417,5.93194 9.980723,-0.0942 10.169037,-1.60069 8.94499,-0.0942"
       id="path1" /></g></svg>
