<?xml version="1.0" encoding="UTF-8" standalone="no"?>
<!-- Created with Inkscape (http://www.inkscape.org/) -->

<svg
   width="210mm"
   height="297mm"
   viewBox="0 0 210 297"
   version="1.1"
   id="svg1"
   xml:space="preserve"
   xmlns:xlink="http://www.w3.org/1999/xlink"
   xmlns="http://www.w3.org/2000/svg"
   xmlns:svg="http://www.w3.org/2000/svg"><defs
     id="defs1" /><path
     style="fill:none;stroke:#000000;stroke-width:0.264999"
     d="m 99.607842,139.92291 -2.25925,0.30123 c 0,0 -1.656784,0.50206 -2.058429,0.60247 -0.401643,0.10041 -2.158839,0.40165 -2.560484,0.45185 -0.401643,0.0502 -4.518502,-0.15062 -4.518502,-0.15062 0,0 -4.819732,0 -5.07076,0 -0.251029,0 -3.514389,0 -3.514389,0 l -2.108634,-0.0502 -5.22138,-10.54317 -5.120968,-10.09132 -3.062539,-5.82384 -3.966239,-6.67734 -3.514389,-5.87406 -3.514392,-6.426307 -0.702876,-0.803291 -0.652674,-0.351438 -0.853493,0.200822 -0.853495,1.35555 -0.200822,2.259251 1.054317,1.706993 4.217268,7.07898 2.108634,3.41398 2.610688,5.57282 2.911923,5.17117 4.568705,9.63947 6.175285,13.00324 1.355551,2.96213 0.652671,0.70288 5.623026,0.70288 0.100409,1.05431 -1.606576,3.01233 -1.004113,2.6107 0.100412,1.65678 0.55226,1.00411 1.204934,0.85349 2.108634,-0.30123 1.757195,-2.00822 3.313568,-3.71521 2.460072,-3.06254 1.606579,-2.6609 0.853493,-1.15472 3.715213,0.75308 c 0,0 3.514389,0.55226 3.313567,0.60247"
     id="path1" /></svg>
