<?xml version="1.0" encoding="UTF-8" standalone="no"?>
<!-- Created with Inkscape (http://www.inkscape.org/) -->

<svg
   width="210mm"
   height="297mm"
   viewBox="0 0 210 297"
   version="1.1"
   id="svg1"
   xml:space="preserve"
   inkscape:version="1.4.2 (ebf0e94, 2025-05-08)"
   sodipodi:docname="To 2a-b.svg"
   xmlns:inkscape="http://www.inkscape.org/namespaces/inkscape"
   xmlns:sodipodi="http://sodipodi.sourceforge.net/DTD/sodipodi-0.dtd"
   xmlns:xlink="http://www.w3.org/1999/xlink"
   xmlns="http://www.w3.org/2000/svg"
   xmlns:svg="http://www.w3.org/2000/svg"><sodipodi:namedview
     id="namedview1"
     pagecolor="#ffffff"
     bordercolor="#000000"
     borderopacity="0.25"
     inkscape:showpageshadow="2"
     inkscape:pageopacity="0.0"
     inkscape:pagecheckerboard="0"
     inkscape:deskcolor="#d1d1d1"
     inkscape:document-units="mm"
     showguides="true"
     inkscape:zoom="2.13"
     inkscape:cx="367.13615"
     inkscape:cy="724.64789"
     inkscape:window-width="1916"
     inkscape:window-height="2041"
     inkscape:window-x="-9"
     inkscape:window-y="0"
     inkscape:window-maximized="0"
     inkscape:current-layer="layer1"><sodipodi:guide
       position="128.78182,216.16364"
       orientation="0,-1"
       id="guide1"
       inkscape:locked="false" /></sodipodi:namedview><defs
     id="defs1" /><g
     inkscape:label="Ebene 1"
     inkscape:groupmode="layer"
     id="layer1"><path
       style="fill:none;stroke:#000000;stroke-width:0.264999"
       d="m 142.85015,281.72534 -13.78814,0.24844 -9.06788,0.99375 -1.86326,-1.24219 -0.86953,-1.61483 -0.86952,-2.36011 c 0,0 -21.365413,-16.76938 -21.862282,-16.76938 -0.496871,0 -31.427036,-30.06064 -31.427036,-30.06064 L 52.66823,217.00802 46.581573,206.9464 l -3.60231,-10.68271 -1.863262,-12.54597 0.372652,-10.31005 1.739046,-8.94367 2.608569,-8.32257 6.956181,-16.89358 7.825703,-13.16706 8.571011,-8.32258 9.813184,-7.8257 13.291274,-10.434271 4.471832,-4.223396 2.111698,-4.223395 0.496868,-4.596051 -0.745304,-2.981219 -1.242174,-1.739045 -1.614829,-0.621089 -10.931141,0.248436 -1.987481,2.235915 c 0,0 -0.124217,2.360133 -0.124217,2.981221 0,0.621086 1.614826,2.111698 1.614826,2.111698 l 1.739046,1.366393 3.726526,0.496869 2.857003,-0.496869 c 0,0 0.621088,1.49061 0.372652,1.987479 -0.248433,0.496871 -2.857002,3.726526 -2.857002,3.726526 l -5.714005,5.589788 -17.763107,14.03658 -7.949922,6.95618 -6.210876,11.67645 -5.465572,10.55849 -5.962441,16.02406 -2.48435,10.06162 -0.745305,9.68897 1.242174,11.67645 2.732786,12.54597 3.974962,7.94992 5.589788,10.31005 13.539711,17.63889 16.272494,17.26624 12.421753,12.67018 13.415496,13.5397 7.94992,7.20463 7.94992,-1.98749 9.06788,-1.86325 10.68271,-0.12422"
       id="path1" /></g></svg>
