<?xml version="1.0" encoding="UTF-8" standalone="no"?>
<!-- Created with Inkscape (http://www.inkscape.org/) -->

<svg
   width="210mm"
   height="297mm"
   viewBox="0 0 210 297"
   version="1.1"
   id="svg1"
   xml:space="preserve"
   inkscape:version="1.4.2 (ebf0e94, 2025-05-08)"
   sodipodi:docname="WW.16n.svg"
   xmlns:inkscape="http://www.inkscape.org/namespaces/inkscape"
   xmlns:sodipodi="http://sodipodi.sourceforge.net/DTD/sodipodi-0.dtd"
   xmlns:xlink="http://www.w3.org/1999/xlink"
   xmlns="http://www.w3.org/2000/svg"
   xmlns:svg="http://www.w3.org/2000/svg"><sodipodi:namedview
     id="namedview1"
     pagecolor="#ffffff"
     bordercolor="#000000"
     borderopacity="0.25"
     inkscape:showpageshadow="2"
     inkscape:pageopacity="0.0"
     inkscape:pagecheckerboard="0"
     inkscape:deskcolor="#d1d1d1"
     inkscape:document-units="mm"
     showguides="true"
     inkscape:zoom="4.58"
     inkscape:cx="396.72489"
     inkscape:cy="578.82096"
     inkscape:window-width="3840"
     inkscape:window-height="2054"
     inkscape:window-x="-11"
     inkscape:window-y="-11"
     inkscape:window-maximized="1"
     inkscape:current-layer="svg1"><sodipodi:guide
       position="79.047341,193.70602"
       orientation="0,-1"
       id="guide1"
       inkscape:locked="false" /></sodipodi:namedview><defs
     id="defs1" /><path
     style="fill:none;stroke:#000000;stroke-width:0.264999"
     d="m 115.53857,190.40757 h -5.77693 -4.21715 l -1.09762,-0.28885 -1.61754,-2.36854 -4.737082,-3.63947 -4.563774,-4.506 -3.581696,-4.04385 -2.888464,-4.56377 -1.964156,-4.27493 -0.924308,-3.87054 -0.173308,-3.92831 0.404384,-3.06178 1.790848,-4.62154 3.119543,-4.79485 3.466156,-4.27493 5.430313,-5.48808 5.776924,-5.02593 2.94624,-2.94623 2.07969,-3.004 0.751,-1.96416 0.28885,-2.42631 -0.34662,-8.14547 -0.46215,-5.0837 -0.63546,-2.65738 -0.40439,-0.751 -0.80877,-0.63547 -0.751,-0.1733 h -0.751 l -1.32869,0.86654 -0.34662,0.46215 0.34662,0.51992 0.69323,0.46216 1.55977,1.09762 0.57769,1.15538 0.46216,3.46616 0.11553,5.257 v 4.91039 l -0.51992,2.59962 -0.51992,1.84862 -3.52393,3.23508 -9.531931,9.18531 -5.025927,6.06578 -4.043849,6.41239 -2.021925,5.0837 -0.635463,4.39046 0.693232,4.85262 1.444231,4.21716 2.772926,5.14147 2.830695,4.04385 3.98608,4.506 4.679312,4.39047 2.541849,1.96415 c 0,0 0.40438,0.11554 0.46215,0.40439 0.0578,0.28884 0.0578,0.751 0.0578,0.751 l -0.51993,0.80877 0.17331,0.57769 1.03984,0.23108 c 0,0 1.96416,0.28884 2.36855,0.28884 0.40438,0 2.13746,-0.69323 2.42631,-0.80877 0.28884,-0.11554 4.85262,-0.63546 4.85262,-0.63546 l 3.46615,-0.17331"
     id="path1" /></svg>
