<?xml version="1.0" encoding="UTF-8" standalone="no"?>
<!-- Created with Inkscape (http://www.inkscape.org/) -->

<svg
   width="210mm"
   height="297mm"
   viewBox="0 0 210 297"
   version="1.1"
   id="svg1"
   xml:space="preserve"
   inkscape:version="1.4.2 (ebf0e94, 2025-05-08)"
   sodipodi:docname="WW.14n.svg"
   xmlns:inkscape="http://www.inkscape.org/namespaces/inkscape"
   xmlns:sodipodi="http://sodipodi.sourceforge.net/DTD/sodipodi-0.dtd"
   xmlns:xlink="http://www.w3.org/1999/xlink"
   xmlns="http://www.w3.org/2000/svg"
   xmlns:svg="http://www.w3.org/2000/svg"><sodipodi:namedview
     id="namedview1"
     pagecolor="#ffffff"
     bordercolor="#000000"
     borderopacity="0.25"
     inkscape:showpageshadow="2"
     inkscape:pageopacity="0.0"
     inkscape:pagecheckerboard="0"
     inkscape:deskcolor="#d1d1d1"
     inkscape:document-units="mm"
     showguides="true"
     inkscape:zoom="4.58"
     inkscape:cx="396.72489"
     inkscape:cy="491.48472"
     inkscape:window-width="3840"
     inkscape:window-height="2054"
     inkscape:window-x="-11"
     inkscape:window-y="-11"
     inkscape:window-maximized="1"
     inkscape:current-layer="svg1"><sodipodi:guide
       position="79.047341,193.70602"
       orientation="0,-1"
       id="guide1"
       inkscape:locked="false" /></sodipodi:namedview><defs
     id="defs1" /><path
     style="fill:none;stroke:#000000;stroke-width:0.264999"
     d="m 128.53666,151.99099 -4.506,-0.11554 -5.60362,-0.80877 -3.87055,-0.80877 -4.62154,-1.96415 -3.23508,-1.96416 -4.3327,-2.88846 -3.466151,-3.06177 -3.292851,-4.04386 -2.599619,-3.87054 -2.599616,-4.62154 -1.964155,-5.14147 -1.270926,-4.04385 -0.982078,-5.19923 -0.519922,-4.3327 0.115538,-2.8307 c 0,0 0.115539,-1.03984 -0.173307,-1.09761 -0.288848,-0.0578 -1.444233,-0.11554 -1.444233,-0.11554 l -1.328693,-0.57769 -2.253004,-0.92431 -6.29685,0.23108 -4.332698,1.96415 -4.506005,3.23508 -2.772926,3.11955 -0.404383,1.21315 0.404383,0.40438 c 0,0 0,0.46216 -0.231076,0.63547 -0.231077,0.1733 -0.751001,1.15538 -0.751001,1.15538 l 0.80877,1.15539 1.444233,-0.11554 6.065774,-5.89247 3.35062,-2.48408 2.426309,-0.86654 1.790848,-0.0578 0.924308,0.75099 0.231077,0.98208 v 0.86654 l 0.115538,0.5777 0.924309,0.63546 1.213157,1.96415 0.866539,3.40839 1.964156,6.47016 1.733079,3.81277 3.812773,6.35463 3.235079,4.27492 3.928311,4.67931 3.11954,2.8307 4.159393,3.40839 3.11954,2.71515 4.3327,2.94624 -0.23108,1.84861 2.02192,0.17331 10.80286,-0.80877 4.506,-0.98208"
     id="path1" /></svg>
