<?xml version="1.0" encoding="UTF-8" standalone="no"?>
<!-- Created with Inkscape (http://www.inkscape.org/) -->

<svg
   width="210mm"
   height="297mm"
   viewBox="0 0 210 297"
   version="1.1"
   id="svg1"
   xml:space="preserve"
   inkscape:version="1.4.2 (ebf0e94, 2025-05-08)"
   sodipodi:docname="WW.1.svg"
   xmlns:inkscape="http://www.inkscape.org/namespaces/inkscape"
   xmlns:sodipodi="http://sodipodi.sourceforge.net/DTD/sodipodi-0.dtd"
   xmlns:xlink="http://www.w3.org/1999/xlink"
   xmlns="http://www.w3.org/2000/svg"
   xmlns:svg="http://www.w3.org/2000/svg"><sodipodi:namedview
     id="namedview1"
     pagecolor="#ffffff"
     bordercolor="#000000"
     borderopacity="0.25"
     inkscape:showpageshadow="2"
     inkscape:pageopacity="0.0"
     inkscape:pagecheckerboard="0"
     inkscape:deskcolor="#d1d1d1"
     inkscape:document-units="mm"
     showguides="true"
     inkscape:zoom="2.44"
     inkscape:cx="396.72131"
     inkscape:cy="604.30328"
     inkscape:window-width="1916"
     inkscape:window-height="2041"
     inkscape:window-x="-9"
     inkscape:window-y="0"
     inkscape:window-maximized="0"
     inkscape:current-layer="svg1"><sodipodi:guide
       position="26.02459,180.10622"
       orientation="0,-1"
       id="guide1"
       inkscape:locked="false" /></sodipodi:namedview><defs
     id="defs1" /><path
     style="fill:none;stroke:#000000;stroke-width:0.264999"
     d="m 144.65334,137.60502 -6.93989,-0.10844 -9.00017,0.54218 -13.3376,1.30123 -13.87978,2.49402 -9.54235,1.30124 -5.747097,0.75904 -3.144636,0.97593 c 0,0 -0.759053,0.21687 -1.301232,-0.10844 -0.542178,-0.32531 -2.602457,-1.19279 -2.602457,-1.19279 l -1.626537,-1.40967 -1.301231,-1.73497 -1.734971,-3.57838 -2.060281,-3.79526 -2.385587,-4.8796 -3.36151,-2.92777 -3.795252,-3.57838 -3.36151,-1.84341 -2.819331,-1.73497 -2.060279,-0.21688 c 0,0 -0.650615,-0.43374 -1.084357,0 -0.433745,0.43375 -1.734974,1.40967 -1.734974,1.40967 l 0.433742,1.40967 1.734974,0.54217 h 1.518102 l 5.530223,2.38559 5.20492,4.87961 4.662739,6.72302 1.5181,4.229 0.542179,3.14464 1.626536,4.22899 2.277153,0.75905 15.831626,0.54218 11.819498,-0.97592 9.43392,-1.84341 13.66291,-1.40967 c 0,0 5.85553,-1.5181 6.28927,-1.5181 0.43375,0 10.40984,0.21688 10.40984,0.21688"
     id="path1" /></svg>
