<?xml version="1.0" encoding="UTF-8" standalone="no"?>
<!-- Created with Inkscape (http://www.inkscape.org/) -->

<svg
   width="210mm"
   height="297mm"
   viewBox="0 0 210 297"
   version="1.1"
   id="svg1"
   xml:space="preserve"
   inkscape:version="1.4.2 (ebf0e94, 2025-05-08)"
   sodipodi:docname="WW.15n.svg"
   xmlns:inkscape="http://www.inkscape.org/namespaces/inkscape"
   xmlns:sodipodi="http://sodipodi.sourceforge.net/DTD/sodipodi-0.dtd"
   xmlns:xlink="http://www.w3.org/1999/xlink"
   xmlns="http://www.w3.org/2000/svg"
   xmlns:svg="http://www.w3.org/2000/svg"><sodipodi:namedview
     id="namedview1"
     pagecolor="#ffffff"
     bordercolor="#000000"
     borderopacity="0.25"
     inkscape:showpageshadow="2"
     inkscape:pageopacity="0.0"
     inkscape:pagecheckerboard="0"
     inkscape:deskcolor="#d1d1d1"
     inkscape:document-units="mm"
     showguides="true"
     inkscape:zoom="4.58"
     inkscape:cx="396.72489"
     inkscape:cy="526.41921"
     inkscape:window-width="3840"
     inkscape:window-height="2054"
     inkscape:window-x="-11"
     inkscape:window-y="-11"
     inkscape:window-maximized="1"
     inkscape:current-layer="layer1"><sodipodi:guide
       position="79.047341,193.70602"
       orientation="0,-1"
       id="guide1"
       inkscape:locked="false" /></sodipodi:namedview><defs
     id="defs1" /><g
     inkscape:label="Ebene 1"
     inkscape:groupmode="layer"
     id="layer1"><path
       style="fill:none;stroke:#000000;stroke-width:0.264999"
       d="m 80.761461,141.36144 c -0.346615,0 -6.065774,-0.46215 -6.065774,-0.46215 l -4.563774,-0.751 -3.004003,-1.09762 -1.097616,-0.34661 -1.502002,-1.90639 -0.462153,-2.42631 -0.462156,-11.90047 -0.519922,-9.82078 0.05777,-7.16339 c 0,0 -0.80877,-0.86654 -1.213154,-1.03985 -0.404387,-0.17331 -1.328695,-0.63546 -1.848617,-0.63546 -0.519925,0 -1.559772,0.0578 -1.559772,0.0578 l -0.751001,0.63546 c 0,0 -0.288846,0.46215 -0.05777,0.46215 0.231076,0 1.270923,0.34662 1.270923,0.34662 l 0.80877,0.57769 0.462156,1.03985 0.173307,0.98208 0.231077,1.55977 0.346617,0.51992 -0.115541,4.27493 -0.05777,11.49609 0.17331,11.66939 0.577691,0.92431 1.328696,1.27092 1.039846,1.27093 1.386462,0.92431 1.559772,0.98207 1.444231,0.11554 0.288848,0.63547 v 0.86654 l 1.617538,0.11553 c 0,0 0.635463,0.0578 0.866539,0.0578 0.23108,0 0.404387,0.28885 0.462156,0 0.05777,-0.28884 0.115538,-0.98207 0.115538,-0.98207 l 0.462153,-0.28885 1.213157,-0.17331 3.523925,-0.23108 3.870542,0.17331"
       id="path1" /></g></svg>
