<?xml version="1.0" encoding="UTF-8" standalone="no"?>
<!-- Created with Inkscape (http://www.inkscape.org/) -->

<svg
   width="210mm"
   height="297mm"
   viewBox="0 0 210 297"
   version="1.1"
   id="svg1"
   xml:space="preserve"
   inkscape:version="1.4.2 (ebf0e94, 2025-05-08)"
   sodipodi:docname="WW.11n.svg"
   xmlns:inkscape="http://www.inkscape.org/namespaces/inkscape"
   xmlns:sodipodi="http://sodipodi.sourceforge.net/DTD/sodipodi-0.dtd"
   xmlns:xlink="http://www.w3.org/1999/xlink"
   xmlns="http://www.w3.org/2000/svg"
   xmlns:svg="http://www.w3.org/2000/svg"><sodipodi:namedview
     id="namedview1"
     pagecolor="#ffffff"
     bordercolor="#000000"
     borderopacity="0.25"
     inkscape:showpageshadow="2"
     inkscape:pageopacity="0.0"
     inkscape:pagecheckerboard="0"
     inkscape:deskcolor="#d1d1d1"
     inkscape:document-units="mm"
     showguides="true"
     inkscape:zoom="2.44"
     inkscape:cx="396.92623"
     inkscape:cy="561.27049"
     inkscape:window-width="1916"
     inkscape:window-height="2041"
     inkscape:window-x="-9"
     inkscape:window-y="0"
     inkscape:window-maximized="0"
     inkscape:current-layer="layer1"><sodipodi:guide
       position="80.35092,192.68477"
       orientation="0,-1"
       id="guide1"
       inkscape:locked="false" /></sodipodi:namedview><defs
     id="defs1" /><g
     inkscape:label="Ebene 1"
     inkscape:groupmode="layer"
     id="layer1"><path
       style="fill:none;stroke:#000000;stroke-width:0.264999"
       d="m 153.0029,184.23241 -21.47028,0.10843 -8.67487,-0.3253 -6.83145,-1.5181 -6.61459,-1.84341 -4.87961,-2.38559 -6.939888,-4.01212 -5.963967,-4.44587 -9.325481,-10.08453 -5.09648,-7.80738 -3.903689,-7.48207 -1.192795,-6.61458 -1.409666,-8.67486 0.216874,-6.50615 1.409666,-5.09648 1.843407,-4.77118 1.084358,-3.14464 -0.325308,-4.33743 -1.192794,-0.43374 c 0,0 -1.084358,-0.43374 -1.409663,0 -0.325308,0.43374 -1.084358,1.73497 -1.084358,1.73497 l -0.759053,1.84341 v 0.86749 l -6.614583,-0.21687 -8.891733,1.62653 -8.566427,2.60246 -6.397713,3.0362 -2.60246,2.27716 -1.301229,3.25307 0.542179,2.71089 1.084358,1.5181 1.192795,0.54218 0.75905,-0.21687 0.867486,-1.19279 -0.216871,-3.14464 2.494024,-2.81933 9.867656,-3.36151 5.421789,-1.08436 4.554304,0.32531 4.012123,1.30123 1.301229,0.97592 -0.216871,7.69894 -0.108437,5.53023 v 5.53022 l 2.385589,7.2652 4.445868,9.97609 7.915812,10.51828 5.638663,5.74709 6.939888,6.18084 9.542348,6.39772 8.56643,4.12056 4.01212,1.19279 v 1.40966 l 0.21688,0.86749 7.69894,-0.10844 0.21687,-1.73497 0.97592,-1.62653 h 26.78364"
       id="path1" /></g></svg>
