<?xml version="1.0" encoding="UTF-8" standalone="no"?>
<!-- Created with Inkscape (http://www.inkscape.org/) -->

<svg
   width="210mm"
   height="297mm"
   viewBox="0 0 210 297"
   version="1.1"
   id="svg1"
   xml:space="preserve"
   inkscape:version="1.4.2 (ebf0e94, 2025-05-08)"
   sodipodi:docname="WW.19n.svg"
   xmlns:inkscape="http://www.inkscape.org/namespaces/inkscape"
   xmlns:sodipodi="http://sodipodi.sourceforge.net/DTD/sodipodi-0.dtd"
   xmlns:xlink="http://www.w3.org/1999/xlink"
   xmlns="http://www.w3.org/2000/svg"
   xmlns:svg="http://www.w3.org/2000/svg"><sodipodi:namedview
     id="namedview1"
     pagecolor="#ffffff"
     bordercolor="#000000"
     borderopacity="0.25"
     inkscape:showpageshadow="2"
     inkscape:pageopacity="0.0"
     inkscape:pagecheckerboard="0"
     inkscape:deskcolor="#d1d1d1"
     inkscape:document-units="mm"
     showguides="true"
     inkscape:zoom="4.58"
     inkscape:cx="396.72489"
     inkscape:cy="543.66812"
     inkscape:window-width="3840"
     inkscape:window-height="2054"
     inkscape:window-x="-11"
     inkscape:window-y="-11"
     inkscape:window-maximized="1"
     inkscape:current-layer="svg1"><sodipodi:guide
       position="79.047341,193.70602"
       orientation="0,-1"
       id="guide1"
       inkscape:locked="false" /></sodipodi:namedview><defs
     id="defs1" /><path
     style="fill:none;stroke:#000000;stroke-width:0.264999"
     d="m 132.9849,145.34752 -8.83871,-0.11553 c 0,0 -1.6753,-0.34662 -2.02192,-0.34662 -0.34661,0 -2.02192,0.63546 -2.02192,0.63546 l -6.35463,-0.0578 -4.85262,-0.46215 -7.62554,-1.15539 -6.527932,-2.13746 -6.29685,-3.5817 -3.581696,-2.88846 -3.812773,-4.56378 -2.310773,-4.44823 -1.964156,-5.19924 -1.097616,-5.60362 -0.462153,-4.44823 0.173308,-3.46616 -0.404387,-0.86654 -0.750998,-0.63546 -0.346618,-0.86654 -0.115538,-0.34661 h -0.924309 l -0.866539,1.90638 -0.173307,3.87054 0.924308,8.14547 0.86654,4.10162 1.964155,3.87054 3.292848,5.66139 4.332698,5.0837 4.332697,3.63947 5.257004,2.88846 3.292851,1.21316 4.910386,1.32869 6.06578,1.03985 4.21716,0.28884 0.80877,0.51993 0.63546,0.98207 v 1.15539 c 0,0 -0.98208,0.23108 0.11553,0.57769 1.09762,0.34662 1.96416,0.0578 1.96416,0.0578 0,0 0.69323,-0.11554 0.69323,-1.09761 0,-0.98208 0,-0.92431 0,-1.21316 0,-0.28885 1.09762,-0.46215 1.09762,-0.46215 0,0 1.32869,0.1733 1.55977,0.28884 0.23108,0.11554 3.004,0.46216 3.23508,0.28885 0.23108,-0.17331 2.48408,-0.86654 3.35062,-0.86654 0.86654,0 3.40839,-0.23108 3.40839,-0.23108 l 3.52392,0.28885 1.502,0.28885"
     id="path1" /></svg>
