<?xml version="1.0" encoding="UTF-8" standalone="no"?>
<!-- Created with Inkscape (http://www.inkscape.org/) -->

<svg
   width="210mm"
   height="297mm"
   viewBox="0 0 210 297"
   version="1.1"
   id="svg1"
   xml:space="preserve"
   inkscape:version="1.4.2 (ebf0e94, 2025-05-08)"
   sodipodi:docname="WW.18n.svg"
   xmlns:inkscape="http://www.inkscape.org/namespaces/inkscape"
   xmlns:sodipodi="http://sodipodi.sourceforge.net/DTD/sodipodi-0.dtd"
   xmlns:xlink="http://www.w3.org/1999/xlink"
   xmlns="http://www.w3.org/2000/svg"
   xmlns:svg="http://www.w3.org/2000/svg"><sodipodi:namedview
     id="namedview1"
     pagecolor="#ffffff"
     bordercolor="#000000"
     borderopacity="0.25"
     inkscape:showpageshadow="2"
     inkscape:pageopacity="0.0"
     inkscape:pagecheckerboard="0"
     inkscape:deskcolor="#d1d1d1"
     inkscape:document-units="mm"
     showguides="true"
     inkscape:zoom="2.44"
     inkscape:cx="396.72131"
     inkscape:cy="604.30328"
     inkscape:window-width="1916"
     inkscape:window-height="2041"
     inkscape:window-x="-9"
     inkscape:window-y="0"
     inkscape:window-maximized="0"
     inkscape:current-layer="svg1"><sodipodi:guide
       position="26.02459,180.10622"
       orientation="0,-1"
       id="guide1"
       inkscape:locked="false" /></sodipodi:namedview><defs
     id="defs1" /><path
     style="fill:none;stroke:#000000;stroke-width:0.264999"
     d="m 154.30413,150.29201 -28.19331,0.10843 h -22.77151 l -3.90369,-0.75905 -6.614583,-2.49402 -5.855534,-2.81933 -4.445865,-3.57838 -2.60246,-3.25308 -2.277152,-3.57838 -1.951845,-4.12056 -1.084358,-0.97592 -4.12056,-3.46995 -5.747096,-2.38558 -8.24112,-2.06028 -7.048325,-0.97592 -2.060282,-0.10844 -0.325307,-1.62654 c 0,0 -0.867487,-0.32531 -1.301229,-0.54218 -0.433742,-0.21687 -2.168716,-0.43374 -2.168716,-0.43374 l -0.867486,1.40967 -0.216871,0.97592 0.108434,1.73497 1.084358,1.40967 6.614583,0.97592 7.698943,1.8434 6.614584,3.36151 2.168715,1.73498 2.602458,2.49402 4.12056,5.42179 3.144639,4.12056 2.168715,2.06028 3.144639,2.92777 3.253073,1.73497 3.795252,1.73497 3.903689,1.62654 2.602458,0.32531 0.975923,1.19279 v 1.19279 l 2.819332,-0.21687 1.951844,-0.86748 2.49402,-0.32531 h 50.42265"
     id="path1" /></svg>
