<?xml version="1.0" encoding="UTF-8" standalone="no"?>
<!-- Created with Inkscape (http://www.inkscape.org/) -->

<svg
   width="210mm"
   height="297mm"
   viewBox="0 0 210 297"
   version="1.1"
   id="svg1"
   xml:space="preserve"
   inkscape:version="1.4.2 (ebf0e94, 2025-05-08)"
   sodipodi:docname="WW.21n.svg"
   xmlns:inkscape="http://www.inkscape.org/namespaces/inkscape"
   xmlns:sodipodi="http://sodipodi.sourceforge.net/DTD/sodipodi-0.dtd"
   xmlns:xlink="http://www.w3.org/1999/xlink"
   xmlns="http://www.w3.org/2000/svg"
   xmlns:svg="http://www.w3.org/2000/svg"><sodipodi:namedview
     id="namedview1"
     pagecolor="#ffffff"
     bordercolor="#000000"
     borderopacity="0.25"
     inkscape:showpageshadow="2"
     inkscape:pageopacity="0.0"
     inkscape:pagecheckerboard="0"
     inkscape:deskcolor="#d1d1d1"
     inkscape:document-units="mm"
     showguides="true"
     inkscape:zoom="2.44"
     inkscape:cx="396.92623"
     inkscape:cy="561.27049"
     inkscape:window-width="1916"
     inkscape:window-height="2041"
     inkscape:window-x="-9"
     inkscape:window-y="0"
     inkscape:window-maximized="0"
     inkscape:current-layer="layer1"><sodipodi:guide
       position="80.35092,192.68477"
       orientation="0,-1"
       id="guide1"
       inkscape:locked="false" /></sodipodi:namedview><defs
     id="defs1" /><g
     inkscape:label="Ebene 1"
     inkscape:groupmode="layer"
     id="layer1"><path
       style="fill:none;stroke:#000000;stroke-width:0.264999"
       d="m 147.90642,168.72609 -14.63883,-0.75905 -9.10861,-1.84341 -14.5304,-4.44587 -12.036368,-6.0724 -7.590507,-6.83146 -4.012123,-5.20491 -3.144639,-7.15677 -1.951844,-6.72302 v -6.18083 l -0.542179,-7.59051 1.84341,-6.39771 0.75905,-3.46995 c 0,0 -0.75905,-0.97592 -1.192795,-0.97592 -0.433742,0 -1.192791,-0.43374 -1.626536,0 -0.433742,0.43374 -1.843408,2.16872 -1.843408,2.16872 h -2.927765 l -4.771176,1.08436 -7.373633,4.33743 -3.903689,4.33743 -3.253073,5.09648 -2.277152,4.5543 -2.710895,8.67487 -0.975923,5.96396 v 4.77118 l 0.867487,0.97592 0.759049,0.32531 h 0.867487 l 1.192795,-0.43374 1.301228,-1.30123 1.843408,-11.06045 1.301231,-6.83146 4.337431,-6.39771 3.36151,-3.46995 4.662739,-3.14463 3.469945,-0.97593 0.867486,0.10844 0.433745,2.27715 -0.433745,5.85553 1.626537,13.33761 3.795252,8.34955 3.795255,6.28928 6.289275,7.15676 8.891736,7.04833 8.241124,5.09648 4.33743,2.16872 1.62653,2.49402 -0.43374,1.08436 -0.75905,0.86748 0.10844,0.97592 2.27715,0.54218 h 4.77117 l 0.97592,-1.5181 c 0,0 4.12056,-0.21687 4.55431,-0.10843 0.43374,0.10843 1.19279,0.65061 1.5181,0.10843 0.32531,-0.54218 1.30123,-1.8434 1.30123,-1.8434 h 1.62653 l 2.60246,0.65061 0.54218,0.43374 1.95185,-0.43374 2.49402,-1.95185 5.09648,-0.3253 3.79525,0.75905 1.30123,0.65061"
       id="path1" /></g></svg>
