<?xml version="1.0" encoding="UTF-8" standalone="no"?>
<!-- Created with Inkscape (http://www.inkscape.org/) -->

<svg
   width="210mm"
   height="297mm"
   viewBox="0 0 210 297"
   version="1.1"
   id="svg1"
   xml:space="preserve"
   inkscape:version="1.4.2 (ebf0e94, 2025-05-08)"
   sodipodi:docname="WW.20n.svg"
   xmlns:inkscape="http://www.inkscape.org/namespaces/inkscape"
   xmlns:sodipodi="http://sodipodi.sourceforge.net/DTD/sodipodi-0.dtd"
   xmlns:xlink="http://www.w3.org/1999/xlink"
   xmlns="http://www.w3.org/2000/svg"
   xmlns:svg="http://www.w3.org/2000/svg"><sodipodi:namedview
     id="namedview1"
     pagecolor="#ffffff"
     bordercolor="#000000"
     borderopacity="0.25"
     inkscape:showpageshadow="2"
     inkscape:pageopacity="0.0"
     inkscape:pagecheckerboard="0"
     inkscape:deskcolor="#d1d1d1"
     inkscape:document-units="mm"
     showguides="true"
     inkscape:zoom="2.44"
     inkscape:cx="396.92623"
     inkscape:cy="561.27049"
     inkscape:window-width="1916"
     inkscape:window-height="2041"
     inkscape:window-x="-9"
     inkscape:window-y="0"
     inkscape:window-maximized="0"
     inkscape:current-layer="layer1"><sodipodi:guide
       position="80.35092,192.68477"
       orientation="0,-1"
       id="guide1"
       inkscape:locked="false" /></sodipodi:namedview><defs
     id="defs1" /><g
     inkscape:label="Ebene 1"
     inkscape:groupmode="layer"
     id="layer1"><path
       style="fill:none;stroke:#000000;stroke-width:0.264999"
       d="m 148.7739,171.97916 c 0,0 -1.08435,-0.86748 -2.81933,0.32531 -1.73497,1.19279 -5.74709,1.73498 -5.74709,1.73498 l -3.90369,1.40966 -15.61475,0.32531 -8.24112,-0.86749 -8.34956,-1.5181 -10.952016,-4.01213 c 0,0 -6.939891,-4.77117 -7.265199,-5.53022 -0.325305,-0.75905 -9.650785,-10.95202 -9.650785,-10.95202 l -5.096481,-9.54234 -2.494023,-9.54236 -1.626537,-8.78329 -0.75905,-8.45799 0.216871,-8.13269 -1.084357,-0.54218 -0.216871,-0.86748 c 0,0 0.542178,-1.40967 0,-1.40967 -0.542179,0 -2.710897,0.75905 -2.710897,0.75905 0,0 -0.216871,2.06028 -0.216871,2.60246 0,0.54218 -0.216871,3.0362 -0.216871,3.0362 l -0.867487,2.81933 -2.168716,1.95185 c 0,0 -4.771175,0.21687 -5.313354,0.3253 -0.542179,0.10844 -7.590504,1.62654 -7.590504,1.62654 l -5.421792,3.0362 -2.277149,3.25308 -1.518103,5.42179 -1.626536,5.09648 -1.301229,3.25307 -0.542179,0.10844 h -1.409665 l -1.192795,-0.10844 c 0,0 -0.325308,0.86749 -0.433742,1.73497 -0.108437,0.86749 0.325308,1.95185 0.325308,1.95185 l 1.951844,0.86749 h 2.27715 l 2.277152,-0.43375 1.192795,-1.73497 1.734971,-7.04833 1.626539,-5.53022 3.253073,-2.92777 1.409666,-0.97592 4.879609,-1.62654 11.060451,-0.43374 0.542179,4.66274 0.975921,5.96397 2.710895,8.7833 3.144639,6.50614 5.747096,9.54235 7.265199,8.02425 7.48207,6.28928 9.00017,3.57838 7.156761,2.27715 4.77118,0.97592 0.43374,1.1928 c 0,0 0.10844,1.84341 0.10844,2.38558 0,0.54218 0.97592,0.65062 0.97592,0.65062 l 2.27715,-0.54218 1.08436,-1.62654 0.54218,-2.27715 32.31386,0.21687"
       id="path1" /></g></svg>
