<?xml version="1.0" encoding="UTF-8" standalone="no"?>
<!-- Created with Inkscape (http://www.inkscape.org/) -->

<svg
   width="210mm"
   height="297mm"
   viewBox="0 0 210 297"
   version="1.1"
   id="svg1"
   xml:space="preserve"
   inkscape:version="1.4.2 (ebf0e94, 2025-05-08)"
   sodipodi:docname="WW.29n.svg"
   xmlns:inkscape="http://www.inkscape.org/namespaces/inkscape"
   xmlns:sodipodi="http://sodipodi.sourceforge.net/DTD/sodipodi-0.dtd"
   xmlns:xlink="http://www.w3.org/1999/xlink"
   xmlns="http://www.w3.org/2000/svg"
   xmlns:svg="http://www.w3.org/2000/svg"><sodipodi:namedview
     id="namedview1"
     pagecolor="#ffffff"
     bordercolor="#000000"
     borderopacity="0.25"
     inkscape:showpageshadow="2"
     inkscape:pageopacity="0.0"
     inkscape:pagecheckerboard="0"
     inkscape:deskcolor="#d1d1d1"
     inkscape:document-units="mm"
     showguides="true"
     inkscape:zoom="4.58"
     inkscape:cx="396.72489"
     inkscape:cy="526.41921"
     inkscape:window-width="3840"
     inkscape:window-height="2054"
     inkscape:window-x="-11"
     inkscape:window-y="-11"
     inkscape:window-maximized="1"
     inkscape:current-layer="layer1"><sodipodi:guide
       position="79.047341,193.70602"
       orientation="0,-1"
       id="guide1"
       inkscape:locked="false" /></sodipodi:namedview><defs
     id="defs1" /><g
     inkscape:label="Ebene 1"
     inkscape:groupmode="layer"
     id="layer1"><path
       style="fill:none;stroke:#000000;stroke-width:0.264999"
       d="m 123.16412,178.56486 -8.20324,0.0578 -5.02593,-0.40438 -2.59962,-0.23108 -1.84861,0.0578 -1.73308,0.40438 -0.63546,0.51993 c 0,0 -0.17331,0 -0.69324,0 -0.51992,0 -2.599613,-4.67932 -2.599613,-4.67932 l -2.888464,-8.02992 -1.67531,-5.48809 -1.502002,-6.29685 -1.097616,-5.37254 0.05777,-5.02593 0.173307,-3.75501 c 0,0 0.115538,-4.85262 0.346618,-5.02592 0.231076,-0.17331 2.253001,-6.87455 2.253001,-6.87455 l 1.790848,-6.93231 1.964155,-8.54985 1.213156,-6.29686 1.15539,-3.004 c 0,0 -0.63547,-0.11554 -1.03985,-0.11554 -0.40439,0 -0.40439,-0.23108 -0.577694,0 -0.173308,0.23108 -0.751002,0.98208 -0.751002,0.98208 l -1.328692,4.21716 -0.924309,5.19923 -2.888464,11.0917 -2.48408,9.76302 -0.808771,5.19923 -0.05777,8.78093 0.751001,3.5817 1.73308,6.35462 1.848617,5.60362 3.17731,9.82078 1.848614,4.506 0.86654,1.73308 0.51992,0.34662 0.75101,0.23107 h 2.02192 l 1.27093,-0.98208 4.85262,-0.23107 8.20324,-0.0578 4.62154,-0.34662"
       id="path1" /></g></svg>
