<?xml version="1.0" encoding="UTF-8" standalone="no"?>
<!-- Created with Inkscape (http://www.inkscape.org/) -->

<svg
   width="210mm"
   height="297mm"
   viewBox="0 0 210 297"
   version="1.1"
   id="svg1"
   xml:space="preserve"
   inkscape:version="1.4.2 (ebf0e94, 2025-05-08)"
   sodipodi:docname="WW.23n.svg"
   xmlns:inkscape="http://www.inkscape.org/namespaces/inkscape"
   xmlns:sodipodi="http://sodipodi.sourceforge.net/DTD/sodipodi-0.dtd"
   xmlns:xlink="http://www.w3.org/1999/xlink"
   xmlns="http://www.w3.org/2000/svg"
   xmlns:svg="http://www.w3.org/2000/svg"><sodipodi:namedview
     id="namedview1"
     pagecolor="#ffffff"
     bordercolor="#000000"
     borderopacity="0.25"
     inkscape:showpageshadow="2"
     inkscape:pageopacity="0.0"
     inkscape:pagecheckerboard="0"
     inkscape:deskcolor="#d1d1d1"
     inkscape:document-units="mm"
     showguides="true"
     inkscape:zoom="4.58"
     inkscape:cx="396.72489"
     inkscape:cy="543.88646"
     inkscape:window-width="3840"
     inkscape:window-height="2054"
     inkscape:window-x="-11"
     inkscape:window-y="-11"
     inkscape:window-maximized="1"
     inkscape:current-layer="svg1"><sodipodi:guide
       position="79.047341,193.70602"
       orientation="0,-1"
       id="guide1"
       inkscape:locked="false" /></sodipodi:namedview><defs
     id="defs1" /><path
     style="fill:none;stroke:#000000;stroke-width:0.264999"
     d="m 107.3931,124.03066 -5.54585,-0.46216 -5.488081,-0.751 -4.506005,-1.67531 -3.755003,-1.84862 c 0,0 -3.292848,-2.83069 -3.523925,-3.004 -0.231079,-0.1733 -3.119543,-3.46616 -3.119543,-3.46616 l -2.021925,-3.69723 -0.635463,-1.61754 -0.173307,-0.69323 -0.693232,-0.28885 c 0,0 -0.173308,-0.28884 -0.404384,-0.80877 -0.231077,-0.51992 -0.462153,-1.55977 -0.462153,-1.55977 0,0 -0.231079,-0.23107 -0.577694,-0.34661 -0.346615,-0.11554 -1.444234,-0.17331 -1.444234,-0.17331 h -1.44423 l -1.848618,0.51992 -1.213154,0.80877 0.05777,0.98208 -0.173307,0.46216 c 0,0 -0.519925,-0.0578 -0.751001,0 -0.231079,0.0578 -0.808771,0.1733 -0.808771,0.1733 l -0.346614,0.23108 -0.17331,1.15538 0.404386,0.80878 0.924309,0.11553 1.039847,-0.23107 1.213154,-1.15539 0.519925,-0.63546 1.097616,-0.34662 1.61754,-0.11553 0.635461,0.86654 0.346617,1.32869 0.982078,2.13746 2.484077,3.92831 3.408389,3.5817 3.408387,2.59962 4.217159,2.42631 2.599619,1.03984 1.039846,1.03985 -0.288848,0.98208 -0.866537,1.15538 -0.115541,1.50201 0.05777,0.51992 1.444234,0.40438 0.924309,-0.1733 0.80877,-0.86654 0.577691,-1.38647 0.982081,-1.15538 0.63546,-0.63546 1.502002,-0.11554 6.932313,1.79085"
     id="path1" /></svg>
