<?xml version="1.0" encoding="UTF-8" standalone="no"?>
<!-- Created with Inkscape (http://www.inkscape.org/) -->

<svg
   width="210mm"
   height="297mm"
   viewBox="0 0 210 297"
   version="1.1"
   id="svg1"
   xml:space="preserve"
   inkscape:version="1.4.2 (ebf0e94, 2025-05-08)"
   sodipodi:docname="WW.26n.svg"
   xmlns:inkscape="http://www.inkscape.org/namespaces/inkscape"
   xmlns:sodipodi="http://sodipodi.sourceforge.net/DTD/sodipodi-0.dtd"
   xmlns:xlink="http://www.w3.org/1999/xlink"
   xmlns="http://www.w3.org/2000/svg"
   xmlns:svg="http://www.w3.org/2000/svg"><sodipodi:namedview
     id="namedview1"
     pagecolor="#ffffff"
     bordercolor="#000000"
     borderopacity="0.25"
     inkscape:showpageshadow="2"
     inkscape:pageopacity="0.0"
     inkscape:pagecheckerboard="0"
     inkscape:deskcolor="#d1d1d1"
     inkscape:document-units="mm"
     showguides="true"
     inkscape:zoom="2.44"
     inkscape:cx="396.72131"
     inkscape:cy="604.30328"
     inkscape:window-width="1916"
     inkscape:window-height="2041"
     inkscape:window-x="-9"
     inkscape:window-y="0"
     inkscape:window-maximized="0"
     inkscape:current-layer="svg1"><sodipodi:guide
       position="26.02459,180.10622"
       orientation="0,-1"
       id="guide1"
       inkscape:locked="false" /></sodipodi:namedview><defs
     id="defs1" /><path
     style="fill:none;stroke:#000000;stroke-width:0.264999"
     d="m 125.67708,117.97814 c -0.54218,-0.10844 -11.06045,-0.10844 -11.06045,-0.10844 0,0 -13.3376,-0.43374 -13.87978,-0.43374 -0.54218,0 -9.217042,0.21687 -9.217042,0.21687 l -8.674865,0.21687 -5.530225,1.40967 -3.578381,0.21687 -2.494021,-0.21687 -1.08436,-0.65061 c 0,0 -0.216871,-0.86749 -0.650613,-0.86749 -0.433745,0 -2.710895,0 -2.710895,0 l -0.975923,2.06028 -0.216871,1.84341 1.626536,2.71089 3.686818,0.43375 4.662739,1.5181 3.578381,1.08436 3.36151,1.40966 7.156762,-0.75905 8.674862,-2.06028 11.060448,-0.97592 5.20492,-0.21687 11.06045,-0.10844"
     id="path1" /></svg>
