<?xml version="1.0" encoding="UTF-8" standalone="no"?>
<!-- Created with Inkscape (http://www.inkscape.org/) -->

<svg
   width="210mm"
   height="297mm"
   viewBox="0 0 210 297"
   version="1.1"
   id="svg1"
   xml:space="preserve"
   inkscape:version="1.4.2 (ebf0e94, 2025-05-08)"
   sodipodi:docname="WW.28n.svg"
   xmlns:inkscape="http://www.inkscape.org/namespaces/inkscape"
   xmlns:sodipodi="http://sodipodi.sourceforge.net/DTD/sodipodi-0.dtd"
   xmlns:xlink="http://www.w3.org/1999/xlink"
   xmlns="http://www.w3.org/2000/svg"
   xmlns:svg="http://www.w3.org/2000/svg"><sodipodi:namedview
     id="namedview1"
     pagecolor="#ffffff"
     bordercolor="#000000"
     borderopacity="0.25"
     inkscape:showpageshadow="2"
     inkscape:pageopacity="0.0"
     inkscape:pagecheckerboard="0"
     inkscape:deskcolor="#d1d1d1"
     inkscape:document-units="mm"
     showguides="true"
     inkscape:zoom="2.44"
     inkscape:cx="396.72131"
     inkscape:cy="604.30328"
     inkscape:window-width="1916"
     inkscape:window-height="2041"
     inkscape:window-x="-9"
     inkscape:window-y="0"
     inkscape:window-maximized="0"
     inkscape:current-layer="svg1"><sodipodi:guide
       position="26.02459,180.10622"
       orientation="0,-1"
       id="guide1"
       inkscape:locked="false" /></sodipodi:namedview><defs
     id="defs1" /><path
     style="fill:none;stroke:#000000;stroke-width:0.264999"
     d="m 157.99095,152.13541 -4.98805,0.97593 h -7.2652 l -8.45799,0.54217 -15.50632,-0.10843 -4.22899,-0.43374 -8.02425,-1.5181 -8.7833,-1.51811 -6.506148,-1.40966 -4.012123,-1.95184 -2.494023,-1.95185 -3.253074,-3.14464 -3.253075,-5.09648 -2.819329,-3.79525 -1.518102,-1.40967 -0.867487,-2.49402 -6.397712,-3.36151 -6.723018,-1.95184 -5.747096,-1.73498 c 0,0 -4.662739,-1.19279 -5.096484,-1.19279 -0.433742,0 -2.494023,-0.43374 -2.494023,-0.43374 l -1.301229,-1.84341 c 0,0 -0.867487,-0.86749 -1.409665,-0.86749 -0.542179,0 -2.819332,0 -2.819332,0 l -2.710894,0.97592 -1.192794,1.30123 -0.542179,2.16872 0.759052,2.49402 2.385587,1.30123 4.337431,1.08436 23.205259,4.77118 c 0,0 1.518103,0.10843 1.518103,0.54217 0,0.43375 0.650613,3.03621 0.650613,3.03621 l 11.494193,13.77134 3.253076,1.73497 4.12056,0.97593 4.12056,0.54217 c 0,0 0.975921,-0.65061 0.975921,0.10844 0,0.75905 0.433744,2.38559 0.433744,2.38559 v 1.84341 l 0.433742,0.75905 1.192795,1.19279 2.710891,1.40967 2.38559,-0.86749 2.49402,-2.81933 2.38559,0.10843 16.59068,1.62654 11.06045,0.21687 14.96414,-0.54218 7.80737,-1.40966"
     id="path1" /></svg>
