<?xml version="1.0" encoding="UTF-8" standalone="no"?>
<!-- Created with Inkscape (http://www.inkscape.org/) -->

<svg
   width="210mm"
   height="297mm"
   viewBox="0 0 210 297"
   version="1.1"
   id="svg1"
   xml:space="preserve"
   inkscape:version="1.4.2 (ebf0e94, 2025-05-08)"
   sodipodi:docname="WW.25n.svg"
   xmlns:inkscape="http://www.inkscape.org/namespaces/inkscape"
   xmlns:sodipodi="http://sodipodi.sourceforge.net/DTD/sodipodi-0.dtd"
   xmlns:xlink="http://www.w3.org/1999/xlink"
   xmlns="http://www.w3.org/2000/svg"
   xmlns:svg="http://www.w3.org/2000/svg"><sodipodi:namedview
     id="namedview1"
     pagecolor="#ffffff"
     bordercolor="#000000"
     borderopacity="0.25"
     inkscape:showpageshadow="2"
     inkscape:pageopacity="0.0"
     inkscape:pagecheckerboard="0"
     inkscape:deskcolor="#d1d1d1"
     inkscape:document-units="mm"
     showguides="true"
     inkscape:zoom="4.58"
     inkscape:cx="396.72489"
     inkscape:cy="543.66812"
     inkscape:window-width="3840"
     inkscape:window-height="2054"
     inkscape:window-x="-11"
     inkscape:window-y="-11"
     inkscape:window-maximized="1"
     inkscape:current-layer="svg1"><sodipodi:guide
       position="79.047341,193.70602"
       orientation="0,-1"
       id="guide1"
       inkscape:locked="false" /></sodipodi:namedview><defs
     id="defs1" /><path
     style="fill:none;stroke:#000000;stroke-width:0.264999"
     d="m 121.37327,133.50482 -7.04785,0.11554 -5.14147,-0.17331 -2.94623,0.0578 -0.86654,-0.57769 -0.23108,-0.63546 -0.28885,-0.40439 h -2.253 l -3.061771,-0.28885 -4.621543,-2.02192 -5.950236,-2.59962 -4.274926,-2.77293 -4.506005,-4.10161 -3.928311,-4.10162 -2.368542,-3.81278 -1.039847,-2.36854 -0.577693,-2.13746 v -1.502 l -0.404384,-1.61754 -1.444231,-0.23108 c 0,0 -0.288848,-0.28885 -0.577694,-0.46215 -0.288846,-0.17331 -0.924309,-0.40439 -0.924309,-0.40439 0,0 -0.288845,0 -0.519924,0 -0.231077,0 -0.635461,0.17331 -0.635461,0.17331 l -0.231079,0.57769 v 0.80877 l 0.635463,0.63546 0.693232,0.40439 0.05777,1.27092 1.906387,3.23508 1.790848,3.40839 2.599618,3.81278 3.292848,4.04384 3.292851,3.23508 3.581694,2.54185 5.199237,3.40839 4.274926,1.90639 4.043852,1.27092 4.15939,1.61754 0.98207,0.28885 0.0578,0.80877 0.80877,0.57769 5.54586,-0.17331 1.03984,-0.92431 1.79085,-0.51992 8.20324,0.11554"
     id="path1" /></svg>
