<?xml version="1.0" encoding="UTF-8" standalone="no"?>
<!-- Created with Inkscape (http://www.inkscape.org/) -->

<svg
   width="210mm"
   height="297mm"
   viewBox="0 0 210 297"
   version="1.1"
   id="svg1"
   xml:space="preserve"
   inkscape:version="1.4.2 (ebf0e94, 2025-05-08)"
   sodipodi:docname="WW.27n.svg"
   xmlns:inkscape="http://www.inkscape.org/namespaces/inkscape"
   xmlns:sodipodi="http://sodipodi.sourceforge.net/DTD/sodipodi-0.dtd"
   xmlns:xlink="http://www.w3.org/1999/xlink"
   xmlns="http://www.w3.org/2000/svg"
   xmlns:svg="http://www.w3.org/2000/svg"><sodipodi:namedview
     id="namedview1"
     pagecolor="#ffffff"
     bordercolor="#000000"
     borderopacity="0.25"
     inkscape:showpageshadow="2"
     inkscape:pageopacity="0.0"
     inkscape:pagecheckerboard="0"
     inkscape:deskcolor="#d1d1d1"
     inkscape:document-units="mm"
     showguides="true"
     inkscape:zoom="2.44"
     inkscape:cx="396.72131"
     inkscape:cy="604.30328"
     inkscape:window-width="1916"
     inkscape:window-height="2041"
     inkscape:window-x="-9"
     inkscape:window-y="0"
     inkscape:window-maximized="0"
     inkscape:current-layer="svg1"><sodipodi:guide
       position="26.02459,180.10622"
       orientation="0,-1"
       id="guide1"
       inkscape:locked="false" /></sodipodi:namedview><defs
     id="defs1" /><path
     style="fill:none;stroke:#000000;stroke-width:0.264999"
     d="m 138.03876,147.90642 h -21.90403 c 0,0 -10.3014,-0.86749 -10.84358,-0.86749 -0.54218,0 -8.674861,-1.19279 -8.674861,-1.19279 l -8.24112,-1.62654 -4.662739,-1.62653 -3.578381,-2.27716 -2.385587,-1.8434 -2.060281,-2.27716 -1.192792,-1.95184 -0.975923,-2.92777 -0.108435,-3.79525 -0.108436,-5.09648 -0.108437,-1.84341 -1.951842,-1.62654 -3.795255,-0.75905 -4.445868,0.43375 -1.084357,-0.86749 -1.409666,-0.21687 h -1.301229 l -0.759049,1.62654 0.433742,1.40966 2.168715,0.75905 5.20492,1.08436 2.168716,0.21687 c 0,0 1.301229,0.97592 1.301229,1.73497 0,0.75905 -0.108437,2.92777 -0.108437,3.46995 0,0.54218 0.108437,5.20491 0.108437,5.20491 l 0.759049,2.92777 2.060282,3.46995 2.602457,2.38558 2.60246,2.06028 4.554302,2.27716 4.771176,1.5181 6.831454,1.08435 6.723016,0.97593 4.55431,0.3253 2.81933,0.65062 1.62653,0.32531 0.86749,0.75905 c 0,0 0.10844,0.65061 0.10844,1.19279 0,0.54218 -0.86749,2.06028 -0.86749,2.06028 l -0.43374,1.5181 2.06028,0.32531 h 1.40966 l 2.81933,-2.60246 3.14464,-2.49402 2.71089,-1.40967 16.37381,1.08436"
     id="path1" /></svg>
