<?xml version="1.0" encoding="UTF-8" standalone="no"?>
<!-- Created with Inkscape (http://www.inkscape.org/) -->

<svg
   width="210mm"
   height="297mm"
   viewBox="0 0 210 297"
   version="1.1"
   id="svg1"
   xml:space="preserve"
   inkscape:version="1.4.2 (ebf0e94, 2025-05-08)"
   sodipodi:docname="WW.31n.svg"
   xmlns:inkscape="http://www.inkscape.org/namespaces/inkscape"
   xmlns:sodipodi="http://sodipodi.sourceforge.net/DTD/sodipodi-0.dtd"
   xmlns:xlink="http://www.w3.org/1999/xlink"
   xmlns="http://www.w3.org/2000/svg"
   xmlns:svg="http://www.w3.org/2000/svg"><sodipodi:namedview
     id="namedview1"
     pagecolor="#ffffff"
     bordercolor="#000000"
     borderopacity="0.25"
     inkscape:showpageshadow="2"
     inkscape:pageopacity="0.0"
     inkscape:pagecheckerboard="0"
     inkscape:deskcolor="#d1d1d1"
     inkscape:document-units="mm"
     showguides="true"
     inkscape:zoom="2.44"
     inkscape:cx="396.72131"
     inkscape:cy="604.30328"
     inkscape:window-width="1916"
     inkscape:window-height="2041"
     inkscape:window-x="-9"
     inkscape:window-y="0"
     inkscape:window-maximized="0"
     inkscape:current-layer="svg1"><sodipodi:guide
       position="26.02459,180.10622"
       orientation="0,-1"
       id="guide1"
       inkscape:locked="false" /></sodipodi:namedview><defs
     id="defs1" /><path
     style="fill:none;stroke:#000000;stroke-width:0.264999"
     d="m 160.70184,144.00273 h -15.61475 -13.12073 l -14.85571,-0.10844 -16.59067,0.32531 -12.903861,0.10844 h -6.614583 l -4.771176,-1.08436 -1.409663,-0.86749 -3.36151,-2.27715 -1.518102,-2.71089 -2.060279,-3.0362 -1.626537,-4.77118 -2.60246,-4.87961 -2.277152,-3.46995 -2.710894,-1.40966 -3.361511,-1.84341 -3.795252,-0.54218 -4.879609,0.43374 -2.277153,2.06029 -0.216871,1.30122 0.75905,1.51811 1.843408,1.19279 3.036202,0.54218 3.036202,-0.43374 1.84341,-0.21688 3.686816,1.08436 1.409665,1.40967 0.975924,1.95184 1.734971,4.44587 2.277152,6.50615 1.518102,4.22899 2.060279,1.40967 3.036202,1.40966 3.578381,1.40967 3.036202,0.65061 1.301229,0.97592 0.325308,1.51811 v 1.73497 h 1.409666 l 2.385586,-0.32531 0.433745,-1.73497 0.650615,-1.5181 3.253074,-0.21688 73.085724,0.32531"
     id="path1" /></svg>
