<?xml version="1.0" encoding="UTF-8" standalone="no"?>
<!-- Created with Inkscape (http://www.inkscape.org/) -->

<svg
   width="210mm"
   height="297mm"
   viewBox="0 0 210 297"
   version="1.1"
   id="svg1"
   xml:space="preserve"
   inkscape:version="1.4.2 (ebf0e94, 2025-05-08)"
   sodipodi:docname="WW.30n.svg"
   xmlns:inkscape="http://www.inkscape.org/namespaces/inkscape"
   xmlns:sodipodi="http://sodipodi.sourceforge.net/DTD/sodipodi-0.dtd"
   xmlns:xlink="http://www.w3.org/1999/xlink"
   xmlns="http://www.w3.org/2000/svg"
   xmlns:svg="http://www.w3.org/2000/svg"><sodipodi:namedview
     id="namedview1"
     pagecolor="#ffffff"
     bordercolor="#000000"
     borderopacity="0.25"
     inkscape:showpageshadow="2"
     inkscape:pageopacity="0.0"
     inkscape:pagecheckerboard="0"
     inkscape:deskcolor="#d1d1d1"
     inkscape:document-units="mm"
     showguides="true"
     inkscape:zoom="4.58"
     inkscape:cx="396.72489"
     inkscape:cy="543.66812"
     inkscape:window-width="3840"
     inkscape:window-height="2054"
     inkscape:window-x="-11"
     inkscape:window-y="-11"
     inkscape:window-maximized="1"
     inkscape:current-layer="svg1"><sodipodi:guide
       position="79.047341,193.70602"
       orientation="0,-1"
       id="guide1"
       inkscape:locked="false" /></sodipodi:namedview><defs
     id="defs1" /><path
     style="fill:none;stroke:#000000;stroke-width:0.264999"
     d="m 128.99882,134.02474 c 0,0 -3.81278,-0.34661 -4.21716,-0.34661 -0.40439,0 -4.91039,-0.57769 -4.91039,-0.57769 l -6.5857,-1.50201 -8.49208,-3.40838 c 0,0 -5.430318,-4.04386 -5.661395,-4.04386 -0.231076,0 -3.812773,-3.35061 -3.812773,-3.35061 l -4.043849,-4.56378 -2.541849,-4.44823 -1.733079,-3.46616 -1.502003,-3.29285 -0.462153,-1.03985 c 0,0 -0.346615,-0.57769 -0.693232,-0.57769 -0.346615,0 -0.404384,0 -0.86654,0 -0.462153,0 -1.964155,1.3287 -1.964155,1.3287 l -1.039847,1.84861 -0.924309,2.65739 -0.404383,2.94623 0.751001,1.38647 1.386461,0.51992 1.328693,-0.17331 v -1.84861 l 0.231079,-1.96416 -0.05777,-1.44423 0.866539,-0.28885 0.635461,1.38646 1.559771,3.87054 1.964156,3.23509 4.448236,4.79485 5.025927,4.85262 4.332703,3.46615 5.37254,3.69724 3.52392,2.07969 c 0,0 0.23108,0 0.40439,0.40439 0.17331,0.40438 0.11554,1.21315 0.11554,1.21315 0,0 -0.40439,0.46216 -0.34662,0.80877 0.0578,0.34662 0.98208,0.92431 0.98208,0.92431 l 4.04385,-0.23108 0.69323,-0.63546 2.07969,0.28885 c 0,0 2.25301,0.751 2.77293,0.80877 0.51993,0.0578 7.68332,-0.11554 7.68332,-0.11554"
     id="path1" /></svg>
