<?xml version="1.0" encoding="UTF-8" standalone="no"?>
<!-- Created with Inkscape (http://www.inkscape.org/) -->

<svg
   width="210mm"
   height="297mm"
   viewBox="0 0 210 297"
   version="1.1"
   id="svg1"
   xml:space="preserve"
   inkscape:version="1.4.2 (ebf0e94, 2025-05-08)"
   sodipodi:docname="WW.3.svg"
   xmlns:inkscape="http://www.inkscape.org/namespaces/inkscape"
   xmlns:sodipodi="http://sodipodi.sourceforge.net/DTD/sodipodi-0.dtd"
   xmlns:xlink="http://www.w3.org/1999/xlink"
   xmlns="http://www.w3.org/2000/svg"
   xmlns:svg="http://www.w3.org/2000/svg"><sodipodi:namedview
     id="namedview1"
     pagecolor="#ffffff"
     bordercolor="#000000"
     borderopacity="0.25"
     inkscape:showpageshadow="2"
     inkscape:pageopacity="0.0"
     inkscape:pagecheckerboard="0"
     inkscape:deskcolor="#d1d1d1"
     inkscape:document-units="mm"
     showguides="true"
     inkscape:zoom="2.13"
     inkscape:cx="396.71362"
     inkscape:cy="604.22535"
     inkscape:window-width="1916"
     inkscape:window-height="2041"
     inkscape:window-x="-9"
     inkscape:window-y="0"
     inkscape:window-maximized="0"
     inkscape:current-layer="svg1"><sodipodi:guide
       position="26.02459,180.10622"
       orientation="0,-1"
       id="guide1"
       inkscape:locked="false" /></sodipodi:namedview><defs
     id="defs1" /><path
     style="fill:none;stroke:#000000;stroke-width:0.264999"
     d="M 206.44953,124.59018 25.216158,123.96909 c 0,0 -0.372653,-0.86952 -0.99374,-1.24217 -0.621088,-0.37266 -3.850744,-0.37266 -3.850744,-0.37266 h -3.229656 l -1.242175,-0.12421 -1.614828,-3.10544 -1.117957,-1.49061 c 0,0 -2.111698,-1.3664 -2.732786,-1.11796 -0.6210874,0.24843 -2.6085678,1.24217 -2.6085678,1.24217 l -1.863263,1.24218 -1.7390454,1.61483 -0.7453051,2.60857 0.9937401,3.22965 1.366393,0.49687 1.9874804,1.86326 4.2233958,0.99374 1.863263,-1.11795 1.863263,0.12421 h 1.98748 l 2.235916,-0.7453 1.863263,2.1117 3.47809,-0.24844 25.713029,-0.37265 1.49061,0.7453 0.99374,0.24844 153.532866,0.99374"
     id="path1" /></svg>
