<?xml version="1.0" encoding="UTF-8" standalone="no"?>
<!-- Created with Inkscape (http://www.inkscape.org/) -->

<svg
   width="210mm"
   height="297mm"
   viewBox="0 0 210 297"
   version="1.1"
   id="svg1"
   xml:space="preserve"
   inkscape:version="1.4.2 (ebf0e94, 2025-05-08)"
   sodipodi:docname="WW.32n.svg"
   xmlns:inkscape="http://www.inkscape.org/namespaces/inkscape"
   xmlns:sodipodi="http://sodipodi.sourceforge.net/DTD/sodipodi-0.dtd"
   xmlns:xlink="http://www.w3.org/1999/xlink"
   xmlns="http://www.w3.org/2000/svg"
   xmlns:svg="http://www.w3.org/2000/svg"><sodipodi:namedview
     id="namedview1"
     pagecolor="#ffffff"
     bordercolor="#000000"
     borderopacity="0.25"
     inkscape:showpageshadow="2"
     inkscape:pageopacity="0.0"
     inkscape:pagecheckerboard="0"
     inkscape:deskcolor="#d1d1d1"
     inkscape:document-units="mm"
     showguides="true"
     inkscape:zoom="4.58"
     inkscape:cx="396.72489"
     inkscape:cy="578.82096"
     inkscape:window-width="3840"
     inkscape:window-height="2054"
     inkscape:window-x="-11"
     inkscape:window-y="-11"
     inkscape:window-maximized="1"
     inkscape:current-layer="layer1"><sodipodi:guide
       position="79.047341,193.70602"
       orientation="0,-1"
       id="guide1"
       inkscape:locked="false" /></sodipodi:namedview><defs
     id="defs1" /><g
     inkscape:label="Ebene 1"
     inkscape:groupmode="layer"
     id="layer1"><path
       style="fill:none;stroke:#000000;stroke-width:0.264999"
       d="m 117.38719,193.58488 -13.80686,-0.17331 -3.52393,-0.0578 -2.195228,-0.0578 -2.021928,0.28885 -1.964155,0.69323 c 0,0 -0.63546,0.0578 -1.097616,0.11554 -0.462153,0.0578 -1.213154,-0.23108 -1.213154,-0.23108 l -3.581697,-9.35862 -2.888464,-10.10963 -2.426311,-8.49208 -0.866537,-5.19924 -0.05777,-8.78093 0.115538,-13.1714 c 0,0 0.69323,-3.98608 0.808768,-4.79485 0.115541,-0.80877 1.964158,-6.41239 1.964158,-6.41239 l 2.541847,-7.3367 2.772926,-5.8347 2.195235,-5.43031 0.115538,-2.36854 0.404384,-1.32869 0.346614,-0.69324 v -0.63546 l -0.462153,-0.40438 c 0,0 -0.80877,0 -1.039847,0 -0.231076,0 -0.80877,0.11554 -1.039846,0.23107 -0.23108,0.11554 -0.982078,0.75101 -0.982078,0.75101 0,0 -0.346618,0.86653 -0.346618,1.09761 0,0.23108 0.288849,0.92431 0.288849,0.92431 l 0.115538,0.98208 -1.213157,1.84861 -2.31077,5.89247 c 0,0 -2.195232,5.95024 -2.426311,6.18132 -0.231077,0.23107 -2.772924,7.62554 -2.772924,7.62554 l -1.039849,6.70124 -0.924309,4.27492 -0.115538,11.14948 -0.05777,9.82078 1.906386,7.85662 2.715157,7.97216 3.466158,10.80286 2.021925,5.257 c 0,0 0.866539,-0.40438 0.80877,0.34662 -0.05777,0.751 0.404384,1.44423 0.115538,2.13746 -0.288845,0.69323 0.86654,1.27092 0.86654,1.27092 l 1.444231,0.80878 2.195234,-0.0578 c 0,0 1.386462,-1.15539 1.328693,-1.38647 -0.05777,-0.23107 0.924308,-0.69323 0.924308,-0.69323 l 10.571785,-0.23107 10.57178,-0.40439"
       id="path1" /></g></svg>
