<?xml version="1.0" encoding="UTF-8" standalone="no"?>
<!-- Created with Inkscape (http://www.inkscape.org/) -->

<svg
   width="210mm"
   height="297mm"
   viewBox="0 0 210 297"
   version="1.1"
   id="svg1"
   xml:space="preserve"
   inkscape:version="1.4.2 (ebf0e94, 2025-05-08)"
   sodipodi:docname="WW.33n.svg"
   xmlns:inkscape="http://www.inkscape.org/namespaces/inkscape"
   xmlns:sodipodi="http://sodipodi.sourceforge.net/DTD/sodipodi-0.dtd"
   xmlns:xlink="http://www.w3.org/1999/xlink"
   xmlns="http://www.w3.org/2000/svg"
   xmlns:svg="http://www.w3.org/2000/svg"><sodipodi:namedview
     id="namedview1"
     pagecolor="#ffffff"
     bordercolor="#000000"
     borderopacity="0.25"
     inkscape:showpageshadow="2"
     inkscape:pageopacity="0.0"
     inkscape:pagecheckerboard="0"
     inkscape:deskcolor="#d1d1d1"
     inkscape:document-units="mm"
     showguides="true"
     inkscape:zoom="2.44"
     inkscape:cx="396.72131"
     inkscape:cy="604.30328"
     inkscape:window-width="1916"
     inkscape:window-height="2041"
     inkscape:window-x="-9"
     inkscape:window-y="0"
     inkscape:window-maximized="0"
     inkscape:current-layer="svg1"><sodipodi:guide
       position="26.02459,180.10622"
       orientation="0,-1"
       id="guide1"
       inkscape:locked="false" /></sodipodi:namedview><defs
     id="defs1" /><path
     style="fill:none;stroke:#000000;stroke-width:0.264999"
     d="m 175.88285,157.34033 -5.63866,-0.32531 h -5.96397 l -8.24112,0.75906 -10.95201,0.10843 -12.03638,1.08436 h -7.04832 L 119.38781,158.75 c 0,0 -1.95185,-0.75905 -2.38559,-0.75905 -0.43374,0 -7.80738,-2.81933 -7.80738,-2.81933 l -11.927936,-6.83146 -11.711064,-8.34955 -8.024249,-6.9399 -6.831457,-6.61458 -4.771173,-4.66274 -3.144639,-2.49402 -3.144636,-2.81933 c 0,0 -1.951844,0.10844 -2.927768,0.21687 -0.975921,0.10844 -6.723017,0.32531 -6.723017,0.32531 l -4.879613,2.38559 -1.626536,1.73497 -0.433742,2.06028 1.192791,1.5181 1.734974,0.86748 2.385589,0.10844 3.578381,-2.38558 4.445865,-1.51811 h 2.710897 l 1.843408,0.75905 1.301229,1.73498 2.60246,2.92776 4.988046,4.87961 4.012123,5.20492 5.204918,4.229 6.72302,5.74709 7.915812,5.42179 7.807377,4.229 8.56643,4.33743 3.25307,0.43374 -0.10843,2.38559 1.19279,1.62654 4.98805,0.43374 2.49402,-1.30123 4.98805,-0.43374 c 0,0 14.74726,-1.08436 14.74726,-0.65062 0,0.43375 20.16906,-0.75905 20.16906,-0.75905 l 14.20509,-0.21687"
     id="path1" /></svg>
