<?xml version="1.0" encoding="UTF-8" standalone="no"?>
<!-- Created with Inkscape (http://www.inkscape.org/) -->

<svg
   width="210mm"
   height="297mm"
   viewBox="0 0 210 297"
   version="1.1"
   id="svg1"
   xml:space="preserve"
   inkscape:version="1.4.2 (ebf0e94, 2025-05-08)"
   sodipodi:docname="WW.5.svg"
   xmlns:inkscape="http://www.inkscape.org/namespaces/inkscape"
   xmlns:sodipodi="http://sodipodi.sourceforge.net/DTD/sodipodi-0.dtd"
   xmlns:xlink="http://www.w3.org/1999/xlink"
   xmlns="http://www.w3.org/2000/svg"
   xmlns:svg="http://www.w3.org/2000/svg"><sodipodi:namedview
     id="namedview1"
     pagecolor="#ffffff"
     bordercolor="#000000"
     borderopacity="0.25"
     inkscape:showpageshadow="2"
     inkscape:pageopacity="0.0"
     inkscape:pagecheckerboard="0"
     inkscape:deskcolor="#d1d1d1"
     inkscape:document-units="mm"
     showguides="true"
     inkscape:zoom="2.44"
     inkscape:cx="396.92623"
     inkscape:cy="561.27049"
     inkscape:window-width="1916"
     inkscape:window-height="2041"
     inkscape:window-x="-9"
     inkscape:window-y="0"
     inkscape:window-maximized="0"
     inkscape:current-layer="layer1"><sodipodi:guide
       position="80.35092,192.68477"
       orientation="0,-1"
       id="guide1"
       inkscape:locked="false" /></sodipodi:namedview><defs
     id="defs1" /><g
     inkscape:label="Ebene 1"
     inkscape:groupmode="layer"
     id="layer1"><path
       style="fill:none;stroke:#000000;stroke-width:0.264999"
       d="m 139.77373,160.48497 -4.12055,0.65061 -5.20492,1.1928 -14.09666,-0.65062 -9.1086,-2.60245 -11.819503,-3.79526 -10.08453,-5.96397 -6.072405,-7.15676 -4.662739,-7.69894 -2.060278,-8.24112 -1.843411,-7.15676 0.108437,-3.57838 1.192795,-1.73498 2.385586,-3.90368 -0.108436,-3.36151 v -1.5181 l -2.060279,0.3253 -0.975921,1.40967 -0.975924,2.71089 -1.084357,2.06028 -4.662739,-0.10843 -5.204918,1.30123 -4.337431,2.49402 -0.108437,1.08436 0.216871,1.40966 1.626537,0.32531 4.228997,-0.65061 h 2.819331 l 1.951844,-0.10844 1.084358,6.07241 4.228994,11.49419 2.927768,6.28927 2.710895,4.55431 6.289275,6.0724 8.783299,6.18084 7.698941,3.46995 8.7833,3.25307 5.09648,0.54218 c 0,0 0.32531,1.19279 0.21687,1.73497 -0.10843,0.54218 -0.21687,0.97592 -0.21687,0.97592 l -1.19279,2.06028 0.21687,1.51811 2.38559,0.97592 1.95184,-0.43375 2.81933,-2.27715 0.54218,-1.62653 10.51827,-0.75905 c 0,0 3.57838,-0.75905 4.01213,-1.08436 0.43374,-0.32531 1.73497,-0.86749 1.73497,-0.86749 l 2.27715,-0.54218 h 0.75905"
       id="path1" /></g></svg>
